<svg xmlns="http://www.w3.org/2000/svg" xmlns:xlink="http://www.w3.org/1999/xlink" contentStyleType="text/css" data-diagram-type="CLASS" height="322px" preserveAspectRatio="none" style="width:6197px;height:322px;background:#FFFFFF;" version="1.1" viewBox="0 0 6197 322" width="6197px" zoomAndPan="magnify"><defs/><g><!--entity Feature_User--><g id="elem_Feature_User"><ellipse cx="3105.6685" cy="14" fill="#F1F1F1" rx="8" ry="8" style="stroke:#181818;stroke-width:0.5;"/><path d="M3105.6685,22 L3105.6685,49 M3092.6685,30 L3118.6685,30 M3105.6685,49 L3092.6685,64 M3105.6685,49 L3118.6685,64 " fill="transparent" style="stroke:#181818;stroke-width:0.5;"/><text fill="#000000" font-family="sans-serif" font-size="14" lengthAdjust="spacing" textLength="90.3369" x="3060.5" y="78.4951">Feature User</text></g><!--class comp_arc_sta__baselibs__concurrency--><g id="elem_comp_arc_sta__baselibs__concurrency"><rect fill="#F1F1F1" height="40" id="comp_arc_sta__baselibs__concurrency" rx="2.5" ry="2.5" style="stroke:#181818;stroke-width:0.5;" width="300.2012" x="3400.5" y="275.5"/><ellipse cx="3415.5" cy="291.5" fill="#ADD1B2" rx="11" ry="11" style="stroke:#181818;stroke-width:1;"/><path d="M3418.4688,297.1406 Q3417.8906,297.4375 3417.25,297.5781 Q3416.6094,297.7344 3415.9063,297.7344 Q3413.4063,297.7344 3412.0781,296.0938 Q3410.7656,294.4375 3410.7656,291.3125 Q3410.7656,288.1875 3412.0781,286.5313 Q3413.4063,284.875 3415.9063,284.875 Q3416.6094,284.875 3417.25,285.0313 Q3417.9063,285.1875 3418.4688,285.4844 L3418.4688,288.2031 Q3417.8438,287.625 3417.25,287.3594 Q3416.6563,287.0781 3416.0313,287.0781 Q3414.6875,287.0781 3414,288.1563 Q3413.3125,289.2188 3413.3125,291.3125 Q3413.3125,293.4063 3414,294.4844 Q3414.6875,295.5469 3416.0313,295.5469 Q3416.6563,295.5469 3417.25,295.2813 Q3417.8438,295 3418.4688,294.4219 L3418.4688,297.1406 Z " fill="#000000"/><text fill="#000000" font-family="sans-serif" font-size="14" lengthAdjust="spacing" textLength="268.2012" x="3429.5" y="296.3467">comp_arc_sta__baselibs__concurrency</text><line style="stroke:#181818;stroke-width:0.5;" x1="3401.5" x2="3699.7012" y1="307.5" y2="307.5"/></g><!--class logic_arc_int__baselibs__shared_future--><g id="elem_logic_arc_int__baselibs__shared_future"><rect fill="#F1F1F1" height="40" id="logic_arc_int__baselibs__shared_future" rx="2.5" ry="2.5" style="stroke:#181818;stroke-width:0.5;" width="302.0811" x="2319.5" y="158.5"/><ellipse cx="2334.5" cy="174.5" fill="#ADD1B2" rx="11" ry="11" style="stroke:#181818;stroke-width:1;"/><path d="M2337.4688,180.1406 Q2336.8906,180.4375 2336.25,180.5781 Q2335.6094,180.7344 2334.9063,180.7344 Q2332.4063,180.7344 2331.0781,179.0938 Q2329.7656,177.4375 2329.7656,174.3125 Q2329.7656,171.1875 2331.0781,169.5313 Q2332.4063,167.875 2334.9063,167.875 Q2335.6094,167.875 2336.25,168.0313 Q2336.9063,168.1875 2337.4688,168.4844 L2337.4688,171.2031 Q2336.8438,170.625 2336.25,170.3594 Q2335.6563,170.0781 2335.0313,170.0781 Q2333.6875,170.0781 2333,171.1563 Q2332.3125,172.2188 2332.3125,174.3125 Q2332.3125,176.4063 2333,177.4844 Q2333.6875,178.5469 2335.0313,178.5469 Q2335.6563,178.5469 2336.25,178.2813 Q2336.8438,178 2337.4688,177.4219 L2337.4688,180.1406 Z " fill="#000000"/><text fill="#000000" font-family="sans-serif" font-size="14" lengthAdjust="spacing" textLength="270.0811" x="2348.5" y="179.3467">logic_arc_int__baselibs__shared_future</text><line style="stroke:#181818;stroke-width:0.5;" x1="2320.5" x2="2620.5811" y1="190.5" y2="190.5"/></g><!--class logic_arc_int__baselibs__json--><g id="elem_logic_arc_int__baselibs__json"><rect fill="#F1F1F1" height="40" id="logic_arc_int__baselibs__json" rx="2.5" ry="2.5" style="stroke:#181818;stroke-width:0.5;" width="233.168" x="652" y="158.5"/><ellipse cx="667" cy="174.5" fill="#ADD1B2" rx="11" ry="11" style="stroke:#181818;stroke-width:1;"/><path d="M669.9688,180.1406 Q669.3906,180.4375 668.75,180.5781 Q668.1094,180.7344 667.4063,180.7344 Q664.9063,180.7344 663.5781,179.0938 Q662.2656,177.4375 662.2656,174.3125 Q662.2656,171.1875 663.5781,169.5313 Q664.9063,167.875 667.4063,167.875 Q668.1094,167.875 668.75,168.0313 Q669.4063,168.1875 669.9688,168.4844 L669.9688,171.2031 Q669.3438,170.625 668.75,170.3594 Q668.1563,170.0781 667.5313,170.0781 Q666.1875,170.0781 665.5,171.1563 Q664.8125,172.2188 664.8125,174.3125 Q664.8125,176.4063 665.5,177.4844 Q666.1875,178.5469 667.5313,178.5469 Q668.1563,178.5469 668.75,178.2813 Q669.3438,178 669.9688,177.4219 L669.9688,180.1406 Z " fill="#000000"/><text fill="#000000" font-family="sans-serif" font-size="14" lengthAdjust="spacing" textLength="201.168" x="681" y="179.3467">logic_arc_int__baselibs__json</text><line style="stroke:#181818;stroke-width:0.5;" x1="653" x2="884.168" y1="190.5" y2="190.5"/></g><!--class comp_arc_sta__baselibs__utils--><g id="elem_comp_arc_sta__baselibs__utils"><rect fill="#F1F1F1" height="40" id="comp_arc_sta__baselibs__utils" rx="2.5" ry="2.5" style="stroke:#181818;stroke-width:0.5;" width="242.9502" x="5753" y="275.5"/><ellipse cx="5768" cy="291.5" fill="#ADD1B2" rx="11" ry="11" style="stroke:#181818;stroke-width:1;"/><path d="M5770.9688,297.1406 Q5770.3906,297.4375 5769.75,297.5781 Q5769.1094,297.7344 5768.4063,297.7344 Q5765.9063,297.7344 5764.5781,296.0938 Q5763.2656,294.4375 5763.2656,291.3125 Q5763.2656,288.1875 5764.5781,286.5313 Q5765.9063,284.875 5768.4063,284.875 Q5769.1094,284.875 5769.75,285.0313 Q5770.4063,285.1875 5770.9688,285.4844 L5770.9688,288.2031 Q5770.3438,287.625 5769.75,287.3594 Q5769.1563,287.0781 5768.5313,287.0781 Q5767.1875,287.0781 5766.5,288.1563 Q5765.8125,289.2188 5765.8125,291.3125 Q5765.8125,293.4063 5766.5,294.4844 Q5767.1875,295.5469 5768.5313,295.5469 Q5769.1563,295.5469 5769.75,295.2813 Q5770.3438,295 5770.9688,294.4219 L5770.9688,297.1406 Z " fill="#000000"/><text fill="#000000" font-family="sans-serif" font-size="14" lengthAdjust="spacing" textLength="210.9502" x="5782" y="296.3467">comp_arc_sta__baselibs__utils</text><line style="stroke:#181818;stroke-width:0.5;" x1="5754" x2="5994.9502" y1="307.5" y2="307.5"/></g><!--class logic_arc_int__baselibs__utils_scoped_op--><g id="elem_logic_arc_int__baselibs__utils_scoped_op"><rect fill="#F1F1F1" height="40" id="logic_arc_int__baselibs__utils_scoped_op" rx="2.5" ry="2.5" style="stroke:#181818;stroke-width:0.5;" width="315.377" x="5548" y="158.5"/><ellipse cx="5563" cy="174.5" fill="#ADD1B2" rx="11" ry="11" style="stroke:#181818;stroke-width:1;"/><path d="M5565.9688,180.1406 Q5565.3906,180.4375 5564.75,180.5781 Q5564.1094,180.7344 5563.4063,180.7344 Q5560.9063,180.7344 5559.5781,179.0938 Q5558.2656,177.4375 5558.2656,174.3125 Q5558.2656,171.1875 5559.5781,169.5313 Q5560.9063,167.875 5563.4063,167.875 Q5564.1094,167.875 5564.75,168.0313 Q5565.4063,168.1875 5565.9688,168.4844 L5565.9688,171.2031 Q5565.3438,170.625 5564.75,170.3594 Q5564.1563,170.0781 5563.5313,170.0781 Q5562.1875,170.0781 5561.5,171.1563 Q5560.8125,172.2188 5560.8125,174.3125 Q5560.8125,176.4063 5561.5,177.4844 Q5562.1875,178.5469 5563.5313,178.5469 Q5564.1563,178.5469 5564.75,178.2813 Q5565.3438,178 5565.9688,177.4219 L5565.9688,180.1406 Z " fill="#000000"/><text fill="#000000" font-family="sans-serif" font-size="14" lengthAdjust="spacing" textLength="283.377" x="5577" y="179.3467">logic_arc_int__baselibs__utils_scoped_op</text><line style="stroke:#181818;stroke-width:0.5;" x1="5549" x2="5862.377" y1="190.5" y2="190.5"/></g><!--class logic_arc_int__baselibs__synchronized_queue--><g id="elem_logic_arc_int__baselibs__synchronized_queue"><rect fill="#F1F1F1" height="40" id="logic_arc_int__baselibs__synchronized_queue" rx="2.5" ry="2.5" style="stroke:#181818;stroke-width:0.5;" width="348.3604" x="3892.5" y="158.5"/><ellipse cx="3907.5" cy="174.5" fill="#ADD1B2" rx="11" ry="11" style="stroke:#181818;stroke-width:1;"/><path d="M3910.4688,180.1406 Q3909.8906,180.4375 3909.25,180.5781 Q3908.6094,180.7344 3907.9063,180.7344 Q3905.4063,180.7344 3904.0781,179.0938 Q3902.7656,177.4375 3902.7656,174.3125 Q3902.7656,171.1875 3904.0781,169.5313 Q3905.4063,167.875 3907.9063,167.875 Q3908.6094,167.875 3909.25,168.0313 Q3909.9063,168.1875 3910.4688,168.4844 L3910.4688,171.2031 Q3909.8438,170.625 3909.25,170.3594 Q3908.6563,170.0781 3908.0313,170.0781 Q3906.6875,170.0781 3906,171.1563 Q3905.3125,172.2188 3905.3125,174.3125 Q3905.3125,176.4063 3906,177.4844 Q3906.6875,178.5469 3908.0313,178.5469 Q3908.6563,178.5469 3909.25,178.2813 Q3909.8438,178 3910.4688,177.4219 L3910.4688,180.1406 Z " fill="#000000"/><text fill="#000000" font-family="sans-serif" font-size="14" lengthAdjust="spacing" textLength="316.3604" x="3921.5" y="179.3467">logic_arc_int__baselibs__synchronized_queue</text><line style="stroke:#181818;stroke-width:0.5;" x1="3893.5" x2="4239.8604" y1="190.5" y2="190.5"/></g><!--class comp_arc_sta__baselibs__message_passing--><g id="elem_comp_arc_sta__baselibs__message_passing"><rect fill="#F1F1F1" height="40" id="comp_arc_sta__baselibs__message_passing" rx="2.5" ry="2.5" style="stroke:#181818;stroke-width:0.5;" width="337.1357" x="5184" y="275.5"/><ellipse cx="5199" cy="291.5" fill="#ADD1B2" rx="11" ry="11" style="stroke:#181818;stroke-width:1;"/><path d="M5201.9688,297.1406 Q5201.3906,297.4375 5200.75,297.5781 Q5200.1094,297.7344 5199.4063,297.7344 Q5196.9063,297.7344 5195.5781,296.0938 Q5194.2656,294.4375 5194.2656,291.3125 Q5194.2656,288.1875 5195.5781,286.5313 Q5196.9063,284.875 5199.4063,284.875 Q5200.1094,284.875 5200.75,285.0313 Q5201.4063,285.1875 5201.9688,285.4844 L5201.9688,288.2031 Q5201.3438,287.625 5200.75,287.3594 Q5200.1563,287.0781 5199.5313,287.0781 Q5198.1875,287.0781 5197.5,288.1563 Q5196.8125,289.2188 5196.8125,291.3125 Q5196.8125,293.4063 5197.5,294.4844 Q5198.1875,295.5469 5199.5313,295.5469 Q5200.1563,295.5469 5200.75,295.2813 Q5201.3438,295 5201.9688,294.4219 L5201.9688,297.1406 Z " fill="#000000"/><text fill="#000000" font-family="sans-serif" font-size="14" lengthAdjust="spacing" textLength="305.1357" x="5213" y="296.3467">comp_arc_sta__baselibs__message_passing</text><line style="stroke:#181818;stroke-width:0.5;" x1="5185" x2="5520.1357" y1="307.5" y2="307.5"/></g><!--class logic_arc_int__baselibs__message_passing--><g id="elem_logic_arc_int__baselibs__message_passing"><rect fill="#F1F1F1" height="40" id="logic_arc_int__baselibs__message_passing" rx="2.5" ry="2.5" style="stroke:#181818;stroke-width:0.5;" width="328.167" x="5184.5" y="158.5"/><ellipse cx="5199.5" cy="174.5" fill="#ADD1B2" rx="11" ry="11" style="stroke:#181818;stroke-width:1;"/><path d="M5202.4688,180.1406 Q5201.8906,180.4375 5201.25,180.5781 Q5200.6094,180.7344 5199.9063,180.7344 Q5197.4063,180.7344 5196.0781,179.0938 Q5194.7656,177.4375 5194.7656,174.3125 Q5194.7656,171.1875 5196.0781,169.5313 Q5197.4063,167.875 5199.9063,167.875 Q5200.6094,167.875 5201.25,168.0313 Q5201.9063,168.1875 5202.4688,168.4844 L5202.4688,171.2031 Q5201.8438,170.625 5201.25,170.3594 Q5200.6563,170.0781 5200.0313,170.0781 Q5198.6875,170.0781 5198,171.1563 Q5197.3125,172.2188 5197.3125,174.3125 Q5197.3125,176.4063 5198,177.4844 Q5198.6875,178.5469 5200.0313,178.5469 Q5200.6563,178.5469 5201.25,178.2813 Q5201.8438,178 5202.4688,177.4219 L5202.4688,180.1406 Z " fill="#000000"/><text fill="#000000" font-family="sans-serif" font-size="14" lengthAdjust="spacing" textLength="296.167" x="5213.5" y="179.3467">logic_arc_int__baselibs__message_passing</text><line style="stroke:#181818;stroke-width:0.5;" x1="5185.5" x2="5511.667" y1="190.5" y2="190.5"/></g><!--class logic_arc_int__baselibs__utils_base64--><g id="elem_logic_arc_int__baselibs__utils_base64"><rect fill="#F1F1F1" height="40" id="logic_arc_int__baselibs__utils_base64" rx="2.5" ry="2.5" style="stroke:#181818;stroke-width:0.5;" width="292.1689" x="5898.5" y="158.5"/><ellipse cx="5913.5" cy="174.5" fill="#ADD1B2" rx="11" ry="11" style="stroke:#181818;stroke-width:1;"/><path d="M5916.4688,180.1406 Q5915.8906,180.4375 5915.25,180.5781 Q5914.6094,180.7344 5913.9063,180.7344 Q5911.4063,180.7344 5910.0781,179.0938 Q5908.7656,177.4375 5908.7656,174.3125 Q5908.7656,171.1875 5910.0781,169.5313 Q5911.4063,167.875 5913.9063,167.875 Q5914.6094,167.875 5915.25,168.0313 Q5915.9063,168.1875 5916.4688,168.4844 L5916.4688,171.2031 Q5915.8438,170.625 5915.25,170.3594 Q5914.6563,170.0781 5914.0313,170.0781 Q5912.6875,170.0781 5912,171.1563 Q5911.3125,172.2188 5911.3125,174.3125 Q5911.3125,176.4063 5912,177.4844 Q5912.6875,178.5469 5914.0313,178.5469 Q5914.6563,178.5469 5915.25,178.2813 Q5915.8438,178 5916.4688,177.4219 L5916.4688,180.1406 Z " fill="#000000"/><text fill="#000000" font-family="sans-serif" font-size="14" lengthAdjust="spacing" textLength="260.1689" x="5927.5" y="179.3467">logic_arc_int__baselibs__utils_base64</text><line style="stroke:#181818;stroke-width:0.5;" x1="5899.5" x2="6189.6689" y1="190.5" y2="190.5"/></g><!--class comp_arc_sta__baselibs__filesystem--><g id="elem_comp_arc_sta__baselibs__filesystem"><rect fill="#F1F1F1" height="40" id="comp_arc_sta__baselibs__filesystem" rx="2.5" ry="2.5" style="stroke:#181818;stroke-width:0.5;" width="285.4492" x="4864" y="275.5"/><ellipse cx="4879" cy="291.5" fill="#ADD1B2" rx="11" ry="11" style="stroke:#181818;stroke-width:1;"/><path d="M4881.9688,297.1406 Q4881.3906,297.4375 4880.75,297.5781 Q4880.1094,297.7344 4879.4063,297.7344 Q4876.9063,297.7344 4875.5781,296.0938 Q4874.2656,294.4375 4874.2656,291.3125 Q4874.2656,288.1875 4875.5781,286.5313 Q4876.9063,284.875 4879.4063,284.875 Q4880.1094,284.875 4880.75,285.0313 Q4881.4063,285.1875 4881.9688,285.4844 L4881.9688,288.2031 Q4881.3438,287.625 4880.75,287.3594 Q4880.1563,287.0781 4879.5313,287.0781 Q4878.1875,287.0781 4877.5,288.1563 Q4876.8125,289.2188 4876.8125,291.3125 Q4876.8125,293.4063 4877.5,294.4844 Q4878.1875,295.5469 4879.5313,295.5469 Q4880.1563,295.5469 4880.75,295.2813 Q4881.3438,295 4881.9688,294.4219 L4881.9688,297.1406 Z " fill="#000000"/><text fill="#000000" font-family="sans-serif" font-size="14" lengthAdjust="spacing" textLength="253.4492" x="4893" y="296.3467">comp_arc_sta__baselibs__filesystem</text><line style="stroke:#181818;stroke-width:0.5;" x1="4865" x2="5148.4492" y1="307.5" y2="307.5"/></g><!--class logic_arc_int__baselibs__filesystem--><g id="elem_logic_arc_int__baselibs__filesystem"><rect fill="#F1F1F1" height="40" id="logic_arc_int__baselibs__filesystem" rx="2.5" ry="2.5" style="stroke:#181818;stroke-width:0.5;" width="276.4805" x="4873.5" y="158.5"/><ellipse cx="4888.5" cy="174.5" fill="#ADD1B2" rx="11" ry="11" style="stroke:#181818;stroke-width:1;"/><path d="M4891.4688,180.1406 Q4890.8906,180.4375 4890.25,180.5781 Q4889.6094,180.7344 4888.9063,180.7344 Q4886.4063,180.7344 4885.0781,179.0938 Q4883.7656,177.4375 4883.7656,174.3125 Q4883.7656,171.1875 4885.0781,169.5313 Q4886.4063,167.875 4888.9063,167.875 Q4889.6094,167.875 4890.25,168.0313 Q4890.9063,168.1875 4891.4688,168.4844 L4891.4688,171.2031 Q4890.8438,170.625 4890.25,170.3594 Q4889.6563,170.0781 4889.0313,170.0781 Q4887.6875,170.0781 4887,171.1563 Q4886.3125,172.2188 4886.3125,174.3125 Q4886.3125,176.4063 4887,177.4844 Q4887.6875,178.5469 4889.0313,178.5469 Q4889.6563,178.5469 4890.25,178.2813 Q4890.8438,178 4891.4688,177.4219 L4891.4688,180.1406 Z " fill="#000000"/><text fill="#000000" font-family="sans-serif" font-size="14" lengthAdjust="spacing" textLength="244.4805" x="4902.5" y="179.3467">logic_arc_int__baselibs__filesystem</text><line style="stroke:#181818;stroke-width:0.5;" x1="4874.5" x2="5148.9805" y1="190.5" y2="190.5"/></g><!--class logic_arc_int__baselibs__result--><g id="elem_logic_arc_int__baselibs__result"><rect fill="#F1F1F1" height="40" id="logic_arc_int__baselibs__result" rx="2.5" ry="2.5" style="stroke:#181818;stroke-width:0.5;" width="244.4609" x="16.5" y="158.5"/><ellipse cx="31.5" cy="174.5" fill="#ADD1B2" rx="11" ry="11" style="stroke:#181818;stroke-width:1;"/><path d="M34.4688,180.1406 Q33.8906,180.4375 33.25,180.5781 Q32.6094,180.7344 31.9063,180.7344 Q29.4063,180.7344 28.0781,179.0938 Q26.7656,177.4375 26.7656,174.3125 Q26.7656,171.1875 28.0781,169.5313 Q29.4063,167.875 31.9063,167.875 Q32.6094,167.875 33.25,168.0313 Q33.9063,168.1875 34.4688,168.4844 L34.4688,171.2031 Q33.8438,170.625 33.25,170.3594 Q32.6563,170.0781 32.0313,170.0781 Q30.6875,170.0781 30,171.1563 Q29.3125,172.2188 29.3125,174.3125 Q29.3125,176.4063 30,177.4844 Q30.6875,178.5469 32.0313,178.5469 Q32.6563,178.5469 33.25,178.2813 Q33.8438,178 34.4688,177.4219 L34.4688,180.1406 Z " fill="#000000"/><text fill="#000000" font-family="sans-serif" font-size="14" lengthAdjust="spacing" textLength="212.4609" x="45.5" y="179.3467">logic_arc_int__baselibs__result</text><line style="stroke:#181818;stroke-width:0.5;" x1="17.5" x2="259.9609" y1="190.5" y2="190.5"/></g><!--class logic_arc_int__baselibs__promise--><g id="elem_logic_arc_int__baselibs__promise"><rect fill="#F1F1F1" height="40" id="logic_arc_int__baselibs__promise" rx="2.5" ry="2.5" style="stroke:#181818;stroke-width:0.5;" width="261.1885" x="4276" y="158.5"/><ellipse cx="4291" cy="174.5" fill="#ADD1B2" rx="11" ry="11" style="stroke:#181818;stroke-width:1;"/><path d="M4293.9688,180.1406 Q4293.3906,180.4375 4292.75,180.5781 Q4292.1094,180.7344 4291.4063,180.7344 Q4288.9063,180.7344 4287.5781,179.0938 Q4286.2656,177.4375 4286.2656,174.3125 Q4286.2656,171.1875 4287.5781,169.5313 Q4288.9063,167.875 4291.4063,167.875 Q4292.1094,167.875 4292.75,168.0313 Q4293.4063,168.1875 4293.9688,168.4844 L4293.9688,171.2031 Q4293.3438,170.625 4292.75,170.3594 Q4292.1563,170.0781 4291.5313,170.0781 Q4290.1875,170.0781 4289.5,171.1563 Q4288.8125,172.2188 4288.8125,174.3125 Q4288.8125,176.4063 4289.5,177.4844 Q4290.1875,178.5469 4291.5313,178.5469 Q4292.1563,178.5469 4292.75,178.2813 Q4293.3438,178 4293.9688,177.4219 L4293.9688,180.1406 Z " fill="#000000"/><text fill="#000000" font-family="sans-serif" font-size="14" lengthAdjust="spacing" textLength="229.1885" x="4305" y="179.3467">logic_arc_int__baselibs__promise</text><line style="stroke:#181818;stroke-width:0.5;" x1="4277" x2="4536.1885" y1="190.5" y2="190.5"/></g><!--class logic_arc_int__baselibs__task--><g id="elem_logic_arc_int__baselibs__task"><rect fill="#F1F1F1" height="40" id="logic_arc_int__baselibs__task" rx="2.5" ry="2.5" style="stroke:#181818;stroke-width:0.5;" width="234.0156" x="3623.5" y="158.5"/><ellipse cx="3638.5" cy="174.5" fill="#ADD1B2" rx="11" ry="11" style="stroke:#181818;stroke-width:1;"/><path d="M3641.4688,180.1406 Q3640.8906,180.4375 3640.25,180.5781 Q3639.6094,180.7344 3638.9063,180.7344 Q3636.4063,180.7344 3635.0781,179.0938 Q3633.7656,177.4375 3633.7656,174.3125 Q3633.7656,171.1875 3635.0781,169.5313 Q3636.4063,167.875 3638.9063,167.875 Q3639.6094,167.875 3640.25,168.0313 Q3640.9063,168.1875 3641.4688,168.4844 L3641.4688,171.2031 Q3640.8438,170.625 3640.25,170.3594 Q3639.6563,170.0781 3639.0313,170.0781 Q3637.6875,170.0781 3637,171.1563 Q3636.3125,172.2188 3636.3125,174.3125 Q3636.3125,176.4063 3637,177.4844 Q3637.6875,178.5469 3639.0313,178.5469 Q3639.6563,178.5469 3640.25,178.2813 Q3640.8438,178 3641.4688,177.4219 L3641.4688,180.1406 Z " fill="#000000"/><text fill="#000000" font-family="sans-serif" font-size="14" lengthAdjust="spacing" textLength="202.0156" x="3652.5" y="179.3467">logic_arc_int__baselibs__task</text><line style="stroke:#181818;stroke-width:0.5;" x1="3624.5" x2="3856.5156" y1="190.5" y2="190.5"/></g><!--class logic_arc_int__baselibs__task_result--><g id="elem_logic_arc_int__baselibs__task_result"><rect fill="#F1F1F1" height="40" id="logic_arc_int__baselibs__task_result" rx="2.5" ry="2.5" style="stroke:#181818;stroke-width:0.5;" width="280.9307" x="3307" y="158.5"/><ellipse cx="3322" cy="174.5" fill="#ADD1B2" rx="11" ry="11" style="stroke:#181818;stroke-width:1;"/><path d="M3324.9688,180.1406 Q3324.3906,180.4375 3323.75,180.5781 Q3323.1094,180.7344 3322.4063,180.7344 Q3319.9063,180.7344 3318.5781,179.0938 Q3317.2656,177.4375 3317.2656,174.3125 Q3317.2656,171.1875 3318.5781,169.5313 Q3319.9063,167.875 3322.4063,167.875 Q3323.1094,167.875 3323.75,168.0313 Q3324.4063,168.1875 3324.9688,168.4844 L3324.9688,171.2031 Q3324.3438,170.625 3323.75,170.3594 Q3323.1563,170.0781 3322.5313,170.0781 Q3321.1875,170.0781 3320.5,171.1563 Q3319.8125,172.2188 3319.8125,174.3125 Q3319.8125,176.4063 3320.5,177.4844 Q3321.1875,178.5469 3322.5313,178.5469 Q3323.1563,178.5469 3323.75,178.2813 Q3324.3438,178 3324.9688,177.4219 L3324.9688,180.1406 Z " fill="#000000"/><text fill="#000000" font-family="sans-serif" font-size="14" lengthAdjust="spacing" textLength="248.9307" x="3336" y="179.3467">logic_arc_int__baselibs__task_result</text><line style="stroke:#181818;stroke-width:0.5;" x1="3308" x2="3586.9307" y1="190.5" y2="190.5"/></g><!--class logic_arc_int__baselibs__condition_variable--><g id="elem_logic_arc_int__baselibs__condition_variable"><rect fill="#F1F1F1" height="40" id="logic_arc_int__baselibs__condition_variable" rx="2.5" ry="2.5" style="stroke:#181818;stroke-width:0.5;" width="332.7539" x="2939" y="158.5"/><ellipse cx="2954" cy="174.5" fill="#ADD1B2" rx="11" ry="11" style="stroke:#181818;stroke-width:1;"/><path d="M2956.9688,180.1406 Q2956.3906,180.4375 2955.75,180.5781 Q2955.1094,180.7344 2954.4063,180.7344 Q2951.9063,180.7344 2950.5781,179.0938 Q2949.2656,177.4375 2949.2656,174.3125 Q2949.2656,171.1875 2950.5781,169.5313 Q2951.9063,167.875 2954.4063,167.875 Q2955.1094,167.875 2955.75,168.0313 Q2956.4063,168.1875 2956.9688,168.4844 L2956.9688,171.2031 Q2956.3438,170.625 2955.75,170.3594 Q2955.1563,170.0781 2954.5313,170.0781 Q2953.1875,170.0781 2952.5,171.1563 Q2951.8125,172.2188 2951.8125,174.3125 Q2951.8125,176.4063 2952.5,177.4844 Q2953.1875,178.5469 2954.5313,178.5469 Q2955.1563,178.5469 2955.75,178.2813 Q2956.3438,178 2956.9688,177.4219 L2956.9688,180.1406 Z " fill="#000000"/><text fill="#000000" font-family="sans-serif" font-size="14" lengthAdjust="spacing" textLength="300.7539" x="2968" y="179.3467">logic_arc_int__baselibs__condition_variable</text><line style="stroke:#181818;stroke-width:0.5;" x1="2940" x2="3270.7539" y1="190.5" y2="190.5"/></g><!--class logic_arc_int__baselibs__future--><g id="elem_logic_arc_int__baselibs__future"><rect fill="#F1F1F1" height="40" id="logic_arc_int__baselibs__future" rx="2.5" ry="2.5" style="stroke:#181818;stroke-width:0.5;" width="247.0791" x="2657" y="158.5"/><ellipse cx="2672" cy="174.5" fill="#ADD1B2" rx="11" ry="11" style="stroke:#181818;stroke-width:1;"/><path d="M2674.9688,180.1406 Q2674.3906,180.4375 2673.75,180.5781 Q2673.1094,180.7344 2672.4063,180.7344 Q2669.9063,180.7344 2668.5781,179.0938 Q2667.2656,177.4375 2667.2656,174.3125 Q2667.2656,171.1875 2668.5781,169.5313 Q2669.9063,167.875 2672.4063,167.875 Q2673.1094,167.875 2673.75,168.0313 Q2674.4063,168.1875 2674.9688,168.4844 L2674.9688,171.2031 Q2674.3438,170.625 2673.75,170.3594 Q2673.1563,170.0781 2672.5313,170.0781 Q2671.1875,170.0781 2670.5,171.1563 Q2669.8125,172.2188 2669.8125,174.3125 Q2669.8125,176.4063 2670.5,177.4844 Q2671.1875,178.5469 2672.5313,178.5469 Q2673.1563,178.5469 2673.75,178.2813 Q2674.3438,178 2674.9688,177.4219 L2674.9688,180.1406 Z " fill="#000000"/><text fill="#000000" font-family="sans-serif" font-size="14" lengthAdjust="spacing" textLength="215.0791" x="2686" y="179.3467">logic_arc_int__baselibs__future</text><line style="stroke:#181818;stroke-width:0.5;" x1="2658" x2="2903.0791" y1="190.5" y2="190.5"/></g><!--class comp_arc_sta__baselibs__bit_manipulation--><g id="elem_comp_arc_sta__baselibs__bit_manipulation"><rect fill="#F1F1F1" height="40" id="comp_arc_sta__baselibs__bit_manipulation" rx="2.5" ry="2.5" style="stroke:#181818;stroke-width:0.5;" width="330.8057" x="1715" y="275.5"/><ellipse cx="1730" cy="291.5" fill="#ADD1B2" rx="11" ry="11" style="stroke:#181818;stroke-width:1;"/><path d="M1732.9688,297.1406 Q1732.3906,297.4375 1731.75,297.5781 Q1731.1094,297.7344 1730.4063,297.7344 Q1727.9063,297.7344 1726.5781,296.0938 Q1725.2656,294.4375 1725.2656,291.3125 Q1725.2656,288.1875 1726.5781,286.5313 Q1727.9063,284.875 1730.4063,284.875 Q1731.1094,284.875 1731.75,285.0313 Q1732.4063,285.1875 1732.9688,285.4844 L1732.9688,288.2031 Q1732.3438,287.625 1731.75,287.3594 Q1731.1563,287.0781 1730.5313,287.0781 Q1729.1875,287.0781 1728.5,288.1563 Q1727.8125,289.2188 1727.8125,291.3125 Q1727.8125,293.4063 1728.5,294.4844 Q1729.1875,295.5469 1730.5313,295.5469 Q1731.1563,295.5469 1731.75,295.2813 Q1732.3438,295 1732.9688,294.4219 L1732.9688,297.1406 Z " fill="#000000"/><text fill="#000000" font-family="sans-serif" font-size="14" lengthAdjust="spacing" textLength="298.8057" x="1744" y="296.3467">comp_arc_sta__baselibs__bit_manipulation</text><line style="stroke:#181818;stroke-width:0.5;" x1="1716" x2="2044.8057" y1="307.5" y2="307.5"/></g><!--class logic_arc_int__baselibs__bit_mask_operator--><g id="elem_logic_arc_int__baselibs__bit_mask_operator"><rect fill="#F1F1F1" height="40" id="logic_arc_int__baselibs__bit_mask_operator" rx="2.5" ry="2.5" style="stroke:#181818;stroke-width:0.5;" width="334.6406" x="1592" y="158.5"/><ellipse cx="1607" cy="174.5" fill="#ADD1B2" rx="11" ry="11" style="stroke:#181818;stroke-width:1;"/><path d="M1609.9688,180.1406 Q1609.3906,180.4375 1608.75,180.5781 Q1608.1094,180.7344 1607.4063,180.7344 Q1604.9063,180.7344 1603.5781,179.0938 Q1602.2656,177.4375 1602.2656,174.3125 Q1602.2656,171.1875 1603.5781,169.5313 Q1604.9063,167.875 1607.4063,167.875 Q1608.1094,167.875 1608.75,168.0313 Q1609.4063,168.1875 1609.9688,168.4844 L1609.9688,171.2031 Q1609.3438,170.625 1608.75,170.3594 Q1608.1563,170.0781 1607.5313,170.0781 Q1606.1875,170.0781 1605.5,171.1563 Q1604.8125,172.2188 1604.8125,174.3125 Q1604.8125,176.4063 1605.5,177.4844 Q1606.1875,178.5469 1607.5313,178.5469 Q1608.1563,178.5469 1608.75,178.2813 Q1609.3438,178 1609.9688,177.4219 L1609.9688,180.1406 Z " fill="#000000"/><text fill="#000000" font-family="sans-serif" font-size="14" lengthAdjust="spacing" textLength="302.6406" x="1621" y="179.3467">logic_arc_int__baselibs__bit_mask_operator</text><line style="stroke:#181818;stroke-width:0.5;" x1="1593" x2="1925.6406" y1="190.5" y2="190.5"/></g><!--class logic_arc_int__baselibs__executor--><g id="elem_logic_arc_int__baselibs__executor"><rect fill="#F1F1F1" height="40" id="logic_arc_int__baselibs__executor" rx="2.5" ry="2.5" style="stroke:#181818;stroke-width:0.5;" width="266.4385" x="4572.5" y="158.5"/><ellipse cx="4587.5" cy="174.5" fill="#ADD1B2" rx="11" ry="11" style="stroke:#181818;stroke-width:1;"/><path d="M4590.4688,180.1406 Q4589.8906,180.4375 4589.25,180.5781 Q4588.6094,180.7344 4587.9063,180.7344 Q4585.4063,180.7344 4584.0781,179.0938 Q4582.7656,177.4375 4582.7656,174.3125 Q4582.7656,171.1875 4584.0781,169.5313 Q4585.4063,167.875 4587.9063,167.875 Q4588.6094,167.875 4589.25,168.0313 Q4589.9063,168.1875 4590.4688,168.4844 L4590.4688,171.2031 Q4589.8438,170.625 4589.25,170.3594 Q4588.6563,170.0781 4588.0313,170.0781 Q4586.6875,170.0781 4586,171.1563 Q4585.3125,172.2188 4585.3125,174.3125 Q4585.3125,176.4063 4586,177.4844 Q4586.6875,178.5469 4588.0313,178.5469 Q4588.6563,178.5469 4589.25,178.2813 Q4589.8438,178 4590.4688,177.4219 L4590.4688,180.1406 Z " fill="#000000"/><text fill="#000000" font-family="sans-serif" font-size="14" lengthAdjust="spacing" textLength="234.4385" x="4601.5" y="179.3467">logic_arc_int__baselibs__executor</text><line style="stroke:#181818;stroke-width:0.5;" x1="4573.5" x2="4837.9385" y1="190.5" y2="190.5"/></g><!--class comp_arc_sta__baselibs__containers--><g id="elem_comp_arc_sta__baselibs__containers"><rect fill="#F1F1F1" height="40" id="comp_arc_sta__baselibs__containers" rx="2.5" ry="2.5" style="stroke:#181818;stroke-width:0.5;" width="287.1445" x="1042" y="275.5"/><ellipse cx="1057" cy="291.5" fill="#ADD1B2" rx="11" ry="11" style="stroke:#181818;stroke-width:1;"/><path d="M1059.9688,297.1406 Q1059.3906,297.4375 1058.75,297.5781 Q1058.1094,297.7344 1057.4063,297.7344 Q1054.9063,297.7344 1053.5781,296.0938 Q1052.2656,294.4375 1052.2656,291.3125 Q1052.2656,288.1875 1053.5781,286.5313 Q1054.9063,284.875 1057.4063,284.875 Q1058.1094,284.875 1058.75,285.0313 Q1059.4063,285.1875 1059.9688,285.4844 L1059.9688,288.2031 Q1059.3438,287.625 1058.75,287.3594 Q1058.1563,287.0781 1057.5313,287.0781 Q1056.1875,287.0781 1055.5,288.1563 Q1054.8125,289.2188 1054.8125,291.3125 Q1054.8125,293.4063 1055.5,294.4844 Q1056.1875,295.5469 1057.5313,295.5469 Q1058.1563,295.5469 1058.75,295.2813 Q1059.3438,295 1059.9688,294.4219 L1059.9688,297.1406 Z " fill="#000000"/><text fill="#000000" font-family="sans-serif" font-size="14" lengthAdjust="spacing" textLength="255.1445" x="1071" y="296.3467">comp_arc_sta__baselibs__containers</text><line style="stroke:#181818;stroke-width:0.5;" x1="1043" x2="1328.1445" y1="307.5" y2="307.5"/></g><!--class logic_arc_int__baselibs__intrusive_list--><g id="elem_logic_arc_int__baselibs__intrusive_list"><rect fill="#F1F1F1" height="40" id="logic_arc_int__baselibs__intrusive_list" rx="2.5" ry="2.5" style="stroke:#181818;stroke-width:0.5;" width="293.0713" x="920" y="158.5"/><ellipse cx="935" cy="174.5" fill="#ADD1B2" rx="11" ry="11" style="stroke:#181818;stroke-width:1;"/><path d="M937.9688,180.1406 Q937.3906,180.4375 936.75,180.5781 Q936.1094,180.7344 935.4063,180.7344 Q932.9063,180.7344 931.5781,179.0938 Q930.2656,177.4375 930.2656,174.3125 Q930.2656,171.1875 931.5781,169.5313 Q932.9063,167.875 935.4063,167.875 Q936.1094,167.875 936.75,168.0313 Q937.4063,168.1875 937.9688,168.4844 L937.9688,171.2031 Q937.3438,170.625 936.75,170.3594 Q936.1563,170.0781 935.5313,170.0781 Q934.1875,170.0781 933.5,171.1563 Q932.8125,172.2188 932.8125,174.3125 Q932.8125,176.4063 933.5,177.4844 Q934.1875,178.5469 935.5313,178.5469 Q936.1563,178.5469 936.75,178.2813 Q937.3438,178 937.9688,177.4219 L937.9688,180.1406 Z " fill="#000000"/><text fill="#000000" font-family="sans-serif" font-size="14" lengthAdjust="spacing" textLength="261.0713" x="949" y="179.3467">logic_arc_int__baselibs__intrusive_list</text><line style="stroke:#181818;stroke-width:0.5;" x1="921" x2="1212.0713" y1="190.5" y2="190.5"/></g><!--class logic_arc_int__baselibs__memory_shared--><g id="elem_logic_arc_int__baselibs__memory_shared"><rect fill="#F1F1F1" height="40" id="logic_arc_int__baselibs__memory_shared" rx="2.5" ry="2.5" style="stroke:#181818;stroke-width:0.5;" width="318.043" x="299.5" y="158.5"/><ellipse cx="314.5" cy="174.5" fill="#ADD1B2" rx="11" ry="11" style="stroke:#181818;stroke-width:1;"/><path d="M317.4688,180.1406 Q316.8906,180.4375 316.25,180.5781 Q315.6094,180.7344 314.9063,180.7344 Q312.4063,180.7344 311.0781,179.0938 Q309.7656,177.4375 309.7656,174.3125 Q309.7656,171.1875 311.0781,169.5313 Q312.4063,167.875 314.9063,167.875 Q315.6094,167.875 316.25,168.0313 Q316.9063,168.1875 317.4688,168.4844 L317.4688,171.2031 Q316.8438,170.625 316.25,170.3594 Q315.6563,170.0781 315.0313,170.0781 Q313.6875,170.0781 313,171.1563 Q312.3125,172.2188 312.3125,174.3125 Q312.3125,176.4063 313,177.4844 Q313.6875,178.5469 315.0313,178.5469 Q315.6563,178.5469 316.25,178.2813 Q316.8438,178 317.4688,177.4219 L317.4688,180.1406 Z " fill="#000000"/><text fill="#000000" font-family="sans-serif" font-size="14" lengthAdjust="spacing" textLength="286.043" x="328.5" y="179.3467">logic_arc_int__baselibs__memory_shared</text><line style="stroke:#181818;stroke-width:0.5;" x1="300.5" x2="616.543" y1="190.5" y2="190.5"/></g><!--class logic_arc_int__baselibs__dynamic_array--><g id="elem_logic_arc_int__baselibs__dynamic_array"><rect fill="#F1F1F1" height="40" id="logic_arc_int__baselibs__dynamic_array" rx="2.5" ry="2.5" style="stroke:#181818;stroke-width:0.5;" width="308.3496" x="1248.5" y="158.5"/><ellipse cx="1263.5" cy="174.5" fill="#ADD1B2" rx="11" ry="11" style="stroke:#181818;stroke-width:1;"/><path d="M1266.4688,180.1406 Q1265.8906,180.4375 1265.25,180.5781 Q1264.6094,180.7344 1263.9063,180.7344 Q1261.4063,180.7344 1260.0781,179.0938 Q1258.7656,177.4375 1258.7656,174.3125 Q1258.7656,171.1875 1260.0781,169.5313 Q1261.4063,167.875 1263.9063,167.875 Q1264.6094,167.875 1265.25,168.0313 Q1265.9063,168.1875 1266.4688,168.4844 L1266.4688,171.2031 Q1265.8438,170.625 1265.25,170.3594 Q1264.6563,170.0781 1264.0313,170.0781 Q1262.6875,170.0781 1262,171.1563 Q1261.3125,172.2188 1261.3125,174.3125 Q1261.3125,176.4063 1262,177.4844 Q1262.6875,178.5469 1264.0313,178.5469 Q1264.6563,178.5469 1265.25,178.2813 Q1265.8438,178 1266.4688,177.4219 L1266.4688,180.1406 Z " fill="#000000"/><text fill="#000000" font-family="sans-serif" font-size="14" lengthAdjust="spacing" textLength="276.3496" x="1277.5" y="179.3467">logic_arc_int__baselibs__dynamic_array</text><line style="stroke:#181818;stroke-width:0.5;" x1="1249.5" x2="1555.8496" y1="190.5" y2="190.5"/></g><!--class logic_arc_int__baselibs__bit_manipulation--><g id="elem_logic_arc_int__baselibs__bit_manipulation"><rect fill="#F1F1F1" height="40" id="logic_arc_int__baselibs__bit_manipulation" rx="2.5" ry="2.5" style="stroke:#181818;stroke-width:0.5;" width="321.8369" x="1962.5" y="158.5"/><ellipse cx="1977.5" cy="174.5" fill="#ADD1B2" rx="11" ry="11" style="stroke:#181818;stroke-width:1;"/><path d="M1980.4688,180.1406 Q1979.8906,180.4375 1979.25,180.5781 Q1978.6094,180.7344 1977.9063,180.7344 Q1975.4063,180.7344 1974.0781,179.0938 Q1972.7656,177.4375 1972.7656,174.3125 Q1972.7656,171.1875 1974.0781,169.5313 Q1975.4063,167.875 1977.9063,167.875 Q1978.6094,167.875 1979.25,168.0313 Q1979.9063,168.1875 1980.4688,168.4844 L1980.4688,171.2031 Q1979.8438,170.625 1979.25,170.3594 Q1978.6563,170.0781 1978.0313,170.0781 Q1976.6875,170.0781 1976,171.1563 Q1975.3125,172.2188 1975.3125,174.3125 Q1975.3125,176.4063 1976,177.4844 Q1976.6875,178.5469 1978.0313,178.5469 Q1978.6563,178.5469 1979.25,178.2813 Q1979.8438,178 1980.4688,177.4219 L1980.4688,180.1406 Z " fill="#000000"/><text fill="#000000" font-family="sans-serif" font-size="14" lengthAdjust="spacing" textLength="289.8369" x="1991.5" y="179.3467">logic_arc_int__baselibs__bit_manipulation</text><line style="stroke:#181818;stroke-width:0.5;" x1="1963.5" x2="2283.3369" y1="190.5" y2="190.5"/></g><!--class comp_arc_sta__baselibs__json--><g id="elem_comp_arc_sta__baselibs__json"><rect fill="#F1F1F1" height="40" id="comp_arc_sta__baselibs__json" rx="2.5" ry="2.5" style="stroke:#181818;stroke-width:0.5;" width="242.1367" x="656.5" y="275.5"/><ellipse cx="671.5" cy="291.5" fill="#ADD1B2" rx="11" ry="11" style="stroke:#181818;stroke-width:1;"/><path d="M674.4688,297.1406 Q673.8906,297.4375 673.25,297.5781 Q672.6094,297.7344 671.9063,297.7344 Q669.4063,297.7344 668.0781,296.0938 Q666.7656,294.4375 666.7656,291.3125 Q666.7656,288.1875 668.0781,286.5313 Q669.4063,284.875 671.9063,284.875 Q672.6094,284.875 673.25,285.0313 Q673.9063,285.1875 674.4688,285.4844 L674.4688,288.2031 Q673.8438,287.625 673.25,287.3594 Q672.6563,287.0781 672.0313,287.0781 Q670.6875,287.0781 670,288.1563 Q669.3125,289.2188 669.3125,291.3125 Q669.3125,293.4063 670,294.4844 Q670.6875,295.5469 672.0313,295.5469 Q672.6563,295.5469 673.25,295.2813 Q673.8438,295 674.4688,294.4219 L674.4688,297.1406 Z " fill="#000000"/><text fill="#000000" font-family="sans-serif" font-size="14" lengthAdjust="spacing" textLength="210.1367" x="685.5" y="296.3467">comp_arc_sta__baselibs__json</text><line style="stroke:#181818;stroke-width:0.5;" x1="657.5" x2="897.6367" y1="307.5" y2="307.5"/></g><!--class comp_arc_sta__baselibs__memory_shared--><g id="elem_comp_arc_sta__baselibs__memory_shared"><rect fill="#F1F1F1" height="40" id="comp_arc_sta__baselibs__memory_shared" rx="2.5" ry="2.5" style="stroke:#181818;stroke-width:0.5;" width="327.0117" x="295" y="275.5"/><ellipse cx="310" cy="291.5" fill="#ADD1B2" rx="11" ry="11" style="stroke:#181818;stroke-width:1;"/><path d="M312.9688,297.1406 Q312.3906,297.4375 311.75,297.5781 Q311.1094,297.7344 310.4063,297.7344 Q307.9063,297.7344 306.5781,296.0938 Q305.2656,294.4375 305.2656,291.3125 Q305.2656,288.1875 306.5781,286.5313 Q307.9063,284.875 310.4063,284.875 Q311.1094,284.875 311.75,285.0313 Q312.4063,285.1875 312.9688,285.4844 L312.9688,288.2031 Q312.3438,287.625 311.75,287.3594 Q311.1563,287.0781 310.5313,287.0781 Q309.1875,287.0781 308.5,288.1563 Q307.8125,289.2188 307.8125,291.3125 Q307.8125,293.4063 308.5,294.4844 Q309.1875,295.5469 310.5313,295.5469 Q311.1563,295.5469 311.75,295.2813 Q312.3438,295 312.9688,294.4219 L312.9688,297.1406 Z " fill="#000000"/><text fill="#000000" font-family="sans-serif" font-size="14" lengthAdjust="spacing" textLength="295.0117" x="324" y="296.3467">comp_arc_sta__baselibs__memory_shared</text><line style="stroke:#181818;stroke-width:0.5;" x1="296" x2="621.0117" y1="307.5" y2="307.5"/></g><!--class comp_arc_sta__baselibs__result--><g id="elem_comp_arc_sta__baselibs__result"><rect fill="#F1F1F1" height="40" id="comp_arc_sta__baselibs__result" rx="2.5" ry="2.5" style="stroke:#181818;stroke-width:0.5;" width="253.4297" x="7" y="275.5"/><ellipse cx="22" cy="291.5" fill="#ADD1B2" rx="11" ry="11" style="stroke:#181818;stroke-width:1;"/><path d="M24.9688,297.1406 Q24.3906,297.4375 23.75,297.5781 Q23.1094,297.7344 22.4063,297.7344 Q19.9063,297.7344 18.5781,296.0938 Q17.2656,294.4375 17.2656,291.3125 Q17.2656,288.1875 18.5781,286.5313 Q19.9063,284.875 22.4063,284.875 Q23.1094,284.875 23.75,285.0313 Q24.4063,285.1875 24.9688,285.4844 L24.9688,288.2031 Q24.3438,287.625 23.75,287.3594 Q23.1563,287.0781 22.5313,287.0781 Q21.1875,287.0781 20.5,288.1563 Q19.8125,289.2188 19.8125,291.3125 Q19.8125,293.4063 20.5,294.4844 Q21.1875,295.5469 22.5313,295.5469 Q23.1563,295.5469 23.75,295.2813 Q24.3438,295 24.9688,294.4219 L24.9688,297.1406 Z " fill="#000000"/><text fill="#000000" font-family="sans-serif" font-size="14" lengthAdjust="spacing" textLength="221.4297" x="36" y="296.3467">comp_arc_sta__baselibs__result</text><line style="stroke:#181818;stroke-width:0.5;" x1="8" x2="259.4297" y1="307.5" y2="307.5"/></g><!--reverse link logic_arc_int__baselibs__shared_future to comp_arc_sta__baselibs__concurrency--><g id="link_logic_arc_int__baselibs__shared_future_comp_arc_sta__baselibs__concurrency"><path codeLine="15" d="M2626.5641,199.2806 C2737.5041,213.0806 2886.33,231.04 3022.5,245.5 C3149.86,259.02 3294.74,272.32 3400.47,281.64 " fill="transparent" id="logic_arc_int__baselibs__shared_future-backto-comp_arc_sta__baselibs__concurrency" style="stroke:#181818;stroke-width:1;"/><polygon fill="#181818" points="2620.61,198.54,2629.0474,203.6204,2625.5718,199.1572,2630.0349,195.6816,2620.61,198.54" style="stroke:#181818;stroke-width:1;"/><text fill="#000000" font-family="sans-serif" font-size="13" lengthAdjust="spacing" textLength="76.9082" x="3023.5" y="241.5669">implements</text></g><!--link Feature_User to logic_arc_int__baselibs__json--><g id="link_Feature_User_logic_arc_int__baselibs__json"><path codeLine="16" d="M3060.47,46.16 C2878.74,52.92 2181.58,79.6 1608.5,111.5 C1294.51,128.98 1215.28,125.96 902.5,158.5 C896.77,159.1 896.8784,159.0443 890.9684,159.7443 " fill="transparent" id="Feature_User-to-logic_arc_int__baselibs__json" style="stroke:#181818;stroke-width:1;"/><polygon fill="#181818" points="885.01,160.45,894.418,163.3636,889.9753,159.8619,893.477,155.4192,885.01,160.45" style="stroke:#181818;stroke-width:1;"/><text fill="#000000" font-family="sans-serif" font-size="13" lengthAdjust="spacing" textLength="23.0103" x="1609.5" y="124.5669">use</text></g><!--reverse link logic_arc_int__baselibs__utils_scoped_op to comp_arc_sta__baselibs__utils--><g id="link_logic_arc_int__baselibs__utils_scoped_op_comp_arc_sta__baselibs__utils"><path codeLine="17" d="M5738.7506,202.1252 C5770.0406,223.4152 5815.19,254.14 5846.4,275.38 " fill="transparent" id="logic_arc_int__baselibs__utils_scoped_op-backto-comp_arc_sta__baselibs__utils" style="stroke:#181818;stroke-width:1;"/><polygon fill="#181818" points="5733.79,198.75,5738.9808,207.1199,5737.9238,201.5627,5743.4811,200.5058,5733.79,198.75" style="stroke:#181818;stroke-width:1;"/><text fill="#000000" font-family="sans-serif" font-size="13" lengthAdjust="spacing" textLength="76.9082" x="5800.5" y="241.5669">implements</text></g><!--link Feature_User to logic_arc_int__baselibs__synchronized_queue--><g id="link_Feature_User_logic_arc_int__baselibs__synchronized_queue"><path codeLine="18" d="M3150.56,50.74 C3288.51,69.83 3703.0667,127.1974 3923.0767,157.6474 " fill="transparent" id="Feature_User-to-logic_arc_int__baselibs__synchronized_queue" style="stroke:#181818;stroke-width:1;"/><polygon fill="#181818" points="3929.02,158.47,3920.6534,153.2739,3924.0672,157.7845,3919.5566,161.1984,3929.02,158.47" style="stroke:#181818;stroke-width:1;"/><text fill="#000000" font-family="sans-serif" font-size="13" lengthAdjust="spacing" textLength="23.0103" x="3701.5" y="124.5669">use</text></g><!--link Feature_User to logic_arc_int__baselibs__shared_future--><g id="link_Feature_User_logic_arc_int__baselibs__shared_future"><path codeLine="19" d="M3060.34,53.96 C2956.57,75.69 2705.3126,128.3201 2567.3226,157.2201 " fill="transparent" id="Feature_User-to-logic_arc_int__baselibs__shared_future" style="stroke:#181818;stroke-width:1;"/><polygon fill="#181818" points="2561.45,158.45,2571.0788,160.5202,2566.3438,157.4251,2569.4389,152.6901,2561.45,158.45" style="stroke:#181818;stroke-width:1;"/><text fill="#000000" font-family="sans-serif" font-size="13" lengthAdjust="spacing" textLength="23.0103" x="2770.5" y="124.5669">use</text></g><!--reverse link logic_arc_int__baselibs__message_passing to comp_arc_sta__baselibs__message_passing--><g id="link_logic_arc_int__baselibs__message_passing_comp_arc_sta__baselibs__message_passing"><path codeLine="20" d="M5349.379,204.7464 C5350.119,225.9764 5351.09,253.94 5351.83,275.19 " fill="transparent" id="logic_arc_int__baselibs__message_passing-backto-comp_arc_sta__baselibs__message_passing" style="stroke:#181818;stroke-width:1;"/><polygon fill="#181818" points="5349.17,198.75,5345.4859,207.8839,5349.3442,203.747,5353.4811,207.6052,5349.17,198.75" style="stroke:#181818;stroke-width:1;"/><text fill="#000000" font-family="sans-serif" font-size="13" lengthAdjust="spacing" textLength="76.9082" x="5352.5" y="241.5669">implements</text></g><!--reverse link logic_arc_int__baselibs__utils_base64 to comp_arc_sta__baselibs__utils--><g id="link_logic_arc_int__baselibs__utils_base64_comp_arc_sta__baselibs__utils"><path codeLine="21" d="M6011.0799,202.1113 C5979.5999,223.4013 5934.16,254.14 5902.76,275.38 " fill="transparent" id="logic_arc_int__baselibs__utils_base64-backto-comp_arc_sta__baselibs__utils" style="stroke:#181818;stroke-width:1;"/><polygon fill="#181818" points="6016.05,198.75,6006.354,200.4785,6011.9083,201.5511,6010.8357,207.1053,6016.05,198.75" style="stroke:#181818;stroke-width:1;"/><text fill="#000000" font-family="sans-serif" font-size="13" lengthAdjust="spacing" textLength="76.9082" x="5970.5" y="241.5669">implements</text></g><!--reverse link logic_arc_int__baselibs__filesystem to comp_arc_sta__baselibs__filesystem--><g id="link_logic_arc_int__baselibs__filesystem_comp_arc_sta__baselibs__filesystem"><path codeLine="22" d="M5010.4002,204.7444 C5009.4802,225.9744 5008.26,253.94 5007.34,275.19 " fill="transparent" id="logic_arc_int__baselibs__filesystem-backto-comp_arc_sta__baselibs__filesystem" style="stroke:#181818;stroke-width:1;"/><polygon fill="#181818" points="5010.66,198.75,5006.2741,207.5684,5010.4435,203.7453,5014.2666,207.9147,5010.66,198.75" style="stroke:#181818;stroke-width:1;"/><text fill="#000000" font-family="sans-serif" font-size="13" lengthAdjust="spacing" textLength="76.9082" x="5010.5" y="241.5669">implements</text></g><!--link Feature_User to logic_arc_int__baselibs__result--><g id="link_Feature_User_logic_arc_int__baselibs__result"><path codeLine="23" d="M3060.31,45.24 C2833.49,49.12 1796.48,68.47 948.5,111.5 C651.7,126.56 577.16,128.47 281.5,158.5 C274.65,159.2 273.5812,159.279 266.4912,160.089 " fill="transparent" id="Feature_User-to-logic_arc_int__baselibs__result" style="stroke:#181818;stroke-width:1;"/><polygon fill="#181818" points="260.53,160.77,269.9259,163.7226,265.4977,160.2025,269.0178,155.7743,260.53,160.77" style="stroke:#181818;stroke-width:1;"/><text fill="#000000" font-family="sans-serif" font-size="13" lengthAdjust="spacing" textLength="23.0103" x="949.5" y="124.5669">use</text></g><!--link Feature_User to logic_arc_int__baselibs__promise--><g id="link_Feature_User_logic_arc_int__baselibs__promise"><path codeLine="24" d="M3150.56,48.5 C3305,62.3 3827.14,109.78 4257.5,158.5 C4263.46,159.17 4263.5918,159.1728 4269.7418,159.9028 " fill="transparent" id="Feature_User-to-logic_arc_int__baselibs__promise" style="stroke:#181818;stroke-width:1;"/><polygon fill="#181818" points="4275.7,160.61,4267.2342,155.577,4270.7349,160.0206,4266.2913,163.5213,4275.7,160.61" style="stroke:#181818;stroke-width:1;"/><text fill="#000000" font-family="sans-serif" font-size="13" lengthAdjust="spacing" textLength="23.0103" x="3974.5" y="124.5669">use</text></g><!--link Feature_User to logic_arc_int__baselibs__task--><g id="link_Feature_User_logic_arc_int__baselibs__task"><path codeLine="25" d="M3150.66,53.96 C3254.43,75.69 3505.6874,128.3201 3643.6774,157.2201 " fill="transparent" id="Feature_User-to-logic_arc_int__baselibs__task" style="stroke:#181818;stroke-width:1;"/><polygon fill="#181818" points="3649.55,158.45,3641.5611,152.6901,3644.6562,157.4251,3639.9212,160.5202,3649.55,158.45" style="stroke:#181818;stroke-width:1;"/><text fill="#000000" font-family="sans-serif" font-size="13" lengthAdjust="spacing" textLength="23.0103" x="3500.5" y="124.5669">use</text></g><!--reverse link logic_arc_int__baselibs__task_result to comp_arc_sta__baselibs__concurrency--><g id="link_logic_arc_int__baselibs__task_result_comp_arc_sta__baselibs__concurrency"><path codeLine="26" d="M3468.7425,203.2199 C3487.7525,224.4499 3514.17,253.94 3533.2,275.19 " fill="transparent" id="logic_arc_int__baselibs__task_result-backto-comp_arc_sta__baselibs__concurrency" style="stroke:#181818;stroke-width:1;"/><polygon fill="#181818" points="3464.74,198.75,3467.7638,208.1232,3468.0754,202.4749,3473.7237,202.7865,3464.74,198.75" style="stroke:#181818;stroke-width:1;"/><text fill="#000000" font-family="sans-serif" font-size="13" lengthAdjust="spacing" textLength="76.9082" x="3506.5" y="241.5669">implements</text></g><!--reverse link logic_arc_int__baselibs__condition_variable to comp_arc_sta__baselibs__concurrency--><g id="link_logic_arc_int__baselibs__condition_variable_comp_arc_sta__baselibs__concurrency"><path codeLine="27" d="M3185.0391,200.0513 C3267.4191,221.3413 3394.19,254.11 3476.62,275.41 " fill="transparent" id="logic_arc_int__baselibs__condition_variable-backto-comp_arc_sta__baselibs__concurrency" style="stroke:#181818;stroke-width:1;"/><polygon fill="#181818" points="3179.23,198.55,3186.9428,204.6747,3184.071,199.8011,3188.9446,196.9292,3179.23,198.55" style="stroke:#181818;stroke-width:1;"/><text fill="#000000" font-family="sans-serif" font-size="13" lengthAdjust="spacing" textLength="76.9082" x="3356.5" y="241.5669">implements</text></g><!--reverse link logic_arc_int__baselibs__future to comp_arc_sta__baselibs__concurrency--><g id="link_logic_arc_int__baselibs__future_comp_arc_sta__baselibs__concurrency"><path codeLine="28" d="M2910.1612,199.3557 C2997.1912,212.6457 3110.48,229.85 3215.5,245.5 C3282.65,255.5 3357.4,266.46 3419.22,275.46 " fill="transparent" id="logic_arc_int__baselibs__future-backto-comp_arc_sta__baselibs__concurrency" style="stroke:#181818;stroke-width:1;"/><polygon fill="#181818" points="2904.23,198.45,2912.523,203.7628,2909.1727,199.2048,2913.7307,195.8544,2904.23,198.45" style="stroke:#181818;stroke-width:1;"/><text fill="#000000" font-family="sans-serif" font-size="13" lengthAdjust="spacing" textLength="76.9082" x="3216.5" y="241.5669">implements</text></g><!--reverse link logic_arc_int__baselibs__bit_mask_operator to comp_arc_sta__baselibs__bit_manipulation--><g id="link_logic_arc_int__baselibs__bit_mask_operator_comp_arc_sta__baselibs__bit_manipulation"><path codeLine="29" d="M1784.0993,202.8832 C1806.4393,224.1132 1837.82,253.94 1860.18,275.19 " fill="transparent" id="logic_arc_int__baselibs__bit_mask_operator-backto-comp_arc_sta__baselibs__bit_manipulation" style="stroke:#181818;stroke-width:1;"/><polygon fill="#181818" points="1779.75,198.75,1783.5185,207.8494,1783.3744,202.1943,1789.0294,202.0503,1779.75,198.75" style="stroke:#181818;stroke-width:1;"/><text fill="#000000" font-family="sans-serif" font-size="13" lengthAdjust="spacing" textLength="76.9082" x="1828.5" y="241.5669">implements</text></g><!--reverse link logic_arc_int__baselibs__executor to comp_arc_sta__baselibs__concurrency--><g id="link_logic_arc_int__baselibs__executor_comp_arc_sta__baselibs__concurrency"><path codeLine="30" d="M4566.1635,197.1108 C4560.2135,197.8308 4560.27,197.82 4554.5,198.5 C4366.21,220.78 4319.2,227.07 4130.5,245.5 C3984.54,259.75 3817.67,273.59 3700.51,282.91 " fill="transparent" id="logic_arc_int__baselibs__executor-backto-comp_arc_sta__baselibs__concurrency" style="stroke:#181818;stroke-width:1;"/><polygon fill="#181818" points="4572.12,196.39,4562.7047,193.5002,4567.1562,196.9907,4563.6657,201.4422,4572.12,196.39" style="stroke:#181818;stroke-width:1;"/><text fill="#000000" font-family="sans-serif" font-size="13" lengthAdjust="spacing" textLength="76.9082" x="4293.5" y="241.5669">implements</text></g><!--reverse link logic_arc_int__baselibs__intrusive_list to comp_arc_sta__baselibs__containers--><g id="link_logic_arc_int__baselibs__intrusive_list_comp_arc_sta__baselibs__containers"><path codeLine="31" d="M1090.7337,202.9203 C1112.6937,224.1503 1143.52,253.94 1165.52,275.19 " fill="transparent" id="logic_arc_int__baselibs__intrusive_list-backto-comp_arc_sta__baselibs__containers" style="stroke:#181818;stroke-width:1;"/><polygon fill="#181818" points="1086.42,198.75,1090.1104,207.8813,1090.0148,202.2253,1095.6708,202.1297,1086.42,198.75" style="stroke:#181818;stroke-width:1;"/><text fill="#000000" font-family="sans-serif" font-size="13" lengthAdjust="spacing" textLength="76.9082" x="1134.5" y="241.5669">implements</text></g><!--link Feature_User to logic_arc_int__baselibs__memory_shared--><g id="link_Feature_User_logic_arc_int__baselibs__memory_shared"><path codeLine="32" d="M3060.17,45.45 C2852.33,49.97 1969.57,70.72 1246.5,111.5 C974.13,126.86 906.14,133.41 634.5,158.5 C628.99,159.01 629.3619,158.9597 623.7019,159.5097 " fill="transparent" id="Feature_User-to-logic_arc_int__baselibs__memory_shared" style="stroke:#181818;stroke-width:1;"/><polygon fill="#181818" points="617.73,160.09,627.0747,163.2008,622.7066,159.6064,626.3009,155.2383,617.73,160.09" style="stroke:#181818;stroke-width:1;"/><text fill="#000000" font-family="sans-serif" font-size="13" lengthAdjust="spacing" textLength="23.0103" x="1247.5" y="124.5669">use</text></g><!--link Feature_User to logic_arc_int__baselibs__message_passing--><g id="link_Feature_User_logic_arc_int__baselibs__message_passing"><path codeLine="33" d="M3150.6,46.08 C3328.85,52.45 4001.52,77.49 4554.5,111.5 C4826.79,128.25 4894.81,133.89 5166.5,158.5 C5172.35,159.03 5172.3367,159.0144 5178.3567,159.5844 " fill="transparent" id="Feature_User-to-logic_arc_int__baselibs__message_passing" style="stroke:#181818;stroke-width:1;"/><polygon fill="#181818" points="5184.33,160.15,5175.7471,155.3194,5179.3523,159.6787,5174.993,163.2838,5184.33,160.15" style="stroke:#181818;stroke-width:1;"/><text fill="#000000" font-family="sans-serif" font-size="13" lengthAdjust="spacing" textLength="23.0103" x="4810.5" y="124.5669">use</text></g><!--link Feature_User to logic_arc_int__baselibs__bit_mask_operator--><g id="link_Feature_User_logic_arc_int__baselibs__bit_mask_operator"><path codeLine="34" d="M3060.4,48.86 C2905.23,63.86 2379.02,114.85 1944.5,158.5 C1938.88,159.06 1939.1299,159.0399 1933.3599,159.6199 " fill="transparent" id="Feature_User-to-logic_arc_int__baselibs__bit_mask_operator" style="stroke:#181818;stroke-width:1;"/><polygon fill="#181818" points="1927.39,160.22,1936.7449,163.2998,1932.3649,159.7199,1935.9448,155.3399,1927.39,160.22" style="stroke:#181818;stroke-width:1;"/><text fill="#000000" font-family="sans-serif" font-size="13" lengthAdjust="spacing" textLength="23.0103" x="2392.5" y="124.5669">use</text></g><!--reverse link logic_arc_int__baselibs__dynamic_array to comp_arc_sta__baselibs__containers--><g id="link_logic_arc_int__baselibs__dynamic_array_comp_arc_sta__baselibs__containers"><path codeLine="35" d="M1360.8783,201.5592 C1320.6983,222.8492 1261.66,254.14 1221.58,275.38 " fill="transparent" id="logic_arc_int__baselibs__dynamic_array-backto-comp_arc_sta__baselibs__containers" style="stroke:#181818;stroke-width:1;"/><polygon fill="#181818" points="1366.18,198.75,1356.3546,199.4293,1361.7619,201.091,1360.1002,206.4983,1366.18,198.75" style="stroke:#181818;stroke-width:1;"/><text fill="#000000" font-family="sans-serif" font-size="13" lengthAdjust="spacing" textLength="76.9082" x="1308.5" y="241.5669">implements</text></g><!--reverse link logic_arc_int__baselibs__bit_manipulation to comp_arc_sta__baselibs__bit_manipulation--><g id="link_logic_arc_int__baselibs__bit_manipulation_comp_arc_sta__baselibs__bit_manipulation"><path codeLine="36" d="M2077.6768,201.1868 C2032.7368,222.4568 1965.98,254.05 1921,275.34 " fill="transparent" id="logic_arc_int__baselibs__bit_manipulation-backto-comp_arc_sta__baselibs__bit_manipulation" style="stroke:#181818;stroke-width:1;"/><polygon fill="#181818" points="2083.1,198.62,2073.2539,198.8547,2078.5806,200.759,2076.6763,206.0857,2083.1,198.62" style="stroke:#181818;stroke-width:1;"/><text fill="#000000" font-family="sans-serif" font-size="13" lengthAdjust="spacing" textLength="76.9082" x="2018.5" y="241.5669">implements</text></g><!--link Feature_User to logic_arc_int__baselibs__dynamic_array--><g id="link_Feature_User_logic_arc_int__baselibs__dynamic_array"><path codeLine="37" d="M3060.36,47.27 C2875.87,58.72 2161.04,104.28 1574.5,158.5 C1568.67,159.04 1568.6922,159.0327 1562.6922,159.6127 " fill="transparent" id="Feature_User-to-logic_arc_int__baselibs__dynamic_array" style="stroke:#181818;stroke-width:1;"/><polygon fill="#181818" points="1556.72,160.19,1566.0631,163.3055,1561.6968,159.7089,1565.2934,155.3426,1556.72,160.19" style="stroke:#181818;stroke-width:1;"/><text fill="#000000" font-family="sans-serif" font-size="13" lengthAdjust="spacing" textLength="23.0103" x="2122.5" y="124.5669">use</text></g><!--link Feature_User to logic_arc_int__baselibs__condition_variable--><g id="link_Feature_User_logic_arc_int__baselibs__condition_variable"><path codeLine="38" d="M3105.5,81.55 C3105.5,106.45 3105.5,132.26 3105.5,152.26 " fill="transparent" id="Feature_User-to-logic_arc_int__baselibs__condition_variable" style="stroke:#181818;stroke-width:1;"/><polygon fill="#181818" points="3105.5,158.26,3109.5,149.26,3105.5,153.26,3101.5,149.26,3105.5,158.26" style="stroke:#181818;stroke-width:1;"/><text fill="#000000" font-family="sans-serif" font-size="13" lengthAdjust="spacing" textLength="23.0103" x="3106.5" y="124.5669">use</text></g><!--link Feature_User to logic_arc_int__baselibs__executor--><g id="link_Feature_User_logic_arc_int__baselibs__executor"><path codeLine="39" d="M3150.65,47.17 C3329.11,57.89 4002.43,100.12 4554.5,158.5 C4560.28,159.11 4560.2176,159.0897 4566.1776,159.7597 " fill="transparent" id="Feature_User-to-logic_arc_int__baselibs__executor" style="stroke:#181818;stroke-width:1;"/><polygon fill="#181818" points="4572.14,160.43,4563.6432,155.4496,4567.1713,159.8714,4562.7495,163.3996,4572.14,160.43" style="stroke:#181818;stroke-width:1;"/><text fill="#000000" font-family="sans-serif" font-size="13" lengthAdjust="spacing" textLength="23.0103" x="4239.5" y="124.5669">use</text></g><!--link Feature_User to logic_arc_int__baselibs__utils_base64--><g id="link_Feature_User_logic_arc_int__baselibs__utils_base64"><path codeLine="40" d="M3150.66,45.39 C3371.88,49.88 4363.27,71.37 5174.5,111.5 C5488.59,127.04 5567.33,129.95 5880.5,158.5 C5886.35,159.03 5886.3496,159.0049 5892.3696,159.6049 " fill="transparent" id="Feature_User-to-logic_arc_int__baselibs__utils_base64" style="stroke:#181818;stroke-width:1;"/><polygon fill="#181818" points="5898.34,160.2,5889.7811,155.3271,5893.3647,159.7041,5888.9877,163.2877,5898.34,160.2" style="stroke:#181818;stroke-width:1;"/><text fill="#000000" font-family="sans-serif" font-size="13" lengthAdjust="spacing" textLength="23.0103" x="5492.5" y="124.5669">use</text></g><!--reverse link logic_arc_int__baselibs__json to comp_arc_sta__baselibs__json--><g id="link_logic_arc_int__baselibs__json_comp_arc_sta__baselibs__json"><path codeLine="41" d="M770.4777,204.7317 C772.1377,225.9617 774.33,253.94 775.99,275.19 " fill="transparent" id="logic_arc_int__baselibs__json-backto-comp_arc_sta__baselibs__json" style="stroke:#181818;stroke-width:1;"/><polygon fill="#181818" points="770.01,198.75,766.7238,208.0344,770.3998,203.7348,774.6994,207.4108,770.01,198.75" style="stroke:#181818;stroke-width:1;"/><text fill="#000000" font-family="sans-serif" font-size="13" lengthAdjust="spacing" textLength="76.9082" x="775.5" y="241.5669">implements</text></g><!--link Feature_User to logic_arc_int__baselibs__utils_scoped_op--><g id="link_Feature_User_logic_arc_int__baselibs__utils_scoped_op"><path codeLine="42" d="M3150.81,45.75 C3350.28,51.38 4170.1,75.57 4842.5,111.5 C5148.55,127.85 5225.2,131.51 5530.5,158.5 C5536.13,159 5535.8869,158.9526 5541.6769,159.5026 " fill="transparent" id="Feature_User-to-logic_arc_int__baselibs__utils_scoped_op" style="stroke:#181818;stroke-width:1;"/><polygon fill="#181818" points="5547.65,160.07,5539.0686,155.2368,5542.6724,159.5972,5538.3121,163.201,5547.65,160.07" style="stroke:#181818;stroke-width:1;"/><text fill="#000000" font-family="sans-serif" font-size="13" lengthAdjust="spacing" textLength="23.0103" x="5142.5" y="124.5669">use</text></g><!--link Feature_User to logic_arc_int__baselibs__filesystem--><g id="link_Feature_User_logic_arc_int__baselibs__filesystem"><path codeLine="43" d="M3150.55,46.25 C3350.66,54.27 4178.85,90.09 4855.5,158.5 C4861.34,159.09 4861.3247,159.0659 4867.3447,159.7159 " fill="transparent" id="Feature_User-to-logic_arc_int__baselibs__filesystem" style="stroke:#181818;stroke-width:1;"/><polygon fill="#181818" points="4873.31,160.36,4864.7914,155.417,4868.3389,159.8233,4863.9326,163.3707,4873.31,160.36" style="stroke:#181818;stroke-width:1;"/><text fill="#000000" font-family="sans-serif" font-size="13" lengthAdjust="spacing" textLength="23.0103" x="4522.5" y="124.5669">use</text></g><!--link Feature_User to logic_arc_int__baselibs__task_result--><g id="link_Feature_User_logic_arc_int__baselibs__task_result"><path codeLine="44" d="M3150.56,62.02 C3214.77,86.99 3326.5479,130.4654 3392.8679,156.2554 " fill="transparent" id="Feature_User-to-logic_arc_int__baselibs__task_result" style="stroke:#181818;stroke-width:1;"/><polygon fill="#181818" points="3398.46,158.43,3391.5216,151.4401,3393.8,156.6178,3388.6222,158.8961,3398.46,158.43" style="stroke:#181818;stroke-width:1;"/><text fill="#000000" font-family="sans-serif" font-size="13" lengthAdjust="spacing" textLength="23.0103" x="3318.5" y="124.5669">use</text></g><!--reverse link logic_arc_int__baselibs__promise to comp_arc_sta__baselibs__concurrency--><g id="link_logic_arc_int__baselibs__promise_comp_arc_sta__baselibs__concurrency"><path codeLine="45" d="M4269.9267,198.4728 C4173.2067,211.8628 4044.13,229.61 3925.5,245.5 C3850.5,255.55 3767.03,266.48 3697.91,275.46 " fill="transparent" id="logic_arc_int__baselibs__promise-backto-comp_arc_sta__baselibs__concurrency" style="stroke:#181818;stroke-width:1;"/><polygon fill="#181818" points="4275.87,197.65,4266.4065,194.922,4270.9172,198.3357,4267.5036,202.8464,4275.87,197.65" style="stroke:#181818;stroke-width:1;"/><text fill="#000000" font-family="sans-serif" font-size="13" lengthAdjust="spacing" textLength="76.9082" x="4045.5" y="241.5669">implements</text></g><!--link Feature_User to logic_arc_int__baselibs__intrusive_list--><g id="link_Feature_User_logic_arc_int__baselibs__intrusive_list"><path codeLine="46" d="M3060.44,46.21 C2851.88,54.33 1959.57,91.44 1230.5,158.5 C1224.79,159.03 1224.9399,158.98 1219.0699,159.57 " fill="transparent" id="Feature_User-to-logic_arc_int__baselibs__intrusive_list" style="stroke:#181818;stroke-width:1;"/><polygon fill="#181818" points="1213.1,160.17,1222.4549,163.2499,1218.0749,159.67,1221.6549,155.29,1213.1,160.17" style="stroke:#181818;stroke-width:1;"/><text fill="#000000" font-family="sans-serif" font-size="13" lengthAdjust="spacing" textLength="23.0103" x="1798.5" y="124.5669">use</text></g><!--reverse link logic_arc_int__baselibs__synchronized_queue to comp_arc_sta__baselibs__concurrency--><g id="link_logic_arc_int__baselibs__synchronized_queue_comp_arc_sta__baselibs__concurrency"><path codeLine="47" d="M3975.1437,199.8554 C3879.6337,221.1454 3731.75,254.11 3636.16,275.41 " fill="transparent" id="logic_arc_int__baselibs__synchronized_queue-backto-comp_arc_sta__baselibs__concurrency" style="stroke:#181818;stroke-width:1;"/><polygon fill="#181818" points="3981,198.55,3971.3453,196.6039,3976.1198,199.6378,3973.0859,204.4123,3981,198.55" style="stroke:#181818;stroke-width:1;"/><text fill="#000000" font-family="sans-serif" font-size="13" lengthAdjust="spacing" textLength="76.9082" x="3840.5" y="241.5669">implements</text></g><!--link Feature_User to logic_arc_int__baselibs__bit_manipulation--><g id="link_Feature_User_logic_arc_int__baselibs__bit_manipulation"><path codeLine="48" d="M3060.43,50.6 C2920.48,69.56 2495.2457,127.1547 2269.9057,157.6747 " fill="transparent" id="Feature_User-to-logic_arc_int__baselibs__bit_manipulation" style="stroke:#181818;stroke-width:1;"/><polygon fill="#181818" points="2263.96,158.48,2273.4154,161.2359,2268.9148,157.8089,2272.3417,153.3083,2263.96,158.48" style="stroke:#181818;stroke-width:1;"/><text fill="#000000" font-family="sans-serif" font-size="13" lengthAdjust="spacing" textLength="23.0103" x="2586.5" y="124.5669">use</text></g><!--reverse link logic_arc_int__baselibs__memory_shared to comp_arc_sta__baselibs__memory_shared--><g id="link_logic_arc_int__baselibs__memory_shared_comp_arc_sta__baselibs__memory_shared"><path codeLine="49" d="M458.5,204.75 C458.5,225.98 458.5,253.94 458.5,275.19 " fill="transparent" id="logic_arc_int__baselibs__memory_shared-backto-comp_arc_sta__baselibs__memory_shared" style="stroke:#181818;stroke-width:1;"/><polygon fill="#181818" points="458.5,198.75,454.5,207.75,458.5,203.75,462.5,207.75,458.5,198.75" style="stroke:#181818;stroke-width:1;"/><text fill="#000000" font-family="sans-serif" font-size="13" lengthAdjust="spacing" textLength="76.9082" x="459.5" y="241.5669">implements</text></g><!--reverse link logic_arc_int__baselibs__task to comp_arc_sta__baselibs__concurrency--><g id="link_logic_arc_int__baselibs__task_comp_arc_sta__baselibs__concurrency"><path codeLine="50" d="M3703.5668,201.8565 C3668.3868,223.1465 3617.18,254.14 3582.09,275.38 " fill="transparent" id="logic_arc_int__baselibs__task-backto-comp_arc_sta__baselibs__concurrency" style="stroke:#181818;stroke-width:1;"/><polygon fill="#181818" points="3708.7,198.75,3698.9292,199.9876,3704.4223,201.3387,3703.0712,206.8319,3708.7,198.75" style="stroke:#181818;stroke-width:1;"/><text fill="#000000" font-family="sans-serif" font-size="13" lengthAdjust="spacing" textLength="76.9082" x="3658.5" y="241.5669">implements</text></g><!--link Feature_User to logic_arc_int__baselibs__future--><g id="link_Feature_User_logic_arc_int__baselibs__future"><path codeLine="51" d="M3060.31,62.99 C2998.83,88.15 2894.9231,130.6777 2832.7031,156.1377 " fill="transparent" id="Feature_User-to-logic_arc_int__baselibs__future" style="stroke:#181818;stroke-width:1;"/><polygon fill="#181818" points="2827.15,158.41,2836.9945,158.7036,2831.7776,156.5164,2833.9648,151.2995,2827.15,158.41" style="stroke:#181818;stroke-width:1;"/><text fill="#000000" font-family="sans-serif" font-size="13" lengthAdjust="spacing" textLength="23.0103" x="2934.5" y="124.5669">use</text></g><!--reverse link logic_arc_int__baselibs__result to comp_arc_sta__baselibs__result--><g id="link_logic_arc_int__baselibs__result_comp_arc_sta__baselibs__result"><path codeLine="52" d="M137.4002,204.7444 C136.4802,225.9744 135.26,253.94 134.34,275.19 " fill="transparent" id="logic_arc_int__baselibs__result-backto-comp_arc_sta__baselibs__result" style="stroke:#181818;stroke-width:1;"/><polygon fill="#181818" points="137.66,198.75,133.2741,207.5684,137.4435,203.7453,141.2666,207.9147,137.66,198.75" style="stroke:#181818;stroke-width:1;"/><text fill="#000000" font-family="sans-serif" font-size="13" lengthAdjust="spacing" textLength="76.9082" x="137.5" y="241.5669">implements</text></g><!--SRC=[jLPDRzim3BthLmYzfnk6OOUYw6N0JZkkPq6MsOIhFboHwkeD- - -Juw294pUotUmectv-V2GVfQqDlvJ35_HhmQ6H76GLc8EJDKOmZC6B3TOWYI52uBQ1_WokuLPgveXLOY1nIznQk1FNcj1Mye_uZXw-1XkYZ51lJpysQ1uz4CbFrn_5Nt7xOVUDq8PptDKtq9mYo7k2U2KroTq3rJsGGfZW6gMZKSHQgKeJMAn8AHEyIJ62DwrSfTMTj66DPXk9dWyZQQCp6_MGEjWRYQwnuC0pIJ7urwe-X_AJWh-HYK2-IIanMYgGsSOeCg79b4Apc0wrtcnYyFWxupmbIB0ZDmTZACpPt5mkeLw3QZHHRfn2baVHmopVBrzt_l9v6ke3Mg0sjx8hGEy35nSb0YNBymlHnE2G5bIGDJqM2ZTzJZgmrnIcI3iTEaVMs1cBUjOHTMNXqdyOc-wtK2javRJ79bdTaIf0z-5PcpopKMVJkZHtU06Jvk2opiuQIxEIZp4HFeEoIBougHsu4DkTMSnlqHChc0im8d-fuQVfKxTUk-shgDl_s3dxyCKrEA8wLyAnyPkBiM_IkLyEFVjixRebMz2qtyCBTJpPldDpELmIIynwk2BURnslcsEX8CSUSI5QOxUJXGnFPwXmJpbmg-8jPU1ibpNrVZKlJ7hIbQnlfGADiNt-3m00]--></g></svg>