<svg xmlns="http://www.w3.org/2000/svg" xmlns:xlink="http://www.w3.org/1999/xlink" contentStyleType="text/css" data-diagram-type="CLASS" height="791px" preserveAspectRatio="none" style="width:1121px;height:791px;background:#FFFFFF;" version="1.1" viewBox="0 0 1121 791" width="1121px" zoomAndPan="magnify"><defs/><g><!--class LaunchManager--><g id="elem_LaunchManager"><rect codeLine="2" fill="#F1F1F1" height="48" id="LaunchManager" rx="2.5" ry="2.5" style="stroke:#181818;stroke-width:0.5;" width="144.0615" x="610" y="7"/><ellipse cx="625" cy="23" fill="#ADD1B2" rx="11" ry="11" style="stroke:#181818;stroke-width:1;"/><path d="M627.9688,28.6406 Q627.3906,28.9375 626.75,29.0781 Q626.1094,29.2344 625.4063,29.2344 Q622.9063,29.2344 621.5781,27.5938 Q620.2656,25.9375 620.2656,22.8125 Q620.2656,19.6875 621.5781,18.0313 Q622.9063,16.375 625.4063,16.375 Q626.1094,16.375 626.75,16.5313 Q627.4063,16.6875 627.9688,16.9844 L627.9688,19.7031 Q627.3438,19.125 626.75,18.8594 Q626.1563,18.5781 625.5313,18.5781 Q624.1875,18.5781 623.5,19.6563 Q622.8125,20.7188 622.8125,22.8125 Q622.8125,24.9063 623.5,25.9844 Q624.1875,27.0469 625.5313,27.0469 Q626.1563,27.0469 626.75,26.7813 Q627.3438,26.5 627.9688,25.9219 L627.9688,28.6406 Z " fill="#000000"/><text fill="#000000" font-family="sans-serif" font-size="14" lengthAdjust="spacing" textLength="112.0615" x="639" y="27.8467">LaunchManager</text><line style="stroke:#181818;stroke-width:0.5;" x1="611" x2="753.0615" y1="39" y2="39"/><line style="stroke:#181818;stroke-width:0.5;" x1="611" x2="753.0615" y1="47" y2="47"/></g><!--class LaunchConfiguration--><g id="elem_LaunchConfiguration"><rect codeLine="7" fill="#F1F1F1" height="48" id="LaunchConfiguration" rx="2.5" ry="2.5" style="stroke:#181818;stroke-width:0.5;" width="177.6396" x="593" y="116"/><ellipse cx="608" cy="132" fill="#ADD1B2" rx="11" ry="11" style="stroke:#181818;stroke-width:1;"/><path d="M610.9688,137.6406 Q610.3906,137.9375 609.75,138.0781 Q609.1094,138.2344 608.4063,138.2344 Q605.9063,138.2344 604.5781,136.5938 Q603.2656,134.9375 603.2656,131.8125 Q603.2656,128.6875 604.5781,127.0313 Q605.9063,125.375 608.4063,125.375 Q609.1094,125.375 609.75,125.5313 Q610.4063,125.6875 610.9688,125.9844 L610.9688,128.7031 Q610.3438,128.125 609.75,127.8594 Q609.1563,127.5781 608.5313,127.5781 Q607.1875,127.5781 606.5,128.6563 Q605.8125,129.7188 605.8125,131.8125 Q605.8125,133.9063 606.5,134.9844 Q607.1875,136.0469 608.5313,136.0469 Q609.1563,136.0469 609.75,135.7813 Q610.3438,135.5 610.9688,134.9219 L610.9688,137.6406 Z " fill="#000000"/><text fill="#000000" font-family="sans-serif" font-size="14" lengthAdjust="spacing" textLength="145.6396" x="622" y="136.8467">LaunchConfiguration</text><line style="stroke:#181818;stroke-width:0.5;" x1="594" x2="769.6396" y1="148" y2="148"/><line style="stroke:#181818;stroke-width:0.5;" x1="594" x2="769.6396" y1="156" y2="156"/></g><!--class ConfigFile--><g id="elem_ConfigFile"><rect codeLine="15" fill="#F1F1F1" height="48" id="ConfigFile" rx="2.5" ry="2.5" style="stroke:#181818;stroke-width:0.5;" width="101.3643" x="631.5" y="225"/><ellipse cx="646.5" cy="241" fill="#ADD1B2" rx="11" ry="11" style="stroke:#181818;stroke-width:1;"/><path d="M649.4688,246.6406 Q648.8906,246.9375 648.25,247.0781 Q647.6094,247.2344 646.9063,247.2344 Q644.4063,247.2344 643.0781,245.5938 Q641.7656,243.9375 641.7656,240.8125 Q641.7656,237.6875 643.0781,236.0313 Q644.4063,234.375 646.9063,234.375 Q647.6094,234.375 648.25,234.5313 Q648.9063,234.6875 649.4688,234.9844 L649.4688,237.7031 Q648.8438,237.125 648.25,236.8594 Q647.6563,236.5781 647.0313,236.5781 Q645.6875,236.5781 645,237.6563 Q644.3125,238.7188 644.3125,240.8125 Q644.3125,242.9063 645,243.9844 Q645.6875,245.0469 647.0313,245.0469 Q647.6563,245.0469 648.25,244.7813 Q648.8438,244.5 649.4688,243.9219 L649.4688,246.6406 Z " fill="#000000"/><text fill="#000000" font-family="sans-serif" font-size="14" lengthAdjust="spacing" textLength="69.3643" x="660.5" y="245.8467">ConfigFile</text><line style="stroke:#181818;stroke-width:0.5;" x1="632.5" x2="731.8643" y1="257" y2="257"/><line style="stroke:#181818;stroke-width:0.5;" x1="632.5" x2="731.8643" y1="265" y2="265"/></g><!--class ComponentConfig--><g id="elem_ComponentConfig"><rect codeLine="24" fill="#F1F1F1" height="48" id="ComponentConfig" rx="2.5" ry="2.5" style="stroke:#181818;stroke-width:0.5;" width="158.1982" x="603" y="334"/><ellipse cx="618" cy="350" fill="#ADD1B2" rx="11" ry="11" style="stroke:#181818;stroke-width:1;"/><path d="M620.9688,355.6406 Q620.3906,355.9375 619.75,356.0781 Q619.1094,356.2344 618.4063,356.2344 Q615.9063,356.2344 614.5781,354.5938 Q613.2656,352.9375 613.2656,349.8125 Q613.2656,346.6875 614.5781,345.0313 Q615.9063,343.375 618.4063,343.375 Q619.1094,343.375 619.75,343.5313 Q620.4063,343.6875 620.9688,343.9844 L620.9688,346.7031 Q620.3438,346.125 619.75,345.8594 Q619.1563,345.5781 618.5313,345.5781 Q617.1875,345.5781 616.5,346.6563 Q615.8125,347.7188 615.8125,349.8125 Q615.8125,351.9063 616.5,352.9844 Q617.1875,354.0469 618.5313,354.0469 Q619.1563,354.0469 619.75,353.7813 Q620.3438,353.5 620.9688,352.9219 L620.9688,355.6406 Z " fill="#000000"/><text fill="#000000" font-family="sans-serif" font-size="14" lengthAdjust="spacing" textLength="126.1982" x="632" y="354.8467">ComponentConfig</text><line style="stroke:#181818;stroke-width:0.5;" x1="604" x2="760.1982" y1="366" y2="366"/><line style="stroke:#181818;stroke-width:0.5;" x1="604" x2="760.1982" y1="374" y2="374"/></g><!--class AliveMonitoring--><g id="elem_AliveMonitoring"><rect codeLine="30" fill="#F1F1F1" height="96.8906" id="AliveMonitoring" rx="2.5" ry="2.5" style="stroke:#181818;stroke-width:0.5;" width="200.2617" x="7" y="573"/><ellipse cx="48.6128" cy="589" fill="#ADD1B2" rx="11" ry="11" style="stroke:#181818;stroke-width:1;"/><path d="M51.5816,594.6406 Q51.0035,594.9375 50.3628,595.0781 Q49.7222,595.2344 49.0191,595.2344 Q46.5191,595.2344 45.191,593.5938 Q43.8785,591.9375 43.8785,588.8125 Q43.8785,585.6875 45.191,584.0313 Q46.5191,582.375 49.0191,582.375 Q49.7222,582.375 50.3628,582.5313 Q51.0191,582.6875 51.5816,582.9844 L51.5816,585.7031 Q50.9566,585.125 50.3628,584.8594 Q49.7691,584.5781 49.1441,584.5781 Q47.8003,584.5781 47.1128,585.6563 Q46.4253,586.7188 46.4253,588.8125 Q46.4253,590.9063 47.1128,591.9844 Q47.8003,593.0469 49.1441,593.0469 Q49.7691,593.0469 50.3628,592.7813 Q50.9566,592.5 51.5816,591.9219 L51.5816,594.6406 Z " fill="#000000"/><text fill="#000000" font-family="sans-serif" font-size="14" lengthAdjust="spacing" textLength="109.1221" x="68.5268" y="593.8467">AliveMonitoring</text><line style="stroke:#181818;stroke-width:0.5;" x1="8" x2="206.2617" y1="605" y2="605"/><ellipse cx="18" cy="618.6484" fill="transparent" rx="3" ry="3" style="stroke:#038048;stroke-width:1;"/><text fill="#000000" font-family="sans-serif" font-size="14" lengthAdjust="spacing" textLength="174.2617" x="27" y="621.9951">alive notification interval</text><ellipse cx="18" cy="634.9453" fill="transparent" rx="3" ry="3" style="stroke:#038048;stroke-width:1;"/><text fill="#000000" font-family="sans-serif" font-size="14" lengthAdjust="spacing" textLength="144.9902" x="27" y="638.292">Startup grace period</text><ellipse cx="18" cy="651.2422" fill="transparent" rx="3" ry="3" style="stroke:#038048;stroke-width:1;"/><text fill="#000000" font-family="sans-serif" font-size="14" lengthAdjust="spacing" textLength="150.3018" x="27" y="654.5889">failure tolerance limit</text><line style="stroke:#181818;stroke-width:0.5;" x1="8" x2="206.2617" y1="661.8906" y2="661.8906"/></g><!--class RecoveryAction--><g id="elem_RecoveryAction"><rect codeLine="37" fill="#F1F1F1" height="96.8906" id="RecoveryAction" rx="2.5" ry="2.5" style="stroke:#181818;stroke-width:0.5;" width="412.668" x="242.5" y="573"/><ellipse cx="389.7666" cy="589" fill="#ADD1B2" rx="11" ry="11" style="stroke:#181818;stroke-width:1;"/><path d="M392.7354,594.6406 Q392.1572,594.9375 391.5166,595.0781 Q390.876,595.2344 390.1729,595.2344 Q387.6729,595.2344 386.3447,593.5938 Q385.0322,591.9375 385.0322,588.8125 Q385.0322,585.6875 386.3447,584.0313 Q387.6729,582.375 390.1729,582.375 Q390.876,582.375 391.5166,582.5313 Q392.1729,582.6875 392.7354,582.9844 L392.7354,585.7031 Q392.1104,585.125 391.5166,584.8594 Q390.9229,584.5781 390.2979,584.5781 Q388.9541,584.5781 388.2666,585.6563 Q387.5791,586.7188 387.5791,588.8125 Q387.5791,590.9063 388.2666,591.9844 Q388.9541,593.0469 390.2979,593.0469 Q390.9229,593.0469 391.5166,592.7813 Q392.1104,592.5 392.7354,591.9219 L392.7354,594.6406 Z " fill="#000000"/><text fill="#000000" font-family="sans-serif" font-size="14" lengthAdjust="spacing" textLength="109.6348" x="410.2666" y="593.8467">RecoveryAction</text><line style="stroke:#181818;stroke-width:0.5;" x1="243.5" x2="654.168" y1="605" y2="605"/><line style="stroke:#181818;stroke-width:0.5;" x1="243.5" x2="654.168" y1="613" y2="613"/><ellipse cx="253.5" cy="626.6484" fill="#84BE84" rx="3" ry="3" style="stroke:#038048;stroke-width:1;"/><text fill="#000000" font-family="sans-serif" font-size="14" lengthAdjust="spacing" textLength="363.665" x="262.5" y="629.9951">recovery action type (eg. restart, stop, ignore, DSS)</text><ellipse cx="253.5" cy="642.9453" fill="#84BE84" rx="3" ry="3" style="stroke:#038048;stroke-width:1;"/><text fill="#000000" font-family="sans-serif" font-size="14" lengthAdjust="spacing" textLength="251.7949" x="262.5" y="646.292">retry count (how many times to try)</text><ellipse cx="253.5" cy="659.2422" fill="#84BE84" rx="3" ry="3" style="stroke:#038048;stroke-width:1;"/><text fill="#000000" font-family="sans-serif" font-size="14" lengthAdjust="spacing" textLength="386.668" x="262.5" y="662.5889">wait time (before the component can be started again)</text></g><!--class Dependency--><g id="elem_Dependency"><rect codeLine="44" fill="#F1F1F1" height="64.2969" id="Dependency" rx="2.5" ry="2.5" style="stroke:#181818;stroke-width:0.5;" width="121.5801" x="691" y="589.5"/><ellipse cx="706.6561" cy="605.5" fill="#ADD1B2" rx="11" ry="11" style="stroke:#181818;stroke-width:1;"/><path d="M709.6249,611.1406 Q709.0467,611.4375 708.4061,611.5781 Q707.7655,611.7344 707.0624,611.7344 Q704.5624,611.7344 703.2342,610.0938 Q701.9217,608.4375 701.9217,605.3125 Q701.9217,602.1875 703.2342,600.5313 Q704.5624,598.875 707.0624,598.875 Q707.7655,598.875 708.4061,599.0313 Q709.0624,599.1875 709.6249,599.4844 L709.6249,602.2031 Q708.9999,601.625 708.4061,601.3594 Q707.8124,601.0781 707.1874,601.0781 Q705.8436,601.0781 705.1561,602.1563 Q704.4686,603.2188 704.4686,605.3125 Q704.4686,607.4063 705.1561,608.4844 Q705.8436,609.5469 707.1874,609.5469 Q707.8124,609.5469 708.4061,609.2813 Q708.9999,609 709.6249,608.4219 L709.6249,611.1406 Z " fill="#000000"/><text fill="#000000" font-family="sans-serif" font-size="14" lengthAdjust="spacing" textLength="88.1221" x="720.8019" y="610.3467">Dependency</text><line style="stroke:#181818;stroke-width:0.5;" x1="692" x2="811.5801" y1="621.5" y2="621.5"/><ellipse cx="702" cy="635.1484" fill="transparent" rx="3" ry="3" style="stroke:#038048;stroke-width:1;"/><text fill="#000000" font-family="sans-serif" font-size="14" lengthAdjust="spacing" textLength="95.5801" x="711" y="638.4951">depency type</text><line style="stroke:#181818;stroke-width:0.5;" x1="692" x2="811.5801" y1="645.7969" y2="645.7969"/></g><!--class ProcessConfig--><g id="elem_ProcessConfig"><rect codeLine="48" fill="#F1F1F1" height="325.0469" id="ProcessConfig" rx="2.5" ry="2.5" style="stroke:#181818;stroke-width:0.5;" width="255.7217" x="859" y="459"/><ellipse cx="933.3203" cy="475" fill="#ADD1B2" rx="11" ry="11" style="stroke:#181818;stroke-width:1;"/><path d="M936.2891,480.6406 Q935.7109,480.9375 935.0703,481.0781 Q934.4297,481.2344 933.7266,481.2344 Q931.2266,481.2344 929.8984,479.5938 Q928.5859,477.9375 928.5859,474.8125 Q928.5859,471.6875 929.8984,470.0313 Q931.2266,468.375 933.7266,468.375 Q934.4297,468.375 935.0703,468.5313 Q935.7266,468.6875 936.2891,468.9844 L936.2891,471.7031 Q935.6641,471.125 935.0703,470.8594 Q934.4766,470.5781 933.8516,470.5781 Q932.5078,470.5781 931.8203,471.6563 Q931.1328,472.7188 931.1328,474.8125 Q931.1328,476.9063 931.8203,477.9844 Q932.5078,479.0469 933.8516,479.0469 Q934.4766,479.0469 935.0703,478.7813 Q935.6641,478.5 936.2891,477.9219 L936.2891,480.6406 Z " fill="#000000"/><text fill="#000000" font-family="sans-serif" font-size="14" lengthAdjust="spacing" textLength="98.5811" x="953.8203" y="479.8467">ProcessConfig</text><line style="stroke:#181818;stroke-width:0.5;" x1="860" x2="1113.7217" y1="491" y2="491"/><ellipse cx="870" cy="504.6484" fill="transparent" rx="3" ry="3" style="stroke:#038048;stroke-width:1;"/><text fill="#000000" font-family="sans-serif" font-size="14" lengthAdjust="spacing" textLength="25.1563" x="879" y="507.9951">UID</text><ellipse cx="870" cy="520.9453" fill="transparent" rx="3" ry="3" style="stroke:#038048;stroke-width:1;"/><text fill="#000000" font-family="sans-serif" font-size="14" lengthAdjust="spacing" textLength="25.7578" x="879" y="524.292">GID</text><ellipse cx="870" cy="537.2422" fill="transparent" rx="3" ry="3" style="stroke:#038048;stroke-width:1;"/><text fill="#000000" font-family="sans-serif" font-size="14" lengthAdjust="spacing" textLength="158.3887" x="879" y="540.5889">supplementary groups</text><ellipse cx="870" cy="553.5391" fill="transparent" rx="3" ry="3" style="stroke:#038048;stroke-width:1;"/><text fill="#000000" font-family="sans-serif" font-size="14" lengthAdjust="spacing" textLength="61.1201" x="879" y="556.8857">runmask</text><ellipse cx="870" cy="569.8359" fill="transparent" rx="3" ry="3" style="stroke:#038048;stroke-width:1;"/><text fill="#000000" font-family="sans-serif" font-size="14" lengthAdjust="spacing" textLength="50.5176" x="879" y="573.1826">priority</text><ellipse cx="870" cy="586.1328" fill="transparent" rx="3" ry="3" style="stroke:#038048;stroke-width:1;"/><text fill="#000000" font-family="sans-serif" font-size="14" lengthAdjust="spacing" textLength="42.9092" x="879" y="589.4795">ability</text><ellipse cx="870" cy="602.4297" fill="transparent" rx="3" ry="3" style="stroke:#038048;stroke-width:1;"/><text fill="#000000" font-family="sans-serif" font-size="14" lengthAdjust="spacing" textLength="55.8975" x="879" y="605.7764">security</text><ellipse cx="870" cy="618.7266" fill="transparent" rx="3" ry="3" style="stroke:#038048;stroke-width:1;"/><text fill="#000000" font-family="sans-serif" font-size="14" lengthAdjust="spacing" textLength="28.0342" x="879" y="622.0732">cwd</text><ellipse cx="870" cy="635.0234" fill="transparent" rx="3" ry="3" style="stroke:#038048;stroke-width:1;"/><text fill="#000000" font-family="sans-serif" font-size="14" lengthAdjust="spacing" textLength="170.1602" x="879" y="638.3701">environmental variables</text><ellipse cx="870" cy="651.3203" fill="transparent" rx="3" ry="3" style="stroke:#038048;stroke-width:1;"/><text fill="#000000" font-family="sans-serif" font-size="14" lengthAdjust="spacing" textLength="69.877" x="879" y="654.667">command</text><ellipse cx="870" cy="667.6172" fill="transparent" rx="3" ry="3" style="stroke:#038048;stroke-width:1;"/><text fill="#000000" font-family="sans-serif" font-size="14" lengthAdjust="spacing" textLength="76.002" x="879" y="670.9639">arguments</text><ellipse cx="870" cy="683.9141" fill="transparent" rx="3" ry="3" style="stroke:#038048;stroke-width:1;"/><text fill="#000000" font-family="sans-serif" font-size="14" lengthAdjust="spacing" textLength="34.4326" x="879" y="687.2607">stdin</text><ellipse cx="870" cy="700.2109" fill="transparent" rx="3" ry="3" style="stroke:#038048;stroke-width:1;"/><text fill="#000000" font-family="sans-serif" font-size="14" lengthAdjust="spacing" textLength="44.5977" x="879" y="703.5576">stdout</text><ellipse cx="870" cy="716.5078" fill="transparent" rx="3" ry="3" style="stroke:#038048;stroke-width:1;"/><text fill="#000000" font-family="sans-serif" font-size="14" lengthAdjust="spacing" textLength="41.7949" x="879" y="719.8545">stderr</text><ellipse cx="870" cy="732.8047" fill="transparent" rx="3" ry="3" style="stroke:#038048;stroke-width:1;"/><text fill="#000000" font-family="sans-serif" font-size="14" lengthAdjust="spacing" textLength="25.5186" x="879" y="736.1514">aslr</text><ellipse cx="870" cy="749.1016" fill="transparent" rx="3" ry="3" style="stroke:#038048;stroke-width:1;"/><text fill="#000000" font-family="sans-serif" font-size="14" lengthAdjust="spacing" textLength="43.8457" x="879" y="752.4482">rlimits</text><ellipse cx="870" cy="765.3984" fill="transparent" rx="3" ry="3" style="stroke:#038048;stroke-width:1;"/><text fill="#000000" font-family="sans-serif" font-size="14" lengthAdjust="spacing" textLength="229.7217" x="879" y="768.7451">time between sigterm and sigkill</text><line style="stroke:#181818;stroke-width:0.5;" x1="860" x2="1113.7217" y1="776.0469" y2="776.0469"/></g><!--link LaunchManager to LaunchConfiguration--><g id="link_LaunchManager_LaunchConfiguration"><path codeLine="12" d="M682,55.22 C682,73.16 682,97.89 682,115.83 " fill="transparent" id="LaunchManager-LaunchConfiguration" style="stroke:#181818;stroke-width:1;"/><text fill="#000000" font-family="sans-serif" font-size="13" lengthAdjust="spacing" textLength="8.271" x="673.0505" y="75.0348">1</text><text fill="#000000" font-family="sans-serif" font-size="13" lengthAdjust="spacing" textLength="8.271" x="673.0559" y="104.7985">1</text></g><!--link LaunchConfiguration to ConfigFile--><g id="link_LaunchConfiguration_ConfigFile"><path codeLine="20" d="M682,164.22 C682,182.16 682,206.89 682,224.83 " fill="transparent" id="LaunchConfiguration-ConfigFile" style="stroke:#181818;stroke-width:1;"/><text fill="#000000" font-family="sans-serif" font-size="13" lengthAdjust="spacing" textLength="8.271" x="673.1019" y="184.0348">1</text><text fill="#000000" font-family="sans-serif" font-size="13" lengthAdjust="spacing" textLength="23.0356" x="656.011" y="213.7985">1..*</text></g><!--link ConfigFile to ComponentConfig--><g id="link_ConfigFile_ComponentConfig"><path codeLine="28" d="M682,273.22 C682,291.16 682,315.89 682,333.83 " fill="transparent" id="ConfigFile-ComponentConfig" style="stroke:#181818;stroke-width:1;"/><text fill="#000000" font-family="sans-serif" font-size="13" lengthAdjust="spacing" textLength="8.271" x="673.0136" y="293.0348">1</text><text fill="#000000" font-family="sans-serif" font-size="13" lengthAdjust="spacing" textLength="23.0356" x="656.0323" y="322.7985">1..*</text></g><!--link ComponentConfig to Dependency--><g id="link_ComponentConfig_Dependency"><path codeLine="68" d="M688.21,382.21 C700.83,429.33 729.45,536.25 743.67,589.36 " fill="transparent" id="ComponentConfig-Dependency" style="stroke:#181818;stroke-width:1;"/><text fill="#000000" font-family="sans-serif" font-size="13" lengthAdjust="spacing" textLength="8.271" x="680.7576" y="402.0224">1</text><text fill="#000000" font-family="sans-serif" font-size="13" lengthAdjust="spacing" textLength="8.271" x="733.1982" y="578.2342">1</text></g><!--link Dependency to ComponentConfig--><g id="link_Dependency_ComponentConfig"><path codeLine="73" d="M745.48,589.49 C736.62,548.53 719.72,474.27 701,412 C698.02,402.08 696.32,396.9216 692.92,387.6716 " fill="transparent" id="Dependency-to-ComponentConfig" style="stroke:#181818;stroke-width:1;"/><polygon fill="#181818" points="690.85,382.04,690.2006,391.8674,692.575,386.733,697.7094,389.1074,690.85,382.04" style="stroke:#181818;stroke-width:1;"/><text fill="#000000" font-family="sans-serif" font-size="13" lengthAdjust="spacing" textLength="222.6187" x="707" y="425.0669">(reference to another component)</text><text fill="#000000" font-family="sans-serif" font-size="13" lengthAdjust="spacing" textLength="8.271" x="745.0315" y="578.391">1</text><text fill="#000000" font-family="sans-serif" font-size="13" lengthAdjust="spacing" textLength="23.0356" x="696.0439" y="402.206">0..*</text></g><!--link ComponentConfig to ProcessConfig--><g id="link_ComponentConfig_ProcessConfig"><path codeLine="69" d="M761.22,366.11 C826.82,373.62 913.16,387.82 938,412 C951.59,425.23 961.71,441.46 969.2,458.98 " fill="transparent" id="ComponentConfig-ProcessConfig" style="stroke:#181818;stroke-width:1;"/><text fill="#000000" font-family="sans-serif" font-size="13" lengthAdjust="spacing" textLength="8.271" x="769.1554" y="363.2414">1</text><text fill="#000000" font-family="sans-serif" font-size="13" lengthAdjust="spacing" textLength="8.271" x="960.1574" y="447.8136">1</text></g><!--link ComponentConfig to AliveMonitoring--><g id="link_ComponentConfig_AliveMonitoring"><path codeLine="70" d="M602.79,359.67 C506.17,364.02 341.35,383.17 225,459 C182.24,486.87 149.68,535.99 129.7,572.76 " fill="transparent" id="ComponentConfig-AliveMonitoring" style="stroke:#181818;stroke-width:1;"/><text fill="#000000" font-family="sans-serif" font-size="13" lengthAdjust="spacing" textLength="8.271" x="586.6026" y="356.1695">1</text><text fill="#000000" font-family="sans-serif" font-size="13" lengthAdjust="spacing" textLength="8.271" x="124.3303" y="561.9352">1</text></g><!--link ComponentConfig to RecoveryAction--><g id="link_ComponentConfig_RecoveryAction"><path codeLine="71" d="M661.32,382.21 C623.34,424.83 541.77,516.38 491.52,572.78 " fill="transparent" id="ComponentConfig-RecoveryAction" style="stroke:#181818;stroke-width:1;"/><text fill="#000000" font-family="sans-serif" font-size="13" lengthAdjust="spacing" textLength="8.271" x="647.3131" y="402.0224">1</text><text fill="#000000" font-family="sans-serif" font-size="13" lengthAdjust="spacing" textLength="8.271" x="488.9793" y="561.958">1</text></g><!--SRC=[VLF1Yjj03BtxAqHEIJSRsciFXQMXoq8NIaC_G1ahZjYnncZ62Q7qtwiPEnkd3JcDhFVq96lUE8ynmdVinUrVKR0XhNvNrP-gSXFaQv0TDxrYuY260sJ6LHNCFitWyR4SjuhEWaFs6tiQ-zmWNxHMgm-pQSb4fks2aAG1X47hmlnFuef-LddoVA3N89o2icGLW0V0d0K9YNViXe5O4ka1VS4t2JNr7JIAZg0ZvL0NO8ViUoL8mPEY6EYvvPGd6nl-91SEfASdLsHpFwlJCGiufDEf8vXJip8avcPBY2bqI-16Wj8IrflDuboQhCw5NXBCz-48BSe94hSKRGmmS2GUaLF9mtnBkv2dt9CLZdi1Xm9RWjAEQi06MHQJoTVKaTGaxZHkgSu9-yh3NlpoGuEZ6DzlvG5-lQp1ZkVXY7tNUMgj8zhSZOQ-YpcllRGOttBOsJwLqod7k6LlOIuar-iGkcETCP83Qv2YvU60ohZrLDJijsmFTHRGfi-CaewfPXc3qASn8jNIAlfoQhcpQ57PrfRIaKWWScCMQC5aS_p6tW-Ek_RXv1LSDdQFTRMmUyH_l7gFUksogfhStS3w0hEFjzx5PvWhxKWfUzViW_O8zlQstssogFu2]--></g></svg>