<svg xmlns="http://www.w3.org/2000/svg" xmlns:xlink="http://www.w3.org/1999/xlink" contentStyleType="text/css" data-diagram-type="CLASS" height="322px" preserveAspectRatio="none" style="width:967px;height:322px;background:#FFFFFF;" version="1.1" viewBox="0 0 967 322" width="967px" zoomAndPan="magnify"><defs/><g><!--entity Feature_User--><g id="elem_Feature_User"><ellipse cx="491.6685" cy="14" fill="#F1F1F1" rx="8" ry="8" style="stroke:#181818;stroke-width:0.5;"/><path d="M491.6685,22 L491.6685,49 M478.6685,30 L504.6685,30 M491.6685,49 L478.6685,64 M491.6685,49 L504.6685,64 " fill="transparent" style="stroke:#181818;stroke-width:0.5;"/><text fill="#000000" font-family="sans-serif" font-size="14" lengthAdjust="spacing" textLength="90.3369" x="446.5" y="78.4951">Feature User</text></g><!--class comp_arc_sta__orch__orchestrator--><g id="elem_comp_arc_sta__orch__orchestrator"><rect fill="#F1F1F1" height="40" id="comp_arc_sta__orch__orchestrator" rx="2.5" ry="2.5" style="stroke:#181818;stroke-width:0.5;" width="273.5068" x="354.5" y="275.5"/><ellipse cx="369.5" cy="291.5" fill="#ADD1B2" rx="11" ry="11" style="stroke:#181818;stroke-width:1;"/><path d="M372.4688,297.1406 Q371.8906,297.4375 371.25,297.5781 Q370.6094,297.7344 369.9063,297.7344 Q367.4063,297.7344 366.0781,296.0938 Q364.7656,294.4375 364.7656,291.3125 Q364.7656,288.1875 366.0781,286.5313 Q367.4063,284.875 369.9063,284.875 Q370.6094,284.875 371.25,285.0313 Q371.9063,285.1875 372.4688,285.4844 L372.4688,288.2031 Q371.8438,287.625 371.25,287.3594 Q370.6563,287.0781 370.0313,287.0781 Q368.6875,287.0781 368,288.1563 Q367.3125,289.2188 367.3125,291.3125 Q367.3125,293.4063 368,294.4844 Q368.6875,295.5469 370.0313,295.5469 Q370.6563,295.5469 371.25,295.2813 Q371.8438,295 372.4688,294.4219 L372.4688,297.1406 Z " fill="#000000"/><text fill="#000000" font-family="sans-serif" font-size="14" lengthAdjust="spacing" textLength="241.5068" x="383.5" y="296.3467">comp_arc_sta__orch__orchestrator</text><line style="stroke:#181818;stroke-width:0.5;" x1="355.5" x2="627.0068" y1="307.5" y2="307.5"/></g><!--class logic_arc_int__orchestration__user--><g id="elem_logic_arc_int__orchestration__user"><rect fill="#F1F1F1" height="40" id="logic_arc_int__orchestration__user" rx="2.5" ry="2.5" style="stroke:#181818;stroke-width:0.5;" width="271.1895" x="689" y="158.5"/><ellipse cx="704" cy="174.5" fill="#ADD1B2" rx="11" ry="11" style="stroke:#181818;stroke-width:1;"/><path d="M706.9688,180.1406 Q706.3906,180.4375 705.75,180.5781 Q705.1094,180.7344 704.4063,180.7344 Q701.9063,180.7344 700.5781,179.0938 Q699.2656,177.4375 699.2656,174.3125 Q699.2656,171.1875 700.5781,169.5313 Q701.9063,167.875 704.4063,167.875 Q705.1094,167.875 705.75,168.0313 Q706.4063,168.1875 706.9688,168.4844 L706.9688,171.2031 Q706.3438,170.625 705.75,170.3594 Q705.1563,170.0781 704.5313,170.0781 Q703.1875,170.0781 702.5,171.1563 Q701.8125,172.2188 701.8125,174.3125 Q701.8125,176.4063 702.5,177.4844 Q703.1875,178.5469 704.5313,178.5469 Q705.1563,178.5469 705.75,178.2813 Q706.3438,178 706.9688,177.4219 L706.9688,180.1406 Z " fill="#000000"/><text fill="#000000" font-family="sans-serif" font-size="14" lengthAdjust="spacing" textLength="239.1895" x="718" y="179.3467">logic_arc_int__orchestration__user</text><line style="stroke:#181818;stroke-width:0.5;" x1="690" x2="959.1895" y1="190.5" y2="190.5"/></g><!--class logic_arc_int__orchestration__deployment--><g id="elem_logic_arc_int__orchestration__deployment"><rect fill="#F1F1F1" height="40" id="logic_arc_int__orchestration__deployment" rx="2.5" ry="2.5" style="stroke:#181818;stroke-width:0.5;" width="324.3936" x="329.5" y="158.5"/><ellipse cx="344.5" cy="174.5" fill="#ADD1B2" rx="11" ry="11" style="stroke:#181818;stroke-width:1;"/><path d="M347.4688,180.1406 Q346.8906,180.4375 346.25,180.5781 Q345.6094,180.7344 344.9063,180.7344 Q342.4063,180.7344 341.0781,179.0938 Q339.7656,177.4375 339.7656,174.3125 Q339.7656,171.1875 341.0781,169.5313 Q342.4063,167.875 344.9063,167.875 Q345.6094,167.875 346.25,168.0313 Q346.9063,168.1875 347.4688,168.4844 L347.4688,171.2031 Q346.8438,170.625 346.25,170.3594 Q345.6563,170.0781 345.0313,170.0781 Q343.6875,170.0781 343,171.1563 Q342.3125,172.2188 342.3125,174.3125 Q342.3125,176.4063 343,177.4844 Q343.6875,178.5469 345.0313,178.5469 Q345.6563,178.5469 346.25,178.2813 Q346.8438,178 347.4688,177.4219 L347.4688,180.1406 Z " fill="#000000"/><text fill="#000000" font-family="sans-serif" font-size="14" lengthAdjust="spacing" textLength="292.3936" x="358.5" y="179.3467">logic_arc_int__orchestration__deployment</text><line style="stroke:#181818;stroke-width:0.5;" x1="330.5" x2="652.8936" y1="190.5" y2="190.5"/></g><!--class logic_arc_int__orchestration__design--><g id="elem_logic_arc_int__orchestration__design"><rect fill="#F1F1F1" height="40" id="logic_arc_int__orchestration__design" rx="2.5" ry="2.5" style="stroke:#181818;stroke-width:0.5;" width="287.0967" x="7" y="158.5"/><ellipse cx="22" cy="174.5" fill="#ADD1B2" rx="11" ry="11" style="stroke:#181818;stroke-width:1;"/><path d="M24.9688,180.1406 Q24.3906,180.4375 23.75,180.5781 Q23.1094,180.7344 22.4063,180.7344 Q19.9063,180.7344 18.5781,179.0938 Q17.2656,177.4375 17.2656,174.3125 Q17.2656,171.1875 18.5781,169.5313 Q19.9063,167.875 22.4063,167.875 Q23.1094,167.875 23.75,168.0313 Q24.4063,168.1875 24.9688,168.4844 L24.9688,171.2031 Q24.3438,170.625 23.75,170.3594 Q23.1563,170.0781 22.5313,170.0781 Q21.1875,170.0781 20.5,171.1563 Q19.8125,172.2188 19.8125,174.3125 Q19.8125,176.4063 20.5,177.4844 Q21.1875,178.5469 22.5313,178.5469 Q23.1563,178.5469 23.75,178.2813 Q24.3438,178 24.9688,177.4219 L24.9688,180.1406 Z " fill="#000000"/><text fill="#000000" font-family="sans-serif" font-size="14" lengthAdjust="spacing" textLength="255.0967" x="36" y="179.3467">logic_arc_int__orchestration__design</text><line style="stroke:#181818;stroke-width:0.5;" x1="8" x2="293.0967" y1="190.5" y2="190.5"/></g><!--reverse link logic_arc_int__orchestration__user to comp_arc_sta__orch__orchestrator--><g id="link_logic_arc_int__orchestration__user_comp_arc_sta__orch__orchestrator"><path codeLine="15" d="M763.4686,200.5785 C701.7886,221.8785 608.34,254.15 546.72,275.43 " fill="transparent" id="logic_arc_int__orchestration__user-backto-comp_arc_sta__orch__orchestrator" style="stroke:#181818;stroke-width:1;"/><polygon fill="#181818" points="769.14,198.62,759.3273,197.7768,764.4139,200.2521,761.9386,205.3386,769.14,198.62" style="stroke:#181818;stroke-width:1;"/><text fill="#000000" font-family="sans-serif" font-size="13" lengthAdjust="spacing" textLength="76.9082" x="679.5" y="241.5669">implements</text></g><!--reverse link logic_arc_int__orchestration__deployment to comp_arc_sta__orch__orchestrator--><g id="link_logic_arc_int__orchestration__deployment_comp_arc_sta__orch__orchestrator"><path codeLine="16" d="M491.5,204.75 C491.5,225.98 491.5,253.94 491.5,275.19 " fill="transparent" id="logic_arc_int__orchestration__deployment-backto-comp_arc_sta__orch__orchestrator" style="stroke:#181818;stroke-width:1;"/><polygon fill="#181818" points="491.5,198.75,487.5,207.75,491.5,203.75,495.5,207.75,491.5,198.75" style="stroke:#181818;stroke-width:1;"/><text fill="#000000" font-family="sans-serif" font-size="13" lengthAdjust="spacing" textLength="76.9082" x="492.5" y="241.5669">implements</text></g><!--link Feature_User to logic_arc_int__orchestration__user--><g id="link_Feature_User_logic_arc_int__orchestration__user"><path codeLine="17" d="M536.76,62.58 C599.62,87.68 707.2682,130.6741 771.3482,156.2741 " fill="transparent" id="Feature_User-to-logic_arc_int__orchestration__user" style="stroke:#181818;stroke-width:1;"/><polygon fill="#181818" points="776.92,158.5,770.0462,151.4465,772.2768,156.645,767.0783,158.8756,776.92,158.5" style="stroke:#181818;stroke-width:1;"/><text fill="#000000" font-family="sans-serif" font-size="13" lengthAdjust="spacing" textLength="23.0103" x="699.5" y="124.5669">use</text></g><!--link Feature_User to logic_arc_int__orchestration__design--><g id="link_Feature_User_logic_arc_int__orchestration__design"><path codeLine="18" d="M446.22,62.16 C382.08,87.18 270.8601,130.5604 204.8701,156.2904 " fill="transparent" id="Feature_User-to-logic_arc_int__orchestration__design" style="stroke:#181818;stroke-width:1;"/><polygon fill="#181818" points="199.28,158.47,209.1182,158.9273,203.9384,156.6536,206.2121,151.4738,199.28,158.47" style="stroke:#181818;stroke-width:1;"/><text fill="#000000" font-family="sans-serif" font-size="13" lengthAdjust="spacing" textLength="23.0103" x="312.5" y="124.5669">use</text></g><!--link Feature_User to logic_arc_int__orchestration__deployment--><g id="link_Feature_User_logic_arc_int__orchestration__deployment"><path codeLine="19" d="M491.5,81.55 C491.5,106.45 491.5,132.26 491.5,152.26 " fill="transparent" id="Feature_User-to-logic_arc_int__orchestration__deployment" style="stroke:#181818;stroke-width:1;"/><polygon fill="#181818" points="491.5,158.26,495.5,149.26,491.5,153.26,487.5,149.26,491.5,158.26" style="stroke:#181818;stroke-width:1;"/><text fill="#000000" font-family="sans-serif" font-size="13" lengthAdjust="spacing" textLength="23.0103" x="492.5" y="124.5669">use</text></g><!--reverse link logic_arc_int__orchestration__design to comp_arc_sta__orch__orchestrator--><g id="link_logic_arc_int__orchestration__design_comp_arc_sta__orch__orchestrator"><path codeLine="20" d="M212.8754,200.5373 C276.0354,221.8373 371.86,254.15 434.96,275.43 " fill="transparent" id="logic_arc_int__orchestration__design-backto-comp_arc_sta__orch__orchestrator" style="stroke:#181818;stroke-width:1;"/><polygon fill="#181818" points="207.19,198.62,214.4399,205.2863,211.9278,200.2178,216.9963,197.7057,207.19,198.62" style="stroke:#181818;stroke-width:1;"/><text fill="#000000" font-family="sans-serif" font-size="13" lengthAdjust="spacing" textLength="76.9082" x="342.5" y="241.5669">implements</text></g><!--SRC=[hP0_QmCn3CLtVmgH_TBICOGiXKuTczduR74dQbl6qj4U9T-zzoVGP4jA5e74Up_UaukHlsoYRygTKIwW32shSe905RqIPzDJG135YgnZmNN7L7G4frgf7HJ5x4N7Y0UpTKAnXH_pJXbVENA5Yc7PFdhodnb5u6NxR4vc_tJs6ETrqctUqEbG4Ow2TGDEu7omym6CyPoATTLRKMSjLz-l4qMhcmdDq1mWSaT-aL7MIy5KnjfXGks0KecOCAl0GwW1I-Hn1bwphmequSPqqxpV6b2eo_ys_-LV08zvofheyY6_]--></g></svg>