<svg xmlns="http://www.w3.org/2000/svg" xmlns:xlink="http://www.w3.org/1999/xlink" contentStyleType="text/css" data-diagram-type="CLASS" height="322px" preserveAspectRatio="none" style="width:6199px;height:322px;background:#FFFFFF;" version="1.1" viewBox="0 0 6199 322" width="6199px" zoomAndPan="magnify"><defs/><g><!--entity Feature_User--><g id="elem_Feature_User"><ellipse cx="3124.1685" cy="14" fill="#F1F1F1" rx="8" ry="8" style="stroke:#181818;stroke-width:0.5;"/><path d="M3124.1685,22 L3124.1685,49 M3111.1685,30 L3137.1685,30 M3124.1685,49 L3111.1685,64 M3124.1685,49 L3137.1685,64 " fill="transparent" style="stroke:#181818;stroke-width:0.5;"/><text fill="#000000" font-family="sans-serif" font-size="14" lengthAdjust="spacing" textLength="90.3369" x="3079" y="78.4951">Feature User</text></g><!--class comp_arc_sta__baselibs__concurrency--><g id="elem_comp_arc_sta__baselibs__concurrency"><rect fill="#F1F1F1" height="40" id="comp_arc_sta__baselibs__concurrency" rx="2.5" ry="2.5" style="stroke:#181818;stroke-width:0.5;" width="300.2012" x="2692" y="275.5"/><ellipse cx="2707" cy="291.5" fill="#ADD1B2" rx="11" ry="11" style="stroke:#181818;stroke-width:1;"/><path d="M2709.9688,297.1406 Q2709.3906,297.4375 2708.75,297.5781 Q2708.1094,297.7344 2707.4063,297.7344 Q2704.9063,297.7344 2703.5781,296.0938 Q2702.2656,294.4375 2702.2656,291.3125 Q2702.2656,288.1875 2703.5781,286.5313 Q2704.9063,284.875 2707.4063,284.875 Q2708.1094,284.875 2708.75,285.0313 Q2709.4063,285.1875 2709.9688,285.4844 L2709.9688,288.2031 Q2709.3438,287.625 2708.75,287.3594 Q2708.1563,287.0781 2707.5313,287.0781 Q2706.1875,287.0781 2705.5,288.1563 Q2704.8125,289.2188 2704.8125,291.3125 Q2704.8125,293.4063 2705.5,294.4844 Q2706.1875,295.5469 2707.5313,295.5469 Q2708.1563,295.5469 2708.75,295.2813 Q2709.3438,295 2709.9688,294.4219 L2709.9688,297.1406 Z " fill="#000000"/><text fill="#000000" font-family="sans-serif" font-size="14" lengthAdjust="spacing" textLength="268.2012" x="2721" y="296.3467">comp_arc_sta__baselibs__concurrency</text><line style="stroke:#181818;stroke-width:0.5;" x1="2693" x2="2991.2012" y1="307.5" y2="307.5"/></g><!--class logic_arc_int__baselibs__shared_future--><g id="elem_logic_arc_int__baselibs__shared_future"><rect fill="#F1F1F1" height="40" id="logic_arc_int__baselibs__shared_future" rx="2.5" ry="2.5" style="stroke:#181818;stroke-width:0.5;" width="302.0811" x="2244" y="158.5"/><ellipse cx="2259" cy="174.5" fill="#ADD1B2" rx="11" ry="11" style="stroke:#181818;stroke-width:1;"/><path d="M2261.9688,180.1406 Q2261.3906,180.4375 2260.75,180.5781 Q2260.1094,180.7344 2259.4063,180.7344 Q2256.9063,180.7344 2255.5781,179.0938 Q2254.2656,177.4375 2254.2656,174.3125 Q2254.2656,171.1875 2255.5781,169.5313 Q2256.9063,167.875 2259.4063,167.875 Q2260.1094,167.875 2260.75,168.0313 Q2261.4063,168.1875 2261.9688,168.4844 L2261.9688,171.2031 Q2261.3438,170.625 2260.75,170.3594 Q2260.1563,170.0781 2259.5313,170.0781 Q2258.1875,170.0781 2257.5,171.1563 Q2256.8125,172.2188 2256.8125,174.3125 Q2256.8125,176.4063 2257.5,177.4844 Q2258.1875,178.5469 2259.5313,178.5469 Q2260.1563,178.5469 2260.75,178.2813 Q2261.3438,178 2261.9688,177.4219 L2261.9688,180.1406 Z " fill="#000000"/><text fill="#000000" font-family="sans-serif" font-size="14" lengthAdjust="spacing" textLength="270.0811" x="2273" y="179.3467">logic_arc_int__baselibs__shared_future</text><line style="stroke:#181818;stroke-width:0.5;" x1="2245" x2="2545.0811" y1="190.5" y2="190.5"/></g><!--class comp_arc_sta__baselibs__result--><g id="elem_comp_arc_sta__baselibs__result"><rect fill="#F1F1F1" height="40" id="comp_arc_sta__baselibs__result" rx="2.5" ry="2.5" style="stroke:#181818;stroke-width:0.5;" width="253.4297" x="5939.5" y="275.5"/><ellipse cx="5954.5" cy="291.5" fill="#ADD1B2" rx="11" ry="11" style="stroke:#181818;stroke-width:1;"/><path d="M5957.4688,297.1406 Q5956.8906,297.4375 5956.25,297.5781 Q5955.6094,297.7344 5954.9063,297.7344 Q5952.4063,297.7344 5951.0781,296.0938 Q5949.7656,294.4375 5949.7656,291.3125 Q5949.7656,288.1875 5951.0781,286.5313 Q5952.4063,284.875 5954.9063,284.875 Q5955.6094,284.875 5956.25,285.0313 Q5956.9063,285.1875 5957.4688,285.4844 L5957.4688,288.2031 Q5956.8438,287.625 5956.25,287.3594 Q5955.6563,287.0781 5955.0313,287.0781 Q5953.6875,287.0781 5953,288.1563 Q5952.3125,289.2188 5952.3125,291.3125 Q5952.3125,293.4063 5953,294.4844 Q5953.6875,295.5469 5955.0313,295.5469 Q5955.6563,295.5469 5956.25,295.2813 Q5956.8438,295 5957.4688,294.4219 L5957.4688,297.1406 Z " fill="#000000"/><text fill="#000000" font-family="sans-serif" font-size="14" lengthAdjust="spacing" textLength="221.4297" x="5968.5" y="296.3467">comp_arc_sta__baselibs__result</text><line style="stroke:#181818;stroke-width:0.5;" x1="5940.5" x2="6191.9297" y1="307.5" y2="307.5"/></g><!--class logic_arc_int__baselibs__result--><g id="elem_logic_arc_int__baselibs__result"><rect fill="#F1F1F1" height="40" id="logic_arc_int__baselibs__result" rx="2.5" ry="2.5" style="stroke:#181818;stroke-width:0.5;" width="244.4609" x="5942" y="158.5"/><ellipse cx="5957" cy="174.5" fill="#ADD1B2" rx="11" ry="11" style="stroke:#181818;stroke-width:1;"/><path d="M5959.9688,180.1406 Q5959.3906,180.4375 5958.75,180.5781 Q5958.1094,180.7344 5957.4063,180.7344 Q5954.9063,180.7344 5953.5781,179.0938 Q5952.2656,177.4375 5952.2656,174.3125 Q5952.2656,171.1875 5953.5781,169.5313 Q5954.9063,167.875 5957.4063,167.875 Q5958.1094,167.875 5958.75,168.0313 Q5959.4063,168.1875 5959.9688,168.4844 L5959.9688,171.2031 Q5959.3438,170.625 5958.75,170.3594 Q5958.1563,170.0781 5957.5313,170.0781 Q5956.1875,170.0781 5955.5,171.1563 Q5954.8125,172.2188 5954.8125,174.3125 Q5954.8125,176.4063 5955.5,177.4844 Q5956.1875,178.5469 5957.5313,178.5469 Q5958.1563,178.5469 5958.75,178.2813 Q5959.3438,178 5959.9688,177.4219 L5959.9688,180.1406 Z " fill="#000000"/><text fill="#000000" font-family="sans-serif" font-size="14" lengthAdjust="spacing" textLength="212.4609" x="5971" y="179.3467">logic_arc_int__baselibs__result</text><line style="stroke:#181818;stroke-width:0.5;" x1="5943" x2="6185.4609" y1="190.5" y2="190.5"/></g><!--class comp_arc_sta__baselibs__utils--><g id="elem_comp_arc_sta__baselibs__utils"><rect fill="#F1F1F1" height="40" id="comp_arc_sta__baselibs__utils" rx="2.5" ry="2.5" style="stroke:#181818;stroke-width:0.5;" width="242.9502" x="5127.5" y="275.5"/><ellipse cx="5142.5" cy="291.5" fill="#ADD1B2" rx="11" ry="11" style="stroke:#181818;stroke-width:1;"/><path d="M5145.4688,297.1406 Q5144.8906,297.4375 5144.25,297.5781 Q5143.6094,297.7344 5142.9063,297.7344 Q5140.4063,297.7344 5139.0781,296.0938 Q5137.7656,294.4375 5137.7656,291.3125 Q5137.7656,288.1875 5139.0781,286.5313 Q5140.4063,284.875 5142.9063,284.875 Q5143.6094,284.875 5144.25,285.0313 Q5144.9063,285.1875 5145.4688,285.4844 L5145.4688,288.2031 Q5144.8438,287.625 5144.25,287.3594 Q5143.6563,287.0781 5143.0313,287.0781 Q5141.6875,287.0781 5141,288.1563 Q5140.3125,289.2188 5140.3125,291.3125 Q5140.3125,293.4063 5141,294.4844 Q5141.6875,295.5469 5143.0313,295.5469 Q5143.6563,295.5469 5144.25,295.2813 Q5144.8438,295 5145.4688,294.4219 L5145.4688,297.1406 Z " fill="#000000"/><text fill="#000000" font-family="sans-serif" font-size="14" lengthAdjust="spacing" textLength="210.9502" x="5156.5" y="296.3467">comp_arc_sta__baselibs__utils</text><line style="stroke:#181818;stroke-width:0.5;" x1="5128.5" x2="5369.4502" y1="307.5" y2="307.5"/></g><!--class logic_arc_int__baselibs__utils_base64--><g id="elem_logic_arc_int__baselibs__utils_base64"><rect fill="#F1F1F1" height="40" id="logic_arc_int__baselibs__utils_base64" rx="2.5" ry="2.5" style="stroke:#181818;stroke-width:0.5;" width="292.1689" x="5300" y="158.5"/><ellipse cx="5315" cy="174.5" fill="#ADD1B2" rx="11" ry="11" style="stroke:#181818;stroke-width:1;"/><path d="M5317.9688,180.1406 Q5317.3906,180.4375 5316.75,180.5781 Q5316.1094,180.7344 5315.4063,180.7344 Q5312.9063,180.7344 5311.5781,179.0938 Q5310.2656,177.4375 5310.2656,174.3125 Q5310.2656,171.1875 5311.5781,169.5313 Q5312.9063,167.875 5315.4063,167.875 Q5316.1094,167.875 5316.75,168.0313 Q5317.4063,168.1875 5317.9688,168.4844 L5317.9688,171.2031 Q5317.3438,170.625 5316.75,170.3594 Q5316.1563,170.0781 5315.5313,170.0781 Q5314.1875,170.0781 5313.5,171.1563 Q5312.8125,172.2188 5312.8125,174.3125 Q5312.8125,176.4063 5313.5,177.4844 Q5314.1875,178.5469 5315.5313,178.5469 Q5316.1563,178.5469 5316.75,178.2813 Q5317.3438,178 5317.9688,177.4219 L5317.9688,180.1406 Z " fill="#000000"/><text fill="#000000" font-family="sans-serif" font-size="14" lengthAdjust="spacing" textLength="260.1689" x="5329" y="179.3467">logic_arc_int__baselibs__utils_base64</text><line style="stroke:#181818;stroke-width:0.5;" x1="5301" x2="5591.1689" y1="190.5" y2="190.5"/></g><!--class logic_arc_int__baselibs__future--><g id="elem_logic_arc_int__baselibs__future"><rect fill="#F1F1F1" height="40" id="logic_arc_int__baselibs__future" rx="2.5" ry="2.5" style="stroke:#181818;stroke-width:0.5;" width="247.0791" x="3950.5" y="158.5"/><ellipse cx="3965.5" cy="174.5" fill="#ADD1B2" rx="11" ry="11" style="stroke:#181818;stroke-width:1;"/><path d="M3968.4688,180.1406 Q3967.8906,180.4375 3967.25,180.5781 Q3966.6094,180.7344 3965.9063,180.7344 Q3963.4063,180.7344 3962.0781,179.0938 Q3960.7656,177.4375 3960.7656,174.3125 Q3960.7656,171.1875 3962.0781,169.5313 Q3963.4063,167.875 3965.9063,167.875 Q3966.6094,167.875 3967.25,168.0313 Q3967.9063,168.1875 3968.4688,168.4844 L3968.4688,171.2031 Q3967.8438,170.625 3967.25,170.3594 Q3966.6563,170.0781 3966.0313,170.0781 Q3964.6875,170.0781 3964,171.1563 Q3963.3125,172.2188 3963.3125,174.3125 Q3963.3125,176.4063 3964,177.4844 Q3964.6875,178.5469 3966.0313,178.5469 Q3966.6563,178.5469 3967.25,178.2813 Q3967.8438,178 3968.4688,177.4219 L3968.4688,180.1406 Z " fill="#000000"/><text fill="#000000" font-family="sans-serif" font-size="14" lengthAdjust="spacing" textLength="215.0791" x="3979.5" y="179.3467">logic_arc_int__baselibs__future</text><line style="stroke:#181818;stroke-width:0.5;" x1="3951.5" x2="4196.5791" y1="190.5" y2="190.5"/></g><!--class logic_arc_int__baselibs__dynamic_array--><g id="elem_logic_arc_int__baselibs__dynamic_array"><rect fill="#F1F1F1" height="40" id="logic_arc_int__baselibs__dynamic_array" rx="2.5" ry="2.5" style="stroke:#181818;stroke-width:0.5;" width="308.3496" x="1007" y="158.5"/><ellipse cx="1022" cy="174.5" fill="#ADD1B2" rx="11" ry="11" style="stroke:#181818;stroke-width:1;"/><path d="M1024.9688,180.1406 Q1024.3906,180.4375 1023.75,180.5781 Q1023.1094,180.7344 1022.4063,180.7344 Q1019.9063,180.7344 1018.5781,179.0938 Q1017.2656,177.4375 1017.2656,174.3125 Q1017.2656,171.1875 1018.5781,169.5313 Q1019.9063,167.875 1022.4063,167.875 Q1023.1094,167.875 1023.75,168.0313 Q1024.4063,168.1875 1024.9688,168.4844 L1024.9688,171.2031 Q1024.3438,170.625 1023.75,170.3594 Q1023.1563,170.0781 1022.5313,170.0781 Q1021.1875,170.0781 1020.5,171.1563 Q1019.8125,172.2188 1019.8125,174.3125 Q1019.8125,176.4063 1020.5,177.4844 Q1021.1875,178.5469 1022.5313,178.5469 Q1023.1563,178.5469 1023.75,178.2813 Q1024.3438,178 1024.9688,177.4219 L1024.9688,180.1406 Z " fill="#000000"/><text fill="#000000" font-family="sans-serif" font-size="14" lengthAdjust="spacing" textLength="276.3496" x="1036" y="179.3467">logic_arc_int__baselibs__dynamic_array</text><line style="stroke:#181818;stroke-width:0.5;" x1="1008" x2="1314.3496" y1="190.5" y2="190.5"/></g><!--class logic_arc_int__baselibs__utils_scoped_op--><g id="elem_logic_arc_int__baselibs__utils_scoped_op"><rect fill="#F1F1F1" height="40" id="logic_arc_int__baselibs__utils_scoped_op" rx="2.5" ry="2.5" style="stroke:#181818;stroke-width:0.5;" width="315.377" x="4949.5" y="158.5"/><ellipse cx="4964.5" cy="174.5" fill="#ADD1B2" rx="11" ry="11" style="stroke:#181818;stroke-width:1;"/><path d="M4967.4688,180.1406 Q4966.8906,180.4375 4966.25,180.5781 Q4965.6094,180.7344 4964.9063,180.7344 Q4962.4063,180.7344 4961.0781,179.0938 Q4959.7656,177.4375 4959.7656,174.3125 Q4959.7656,171.1875 4961.0781,169.5313 Q4962.4063,167.875 4964.9063,167.875 Q4965.6094,167.875 4966.25,168.0313 Q4966.9063,168.1875 4967.4688,168.4844 L4967.4688,171.2031 Q4966.8438,170.625 4966.25,170.3594 Q4965.6563,170.0781 4965.0313,170.0781 Q4963.6875,170.0781 4963,171.1563 Q4962.3125,172.2188 4962.3125,174.3125 Q4962.3125,176.4063 4963,177.4844 Q4963.6875,178.5469 4965.0313,178.5469 Q4965.6563,178.5469 4966.25,178.2813 Q4966.8438,178 4967.4688,177.4219 L4967.4688,180.1406 Z " fill="#000000"/><text fill="#000000" font-family="sans-serif" font-size="14" lengthAdjust="spacing" textLength="283.377" x="4978.5" y="179.3467">logic_arc_int__baselibs__utils_scoped_op</text><line style="stroke:#181818;stroke-width:0.5;" x1="4950.5" x2="5263.877" y1="190.5" y2="190.5"/></g><!--class comp_arc_sta__baselibs__containers--><g id="elem_comp_arc_sta__baselibs__containers"><rect fill="#F1F1F1" height="40" id="comp_arc_sta__baselibs__containers" rx="2.5" ry="2.5" style="stroke:#181818;stroke-width:0.5;" width="287.1445" x="1131.5" y="275.5"/><ellipse cx="1146.5" cy="291.5" fill="#ADD1B2" rx="11" ry="11" style="stroke:#181818;stroke-width:1;"/><path d="M1149.4688,297.1406 Q1148.8906,297.4375 1148.25,297.5781 Q1147.6094,297.7344 1146.9063,297.7344 Q1144.4063,297.7344 1143.0781,296.0938 Q1141.7656,294.4375 1141.7656,291.3125 Q1141.7656,288.1875 1143.0781,286.5313 Q1144.4063,284.875 1146.9063,284.875 Q1147.6094,284.875 1148.25,285.0313 Q1148.9063,285.1875 1149.4688,285.4844 L1149.4688,288.2031 Q1148.8438,287.625 1148.25,287.3594 Q1147.6563,287.0781 1147.0313,287.0781 Q1145.6875,287.0781 1145,288.1563 Q1144.3125,289.2188 1144.3125,291.3125 Q1144.3125,293.4063 1145,294.4844 Q1145.6875,295.5469 1147.0313,295.5469 Q1147.6563,295.5469 1148.25,295.2813 Q1148.8438,295 1149.4688,294.4219 L1149.4688,297.1406 Z " fill="#000000"/><text fill="#000000" font-family="sans-serif" font-size="14" lengthAdjust="spacing" textLength="255.1445" x="1160.5" y="296.3467">comp_arc_sta__baselibs__containers</text><line style="stroke:#181818;stroke-width:0.5;" x1="1132.5" x2="1417.6445" y1="307.5" y2="307.5"/></g><!--class logic_arc_int__baselibs__condition_variable--><g id="elem_logic_arc_int__baselibs__condition_variable"><rect fill="#F1F1F1" height="40" id="logic_arc_int__baselibs__condition_variable" rx="2.5" ry="2.5" style="stroke:#181818;stroke-width:0.5;" width="332.7539" x="2581.5" y="158.5"/><ellipse cx="2596.5" cy="174.5" fill="#ADD1B2" rx="11" ry="11" style="stroke:#181818;stroke-width:1;"/><path d="M2599.4688,180.1406 Q2598.8906,180.4375 2598.25,180.5781 Q2597.6094,180.7344 2596.9063,180.7344 Q2594.4063,180.7344 2593.0781,179.0938 Q2591.7656,177.4375 2591.7656,174.3125 Q2591.7656,171.1875 2593.0781,169.5313 Q2594.4063,167.875 2596.9063,167.875 Q2597.6094,167.875 2598.25,168.0313 Q2598.9063,168.1875 2599.4688,168.4844 L2599.4688,171.2031 Q2598.8438,170.625 2598.25,170.3594 Q2597.6563,170.0781 2597.0313,170.0781 Q2595.6875,170.0781 2595,171.1563 Q2594.3125,172.2188 2594.3125,174.3125 Q2594.3125,176.4063 2595,177.4844 Q2595.6875,178.5469 2597.0313,178.5469 Q2597.6563,178.5469 2598.25,178.2813 Q2598.8438,178 2599.4688,177.4219 L2599.4688,180.1406 Z " fill="#000000"/><text fill="#000000" font-family="sans-serif" font-size="14" lengthAdjust="spacing" textLength="300.7539" x="2610.5" y="179.3467">logic_arc_int__baselibs__condition_variable</text><line style="stroke:#181818;stroke-width:0.5;" x1="2582.5" x2="2913.2539" y1="190.5" y2="190.5"/></g><!--class logic_arc_int__baselibs__synchronized_queue--><g id="elem_logic_arc_int__baselibs__synchronized_queue"><rect fill="#F1F1F1" height="40" id="logic_arc_int__baselibs__synchronized_queue" rx="2.5" ry="2.5" style="stroke:#181818;stroke-width:0.5;" width="348.3604" x="2950" y="158.5"/><ellipse cx="2965" cy="174.5" fill="#ADD1B2" rx="11" ry="11" style="stroke:#181818;stroke-width:1;"/><path d="M2967.9688,180.1406 Q2967.3906,180.4375 2966.75,180.5781 Q2966.1094,180.7344 2965.4063,180.7344 Q2962.9063,180.7344 2961.5781,179.0938 Q2960.2656,177.4375 2960.2656,174.3125 Q2960.2656,171.1875 2961.5781,169.5313 Q2962.9063,167.875 2965.4063,167.875 Q2966.1094,167.875 2966.75,168.0313 Q2967.4063,168.1875 2967.9688,168.4844 L2967.9688,171.2031 Q2967.3438,170.625 2966.75,170.3594 Q2966.1563,170.0781 2965.5313,170.0781 Q2964.1875,170.0781 2963.5,171.1563 Q2962.8125,172.2188 2962.8125,174.3125 Q2962.8125,176.4063 2963.5,177.4844 Q2964.1875,178.5469 2965.5313,178.5469 Q2966.1563,178.5469 2966.75,178.2813 Q2967.3438,178 2967.9688,177.4219 L2967.9688,180.1406 Z " fill="#000000"/><text fill="#000000" font-family="sans-serif" font-size="14" lengthAdjust="spacing" textLength="316.3604" x="2979" y="179.3467">logic_arc_int__baselibs__synchronized_queue</text><line style="stroke:#181818;stroke-width:0.5;" x1="2951" x2="3297.3604" y1="190.5" y2="190.5"/></g><!--class logic_arc_int__baselibs__task--><g id="elem_logic_arc_int__baselibs__task"><rect fill="#F1F1F1" height="40" id="logic_arc_int__baselibs__task" rx="2.5" ry="2.5" style="stroke:#181818;stroke-width:0.5;" width="234.0156" x="1975" y="158.5"/><ellipse cx="1990" cy="174.5" fill="#ADD1B2" rx="11" ry="11" style="stroke:#181818;stroke-width:1;"/><path d="M1992.9688,180.1406 Q1992.3906,180.4375 1991.75,180.5781 Q1991.1094,180.7344 1990.4063,180.7344 Q1987.9063,180.7344 1986.5781,179.0938 Q1985.2656,177.4375 1985.2656,174.3125 Q1985.2656,171.1875 1986.5781,169.5313 Q1987.9063,167.875 1990.4063,167.875 Q1991.1094,167.875 1991.75,168.0313 Q1992.4063,168.1875 1992.9688,168.4844 L1992.9688,171.2031 Q1992.3438,170.625 1991.75,170.3594 Q1991.1563,170.0781 1990.5313,170.0781 Q1989.1875,170.0781 1988.5,171.1563 Q1987.8125,172.2188 1987.8125,174.3125 Q1987.8125,176.4063 1988.5,177.4844 Q1989.1875,178.5469 1990.5313,178.5469 Q1991.1563,178.5469 1991.75,178.2813 Q1992.3438,178 1992.9688,177.4219 L1992.9688,180.1406 Z " fill="#000000"/><text fill="#000000" font-family="sans-serif" font-size="14" lengthAdjust="spacing" textLength="202.0156" x="2004" y="179.3467">logic_arc_int__baselibs__task</text><line style="stroke:#181818;stroke-width:0.5;" x1="1976" x2="2208.0156" y1="190.5" y2="190.5"/></g><!--class logic_arc_int__baselibs__bit_manipulation--><g id="elem_logic_arc_int__baselibs__bit_manipulation"><rect fill="#F1F1F1" height="40" id="logic_arc_int__baselibs__bit_manipulation" rx="2.5" ry="2.5" style="stroke:#181818;stroke-width:0.5;" width="321.8369" x="650" y="158.5"/><ellipse cx="665" cy="174.5" fill="#ADD1B2" rx="11" ry="11" style="stroke:#181818;stroke-width:1;"/><path d="M667.9688,180.1406 Q667.3906,180.4375 666.75,180.5781 Q666.1094,180.7344 665.4063,180.7344 Q662.9063,180.7344 661.5781,179.0938 Q660.2656,177.4375 660.2656,174.3125 Q660.2656,171.1875 661.5781,169.5313 Q662.9063,167.875 665.4063,167.875 Q666.1094,167.875 666.75,168.0313 Q667.4063,168.1875 667.9688,168.4844 L667.9688,171.2031 Q667.3438,170.625 666.75,170.3594 Q666.1563,170.0781 665.5313,170.0781 Q664.1875,170.0781 663.5,171.1563 Q662.8125,172.2188 662.8125,174.3125 Q662.8125,176.4063 663.5,177.4844 Q664.1875,178.5469 665.5313,178.5469 Q666.1563,178.5469 666.75,178.2813 Q667.3438,178 667.9688,177.4219 L667.9688,180.1406 Z " fill="#000000"/><text fill="#000000" font-family="sans-serif" font-size="14" lengthAdjust="spacing" textLength="289.8369" x="679" y="179.3467">logic_arc_int__baselibs__bit_manipulation</text><line style="stroke:#181818;stroke-width:0.5;" x1="651" x2="970.8369" y1="190.5" y2="190.5"/></g><!--class logic_arc_int__baselibs__promise--><g id="elem_logic_arc_int__baselibs__promise"><rect fill="#F1F1F1" height="40" id="logic_arc_int__baselibs__promise" rx="2.5" ry="2.5" style="stroke:#181818;stroke-width:0.5;" width="261.1885" x="1678.5" y="158.5"/><ellipse cx="1693.5" cy="174.5" fill="#ADD1B2" rx="11" ry="11" style="stroke:#181818;stroke-width:1;"/><path d="M1696.4688,180.1406 Q1695.8906,180.4375 1695.25,180.5781 Q1694.6094,180.7344 1693.9063,180.7344 Q1691.4063,180.7344 1690.0781,179.0938 Q1688.7656,177.4375 1688.7656,174.3125 Q1688.7656,171.1875 1690.0781,169.5313 Q1691.4063,167.875 1693.9063,167.875 Q1694.6094,167.875 1695.25,168.0313 Q1695.9063,168.1875 1696.4688,168.4844 L1696.4688,171.2031 Q1695.8438,170.625 1695.25,170.3594 Q1694.6563,170.0781 1694.0313,170.0781 Q1692.6875,170.0781 1692,171.1563 Q1691.3125,172.2188 1691.3125,174.3125 Q1691.3125,176.4063 1692,177.4844 Q1692.6875,178.5469 1694.0313,178.5469 Q1694.6563,178.5469 1695.25,178.2813 Q1695.8438,178 1696.4688,177.4219 L1696.4688,180.1406 Z " fill="#000000"/><text fill="#000000" font-family="sans-serif" font-size="14" lengthAdjust="spacing" textLength="229.1885" x="1707.5" y="179.3467">logic_arc_int__baselibs__promise</text><line style="stroke:#181818;stroke-width:0.5;" x1="1679.5" x2="1938.6885" y1="190.5" y2="190.5"/></g><!--class comp_arc_sta__baselibs__filesystem--><g id="elem_comp_arc_sta__baselibs__filesystem"><rect fill="#F1F1F1" height="40" id="comp_arc_sta__baselibs__filesystem" rx="2.5" ry="2.5" style="stroke:#181818;stroke-width:0.5;" width="285.4492" x="5619.5" y="275.5"/><ellipse cx="5634.5" cy="291.5" fill="#ADD1B2" rx="11" ry="11" style="stroke:#181818;stroke-width:1;"/><path d="M5637.4688,297.1406 Q5636.8906,297.4375 5636.25,297.5781 Q5635.6094,297.7344 5634.9063,297.7344 Q5632.4063,297.7344 5631.0781,296.0938 Q5629.7656,294.4375 5629.7656,291.3125 Q5629.7656,288.1875 5631.0781,286.5313 Q5632.4063,284.875 5634.9063,284.875 Q5635.6094,284.875 5636.25,285.0313 Q5636.9063,285.1875 5637.4688,285.4844 L5637.4688,288.2031 Q5636.8438,287.625 5636.25,287.3594 Q5635.6563,287.0781 5635.0313,287.0781 Q5633.6875,287.0781 5633,288.1563 Q5632.3125,289.2188 5632.3125,291.3125 Q5632.3125,293.4063 5633,294.4844 Q5633.6875,295.5469 5635.0313,295.5469 Q5635.6563,295.5469 5636.25,295.2813 Q5636.8438,295 5637.4688,294.4219 L5637.4688,297.1406 Z " fill="#000000"/><text fill="#000000" font-family="sans-serif" font-size="14" lengthAdjust="spacing" textLength="253.4492" x="5648.5" y="296.3467">comp_arc_sta__baselibs__filesystem</text><line style="stroke:#181818;stroke-width:0.5;" x1="5620.5" x2="5903.9492" y1="307.5" y2="307.5"/></g><!--class logic_arc_int__baselibs__filesystem--><g id="elem_logic_arc_int__baselibs__filesystem"><rect fill="#F1F1F1" height="40" id="logic_arc_int__baselibs__filesystem" rx="2.5" ry="2.5" style="stroke:#181818;stroke-width:0.5;" width="276.4805" x="5627" y="158.5"/><ellipse cx="5642" cy="174.5" fill="#ADD1B2" rx="11" ry="11" style="stroke:#181818;stroke-width:1;"/><path d="M5644.9688,180.1406 Q5644.3906,180.4375 5643.75,180.5781 Q5643.1094,180.7344 5642.4063,180.7344 Q5639.9063,180.7344 5638.5781,179.0938 Q5637.2656,177.4375 5637.2656,174.3125 Q5637.2656,171.1875 5638.5781,169.5313 Q5639.9063,167.875 5642.4063,167.875 Q5643.1094,167.875 5643.75,168.0313 Q5644.4063,168.1875 5644.9688,168.4844 L5644.9688,171.2031 Q5644.3438,170.625 5643.75,170.3594 Q5643.1563,170.0781 5642.5313,170.0781 Q5641.1875,170.0781 5640.5,171.1563 Q5639.8125,172.2188 5639.8125,174.3125 Q5639.8125,176.4063 5640.5,177.4844 Q5641.1875,178.5469 5642.5313,178.5469 Q5643.1563,178.5469 5643.75,178.2813 Q5644.3438,178 5644.9688,177.4219 L5644.9688,180.1406 Z " fill="#000000"/><text fill="#000000" font-family="sans-serif" font-size="14" lengthAdjust="spacing" textLength="244.4805" x="5656" y="179.3467">logic_arc_int__baselibs__filesystem</text><line style="stroke:#181818;stroke-width:0.5;" x1="5628" x2="5902.4805" y1="190.5" y2="190.5"/></g><!--class logic_arc_int__baselibs__executor--><g id="elem_logic_arc_int__baselibs__executor"><rect fill="#F1F1F1" height="40" id="logic_arc_int__baselibs__executor" rx="2.5" ry="2.5" style="stroke:#181818;stroke-width:0.5;" width="266.4385" x="3333" y="158.5"/><ellipse cx="3348" cy="174.5" fill="#ADD1B2" rx="11" ry="11" style="stroke:#181818;stroke-width:1;"/><path d="M3350.9688,180.1406 Q3350.3906,180.4375 3349.75,180.5781 Q3349.1094,180.7344 3348.4063,180.7344 Q3345.9063,180.7344 3344.5781,179.0938 Q3343.2656,177.4375 3343.2656,174.3125 Q3343.2656,171.1875 3344.5781,169.5313 Q3345.9063,167.875 3348.4063,167.875 Q3349.1094,167.875 3349.75,168.0313 Q3350.4063,168.1875 3350.9688,168.4844 L3350.9688,171.2031 Q3350.3438,170.625 3349.75,170.3594 Q3349.1563,170.0781 3348.5313,170.0781 Q3347.1875,170.0781 3346.5,171.1563 Q3345.8125,172.2188 3345.8125,174.3125 Q3345.8125,176.4063 3346.5,177.4844 Q3347.1875,178.5469 3348.5313,178.5469 Q3349.1563,178.5469 3349.75,178.2813 Q3350.3438,178 3350.9688,177.4219 L3350.9688,180.1406 Z " fill="#000000"/><text fill="#000000" font-family="sans-serif" font-size="14" lengthAdjust="spacing" textLength="234.4385" x="3362" y="179.3467">logic_arc_int__baselibs__executor</text><line style="stroke:#181818;stroke-width:0.5;" x1="3334" x2="3598.4385" y1="190.5" y2="190.5"/></g><!--class logic_arc_int__baselibs__intrusive_list--><g id="elem_logic_arc_int__baselibs__intrusive_list"><rect fill="#F1F1F1" height="40" id="logic_arc_int__baselibs__intrusive_list" rx="2.5" ry="2.5" style="stroke:#181818;stroke-width:0.5;" width="293.0713" x="1350.5" y="158.5"/><ellipse cx="1365.5" cy="174.5" fill="#ADD1B2" rx="11" ry="11" style="stroke:#181818;stroke-width:1;"/><path d="M1368.4688,180.1406 Q1367.8906,180.4375 1367.25,180.5781 Q1366.6094,180.7344 1365.9063,180.7344 Q1363.4063,180.7344 1362.0781,179.0938 Q1360.7656,177.4375 1360.7656,174.3125 Q1360.7656,171.1875 1362.0781,169.5313 Q1363.4063,167.875 1365.9063,167.875 Q1366.6094,167.875 1367.25,168.0313 Q1367.9063,168.1875 1368.4688,168.4844 L1368.4688,171.2031 Q1367.8438,170.625 1367.25,170.3594 Q1366.6563,170.0781 1366.0313,170.0781 Q1364.6875,170.0781 1364,171.1563 Q1363.3125,172.2188 1363.3125,174.3125 Q1363.3125,176.4063 1364,177.4844 Q1364.6875,178.5469 1366.0313,178.5469 Q1366.6563,178.5469 1367.25,178.2813 Q1367.8438,178 1368.4688,177.4219 L1368.4688,180.1406 Z " fill="#000000"/><text fill="#000000" font-family="sans-serif" font-size="14" lengthAdjust="spacing" textLength="261.0713" x="1379.5" y="179.3467">logic_arc_int__baselibs__intrusive_list</text><line style="stroke:#181818;stroke-width:0.5;" x1="1351.5" x2="1642.5713" y1="190.5" y2="190.5"/></g><!--class comp_arc_sta__baselibs__memory_shared--><g id="elem_comp_arc_sta__baselibs__memory_shared"><rect fill="#F1F1F1" height="40" id="comp_arc_sta__baselibs__memory_shared" rx="2.5" ry="2.5" style="stroke:#181818;stroke-width:0.5;" width="327.0117" x="4595.5" y="275.5"/><ellipse cx="4610.5" cy="291.5" fill="#ADD1B2" rx="11" ry="11" style="stroke:#181818;stroke-width:1;"/><path d="M4613.4688,297.1406 Q4612.8906,297.4375 4612.25,297.5781 Q4611.6094,297.7344 4610.9063,297.7344 Q4608.4063,297.7344 4607.0781,296.0938 Q4605.7656,294.4375 4605.7656,291.3125 Q4605.7656,288.1875 4607.0781,286.5313 Q4608.4063,284.875 4610.9063,284.875 Q4611.6094,284.875 4612.25,285.0313 Q4612.9063,285.1875 4613.4688,285.4844 L4613.4688,288.2031 Q4612.8438,287.625 4612.25,287.3594 Q4611.6563,287.0781 4611.0313,287.0781 Q4609.6875,287.0781 4609,288.1563 Q4608.3125,289.2188 4608.3125,291.3125 Q4608.3125,293.4063 4609,294.4844 Q4609.6875,295.5469 4611.0313,295.5469 Q4611.6563,295.5469 4612.25,295.2813 Q4612.8438,295 4613.4688,294.4219 L4613.4688,297.1406 Z " fill="#000000"/><text fill="#000000" font-family="sans-serif" font-size="14" lengthAdjust="spacing" textLength="295.0117" x="4624.5" y="296.3467">comp_arc_sta__baselibs__memory_shared</text><line style="stroke:#181818;stroke-width:0.5;" x1="4596.5" x2="4921.5117" y1="307.5" y2="307.5"/></g><!--class logic_arc_int__baselibs__memory_shared--><g id="elem_logic_arc_int__baselibs__memory_shared"><rect fill="#F1F1F1" height="40" id="logic_arc_int__baselibs__memory_shared" rx="2.5" ry="2.5" style="stroke:#181818;stroke-width:0.5;" width="318.043" x="4596" y="158.5"/><ellipse cx="4611" cy="174.5" fill="#ADD1B2" rx="11" ry="11" style="stroke:#181818;stroke-width:1;"/><path d="M4613.9688,180.1406 Q4613.3906,180.4375 4612.75,180.5781 Q4612.1094,180.7344 4611.4063,180.7344 Q4608.9063,180.7344 4607.5781,179.0938 Q4606.2656,177.4375 4606.2656,174.3125 Q4606.2656,171.1875 4607.5781,169.5313 Q4608.9063,167.875 4611.4063,167.875 Q4612.1094,167.875 4612.75,168.0313 Q4613.4063,168.1875 4613.9688,168.4844 L4613.9688,171.2031 Q4613.3438,170.625 4612.75,170.3594 Q4612.1563,170.0781 4611.5313,170.0781 Q4610.1875,170.0781 4609.5,171.1563 Q4608.8125,172.2188 4608.8125,174.3125 Q4608.8125,176.4063 4609.5,177.4844 Q4610.1875,178.5469 4611.5313,178.5469 Q4612.1563,178.5469 4612.75,178.2813 Q4613.3438,178 4613.9688,177.4219 L4613.9688,180.1406 Z " fill="#000000"/><text fill="#000000" font-family="sans-serif" font-size="14" lengthAdjust="spacing" textLength="286.043" x="4625" y="179.3467">logic_arc_int__baselibs__memory_shared</text><line style="stroke:#181818;stroke-width:0.5;" x1="4597" x2="4913.043" y1="190.5" y2="190.5"/></g><!--class comp_arc_sta__baselibs__bit_manipulation--><g id="elem_comp_arc_sta__baselibs__bit_manipulation"><rect fill="#F1F1F1" height="40" id="comp_arc_sta__baselibs__bit_manipulation" rx="2.5" ry="2.5" style="stroke:#181818;stroke-width:0.5;" width="330.8057" x="403.5" y="275.5"/><ellipse cx="418.5" cy="291.5" fill="#ADD1B2" rx="11" ry="11" style="stroke:#181818;stroke-width:1;"/><path d="M421.4688,297.1406 Q420.8906,297.4375 420.25,297.5781 Q419.6094,297.7344 418.9063,297.7344 Q416.4063,297.7344 415.0781,296.0938 Q413.7656,294.4375 413.7656,291.3125 Q413.7656,288.1875 415.0781,286.5313 Q416.4063,284.875 418.9063,284.875 Q419.6094,284.875 420.25,285.0313 Q420.9063,285.1875 421.4688,285.4844 L421.4688,288.2031 Q420.8438,287.625 420.25,287.3594 Q419.6563,287.0781 419.0313,287.0781 Q417.6875,287.0781 417,288.1563 Q416.3125,289.2188 416.3125,291.3125 Q416.3125,293.4063 417,294.4844 Q417.6875,295.5469 419.0313,295.5469 Q419.6563,295.5469 420.25,295.2813 Q420.8438,295 421.4688,294.4219 L421.4688,297.1406 Z " fill="#000000"/><text fill="#000000" font-family="sans-serif" font-size="14" lengthAdjust="spacing" textLength="298.8057" x="432.5" y="296.3467">comp_arc_sta__baselibs__bit_manipulation</text><line style="stroke:#181818;stroke-width:0.5;" x1="404.5" x2="733.3057" y1="307.5" y2="307.5"/></g><!--class logic_arc_int__baselibs__bit_mask_operator--><g id="elem_logic_arc_int__baselibs__bit_mask_operator"><rect fill="#F1F1F1" height="40" id="logic_arc_int__baselibs__bit_mask_operator" rx="2.5" ry="2.5" style="stroke:#181818;stroke-width:0.5;" width="334.6406" x="279.5" y="158.5"/><ellipse cx="294.5" cy="174.5" fill="#ADD1B2" rx="11" ry="11" style="stroke:#181818;stroke-width:1;"/><path d="M297.4688,180.1406 Q296.8906,180.4375 296.25,180.5781 Q295.6094,180.7344 294.9063,180.7344 Q292.4063,180.7344 291.0781,179.0938 Q289.7656,177.4375 289.7656,174.3125 Q289.7656,171.1875 291.0781,169.5313 Q292.4063,167.875 294.9063,167.875 Q295.6094,167.875 296.25,168.0313 Q296.9063,168.1875 297.4688,168.4844 L297.4688,171.2031 Q296.8438,170.625 296.25,170.3594 Q295.6563,170.0781 295.0313,170.0781 Q293.6875,170.0781 293,171.1563 Q292.3125,172.2188 292.3125,174.3125 Q292.3125,176.4063 293,177.4844 Q293.6875,178.5469 295.0313,178.5469 Q295.6563,178.5469 296.25,178.2813 Q296.8438,178 297.4688,177.4219 L297.4688,180.1406 Z " fill="#000000"/><text fill="#000000" font-family="sans-serif" font-size="14" lengthAdjust="spacing" textLength="302.6406" x="308.5" y="179.3467">logic_arc_int__baselibs__bit_mask_operator</text><line style="stroke:#181818;stroke-width:0.5;" x1="280.5" x2="613.1406" y1="190.5" y2="190.5"/></g><!--class logic_arc_int__baselibs__json--><g id="elem_logic_arc_int__baselibs__json"><rect fill="#F1F1F1" height="40" id="logic_arc_int__baselibs__json" rx="2.5" ry="2.5" style="stroke:#181818;stroke-width:0.5;" width="233.168" x="11.5" y="158.5"/><ellipse cx="26.5" cy="174.5" fill="#ADD1B2" rx="11" ry="11" style="stroke:#181818;stroke-width:1;"/><path d="M29.4688,180.1406 Q28.8906,180.4375 28.25,180.5781 Q27.6094,180.7344 26.9063,180.7344 Q24.4063,180.7344 23.0781,179.0938 Q21.7656,177.4375 21.7656,174.3125 Q21.7656,171.1875 23.0781,169.5313 Q24.4063,167.875 26.9063,167.875 Q27.6094,167.875 28.25,168.0313 Q28.9063,168.1875 29.4688,168.4844 L29.4688,171.2031 Q28.8438,170.625 28.25,170.3594 Q27.6563,170.0781 27.0313,170.0781 Q25.6875,170.0781 25,171.1563 Q24.3125,172.2188 24.3125,174.3125 Q24.3125,176.4063 25,177.4844 Q25.6875,178.5469 27.0313,178.5469 Q27.6563,178.5469 28.25,178.2813 Q28.8438,178 29.4688,177.4219 L29.4688,180.1406 Z " fill="#000000"/><text fill="#000000" font-family="sans-serif" font-size="14" lengthAdjust="spacing" textLength="201.168" x="40.5" y="179.3467">logic_arc_int__baselibs__json</text><line style="stroke:#181818;stroke-width:0.5;" x1="12.5" x2="243.668" y1="190.5" y2="190.5"/></g><!--class comp_arc_sta__baselibs__message_passing--><g id="elem_comp_arc_sta__baselibs__message_passing"><rect fill="#F1F1F1" height="40" id="comp_arc_sta__baselibs__message_passing" rx="2.5" ry="2.5" style="stroke:#181818;stroke-width:0.5;" width="337.1357" x="4223.5" y="275.5"/><ellipse cx="4238.5" cy="291.5" fill="#ADD1B2" rx="11" ry="11" style="stroke:#181818;stroke-width:1;"/><path d="M4241.4688,297.1406 Q4240.8906,297.4375 4240.25,297.5781 Q4239.6094,297.7344 4238.9063,297.7344 Q4236.4063,297.7344 4235.0781,296.0938 Q4233.7656,294.4375 4233.7656,291.3125 Q4233.7656,288.1875 4235.0781,286.5313 Q4236.4063,284.875 4238.9063,284.875 Q4239.6094,284.875 4240.25,285.0313 Q4240.9063,285.1875 4241.4688,285.4844 L4241.4688,288.2031 Q4240.8438,287.625 4240.25,287.3594 Q4239.6563,287.0781 4239.0313,287.0781 Q4237.6875,287.0781 4237,288.1563 Q4236.3125,289.2188 4236.3125,291.3125 Q4236.3125,293.4063 4237,294.4844 Q4237.6875,295.5469 4239.0313,295.5469 Q4239.6563,295.5469 4240.25,295.2813 Q4240.8438,295 4241.4688,294.4219 L4241.4688,297.1406 Z " fill="#000000"/><text fill="#000000" font-family="sans-serif" font-size="14" lengthAdjust="spacing" textLength="305.1357" x="4252.5" y="296.3467">comp_arc_sta__baselibs__message_passing</text><line style="stroke:#181818;stroke-width:0.5;" x1="4224.5" x2="4559.6357" y1="307.5" y2="307.5"/></g><!--class logic_arc_int__baselibs__message_passing--><g id="elem_logic_arc_int__baselibs__message_passing"><rect fill="#F1F1F1" height="40" id="logic_arc_int__baselibs__message_passing" rx="2.5" ry="2.5" style="stroke:#181818;stroke-width:0.5;" width="328.167" x="4233" y="158.5"/><ellipse cx="4248" cy="174.5" fill="#ADD1B2" rx="11" ry="11" style="stroke:#181818;stroke-width:1;"/><path d="M4250.9688,180.1406 Q4250.3906,180.4375 4249.75,180.5781 Q4249.1094,180.7344 4248.4063,180.7344 Q4245.9063,180.7344 4244.5781,179.0938 Q4243.2656,177.4375 4243.2656,174.3125 Q4243.2656,171.1875 4244.5781,169.5313 Q4245.9063,167.875 4248.4063,167.875 Q4249.1094,167.875 4249.75,168.0313 Q4250.4063,168.1875 4250.9688,168.4844 L4250.9688,171.2031 Q4250.3438,170.625 4249.75,170.3594 Q4249.1563,170.0781 4248.5313,170.0781 Q4247.1875,170.0781 4246.5,171.1563 Q4245.8125,172.2188 4245.8125,174.3125 Q4245.8125,176.4063 4246.5,177.4844 Q4247.1875,178.5469 4248.5313,178.5469 Q4249.1563,178.5469 4249.75,178.2813 Q4250.3438,178 4250.9688,177.4219 L4250.9688,180.1406 Z " fill="#000000"/><text fill="#000000" font-family="sans-serif" font-size="14" lengthAdjust="spacing" textLength="296.167" x="4262" y="179.3467">logic_arc_int__baselibs__message_passing</text><line style="stroke:#181818;stroke-width:0.5;" x1="4234" x2="4560.167" y1="190.5" y2="190.5"/></g><!--class logic_arc_int__baselibs__task_result--><g id="elem_logic_arc_int__baselibs__task_result"><rect fill="#F1F1F1" height="40" id="logic_arc_int__baselibs__task_result" rx="2.5" ry="2.5" style="stroke:#181818;stroke-width:0.5;" width="280.9307" x="3634.5" y="158.5"/><ellipse cx="3649.5" cy="174.5" fill="#ADD1B2" rx="11" ry="11" style="stroke:#181818;stroke-width:1;"/><path d="M3652.4688,180.1406 Q3651.8906,180.4375 3651.25,180.5781 Q3650.6094,180.7344 3649.9063,180.7344 Q3647.4063,180.7344 3646.0781,179.0938 Q3644.7656,177.4375 3644.7656,174.3125 Q3644.7656,171.1875 3646.0781,169.5313 Q3647.4063,167.875 3649.9063,167.875 Q3650.6094,167.875 3651.25,168.0313 Q3651.9063,168.1875 3652.4688,168.4844 L3652.4688,171.2031 Q3651.8438,170.625 3651.25,170.3594 Q3650.6563,170.0781 3650.0313,170.0781 Q3648.6875,170.0781 3648,171.1563 Q3647.3125,172.2188 3647.3125,174.3125 Q3647.3125,176.4063 3648,177.4844 Q3648.6875,178.5469 3650.0313,178.5469 Q3650.6563,178.5469 3651.25,178.2813 Q3651.8438,178 3652.4688,177.4219 L3652.4688,180.1406 Z " fill="#000000"/><text fill="#000000" font-family="sans-serif" font-size="14" lengthAdjust="spacing" textLength="248.9307" x="3663.5" y="179.3467">logic_arc_int__baselibs__task_result</text><line style="stroke:#181818;stroke-width:0.5;" x1="3635.5" x2="3914.4307" y1="190.5" y2="190.5"/></g><!--class comp_arc_sta__baselibs__json--><g id="elem_comp_arc_sta__baselibs__json"><rect fill="#F1F1F1" height="40" id="comp_arc_sta__baselibs__json" rx="2.5" ry="2.5" style="stroke:#181818;stroke-width:0.5;" width="242.1367" x="7" y="275.5"/><ellipse cx="22" cy="291.5" fill="#ADD1B2" rx="11" ry="11" style="stroke:#181818;stroke-width:1;"/><path d="M24.9688,297.1406 Q24.3906,297.4375 23.75,297.5781 Q23.1094,297.7344 22.4063,297.7344 Q19.9063,297.7344 18.5781,296.0938 Q17.2656,294.4375 17.2656,291.3125 Q17.2656,288.1875 18.5781,286.5313 Q19.9063,284.875 22.4063,284.875 Q23.1094,284.875 23.75,285.0313 Q24.4063,285.1875 24.9688,285.4844 L24.9688,288.2031 Q24.3438,287.625 23.75,287.3594 Q23.1563,287.0781 22.5313,287.0781 Q21.1875,287.0781 20.5,288.1563 Q19.8125,289.2188 19.8125,291.3125 Q19.8125,293.4063 20.5,294.4844 Q21.1875,295.5469 22.5313,295.5469 Q23.1563,295.5469 23.75,295.2813 Q24.3438,295 24.9688,294.4219 L24.9688,297.1406 Z " fill="#000000"/><text fill="#000000" font-family="sans-serif" font-size="14" lengthAdjust="spacing" textLength="210.1367" x="36" y="296.3467">comp_arc_sta__baselibs__json</text><line style="stroke:#181818;stroke-width:0.5;" x1="8" x2="248.1367" y1="307.5" y2="307.5"/></g><!--reverse link logic_arc_int__baselibs__shared_future to comp_arc_sta__baselibs__concurrency--><g id="link_logic_arc_int__baselibs__shared_future_comp_arc_sta__baselibs__concurrency"><path codeLine="15" d="M2474.8708,200.045 C2557.6208,221.335 2684.99,254.11 2767.79,275.41 " fill="transparent" id="logic_arc_int__baselibs__shared_future-backto-comp_arc_sta__baselibs__concurrency" style="stroke:#181818;stroke-width:1;"/><polygon fill="#181818" points="2469.06,198.55,2476.7795,204.6663,2473.9023,199.7958,2478.7728,196.9187,2469.06,198.55" style="stroke:#181818;stroke-width:1;"/><text fill="#000000" font-family="sans-serif" font-size="13" lengthAdjust="spacing" textLength="76.9082" x="2647" y="241.5669">implements</text></g><!--reverse link logic_arc_int__baselibs__result to comp_arc_sta__baselibs__result--><g id="link_logic_arc_int__baselibs__result_comp_arc_sta__baselibs__result"><path codeLine="16" d="M6064.4346,204.7491 C6064.8046,225.9791 6065.29,253.94 6065.66,275.19 " fill="transparent" id="logic_arc_int__baselibs__result-backto-comp_arc_sta__baselibs__result" style="stroke:#181818;stroke-width:1;"/><polygon fill="#181818" points="6064.33,198.75,6060.4874,207.8183,6064.4171,203.7492,6068.4862,207.6789,6064.33,198.75" style="stroke:#181818;stroke-width:1;"/><text fill="#000000" font-family="sans-serif" font-size="13" lengthAdjust="spacing" textLength="76.9082" x="6066" y="241.5669">implements</text></g><!--reverse link logic_arc_int__baselibs__utils_base64 to comp_arc_sta__baselibs__utils--><g id="link_logic_arc_int__baselibs__utils_base64_comp_arc_sta__baselibs__utils"><path codeLine="17" d="M5407.8479,201.7743 C5371.3679,223.0643 5318.14,254.14 5281.75,275.38 " fill="transparent" id="logic_arc_int__baselibs__utils_base64-backto-comp_arc_sta__baselibs__utils" style="stroke:#181818;stroke-width:1;"/><polygon fill="#181818" points="5413.03,198.75,5403.2407,199.8317,5408.7116,201.2702,5407.2731,206.7411,5413.03,198.75" style="stroke:#181818;stroke-width:1;"/><text fill="#000000" font-family="sans-serif" font-size="13" lengthAdjust="spacing" textLength="76.9082" x="5361" y="241.5669">implements</text></g><!--link Feature_User to logic_arc_int__baselibs__result--><g id="link_Feature_User_logic_arc_int__baselibs__result"><path codeLine="18" d="M3169.1,45.25 C3394.37,49.15 4420.14,68.53 5259,111.5 C5553.13,126.57 5626.98,128.78 5920,158.5 C5927.15,159.23 5928.5291,159.3362 5935.9391,160.1862 " fill="transparent" id="Feature_User-to-logic_arc_int__baselibs__result" style="stroke:#181818;stroke-width:1;"/><polygon fill="#181818" points="5941.9,160.87,5933.4145,155.8704,5936.9326,160.3002,5932.5028,163.8183,5941.9,160.87" style="stroke:#181818;stroke-width:1;"/><text fill="#000000" font-family="sans-serif" font-size="13" lengthAdjust="spacing" textLength="23.0103" x="5569" y="124.5669">use</text></g><!--reverse link logic_arc_int__baselibs__future to comp_arc_sta__baselibs__concurrency--><g id="link_logic_arc_int__baselibs__future_comp_arc_sta__baselibs__concurrency"><path codeLine="19" d="M3944.2766,197.1267 C3938.4566,197.8567 3938.64,197.82 3933,198.5 C3735.1,222.26 3685.51,227.5 3487,245.5 C3317.7,260.85 3123.09,275.18 2992.31,284.33 " fill="transparent" id="logic_arc_int__baselibs__future-backto-comp_arc_sta__baselibs__concurrency" style="stroke:#181818;stroke-width:1;"/><polygon fill="#181818" points="3950.23,196.38,3940.8022,193.5312,3945.2689,197.0023,3941.7978,201.469,3950.23,196.38" style="stroke:#181818;stroke-width:1;"/><text fill="#000000" font-family="sans-serif" font-size="13" lengthAdjust="spacing" textLength="76.9082" x="3667" y="241.5669">implements</text></g><!--link Feature_User to logic_arc_int__baselibs__dynamic_array--><g id="link_Feature_User_logic_arc_int__baselibs__dynamic_array"><path codeLine="20" d="M3078.95,46.46 C2876.1,55.49 2027.26,95.31 1333,158.5 C1327.17,159.03 1327.1922,159.0127 1321.1922,159.5927 " fill="transparent" id="Feature_User-to-logic_arc_int__baselibs__dynamic_array" style="stroke:#181818;stroke-width:1;"/><polygon fill="#181818" points="1315.22,160.17,1324.5631,163.2855,1320.1968,159.6889,1323.7934,155.3226,1315.22,160.17" style="stroke:#181818;stroke-width:1;"/><text fill="#000000" font-family="sans-serif" font-size="13" lengthAdjust="spacing" textLength="23.0103" x="1925" y="124.5669">use</text></g><!--link Feature_User to logic_arc_int__baselibs__utils_scoped_op--><g id="link_Feature_User_logic_arc_int__baselibs__utils_scoped_op"><path codeLine="21" d="M3169.11,46.5 C3373.13,55.73 4230.02,96.39 4931,158.5 C4936.97,159.03 4937.0766,159.0257 4943.2166,159.6057 " fill="transparent" id="Feature_User-to-logic_arc_int__baselibs__utils_scoped_op" style="stroke:#181818;stroke-width:1;"/><polygon fill="#181818" points="4949.19,160.17,4940.6061,155.3413,4944.2122,159.6998,4939.8537,163.3059,4949.19,160.17" style="stroke:#181818;stroke-width:1;"/><text fill="#000000" font-family="sans-serif" font-size="13" lengthAdjust="spacing" textLength="23.0103" x="4537" y="124.5669">use</text></g><!--reverse link logic_arc_int__baselibs__dynamic_array to comp_arc_sta__baselibs__containers--><g id="link_logic_arc_int__baselibs__dynamic_array_comp_arc_sta__baselibs__containers"><path codeLine="22" d="M1184.3035,203.0117 C1205.3435,224.2417 1234.79,253.94 1255.86,275.19 " fill="transparent" id="logic_arc_int__baselibs__dynamic_array-backto-comp_arc_sta__baselibs__containers" style="stroke:#181818;stroke-width:1;"/><polygon fill="#181818" points="1180.08,198.75,1183.5742,207.9582,1183.5996,202.3014,1189.2564,202.3268,1180.08,198.75" style="stroke:#181818;stroke-width:1;"/><text fill="#000000" font-family="sans-serif" font-size="13" lengthAdjust="spacing" textLength="76.9082" x="1226" y="241.5669">implements</text></g><!--link Feature_User to logic_arc_int__baselibs__condition_variable--><g id="link_Feature_User_logic_arc_int__baselibs__condition_variable"><path codeLine="23" d="M3078.65,60.54 C3009.11,85.14 2882.0767,130.0796 2807.6767,156.3896 " fill="transparent" id="Feature_User-to-logic_arc_int__baselibs__condition_variable" style="stroke:#181818;stroke-width:1;"/><polygon fill="#181818" points="2802.02,158.39,2811.8387,159.1606,2806.7339,156.723,2809.1715,151.6183,2802.02,158.39" style="stroke:#181818;stroke-width:1;"/><text fill="#000000" font-family="sans-serif" font-size="13" lengthAdjust="spacing" textLength="23.0103" x="2926" y="124.5669">use</text></g><!--link Feature_User to logic_arc_int__baselibs__synchronized_queue--><g id="link_Feature_User_logic_arc_int__baselibs__synchronized_queue"><path codeLine="24" d="M3124,81.55 C3124,106.45 3124,132.26 3124,152.26 " fill="transparent" id="Feature_User-to-logic_arc_int__baselibs__synchronized_queue" style="stroke:#181818;stroke-width:1;"/><polygon fill="#181818" points="3124,158.26,3128,149.26,3124,153.26,3120,149.26,3124,158.26" style="stroke:#181818;stroke-width:1;"/><text fill="#000000" font-family="sans-serif" font-size="13" lengthAdjust="spacing" textLength="23.0103" x="3125" y="124.5669">use</text></g><!--link Feature_User to logic_arc_int__baselibs__task--><g id="link_Feature_User_logic_arc_int__baselibs__task"><path codeLine="25" d="M3078.65,50.02 C2946.88,66.11 2552.69,114.6 2226,158.5 C2220.53,159.24 2220.875,159.1898 2215.225,159.9598 " fill="transparent" id="Feature_User-to-logic_arc_int__baselibs__task" style="stroke:#181818;stroke-width:1;"/><polygon fill="#181818" points="2209.28,160.77,2218.7377,163.518,2214.2342,160.0948,2217.6574,155.5913,2209.28,160.77" style="stroke:#181818;stroke-width:1;"/><text fill="#000000" font-family="sans-serif" font-size="13" lengthAdjust="spacing" textLength="23.0103" x="2573" y="124.5669">use</text></g><!--link Feature_User to logic_arc_int__baselibs__bit_manipulation--><g id="link_Feature_User_logic_arc_int__baselibs__bit_manipulation"><path codeLine="26" d="M3078.85,45.8 C2853.34,52.51 1826.59,85.83 989,158.5 C983.43,158.98 983.7345,158.9374 978.0045,159.4674 " fill="transparent" id="Feature_User-to-logic_arc_int__baselibs__bit_manipulation" style="stroke:#181818;stroke-width:1;"/><polygon fill="#181818" points="972.03,160.02,981.3602,163.1741,977.0087,159.5595,980.6233,155.2081,972.03,160.02" style="stroke:#181818;stroke-width:1;"/><text fill="#000000" font-family="sans-serif" font-size="13" lengthAdjust="spacing" textLength="23.0103" x="1576" y="124.5669">use</text></g><!--link Feature_User to logic_arc_int__baselibs__promise--><g id="link_Feature_User_logic_arc_int__baselibs__promise"><path codeLine="27" d="M3078.89,48.41 C2923.12,62.02 2393.42,109.18 1957,158.5 C1951.34,159.14 1951.5086,159.106 1945.6686,159.796 " fill="transparent" id="Feature_User-to-logic_arc_int__baselibs__promise" style="stroke:#181818;stroke-width:1;"/><polygon fill="#181818" points="1939.71,160.5,1949.1172,163.4164,1944.6755,159.9133,1948.1785,155.4716,1939.71,160.5" style="stroke:#181818;stroke-width:1;"/><text fill="#000000" font-family="sans-serif" font-size="13" lengthAdjust="spacing" textLength="23.0103" x="2375" y="124.5669">use</text></g><!--reverse link logic_arc_int__baselibs__filesystem to comp_arc_sta__baselibs__filesystem--><g id="link_logic_arc_int__baselibs__filesystem_comp_arc_sta__baselibs__filesystem"><path codeLine="28" d="M5764.3418,204.7479 C5763.7818,225.9779 5763.06,253.94 5762.5,275.19 " fill="transparent" id="logic_arc_int__baselibs__filesystem-backto-comp_arc_sta__baselibs__filesystem" style="stroke:#181818;stroke-width:1;"/><polygon fill="#181818" points="5764.5,198.75,5760.2641,207.6414,5764.3682,203.7483,5768.2613,207.8523,5764.5,198.75" style="stroke:#181818;stroke-width:1;"/><text fill="#000000" font-family="sans-serif" font-size="13" lengthAdjust="spacing" textLength="76.9082" x="5765" y="241.5669">implements</text></g><!--link Feature_User to logic_arc_int__baselibs__filesystem--><g id="link_Feature_User_logic_arc_int__baselibs__filesystem"><path codeLine="29" d="M3169.25,45.7 C3372.04,51.19 4217.68,75.17 4911,111.5 C5221.5,127.77 5299.45,129.25 5609,158.5 C5614.84,159.05 5614.8316,159.0353 5620.8516,159.6553 " fill="transparent" id="Feature_User-to-logic_arc_int__baselibs__filesystem" style="stroke:#181818;stroke-width:1;"/><polygon fill="#181818" points="5626.82,160.27,5618.2771,155.369,5621.8463,159.7578,5617.4576,163.3269,5626.82,160.27" style="stroke:#181818;stroke-width:1;"/><text fill="#000000" font-family="sans-serif" font-size="13" lengthAdjust="spacing" textLength="23.0103" x="5227" y="124.5669">use</text></g><!--reverse link logic_arc_int__baselibs__executor to comp_arc_sta__baselibs__concurrency--><g id="link_logic_arc_int__baselibs__executor_comp_arc_sta__baselibs__concurrency"><path codeLine="30" d="M3356.7094,199.6377 C3241.1094,220.9477 3060.91,254.16 2945.33,275.46 " fill="transparent" id="logic_arc_int__baselibs__executor-backto-comp_arc_sta__baselibs__concurrency" style="stroke:#181818;stroke-width:1;"/><polygon fill="#181818" points="3362.61,198.55,3353.034,196.2479,3357.6928,199.4564,3354.4843,204.1153,3362.61,198.55" style="stroke:#181818;stroke-width:1;"/><text fill="#000000" font-family="sans-serif" font-size="13" lengthAdjust="spacing" textLength="76.9082" x="3193" y="241.5669">implements</text></g><!--link Feature_User to logic_arc_int__baselibs__intrusive_list--><g id="link_Feature_User_logic_arc_int__baselibs__intrusive_list"><path codeLine="31" d="M3078.73,47.28 C2899.08,58.49 2218.98,102.39 1661,158.5 C1655.3,159.07 1655.4468,159.0398 1649.5768,159.6598 " fill="transparent" id="Feature_User-to-logic_arc_int__baselibs__intrusive_list" style="stroke:#181818;stroke-width:1;"/><polygon fill="#181818" points="1643.61,160.29,1652.9804,163.3225,1648.5823,159.7648,1652.1401,155.3668,1643.61,160.29" style="stroke:#181818;stroke-width:1;"/><text fill="#000000" font-family="sans-serif" font-size="13" lengthAdjust="spacing" textLength="23.0103" x="2185" y="124.5669">use</text></g><!--reverse link logic_arc_int__baselibs__memory_shared to comp_arc_sta__baselibs__memory_shared--><g id="link_logic_arc_int__baselibs__memory_shared_comp_arc_sta__baselibs__memory_shared"><path codeLine="32" d="M4755.879,204.7464 C4756.619,225.9764 4757.59,253.94 4758.33,275.19 " fill="transparent" id="logic_arc_int__baselibs__memory_shared-backto-comp_arc_sta__baselibs__memory_shared" style="stroke:#181818;stroke-width:1;"/><polygon fill="#181818" points="4755.67,198.75,4751.9859,207.8839,4755.8442,203.747,4759.9811,207.6052,4755.67,198.75" style="stroke:#181818;stroke-width:1;"/><text fill="#000000" font-family="sans-serif" font-size="13" lengthAdjust="spacing" textLength="76.9082" x="4759" y="241.5669">implements</text></g><!--link Feature_User to logic_arc_int__baselibs__memory_shared--><g id="link_Feature_User_logic_arc_int__baselibs__memory_shared"><path codeLine="33" d="M3169.27,47.57 C3348.18,59.82 4023.33,107 4578,158.5 C4583.85,159.04 4583.8277,159.0336 4589.8377,159.6136 " fill="transparent" id="Feature_User-to-logic_arc_int__baselibs__memory_shared" style="stroke:#181818;stroke-width:1;"/><polygon fill="#181818" points="4595.81,160.19,4587.2359,155.344,4590.8331,159.7097,4586.4674,163.307,4595.81,160.19" style="stroke:#181818;stroke-width:1;"/><text fill="#000000" font-family="sans-serif" font-size="13" lengthAdjust="spacing" textLength="23.0103" x="4221" y="124.5669">use</text></g><!--reverse link logic_arc_int__baselibs__bit_mask_operator to comp_arc_sta__baselibs__bit_manipulation--><g id="link_logic_arc_int__baselibs__bit_mask_operator_comp_arc_sta__baselibs__bit_manipulation"><path codeLine="34" d="M471.7858,202.8658 C494.3058,224.0958 525.97,253.94 548.51,275.19 " fill="transparent" id="logic_arc_int__baselibs__bit_mask_operator-backto-comp_arc_sta__baselibs__bit_manipulation" style="stroke:#181818;stroke-width:1;"/><polygon fill="#181818" points="467.42,198.75,471.2249,207.8342,471.0582,202.1798,476.7126,202.0131,467.42,198.75" style="stroke:#181818;stroke-width:1;"/><text fill="#000000" font-family="sans-serif" font-size="13" lengthAdjust="spacing" textLength="76.9082" x="517" y="241.5669">implements</text></g><!--reverse link logic_arc_int__baselibs__condition_variable to comp_arc_sta__baselibs__concurrency--><g id="link_logic_arc_int__baselibs__condition_variable_comp_arc_sta__baselibs__concurrency"><path codeLine="35" d="M2767.5281,203.3948 C2784.8881,224.6248 2808.84,253.94 2826.22,275.19 " fill="transparent" id="logic_arc_int__baselibs__condition_variable-backto-comp_arc_sta__baselibs__concurrency" style="stroke:#181818;stroke-width:1;"/><polygon fill="#181818" points="2763.73,198.75,2766.3306,208.2493,2766.8951,202.6207,2772.5237,203.1851,2763.73,198.75" style="stroke:#181818;stroke-width:1;"/><text fill="#000000" font-family="sans-serif" font-size="13" lengthAdjust="spacing" textLength="76.9082" x="2802" y="241.5669">implements</text></g><!--link Feature_User to logic_arc_int__baselibs__json--><g id="link_Feature_User_logic_arc_int__baselibs__json"><path codeLine="36" d="M3078.69,45.42 C2854.6,50.1 1842.3,72.47 1014,111.5 C679.5,127.26 595.15,124.52 262,158.5 C256.27,159.08 256.3695,159.0342 250.4595,159.7242 " fill="transparent" id="Feature_User-to-logic_arc_int__baselibs__json" style="stroke:#181818;stroke-width:1;"/><polygon fill="#181818" points="244.5,160.42,253.9031,163.3493,249.4663,159.8402,252.9754,155.4033,244.5,160.42" style="stroke:#181818;stroke-width:1;"/><text fill="#000000" font-family="sans-serif" font-size="13" lengthAdjust="spacing" textLength="23.0103" x="1015" y="124.5669">use</text></g><!--reverse link logic_arc_int__baselibs__message_passing to comp_arc_sta__baselibs__message_passing--><g id="link_logic_arc_int__baselibs__message_passing_comp_arc_sta__baselibs__message_passing"><path codeLine="37" d="M4395.9002,204.7444 C4394.9802,225.9744 4393.76,253.94 4392.84,275.19 " fill="transparent" id="logic_arc_int__baselibs__message_passing-backto-comp_arc_sta__baselibs__message_passing" style="stroke:#181818;stroke-width:1;"/><polygon fill="#181818" points="4396.16,198.75,4391.7741,207.5684,4395.9435,203.7453,4399.7666,207.9147,4396.16,198.75" style="stroke:#181818;stroke-width:1;"/><text fill="#000000" font-family="sans-serif" font-size="13" lengthAdjust="spacing" textLength="76.9082" x="4396" y="241.5669">implements</text></g><!--reverse link logic_arc_int__baselibs__promise to comp_arc_sta__baselibs__concurrency--><g id="link_logic_arc_int__baselibs__promise_comp_arc_sta__baselibs__concurrency"><path codeLine="38" d="M1945.5548,198.5519 C2048.2848,212.5819 2189.15,231.13 2318,245.5 C2443.88,259.54 2587.08,272.74 2691.93,281.9 " fill="transparent" id="logic_arc_int__baselibs__promise-backto-comp_arc_sta__baselibs__concurrency" style="stroke:#181818;stroke-width:1;"/><polygon fill="#181818" points="1939.61,197.74,1947.986,202.921,1944.564,198.4166,1949.0685,194.9946,1939.61,197.74" style="stroke:#181818;stroke-width:1;"/><text fill="#000000" font-family="sans-serif" font-size="13" lengthAdjust="spacing" textLength="76.9082" x="2319" y="241.5669">implements</text></g><!--link Feature_User to logic_arc_int__baselibs__future--><g id="link_Feature_User_logic_arc_int__baselibs__future"><path codeLine="39" d="M3169.18,50.83 C3308.84,70.38 3731.068,129.488 3944.478,159.368 " fill="transparent" id="Feature_User-to-logic_arc_int__baselibs__future" style="stroke:#181818;stroke-width:1;"/><polygon fill="#181818" points="3950.42,160.2,3942.0616,154.9907,3945.4683,159.5067,3940.9523,162.9134,3950.42,160.2" style="stroke:#181818;stroke-width:1;"/><text fill="#000000" font-family="sans-serif" font-size="13" lengthAdjust="spacing" textLength="23.0103" x="3714" y="124.5669">use</text></g><!--reverse link logic_arc_int__baselibs__utils_scoped_op to comp_arc_sta__baselibs__utils--><g id="link_logic_arc_int__baselibs__utils_scoped_op_comp_arc_sta__baselibs__utils"><path codeLine="40" d="M5135.4324,202.5265 C5161.6424,223.7565 5198.91,253.94 5225.15,275.19 " fill="transparent" id="logic_arc_int__baselibs__utils_scoped_op-backto-comp_arc_sta__baselibs__utils" style="stroke:#181818;stroke-width:1;"/><polygon fill="#181818" points="5130.77,198.75,5135.2459,207.523,5134.6553,201.8971,5140.2813,201.3065,5130.77,198.75" style="stroke:#181818;stroke-width:1;"/><text fill="#000000" font-family="sans-serif" font-size="13" lengthAdjust="spacing" textLength="76.9082" x="5188" y="241.5669">implements</text></g><!--link Feature_User to logic_arc_int__baselibs__message_passing--><g id="link_Feature_User_logic_arc_int__baselibs__message_passing"><path codeLine="41" d="M3169.31,49.23 C3338.55,66.92 3933.0525,129.0265 4226.7925,159.7165 " fill="transparent" id="Feature_User-to-logic_arc_int__baselibs__message_passing" style="stroke:#181818;stroke-width:1;"/><polygon fill="#181818" points="4232.76,160.34,4224.2244,155.4264,4227.7871,159.8204,4223.3931,163.3831,4232.76,160.34" style="stroke:#181818;stroke-width:1;"/><text fill="#000000" font-family="sans-serif" font-size="13" lengthAdjust="spacing" textLength="23.0103" x="3913" y="124.5669">use</text></g><!--link Feature_User to logic_arc_int__baselibs__utils_base64--><g id="link_Feature_User_logic_arc_int__baselibs__utils_base64"><path codeLine="42" d="M3169.27,46.28 C3347.45,53.34 4017.68,80.55 4569,111.5 C4886.08,129.3 4965.73,129.77 5282,158.5 C5287.85,159.03 5287.8496,159.0049 5293.8696,159.6049 " fill="transparent" id="Feature_User-to-logic_arc_int__baselibs__utils_base64" style="stroke:#181818;stroke-width:1;"/><polygon fill="#181818" points="5299.84,160.2,5291.2811,155.3271,5294.8647,159.7041,5290.4877,163.2877,5299.84,160.2" style="stroke:#181818;stroke-width:1;"/><text fill="#000000" font-family="sans-serif" font-size="13" lengthAdjust="spacing" textLength="23.0103" x="4879" y="124.5669">use</text></g><!--link Feature_User to logic_arc_int__baselibs__bit_mask_operator--><g id="link_Feature_User_logic_arc_int__baselibs__bit_mask_operator"><path codeLine="43" d="M3078.77,45.79 C2877.86,51.6 2046.14,76.62 1364,111.5 C1038.42,128.15 956.87,131.4 632,158.5 C626.37,158.97 626.6159,158.9224 620.8359,159.4424 " fill="transparent" id="Feature_User-to-logic_arc_int__baselibs__bit_mask_operator" style="stroke:#181818;stroke-width:1;"/><polygon fill="#181818" points="614.86,159.98,624.1822,163.1575,619.8399,159.532,623.4654,155.1897,614.86,159.98" style="stroke:#181818;stroke-width:1;"/><text fill="#000000" font-family="sans-serif" font-size="13" lengthAdjust="spacing" textLength="23.0103" x="1365" y="124.5669">use</text></g><!--link Feature_User to logic_arc_int__baselibs__executor--><g id="link_Feature_User_logic_arc_int__baselibs__executor"><path codeLine="44" d="M3169.06,62.02 C3233.27,86.99 3345.0479,130.4654 3411.3679,156.2554 " fill="transparent" id="Feature_User-to-logic_arc_int__baselibs__executor" style="stroke:#181818;stroke-width:1;"/><polygon fill="#181818" points="3416.96,158.43,3410.0216,151.4401,3412.3,156.6178,3407.1222,158.8961,3416.96,158.43" style="stroke:#181818;stroke-width:1;"/><text fill="#000000" font-family="sans-serif" font-size="13" lengthAdjust="spacing" textLength="23.0103" x="3337" y="124.5669">use</text></g><!--reverse link logic_arc_int__baselibs__synchronized_queue to comp_arc_sta__baselibs__concurrency--><g id="link_logic_arc_int__baselibs__synchronized_queue_comp_arc_sta__baselibs__concurrency"><path codeLine="45" d="M3071.5642,200.8856 C3019.4042,222.1556 2941.19,254.05 2889,275.34 " fill="transparent" id="logic_arc_int__baselibs__synchronized_queue-backto-comp_arc_sta__baselibs__concurrency" style="stroke:#181818;stroke-width:1;"/><polygon fill="#181818" points="3077.12,198.62,3067.2759,198.3145,3072.4901,200.508,3070.2966,205.7222,3077.12,198.62" style="stroke:#181818;stroke-width:1;"/><text fill="#000000" font-family="sans-serif" font-size="13" lengthAdjust="spacing" textLength="76.9082" x="3001" y="241.5669">implements</text></g><!--reverse link logic_arc_int__baselibs__task to comp_arc_sta__baselibs__concurrency--><g id="link_logic_arc_int__baselibs__task_comp_arc_sta__baselibs__concurrency"><path codeLine="46" d="M2214.743,199.5082 C2297.633,212.9182 2405.63,230.18 2506,245.5 C2572.73,255.68 2646.98,266.56 2708.68,275.47 " fill="transparent" id="logic_arc_int__baselibs__task-backto-comp_arc_sta__baselibs__concurrency" style="stroke:#181818;stroke-width:1;"/><polygon fill="#181818" points="2208.82,198.55,2217.0657,203.936,2213.7558,199.3485,2218.3433,196.0387,2208.82,198.55" style="stroke:#181818;stroke-width:1;"/><text fill="#000000" font-family="sans-serif" font-size="13" lengthAdjust="spacing" textLength="76.9082" x="2507" y="241.5669">implements</text></g><!--reverse link logic_arc_int__baselibs__task_result to comp_arc_sta__baselibs__concurrency--><g id="link_logic_arc_int__baselibs__task_result_comp_arc_sta__baselibs__concurrency"><path codeLine="47" d="M3631.4951,199.3314 C3531.7751,212.9414 3399.6,230.59 3278,245.5 C3183.02,257.14 3076.27,269.16 2992.16,278.38 " fill="transparent" id="logic_arc_int__baselibs__task_result-backto-comp_arc_sta__baselibs__concurrency" style="stroke:#181818;stroke-width:1;"/><polygon fill="#181818" points="3637.44,198.52,3627.9818,195.7738,3632.4859,199.1961,3629.0636,203.7003,3637.44,198.52" style="stroke:#181818;stroke-width:1;"/><text fill="#000000" font-family="sans-serif" font-size="13" lengthAdjust="spacing" textLength="76.9082" x="3402" y="241.5669">implements</text></g><!--reverse link logic_arc_int__baselibs__intrusive_list to comp_arc_sta__baselibs__containers--><g id="link_logic_arc_int__baselibs__intrusive_list_comp_arc_sta__baselibs__containers"><path codeLine="48" d="M1454.7627,201.3803 C1413.7127,222.6503 1353.09,254.05 1312,275.34 " fill="transparent" id="logic_arc_int__baselibs__intrusive_list-backto-comp_arc_sta__baselibs__containers" style="stroke:#181818;stroke-width:1;"/><polygon fill="#181818" points="1460.09,198.62,1450.2588,199.209,1455.6506,200.9203,1453.9392,206.3121,1460.09,198.62" style="stroke:#181818;stroke-width:1;"/><text fill="#000000" font-family="sans-serif" font-size="13" lengthAdjust="spacing" textLength="76.9082" x="1401" y="241.5669">implements</text></g><!--link Feature_User to logic_arc_int__baselibs__shared_future--><g id="link_Feature_User_logic_arc_int__baselibs__shared_future"><path codeLine="49" d="M3078.95,52.72 C2964.63,73.58 2666.8526,127.9031 2505.3326,157.3731 " fill="transparent" id="Feature_User-to-logic_arc_int__baselibs__shared_future" style="stroke:#181818;stroke-width:1;"/><polygon fill="#181818" points="2499.43,158.45,2509.0018,160.7696,2504.3488,157.5525,2507.5659,152.8995,2499.43,158.45" style="stroke:#181818;stroke-width:1;"/><text fill="#000000" font-family="sans-serif" font-size="13" lengthAdjust="spacing" textLength="23.0103" x="2739" y="124.5669">use</text></g><!--reverse link logic_arc_int__baselibs__json to comp_arc_sta__baselibs__json--><g id="link_logic_arc_int__baselibs__json_comp_arc_sta__baselibs__json"><path codeLine="50" d="M128,204.75 C128,225.98 128,253.94 128,275.19 " fill="transparent" id="logic_arc_int__baselibs__json-backto-comp_arc_sta__baselibs__json" style="stroke:#181818;stroke-width:1;"/><polygon fill="#181818" points="128,198.75,124,207.75,128,203.75,132,207.75,128,198.75" style="stroke:#181818;stroke-width:1;"/><text fill="#000000" font-family="sans-serif" font-size="13" lengthAdjust="spacing" textLength="76.9082" x="129" y="241.5669">implements</text></g><!--link Feature_User to logic_arc_int__baselibs__task_result--><g id="link_Feature_User_logic_arc_int__baselibs__task_result"><path codeLine="51" d="M3169,53.69 C3274.56,75.26 3533.9515,128.2487 3675.9615,157.2687 " fill="transparent" id="Feature_User-to-logic_arc_int__baselibs__task_result" style="stroke:#181818;stroke-width:1;"/><polygon fill="#181818" points="3681.84,158.47,3673.8231,152.7491,3676.9412,157.4689,3672.2214,160.5871,3681.84,158.47" style="stroke:#181818;stroke-width:1;"/><text fill="#000000" font-family="sans-serif" font-size="13" lengthAdjust="spacing" textLength="23.0103" x="3528" y="124.5669">use</text></g><!--reverse link logic_arc_int__baselibs__bit_manipulation to comp_arc_sta__baselibs__bit_manipulation--><g id="link_logic_arc_int__baselibs__bit_manipulation_comp_arc_sta__baselibs__bit_manipulation"><path codeLine="52" d="M765.3508,201.1952 C720.5908,222.4652 654.12,254.05 609.33,275.34 " fill="transparent" id="logic_arc_int__baselibs__bit_manipulation-backto-comp_arc_sta__baselibs__bit_manipulation" style="stroke:#181818;stroke-width:1;"/><polygon fill="#181818" points="770.77,198.62,760.9243,198.87,766.254,200.766,764.358,206.0957,770.77,198.62" style="stroke:#181818;stroke-width:1;"/><text fill="#000000" font-family="sans-serif" font-size="13" lengthAdjust="spacing" textLength="76.9082" x="706" y="241.5669">implements</text></g><!--SRC=[hLPDZzCm4BtdLrXxxu8Gue1MUq7Yn94zMuupsmxrHzOpNZOW_Zjk4qeIkdLZSdJo_FBcwqsKCVwxjFY2RbknRmLxKNjcRqM30JIZTzKE6n344C1prq9_1jjo9nHpm3eoK7L7t1cuhsuLeQd5p-eBElZaZGyYG7CyVTsXtZiW4kzktrQ_ghitmvrAQKwucy-WE0OG3mJXHYWImmDvU22gIdlRIXMq95PIreh0O4rIQkzq306SxiGcRkw5yLlKHoGw7YDffv8Q-HWFj1y5sjQ01SSaNYKFGD5mXhS7NKSO6Grb-8wOu_d3-odh92MRvXfHaK2iaBjpILkWfkcSiiTNGNM3g0NN-uoGzcsgds_pKR5ABHToYPwfAemjVQx1mx38PnLGrGQM1qYTqxlW7Vv80Jv5Y0KSh6Y__5QDBAros4QZ3a4iPsY3jqYGASeZ6g0kEOdDTTe9M5oHCSLA_Gyle6FogM9DwHWYuJD8WvIRImlMXsumh8oo2RPOtepbehfvosG4zd3Qfy65eFx9uV_Nvjm05gRX6vqcuFNQ4Aajo5OHfSsPhSu4lNRefzahdPJ1rYz6VFtE6ZbqSH_EybMsAluipp8tdFJgKeg_Jh6IzPpR3UjsKRyvrkTSz6TqzTQUEsbXfyt-1YyMws0B6LMzSnHgcIHhVUyTR_Unmjy0]--></g></svg>