<svg xmlns="http://www.w3.org/2000/svg" xmlns:xlink="http://www.w3.org/1999/xlink" contentStyleType="text/css" data-diagram-type="CLASS" height="322px" preserveAspectRatio="none" style="width:6201px;height:322px;background:#FFFFFF;" version="1.1" viewBox="0 0 6201 322" width="6201px" zoomAndPan="magnify"><defs/><g><!--entity Feature_User--><g id="elem_Feature_User"><ellipse cx="3065.6685" cy="14" fill="#F1F1F1" rx="8" ry="8" style="stroke:#181818;stroke-width:0.5;"/><path d="M3065.6685,22 L3065.6685,49 M3052.6685,30 L3078.6685,30 M3065.6685,49 L3052.6685,64 M3065.6685,49 L3078.6685,64 " fill="transparent" style="stroke:#181818;stroke-width:0.5;"/><text fill="#000000" font-family="sans-serif" font-size="14" lengthAdjust="spacing" textLength="90.3369" x="3020.5" y="78.4951">Feature User</text></g><!--class logic_arc_int__baselibs__utils_scoped_op--><g id="elem_logic_arc_int__baselibs__utils_scoped_op"><rect fill="#F1F1F1" height="40" id="logic_arc_int__baselibs__utils_scoped_op" rx="2.5" ry="2.5" style="stroke:#181818;stroke-width:0.5;" width="315.377" x="4564" y="158.5"/><ellipse cx="4579" cy="174.5" fill="#ADD1B2" rx="11" ry="11" style="stroke:#181818;stroke-width:1;"/><path d="M4581.9688,180.1406 Q4581.3906,180.4375 4580.75,180.5781 Q4580.1094,180.7344 4579.4063,180.7344 Q4576.9063,180.7344 4575.5781,179.0938 Q4574.2656,177.4375 4574.2656,174.3125 Q4574.2656,171.1875 4575.5781,169.5313 Q4576.9063,167.875 4579.4063,167.875 Q4580.1094,167.875 4580.75,168.0313 Q4581.4063,168.1875 4581.9688,168.4844 L4581.9688,171.2031 Q4581.3438,170.625 4580.75,170.3594 Q4580.1563,170.0781 4579.5313,170.0781 Q4578.1875,170.0781 4577.5,171.1563 Q4576.8125,172.2188 4576.8125,174.3125 Q4576.8125,176.4063 4577.5,177.4844 Q4578.1875,178.5469 4579.5313,178.5469 Q4580.1563,178.5469 4580.75,178.2813 Q4581.3438,178 4581.9688,177.4219 L4581.9688,180.1406 Z " fill="#000000"/><text fill="#000000" font-family="sans-serif" font-size="14" lengthAdjust="spacing" textLength="283.377" x="4593" y="179.3467">logic_arc_int__baselibs__utils_scoped_op</text><line style="stroke:#181818;stroke-width:0.5;" x1="4565" x2="4878.377" y1="190.5" y2="190.5"/></g><!--class logic_arc_int__baselibs__message_passing--><g id="elem_logic_arc_int__baselibs__message_passing"><rect fill="#F1F1F1" height="40" id="logic_arc_int__baselibs__message_passing" rx="2.5" ry="2.5" style="stroke:#181818;stroke-width:0.5;" width="328.167" x="3604.5" y="158.5"/><ellipse cx="3619.5" cy="174.5" fill="#ADD1B2" rx="11" ry="11" style="stroke:#181818;stroke-width:1;"/><path d="M3622.4688,180.1406 Q3621.8906,180.4375 3621.25,180.5781 Q3620.6094,180.7344 3619.9063,180.7344 Q3617.4063,180.7344 3616.0781,179.0938 Q3614.7656,177.4375 3614.7656,174.3125 Q3614.7656,171.1875 3616.0781,169.5313 Q3617.4063,167.875 3619.9063,167.875 Q3620.6094,167.875 3621.25,168.0313 Q3621.9063,168.1875 3622.4688,168.4844 L3622.4688,171.2031 Q3621.8438,170.625 3621.25,170.3594 Q3620.6563,170.0781 3620.0313,170.0781 Q3618.6875,170.0781 3618,171.1563 Q3617.3125,172.2188 3617.3125,174.3125 Q3617.3125,176.4063 3618,177.4844 Q3618.6875,178.5469 3620.0313,178.5469 Q3620.6563,178.5469 3621.25,178.2813 Q3621.8438,178 3622.4688,177.4219 L3622.4688,180.1406 Z " fill="#000000"/><text fill="#000000" font-family="sans-serif" font-size="14" lengthAdjust="spacing" textLength="296.167" x="3633.5" y="179.3467">logic_arc_int__baselibs__message_passing</text><line style="stroke:#181818;stroke-width:0.5;" x1="3605.5" x2="3931.667" y1="190.5" y2="190.5"/></g><!--class comp_arc_sta__baselibs__concurrency--><g id="elem_comp_arc_sta__baselibs__concurrency"><rect fill="#F1F1F1" height="40" id="comp_arc_sta__baselibs__concurrency" rx="2.5" ry="2.5" style="stroke:#181818;stroke-width:0.5;" width="300.2012" x="2128.5" y="275.5"/><ellipse cx="2143.5" cy="291.5" fill="#ADD1B2" rx="11" ry="11" style="stroke:#181818;stroke-width:1;"/><path d="M2146.4688,297.1406 Q2145.8906,297.4375 2145.25,297.5781 Q2144.6094,297.7344 2143.9063,297.7344 Q2141.4063,297.7344 2140.0781,296.0938 Q2138.7656,294.4375 2138.7656,291.3125 Q2138.7656,288.1875 2140.0781,286.5313 Q2141.4063,284.875 2143.9063,284.875 Q2144.6094,284.875 2145.25,285.0313 Q2145.9063,285.1875 2146.4688,285.4844 L2146.4688,288.2031 Q2145.8438,287.625 2145.25,287.3594 Q2144.6563,287.0781 2144.0313,287.0781 Q2142.6875,287.0781 2142,288.1563 Q2141.3125,289.2188 2141.3125,291.3125 Q2141.3125,293.4063 2142,294.4844 Q2142.6875,295.5469 2144.0313,295.5469 Q2144.6563,295.5469 2145.25,295.2813 Q2145.8438,295 2146.4688,294.4219 L2146.4688,297.1406 Z " fill="#000000"/><text fill="#000000" font-family="sans-serif" font-size="14" lengthAdjust="spacing" textLength="268.2012" x="2157.5" y="296.3467">comp_arc_sta__baselibs__concurrency</text><line style="stroke:#181818;stroke-width:0.5;" x1="2129.5" x2="2427.7012" y1="307.5" y2="307.5"/></g><!--class logic_arc_int__baselibs__task_result--><g id="elem_logic_arc_int__baselibs__task_result"><rect fill="#F1F1F1" height="40" id="logic_arc_int__baselibs__task_result" rx="2.5" ry="2.5" style="stroke:#181818;stroke-width:0.5;" width="280.9307" x="2313" y="158.5"/><ellipse cx="2328" cy="174.5" fill="#ADD1B2" rx="11" ry="11" style="stroke:#181818;stroke-width:1;"/><path d="M2330.9688,180.1406 Q2330.3906,180.4375 2329.75,180.5781 Q2329.1094,180.7344 2328.4063,180.7344 Q2325.9063,180.7344 2324.5781,179.0938 Q2323.2656,177.4375 2323.2656,174.3125 Q2323.2656,171.1875 2324.5781,169.5313 Q2325.9063,167.875 2328.4063,167.875 Q2329.1094,167.875 2329.75,168.0313 Q2330.4063,168.1875 2330.9688,168.4844 L2330.9688,171.2031 Q2330.3438,170.625 2329.75,170.3594 Q2329.1563,170.0781 2328.5313,170.0781 Q2327.1875,170.0781 2326.5,171.1563 Q2325.8125,172.2188 2325.8125,174.3125 Q2325.8125,176.4063 2326.5,177.4844 Q2327.1875,178.5469 2328.5313,178.5469 Q2329.1563,178.5469 2329.75,178.2813 Q2330.3438,178 2330.9688,177.4219 L2330.9688,180.1406 Z " fill="#000000"/><text fill="#000000" font-family="sans-serif" font-size="14" lengthAdjust="spacing" textLength="248.9307" x="2342" y="179.3467">logic_arc_int__baselibs__task_result</text><line style="stroke:#181818;stroke-width:0.5;" x1="2314" x2="2592.9307" y1="190.5" y2="190.5"/></g><!--class logic_arc_int__baselibs__task--><g id="elem_logic_arc_int__baselibs__task"><rect fill="#F1F1F1" height="40" id="logic_arc_int__baselibs__task" rx="2.5" ry="2.5" style="stroke:#181818;stroke-width:0.5;" width="234.0156" x="2629.5" y="158.5"/><ellipse cx="2644.5" cy="174.5" fill="#ADD1B2" rx="11" ry="11" style="stroke:#181818;stroke-width:1;"/><path d="M2647.4688,180.1406 Q2646.8906,180.4375 2646.25,180.5781 Q2645.6094,180.7344 2644.9063,180.7344 Q2642.4063,180.7344 2641.0781,179.0938 Q2639.7656,177.4375 2639.7656,174.3125 Q2639.7656,171.1875 2641.0781,169.5313 Q2642.4063,167.875 2644.9063,167.875 Q2645.6094,167.875 2646.25,168.0313 Q2646.9063,168.1875 2647.4688,168.4844 L2647.4688,171.2031 Q2646.8438,170.625 2646.25,170.3594 Q2645.6563,170.0781 2645.0313,170.0781 Q2643.6875,170.0781 2643,171.1563 Q2642.3125,172.2188 2642.3125,174.3125 Q2642.3125,176.4063 2643,177.4844 Q2643.6875,178.5469 2645.0313,178.5469 Q2645.6563,178.5469 2646.25,178.2813 Q2646.8438,178 2647.4688,177.4219 L2647.4688,180.1406 Z " fill="#000000"/><text fill="#000000" font-family="sans-serif" font-size="14" lengthAdjust="spacing" textLength="202.0156" x="2658.5" y="179.3467">logic_arc_int__baselibs__task</text><line style="stroke:#181818;stroke-width:0.5;" x1="2630.5" x2="2862.5156" y1="190.5" y2="190.5"/></g><!--class comp_arc_sta__baselibs__utils--><g id="elem_comp_arc_sta__baselibs__utils"><rect fill="#F1F1F1" height="40" id="comp_arc_sta__baselibs__utils" rx="2.5" ry="2.5" style="stroke:#181818;stroke-width:0.5;" width="242.9502" x="4403" y="275.5"/><ellipse cx="4418" cy="291.5" fill="#ADD1B2" rx="11" ry="11" style="stroke:#181818;stroke-width:1;"/><path d="M4420.9688,297.1406 Q4420.3906,297.4375 4419.75,297.5781 Q4419.1094,297.7344 4418.4063,297.7344 Q4415.9063,297.7344 4414.5781,296.0938 Q4413.2656,294.4375 4413.2656,291.3125 Q4413.2656,288.1875 4414.5781,286.5313 Q4415.9063,284.875 4418.4063,284.875 Q4419.1094,284.875 4419.75,285.0313 Q4420.4063,285.1875 4420.9688,285.4844 L4420.9688,288.2031 Q4420.3438,287.625 4419.75,287.3594 Q4419.1563,287.0781 4418.5313,287.0781 Q4417.1875,287.0781 4416.5,288.1563 Q4415.8125,289.2188 4415.8125,291.3125 Q4415.8125,293.4063 4416.5,294.4844 Q4417.1875,295.5469 4418.5313,295.5469 Q4419.1563,295.5469 4419.75,295.2813 Q4420.3438,295 4420.9688,294.4219 L4420.9688,297.1406 Z " fill="#000000"/><text fill="#000000" font-family="sans-serif" font-size="14" lengthAdjust="spacing" textLength="210.9502" x="4432" y="296.3467">comp_arc_sta__baselibs__utils</text><line style="stroke:#181818;stroke-width:0.5;" x1="4404" x2="4644.9502" y1="307.5" y2="307.5"/></g><!--class logic_arc_int__baselibs__utils_base64--><g id="elem_logic_arc_int__baselibs__utils_base64"><rect fill="#F1F1F1" height="40" id="logic_arc_int__baselibs__utils_base64" rx="2.5" ry="2.5" style="stroke:#181818;stroke-width:0.5;" width="292.1689" x="4236.5" y="158.5"/><ellipse cx="4251.5" cy="174.5" fill="#ADD1B2" rx="11" ry="11" style="stroke:#181818;stroke-width:1;"/><path d="M4254.4688,180.1406 Q4253.8906,180.4375 4253.25,180.5781 Q4252.6094,180.7344 4251.9063,180.7344 Q4249.4063,180.7344 4248.0781,179.0938 Q4246.7656,177.4375 4246.7656,174.3125 Q4246.7656,171.1875 4248.0781,169.5313 Q4249.4063,167.875 4251.9063,167.875 Q4252.6094,167.875 4253.25,168.0313 Q4253.9063,168.1875 4254.4688,168.4844 L4254.4688,171.2031 Q4253.8438,170.625 4253.25,170.3594 Q4252.6563,170.0781 4252.0313,170.0781 Q4250.6875,170.0781 4250,171.1563 Q4249.3125,172.2188 4249.3125,174.3125 Q4249.3125,176.4063 4250,177.4844 Q4250.6875,178.5469 4252.0313,178.5469 Q4252.6563,178.5469 4253.25,178.2813 Q4253.8438,178 4254.4688,177.4219 L4254.4688,180.1406 Z " fill="#000000"/><text fill="#000000" font-family="sans-serif" font-size="14" lengthAdjust="spacing" textLength="260.1689" x="4265.5" y="179.3467">logic_arc_int__baselibs__utils_base64</text><line style="stroke:#181818;stroke-width:0.5;" x1="4237.5" x2="4527.6689" y1="190.5" y2="190.5"/></g><!--class comp_arc_sta__baselibs__result--><g id="elem_comp_arc_sta__baselibs__result"><rect fill="#F1F1F1" height="40" id="comp_arc_sta__baselibs__result" rx="2.5" ry="2.5" style="stroke:#181818;stroke-width:0.5;" width="253.4297" x="5941" y="275.5"/><ellipse cx="5956" cy="291.5" fill="#ADD1B2" rx="11" ry="11" style="stroke:#181818;stroke-width:1;"/><path d="M5958.9688,297.1406 Q5958.3906,297.4375 5957.75,297.5781 Q5957.1094,297.7344 5956.4063,297.7344 Q5953.9063,297.7344 5952.5781,296.0938 Q5951.2656,294.4375 5951.2656,291.3125 Q5951.2656,288.1875 5952.5781,286.5313 Q5953.9063,284.875 5956.4063,284.875 Q5957.1094,284.875 5957.75,285.0313 Q5958.4063,285.1875 5958.9688,285.4844 L5958.9688,288.2031 Q5958.3438,287.625 5957.75,287.3594 Q5957.1563,287.0781 5956.5313,287.0781 Q5955.1875,287.0781 5954.5,288.1563 Q5953.8125,289.2188 5953.8125,291.3125 Q5953.8125,293.4063 5954.5,294.4844 Q5955.1875,295.5469 5956.5313,295.5469 Q5957.1563,295.5469 5957.75,295.2813 Q5958.3438,295 5958.9688,294.4219 L5958.9688,297.1406 Z " fill="#000000"/><text fill="#000000" font-family="sans-serif" font-size="14" lengthAdjust="spacing" textLength="221.4297" x="5970" y="296.3467">comp_arc_sta__baselibs__result</text><line style="stroke:#181818;stroke-width:0.5;" x1="5942" x2="6193.4297" y1="307.5" y2="307.5"/></g><!--class logic_arc_int__baselibs__result--><g id="elem_logic_arc_int__baselibs__result"><rect fill="#F1F1F1" height="40" id="logic_arc_int__baselibs__result" rx="2.5" ry="2.5" style="stroke:#181818;stroke-width:0.5;" width="244.4609" x="5943.5" y="158.5"/><ellipse cx="5958.5" cy="174.5" fill="#ADD1B2" rx="11" ry="11" style="stroke:#181818;stroke-width:1;"/><path d="M5961.4688,180.1406 Q5960.8906,180.4375 5960.25,180.5781 Q5959.6094,180.7344 5958.9063,180.7344 Q5956.4063,180.7344 5955.0781,179.0938 Q5953.7656,177.4375 5953.7656,174.3125 Q5953.7656,171.1875 5955.0781,169.5313 Q5956.4063,167.875 5958.9063,167.875 Q5959.6094,167.875 5960.25,168.0313 Q5960.9063,168.1875 5961.4688,168.4844 L5961.4688,171.2031 Q5960.8438,170.625 5960.25,170.3594 Q5959.6563,170.0781 5959.0313,170.0781 Q5957.6875,170.0781 5957,171.1563 Q5956.3125,172.2188 5956.3125,174.3125 Q5956.3125,176.4063 5957,177.4844 Q5957.6875,178.5469 5959.0313,178.5469 Q5959.6563,178.5469 5960.25,178.2813 Q5960.8438,178 5961.4688,177.4219 L5961.4688,180.1406 Z " fill="#000000"/><text fill="#000000" font-family="sans-serif" font-size="14" lengthAdjust="spacing" textLength="212.4609" x="5972.5" y="179.3467">logic_arc_int__baselibs__result</text><line style="stroke:#181818;stroke-width:0.5;" x1="5944.5" x2="6186.9609" y1="190.5" y2="190.5"/></g><!--class logic_arc_int__baselibs__shared_future--><g id="elem_logic_arc_int__baselibs__shared_future"><rect fill="#F1F1F1" height="40" id="logic_arc_int__baselibs__shared_future" rx="2.5" ry="2.5" style="stroke:#181818;stroke-width:0.5;" width="302.0811" x="3267.5" y="158.5"/><ellipse cx="3282.5" cy="174.5" fill="#ADD1B2" rx="11" ry="11" style="stroke:#181818;stroke-width:1;"/><path d="M3285.4688,180.1406 Q3284.8906,180.4375 3284.25,180.5781 Q3283.6094,180.7344 3282.9063,180.7344 Q3280.4063,180.7344 3279.0781,179.0938 Q3277.7656,177.4375 3277.7656,174.3125 Q3277.7656,171.1875 3279.0781,169.5313 Q3280.4063,167.875 3282.9063,167.875 Q3283.6094,167.875 3284.25,168.0313 Q3284.9063,168.1875 3285.4688,168.4844 L3285.4688,171.2031 Q3284.8438,170.625 3284.25,170.3594 Q3283.6563,170.0781 3283.0313,170.0781 Q3281.6875,170.0781 3281,171.1563 Q3280.3125,172.2188 3280.3125,174.3125 Q3280.3125,176.4063 3281,177.4844 Q3281.6875,178.5469 3283.0313,178.5469 Q3283.6563,178.5469 3284.25,178.2813 Q3284.8438,178 3285.4688,177.4219 L3285.4688,180.1406 Z " fill="#000000"/><text fill="#000000" font-family="sans-serif" font-size="14" lengthAdjust="spacing" textLength="270.0811" x="3296.5" y="179.3467">logic_arc_int__baselibs__shared_future</text><line style="stroke:#181818;stroke-width:0.5;" x1="3268.5" x2="3568.5811" y1="190.5" y2="190.5"/></g><!--class comp_arc_sta__baselibs__memory_shared--><g id="elem_comp_arc_sta__baselibs__memory_shared"><rect fill="#F1F1F1" height="40" id="comp_arc_sta__baselibs__memory_shared" rx="2.5" ry="2.5" style="stroke:#181818;stroke-width:0.5;" width="327.0117" x="5579" y="275.5"/><ellipse cx="5594" cy="291.5" fill="#ADD1B2" rx="11" ry="11" style="stroke:#181818;stroke-width:1;"/><path d="M5596.9688,297.1406 Q5596.3906,297.4375 5595.75,297.5781 Q5595.1094,297.7344 5594.4063,297.7344 Q5591.9063,297.7344 5590.5781,296.0938 Q5589.2656,294.4375 5589.2656,291.3125 Q5589.2656,288.1875 5590.5781,286.5313 Q5591.9063,284.875 5594.4063,284.875 Q5595.1094,284.875 5595.75,285.0313 Q5596.4063,285.1875 5596.9688,285.4844 L5596.9688,288.2031 Q5596.3438,287.625 5595.75,287.3594 Q5595.1563,287.0781 5594.5313,287.0781 Q5593.1875,287.0781 5592.5,288.1563 Q5591.8125,289.2188 5591.8125,291.3125 Q5591.8125,293.4063 5592.5,294.4844 Q5593.1875,295.5469 5594.5313,295.5469 Q5595.1563,295.5469 5595.75,295.2813 Q5596.3438,295 5596.9688,294.4219 L5596.9688,297.1406 Z " fill="#000000"/><text fill="#000000" font-family="sans-serif" font-size="14" lengthAdjust="spacing" textLength="295.0117" x="5608" y="296.3467">comp_arc_sta__baselibs__memory_shared</text><line style="stroke:#181818;stroke-width:0.5;" x1="5580" x2="5905.0117" y1="307.5" y2="307.5"/></g><!--class logic_arc_int__baselibs__memory_shared--><g id="elem_logic_arc_int__baselibs__memory_shared"><rect fill="#F1F1F1" height="40" id="logic_arc_int__baselibs__memory_shared" rx="2.5" ry="2.5" style="stroke:#181818;stroke-width:0.5;" width="318.043" x="5586.5" y="158.5"/><ellipse cx="5601.5" cy="174.5" fill="#ADD1B2" rx="11" ry="11" style="stroke:#181818;stroke-width:1;"/><path d="M5604.4688,180.1406 Q5603.8906,180.4375 5603.25,180.5781 Q5602.6094,180.7344 5601.9063,180.7344 Q5599.4063,180.7344 5598.0781,179.0938 Q5596.7656,177.4375 5596.7656,174.3125 Q5596.7656,171.1875 5598.0781,169.5313 Q5599.4063,167.875 5601.9063,167.875 Q5602.6094,167.875 5603.25,168.0313 Q5603.9063,168.1875 5604.4688,168.4844 L5604.4688,171.2031 Q5603.8438,170.625 5603.25,170.3594 Q5602.6563,170.0781 5602.0313,170.0781 Q5600.6875,170.0781 5600,171.1563 Q5599.3125,172.2188 5599.3125,174.3125 Q5599.3125,176.4063 5600,177.4844 Q5600.6875,178.5469 5602.0313,178.5469 Q5602.6563,178.5469 5603.25,178.2813 Q5603.8438,178 5604.4688,177.4219 L5604.4688,180.1406 Z " fill="#000000"/><text fill="#000000" font-family="sans-serif" font-size="14" lengthAdjust="spacing" textLength="286.043" x="5615.5" y="179.3467">logic_arc_int__baselibs__memory_shared</text><line style="stroke:#181818;stroke-width:0.5;" x1="5587.5" x2="5903.543" y1="190.5" y2="190.5"/></g><!--class logic_arc_int__baselibs__bit_manipulation--><g id="elem_logic_arc_int__baselibs__bit_manipulation"><rect fill="#F1F1F1" height="40" id="logic_arc_int__baselibs__bit_manipulation" rx="2.5" ry="2.5" style="stroke:#181818;stroke-width:0.5;" width="321.8369" x="322.5" y="158.5"/><ellipse cx="337.5" cy="174.5" fill="#ADD1B2" rx="11" ry="11" style="stroke:#181818;stroke-width:1;"/><path d="M340.4688,180.1406 Q339.8906,180.4375 339.25,180.5781 Q338.6094,180.7344 337.9063,180.7344 Q335.4063,180.7344 334.0781,179.0938 Q332.7656,177.4375 332.7656,174.3125 Q332.7656,171.1875 334.0781,169.5313 Q335.4063,167.875 337.9063,167.875 Q338.6094,167.875 339.25,168.0313 Q339.9063,168.1875 340.4688,168.4844 L340.4688,171.2031 Q339.8438,170.625 339.25,170.3594 Q338.6563,170.0781 338.0313,170.0781 Q336.6875,170.0781 336,171.1563 Q335.3125,172.2188 335.3125,174.3125 Q335.3125,176.4063 336,177.4844 Q336.6875,178.5469 338.0313,178.5469 Q338.6563,178.5469 339.25,178.2813 Q339.8438,178 340.4688,177.4219 L340.4688,180.1406 Z " fill="#000000"/><text fill="#000000" font-family="sans-serif" font-size="14" lengthAdjust="spacing" textLength="289.8369" x="351.5" y="179.3467">logic_arc_int__baselibs__bit_manipulation</text><line style="stroke:#181818;stroke-width:0.5;" x1="323.5" x2="643.3369" y1="190.5" y2="190.5"/></g><!--class logic_arc_int__baselibs__future--><g id="elem_logic_arc_int__baselibs__future"><rect fill="#F1F1F1" height="40" id="logic_arc_int__baselibs__future" rx="2.5" ry="2.5" style="stroke:#181818;stroke-width:0.5;" width="247.0791" x="1050" y="158.5"/><ellipse cx="1065" cy="174.5" fill="#ADD1B2" rx="11" ry="11" style="stroke:#181818;stroke-width:1;"/><path d="M1067.9688,180.1406 Q1067.3906,180.4375 1066.75,180.5781 Q1066.1094,180.7344 1065.4063,180.7344 Q1062.9063,180.7344 1061.5781,179.0938 Q1060.2656,177.4375 1060.2656,174.3125 Q1060.2656,171.1875 1061.5781,169.5313 Q1062.9063,167.875 1065.4063,167.875 Q1066.1094,167.875 1066.75,168.0313 Q1067.4063,168.1875 1067.9688,168.4844 L1067.9688,171.2031 Q1067.3438,170.625 1066.75,170.3594 Q1066.1563,170.0781 1065.5313,170.0781 Q1064.1875,170.0781 1063.5,171.1563 Q1062.8125,172.2188 1062.8125,174.3125 Q1062.8125,176.4063 1063.5,177.4844 Q1064.1875,178.5469 1065.5313,178.5469 Q1066.1563,178.5469 1066.75,178.2813 Q1067.3438,178 1067.9688,177.4219 L1067.9688,180.1406 Z " fill="#000000"/><text fill="#000000" font-family="sans-serif" font-size="14" lengthAdjust="spacing" textLength="215.0791" x="1079" y="179.3467">logic_arc_int__baselibs__future</text><line style="stroke:#181818;stroke-width:0.5;" x1="1051" x2="1296.0791" y1="190.5" y2="190.5"/></g><!--class comp_arc_sta__baselibs__containers--><g id="elem_comp_arc_sta__baselibs__containers"><rect fill="#F1F1F1" height="40" id="comp_arc_sta__baselibs__containers" rx="2.5" ry="2.5" style="stroke:#181818;stroke-width:0.5;" width="287.1445" x="5092" y="275.5"/><ellipse cx="5107" cy="291.5" fill="#ADD1B2" rx="11" ry="11" style="stroke:#181818;stroke-width:1;"/><path d="M5109.9688,297.1406 Q5109.3906,297.4375 5108.75,297.5781 Q5108.1094,297.7344 5107.4063,297.7344 Q5104.9063,297.7344 5103.5781,296.0938 Q5102.2656,294.4375 5102.2656,291.3125 Q5102.2656,288.1875 5103.5781,286.5313 Q5104.9063,284.875 5107.4063,284.875 Q5108.1094,284.875 5108.75,285.0313 Q5109.4063,285.1875 5109.9688,285.4844 L5109.9688,288.2031 Q5109.3438,287.625 5108.75,287.3594 Q5108.1563,287.0781 5107.5313,287.0781 Q5106.1875,287.0781 5105.5,288.1563 Q5104.8125,289.2188 5104.8125,291.3125 Q5104.8125,293.4063 5105.5,294.4844 Q5106.1875,295.5469 5107.5313,295.5469 Q5108.1563,295.5469 5108.75,295.2813 Q5109.3438,295 5109.9688,294.4219 L5109.9688,297.1406 Z " fill="#000000"/><text fill="#000000" font-family="sans-serif" font-size="14" lengthAdjust="spacing" textLength="255.1445" x="5121" y="296.3467">comp_arc_sta__baselibs__containers</text><line style="stroke:#181818;stroke-width:0.5;" x1="5093" x2="5378.1445" y1="307.5" y2="307.5"/></g><!--class logic_arc_int__baselibs__dynamic_array--><g id="elem_logic_arc_int__baselibs__dynamic_array"><rect fill="#F1F1F1" height="40" id="logic_arc_int__baselibs__dynamic_array" rx="2.5" ry="2.5" style="stroke:#181818;stroke-width:0.5;" width="308.3496" x="4914.5" y="158.5"/><ellipse cx="4929.5" cy="174.5" fill="#ADD1B2" rx="11" ry="11" style="stroke:#181818;stroke-width:1;"/><path d="M4932.4688,180.1406 Q4931.8906,180.4375 4931.25,180.5781 Q4930.6094,180.7344 4929.9063,180.7344 Q4927.4063,180.7344 4926.0781,179.0938 Q4924.7656,177.4375 4924.7656,174.3125 Q4924.7656,171.1875 4926.0781,169.5313 Q4927.4063,167.875 4929.9063,167.875 Q4930.6094,167.875 4931.25,168.0313 Q4931.9063,168.1875 4932.4688,168.4844 L4932.4688,171.2031 Q4931.8438,170.625 4931.25,170.3594 Q4930.6563,170.0781 4930.0313,170.0781 Q4928.6875,170.0781 4928,171.1563 Q4927.3125,172.2188 4927.3125,174.3125 Q4927.3125,176.4063 4928,177.4844 Q4928.6875,178.5469 4930.0313,178.5469 Q4930.6563,178.5469 4931.25,178.2813 Q4931.8438,178 4932.4688,177.4219 L4932.4688,180.1406 Z " fill="#000000"/><text fill="#000000" font-family="sans-serif" font-size="14" lengthAdjust="spacing" textLength="276.3496" x="4943.5" y="179.3467">logic_arc_int__baselibs__dynamic_array</text><line style="stroke:#181818;stroke-width:0.5;" x1="4915.5" x2="5221.8496" y1="190.5" y2="190.5"/></g><!--class comp_arc_sta__baselibs__bit_manipulation--><g id="elem_comp_arc_sta__baselibs__bit_manipulation"><rect fill="#F1F1F1" height="40" id="comp_arc_sta__baselibs__bit_manipulation" rx="2.5" ry="2.5" style="stroke:#181818;stroke-width:0.5;" width="330.8057" x="443" y="275.5"/><ellipse cx="458" cy="291.5" fill="#ADD1B2" rx="11" ry="11" style="stroke:#181818;stroke-width:1;"/><path d="M460.9688,297.1406 Q460.3906,297.4375 459.75,297.5781 Q459.1094,297.7344 458.4063,297.7344 Q455.9063,297.7344 454.5781,296.0938 Q453.2656,294.4375 453.2656,291.3125 Q453.2656,288.1875 454.5781,286.5313 Q455.9063,284.875 458.4063,284.875 Q459.1094,284.875 459.75,285.0313 Q460.4063,285.1875 460.9688,285.4844 L460.9688,288.2031 Q460.3438,287.625 459.75,287.3594 Q459.1563,287.0781 458.5313,287.0781 Q457.1875,287.0781 456.5,288.1563 Q455.8125,289.2188 455.8125,291.3125 Q455.8125,293.4063 456.5,294.4844 Q457.1875,295.5469 458.5313,295.5469 Q459.1563,295.5469 459.75,295.2813 Q460.3438,295 460.9688,294.4219 L460.9688,297.1406 Z " fill="#000000"/><text fill="#000000" font-family="sans-serif" font-size="14" lengthAdjust="spacing" textLength="298.8057" x="472" y="296.3467">comp_arc_sta__baselibs__bit_manipulation</text><line style="stroke:#181818;stroke-width:0.5;" x1="444" x2="772.8057" y1="307.5" y2="307.5"/></g><!--class logic_arc_int__baselibs__condition_variable--><g id="elem_logic_arc_int__baselibs__condition_variable"><rect fill="#F1F1F1" height="40" id="logic_arc_int__baselibs__condition_variable" rx="2.5" ry="2.5" style="stroke:#181818;stroke-width:0.5;" width="332.7539" x="2899" y="158.5"/><ellipse cx="2914" cy="174.5" fill="#ADD1B2" rx="11" ry="11" style="stroke:#181818;stroke-width:1;"/><path d="M2916.9688,180.1406 Q2916.3906,180.4375 2915.75,180.5781 Q2915.1094,180.7344 2914.4063,180.7344 Q2911.9063,180.7344 2910.5781,179.0938 Q2909.2656,177.4375 2909.2656,174.3125 Q2909.2656,171.1875 2910.5781,169.5313 Q2911.9063,167.875 2914.4063,167.875 Q2915.1094,167.875 2915.75,168.0313 Q2916.4063,168.1875 2916.9688,168.4844 L2916.9688,171.2031 Q2916.3438,170.625 2915.75,170.3594 Q2915.1563,170.0781 2914.5313,170.0781 Q2913.1875,170.0781 2912.5,171.1563 Q2911.8125,172.2188 2911.8125,174.3125 Q2911.8125,176.4063 2912.5,177.4844 Q2913.1875,178.5469 2914.5313,178.5469 Q2915.1563,178.5469 2915.75,178.2813 Q2916.3438,178 2916.9688,177.4219 L2916.9688,180.1406 Z " fill="#000000"/><text fill="#000000" font-family="sans-serif" font-size="14" lengthAdjust="spacing" textLength="300.7539" x="2928" y="179.3467">logic_arc_int__baselibs__condition_variable</text><line style="stroke:#181818;stroke-width:0.5;" x1="2900" x2="3230.7539" y1="190.5" y2="190.5"/></g><!--class logic_arc_int__baselibs__intrusive_list--><g id="elem_logic_arc_int__baselibs__intrusive_list"><rect fill="#F1F1F1" height="40" id="logic_arc_int__baselibs__intrusive_list" rx="2.5" ry="2.5" style="stroke:#181818;stroke-width:0.5;" width="293.0713" x="5258" y="158.5"/><ellipse cx="5273" cy="174.5" fill="#ADD1B2" rx="11" ry="11" style="stroke:#181818;stroke-width:1;"/><path d="M5275.9688,180.1406 Q5275.3906,180.4375 5274.75,180.5781 Q5274.1094,180.7344 5273.4063,180.7344 Q5270.9063,180.7344 5269.5781,179.0938 Q5268.2656,177.4375 5268.2656,174.3125 Q5268.2656,171.1875 5269.5781,169.5313 Q5270.9063,167.875 5273.4063,167.875 Q5274.1094,167.875 5274.75,168.0313 Q5275.4063,168.1875 5275.9688,168.4844 L5275.9688,171.2031 Q5275.3438,170.625 5274.75,170.3594 Q5274.1563,170.0781 5273.5313,170.0781 Q5272.1875,170.0781 5271.5,171.1563 Q5270.8125,172.2188 5270.8125,174.3125 Q5270.8125,176.4063 5271.5,177.4844 Q5272.1875,178.5469 5273.5313,178.5469 Q5274.1563,178.5469 5274.75,178.2813 Q5275.3438,178 5275.9688,177.4219 L5275.9688,180.1406 Z " fill="#000000"/><text fill="#000000" font-family="sans-serif" font-size="14" lengthAdjust="spacing" textLength="261.0713" x="5287" y="179.3467">logic_arc_int__baselibs__intrusive_list</text><line style="stroke:#181818;stroke-width:0.5;" x1="5259" x2="5550.0713" y1="190.5" y2="190.5"/></g><!--class comp_arc_sta__baselibs__json--><g id="elem_comp_arc_sta__baselibs__json"><rect fill="#F1F1F1" height="40" id="comp_arc_sta__baselibs__json" rx="2.5" ry="2.5" style="stroke:#181818;stroke-width:0.5;" width="242.1367" x="3967.5" y="275.5"/><ellipse cx="3982.5" cy="291.5" fill="#ADD1B2" rx="11" ry="11" style="stroke:#181818;stroke-width:1;"/><path d="M3985.4688,297.1406 Q3984.8906,297.4375 3984.25,297.5781 Q3983.6094,297.7344 3982.9063,297.7344 Q3980.4063,297.7344 3979.0781,296.0938 Q3977.7656,294.4375 3977.7656,291.3125 Q3977.7656,288.1875 3979.0781,286.5313 Q3980.4063,284.875 3982.9063,284.875 Q3983.6094,284.875 3984.25,285.0313 Q3984.9063,285.1875 3985.4688,285.4844 L3985.4688,288.2031 Q3984.8438,287.625 3984.25,287.3594 Q3983.6563,287.0781 3983.0313,287.0781 Q3981.6875,287.0781 3981,288.1563 Q3980.3125,289.2188 3980.3125,291.3125 Q3980.3125,293.4063 3981,294.4844 Q3981.6875,295.5469 3983.0313,295.5469 Q3983.6563,295.5469 3984.25,295.2813 Q3984.8438,295 3985.4688,294.4219 L3985.4688,297.1406 Z " fill="#000000"/><text fill="#000000" font-family="sans-serif" font-size="14" lengthAdjust="spacing" textLength="210.1367" x="3996.5" y="296.3467">comp_arc_sta__baselibs__json</text><line style="stroke:#181818;stroke-width:0.5;" x1="3968.5" x2="4208.6367" y1="307.5" y2="307.5"/></g><!--class logic_arc_int__baselibs__json--><g id="elem_logic_arc_int__baselibs__json"><rect fill="#F1F1F1" height="40" id="logic_arc_int__baselibs__json" rx="2.5" ry="2.5" style="stroke:#181818;stroke-width:0.5;" width="233.168" x="3968" y="158.5"/><ellipse cx="3983" cy="174.5" fill="#ADD1B2" rx="11" ry="11" style="stroke:#181818;stroke-width:1;"/><path d="M3985.9688,180.1406 Q3985.3906,180.4375 3984.75,180.5781 Q3984.1094,180.7344 3983.4063,180.7344 Q3980.9063,180.7344 3979.5781,179.0938 Q3978.2656,177.4375 3978.2656,174.3125 Q3978.2656,171.1875 3979.5781,169.5313 Q3980.9063,167.875 3983.4063,167.875 Q3984.1094,167.875 3984.75,168.0313 Q3985.4063,168.1875 3985.9688,168.4844 L3985.9688,171.2031 Q3985.3438,170.625 3984.75,170.3594 Q3984.1563,170.0781 3983.5313,170.0781 Q3982.1875,170.0781 3981.5,171.1563 Q3980.8125,172.2188 3980.8125,174.3125 Q3980.8125,176.4063 3981.5,177.4844 Q3982.1875,178.5469 3983.5313,178.5469 Q3984.1563,178.5469 3984.75,178.2813 Q3985.3438,178 3985.9688,177.4219 L3985.9688,180.1406 Z " fill="#000000"/><text fill="#000000" font-family="sans-serif" font-size="14" lengthAdjust="spacing" textLength="201.168" x="3997" y="179.3467">logic_arc_int__baselibs__json</text><line style="stroke:#181818;stroke-width:0.5;" x1="3969" x2="4200.168" y1="190.5" y2="190.5"/></g><!--class logic_arc_int__baselibs__filesystem--><g id="elem_logic_arc_int__baselibs__filesystem"><rect fill="#F1F1F1" height="40" id="logic_arc_int__baselibs__filesystem" rx="2.5" ry="2.5" style="stroke:#181818;stroke-width:0.5;" width="276.4805" x="11.5" y="158.5"/><ellipse cx="26.5" cy="174.5" fill="#ADD1B2" rx="11" ry="11" style="stroke:#181818;stroke-width:1;"/><path d="M29.4688,180.1406 Q28.8906,180.4375 28.25,180.5781 Q27.6094,180.7344 26.9063,180.7344 Q24.4063,180.7344 23.0781,179.0938 Q21.7656,177.4375 21.7656,174.3125 Q21.7656,171.1875 23.0781,169.5313 Q24.4063,167.875 26.9063,167.875 Q27.6094,167.875 28.25,168.0313 Q28.9063,168.1875 29.4688,168.4844 L29.4688,171.2031 Q28.8438,170.625 28.25,170.3594 Q27.6563,170.0781 27.0313,170.0781 Q25.6875,170.0781 25,171.1563 Q24.3125,172.2188 24.3125,174.3125 Q24.3125,176.4063 25,177.4844 Q25.6875,178.5469 27.0313,178.5469 Q27.6563,178.5469 28.25,178.2813 Q28.8438,178 29.4688,177.4219 L29.4688,180.1406 Z " fill="#000000"/><text fill="#000000" font-family="sans-serif" font-size="14" lengthAdjust="spacing" textLength="244.4805" x="40.5" y="179.3467">logic_arc_int__baselibs__filesystem</text><line style="stroke:#181818;stroke-width:0.5;" x1="12.5" x2="286.9805" y1="190.5" y2="190.5"/></g><!--class logic_arc_int__baselibs__executor--><g id="elem_logic_arc_int__baselibs__executor"><rect fill="#F1F1F1" height="40" id="logic_arc_int__baselibs__executor" rx="2.5" ry="2.5" style="stroke:#181818;stroke-width:0.5;" width="266.4385" x="1628.5" y="158.5"/><ellipse cx="1643.5" cy="174.5" fill="#ADD1B2" rx="11" ry="11" style="stroke:#181818;stroke-width:1;"/><path d="M1646.4688,180.1406 Q1645.8906,180.4375 1645.25,180.5781 Q1644.6094,180.7344 1643.9063,180.7344 Q1641.4063,180.7344 1640.0781,179.0938 Q1638.7656,177.4375 1638.7656,174.3125 Q1638.7656,171.1875 1640.0781,169.5313 Q1641.4063,167.875 1643.9063,167.875 Q1644.6094,167.875 1645.25,168.0313 Q1645.9063,168.1875 1646.4688,168.4844 L1646.4688,171.2031 Q1645.8438,170.625 1645.25,170.3594 Q1644.6563,170.0781 1644.0313,170.0781 Q1642.6875,170.0781 1642,171.1563 Q1641.3125,172.2188 1641.3125,174.3125 Q1641.3125,176.4063 1642,177.4844 Q1642.6875,178.5469 1644.0313,178.5469 Q1644.6563,178.5469 1645.25,178.2813 Q1645.8438,178 1646.4688,177.4219 L1646.4688,180.1406 Z " fill="#000000"/><text fill="#000000" font-family="sans-serif" font-size="14" lengthAdjust="spacing" textLength="234.4385" x="1657.5" y="179.3467">logic_arc_int__baselibs__executor</text><line style="stroke:#181818;stroke-width:0.5;" x1="1629.5" x2="1893.9385" y1="190.5" y2="190.5"/></g><!--class logic_arc_int__baselibs__promise--><g id="elem_logic_arc_int__baselibs__promise"><rect fill="#F1F1F1" height="40" id="logic_arc_int__baselibs__promise" rx="2.5" ry="2.5" style="stroke:#181818;stroke-width:0.5;" width="261.1885" x="1332" y="158.5"/><ellipse cx="1347" cy="174.5" fill="#ADD1B2" rx="11" ry="11" style="stroke:#181818;stroke-width:1;"/><path d="M1349.9688,180.1406 Q1349.3906,180.4375 1348.75,180.5781 Q1348.1094,180.7344 1347.4063,180.7344 Q1344.9063,180.7344 1343.5781,179.0938 Q1342.2656,177.4375 1342.2656,174.3125 Q1342.2656,171.1875 1343.5781,169.5313 Q1344.9063,167.875 1347.4063,167.875 Q1348.1094,167.875 1348.75,168.0313 Q1349.4063,168.1875 1349.9688,168.4844 L1349.9688,171.2031 Q1349.3438,170.625 1348.75,170.3594 Q1348.1563,170.0781 1347.5313,170.0781 Q1346.1875,170.0781 1345.5,171.1563 Q1344.8125,172.2188 1344.8125,174.3125 Q1344.8125,176.4063 1345.5,177.4844 Q1346.1875,178.5469 1347.5313,178.5469 Q1348.1563,178.5469 1348.75,178.2813 Q1349.3438,178 1349.9688,177.4219 L1349.9688,180.1406 Z " fill="#000000"/><text fill="#000000" font-family="sans-serif" font-size="14" lengthAdjust="spacing" textLength="229.1885" x="1361" y="179.3467">logic_arc_int__baselibs__promise</text><line style="stroke:#181818;stroke-width:0.5;" x1="1333" x2="1592.1885" y1="190.5" y2="190.5"/></g><!--class logic_arc_int__baselibs__synchronized_queue--><g id="elem_logic_arc_int__baselibs__synchronized_queue"><rect fill="#F1F1F1" height="40" id="logic_arc_int__baselibs__synchronized_queue" rx="2.5" ry="2.5" style="stroke:#181818;stroke-width:0.5;" width="348.3604" x="1929.5" y="158.5"/><ellipse cx="1944.5" cy="174.5" fill="#ADD1B2" rx="11" ry="11" style="stroke:#181818;stroke-width:1;"/><path d="M1947.4688,180.1406 Q1946.8906,180.4375 1946.25,180.5781 Q1945.6094,180.7344 1944.9063,180.7344 Q1942.4063,180.7344 1941.0781,179.0938 Q1939.7656,177.4375 1939.7656,174.3125 Q1939.7656,171.1875 1941.0781,169.5313 Q1942.4063,167.875 1944.9063,167.875 Q1945.6094,167.875 1946.25,168.0313 Q1946.9063,168.1875 1947.4688,168.4844 L1947.4688,171.2031 Q1946.8438,170.625 1946.25,170.3594 Q1945.6563,170.0781 1945.0313,170.0781 Q1943.6875,170.0781 1943,171.1563 Q1942.3125,172.2188 1942.3125,174.3125 Q1942.3125,176.4063 1943,177.4844 Q1943.6875,178.5469 1945.0313,178.5469 Q1945.6563,178.5469 1946.25,178.2813 Q1946.8438,178 1947.4688,177.4219 L1947.4688,180.1406 Z " fill="#000000"/><text fill="#000000" font-family="sans-serif" font-size="14" lengthAdjust="spacing" textLength="316.3604" x="1958.5" y="179.3467">logic_arc_int__baselibs__synchronized_queue</text><line style="stroke:#181818;stroke-width:0.5;" x1="1930.5" x2="2276.8604" y1="190.5" y2="190.5"/></g><!--class comp_arc_sta__baselibs__message_passing--><g id="elem_comp_arc_sta__baselibs__message_passing"><rect fill="#F1F1F1" height="40" id="comp_arc_sta__baselibs__message_passing" rx="2.5" ry="2.5" style="stroke:#181818;stroke-width:0.5;" width="337.1357" x="3595" y="275.5"/><ellipse cx="3610" cy="291.5" fill="#ADD1B2" rx="11" ry="11" style="stroke:#181818;stroke-width:1;"/><path d="M3612.9688,297.1406 Q3612.3906,297.4375 3611.75,297.5781 Q3611.1094,297.7344 3610.4063,297.7344 Q3607.9063,297.7344 3606.5781,296.0938 Q3605.2656,294.4375 3605.2656,291.3125 Q3605.2656,288.1875 3606.5781,286.5313 Q3607.9063,284.875 3610.4063,284.875 Q3611.1094,284.875 3611.75,285.0313 Q3612.4063,285.1875 3612.9688,285.4844 L3612.9688,288.2031 Q3612.3438,287.625 3611.75,287.3594 Q3611.1563,287.0781 3610.5313,287.0781 Q3609.1875,287.0781 3608.5,288.1563 Q3607.8125,289.2188 3607.8125,291.3125 Q3607.8125,293.4063 3608.5,294.4844 Q3609.1875,295.5469 3610.5313,295.5469 Q3611.1563,295.5469 3611.75,295.2813 Q3612.3438,295 3612.9688,294.4219 L3612.9688,297.1406 Z " fill="#000000"/><text fill="#000000" font-family="sans-serif" font-size="14" lengthAdjust="spacing" textLength="305.1357" x="3624" y="296.3467">comp_arc_sta__baselibs__message_passing</text><line style="stroke:#181818;stroke-width:0.5;" x1="3596" x2="3931.1357" y1="307.5" y2="307.5"/></g><!--class comp_arc_sta__baselibs__filesystem--><g id="elem_comp_arc_sta__baselibs__filesystem"><rect fill="#F1F1F1" height="40" id="comp_arc_sta__baselibs__filesystem" rx="2.5" ry="2.5" style="stroke:#181818;stroke-width:0.5;" width="285.4492" x="7" y="275.5"/><ellipse cx="22" cy="291.5" fill="#ADD1B2" rx="11" ry="11" style="stroke:#181818;stroke-width:1;"/><path d="M24.9688,297.1406 Q24.3906,297.4375 23.75,297.5781 Q23.1094,297.7344 22.4063,297.7344 Q19.9063,297.7344 18.5781,296.0938 Q17.2656,294.4375 17.2656,291.3125 Q17.2656,288.1875 18.5781,286.5313 Q19.9063,284.875 22.4063,284.875 Q23.1094,284.875 23.75,285.0313 Q24.4063,285.1875 24.9688,285.4844 L24.9688,288.2031 Q24.3438,287.625 23.75,287.3594 Q23.1563,287.0781 22.5313,287.0781 Q21.1875,287.0781 20.5,288.1563 Q19.8125,289.2188 19.8125,291.3125 Q19.8125,293.4063 20.5,294.4844 Q21.1875,295.5469 22.5313,295.5469 Q23.1563,295.5469 23.75,295.2813 Q24.3438,295 24.9688,294.4219 L24.9688,297.1406 Z " fill="#000000"/><text fill="#000000" font-family="sans-serif" font-size="14" lengthAdjust="spacing" textLength="253.4492" x="36" y="296.3467">comp_arc_sta__baselibs__filesystem</text><line style="stroke:#181818;stroke-width:0.5;" x1="8" x2="291.4492" y1="307.5" y2="307.5"/></g><!--class logic_arc_int__baselibs__bit_mask_operator--><g id="elem_logic_arc_int__baselibs__bit_mask_operator"><rect fill="#F1F1F1" height="40" id="logic_arc_int__baselibs__bit_mask_operator" rx="2.5" ry="2.5" style="stroke:#181818;stroke-width:0.5;" width="334.6406" x="680" y="158.5"/><ellipse cx="695" cy="174.5" fill="#ADD1B2" rx="11" ry="11" style="stroke:#181818;stroke-width:1;"/><path d="M697.9688,180.1406 Q697.3906,180.4375 696.75,180.5781 Q696.1094,180.7344 695.4063,180.7344 Q692.9063,180.7344 691.5781,179.0938 Q690.2656,177.4375 690.2656,174.3125 Q690.2656,171.1875 691.5781,169.5313 Q692.9063,167.875 695.4063,167.875 Q696.1094,167.875 696.75,168.0313 Q697.4063,168.1875 697.9688,168.4844 L697.9688,171.2031 Q697.3438,170.625 696.75,170.3594 Q696.1563,170.0781 695.5313,170.0781 Q694.1875,170.0781 693.5,171.1563 Q692.8125,172.2188 692.8125,174.3125 Q692.8125,176.4063 693.5,177.4844 Q694.1875,178.5469 695.5313,178.5469 Q696.1563,178.5469 696.75,178.2813 Q697.3438,178 697.9688,177.4219 L697.9688,180.1406 Z " fill="#000000"/><text fill="#000000" font-family="sans-serif" font-size="14" lengthAdjust="spacing" textLength="302.6406" x="709" y="179.3467">logic_arc_int__baselibs__bit_mask_operator</text><line style="stroke:#181818;stroke-width:0.5;" x1="681" x2="1013.6406" y1="190.5" y2="190.5"/></g><!--link Feature_User to logic_arc_int__baselibs__utils_scoped_op--><g id="link_Feature_User_logic_arc_int__baselibs__utils_scoped_op"><path codeLine="15" d="M3110.65,47.47 C3291.36,59.47 3979.99,106.2 4545.5,158.5 C4551.47,159.05 4551.5784,159.0465 4557.7184,159.6465 " fill="transparent" id="Feature_User-to-logic_arc_int__baselibs__utils_scoped_op" style="stroke:#181818;stroke-width:1;"/><polygon fill="#181818" points="4563.69,160.23,4555.1217,155.3737,4558.7137,159.7437,4554.3436,163.3357,4563.69,160.23" style="stroke:#181818;stroke-width:1;"/><text fill="#000000" font-family="sans-serif" font-size="13" lengthAdjust="spacing" textLength="23.0103" x="4181.5" y="124.5669">use</text></g><!--link Feature_User to logic_arc_int__baselibs__message_passing--><g id="link_Feature_User_logic_arc_int__baselibs__message_passing"><path codeLine="16" d="M3110.55,53.02 C3221.99,74.11 3506.8846,128.0045 3661.8946,157.3345 " fill="transparent" id="Feature_User-to-logic_arc_int__baselibs__message_passing" style="stroke:#181818;stroke-width:1;"/><polygon fill="#181818" points="3667.79,158.45,3659.6906,152.8465,3662.8772,157.5204,3658.2032,160.707,3667.79,158.45" style="stroke:#181818;stroke-width:1;"/><text fill="#000000" font-family="sans-serif" font-size="13" lengthAdjust="spacing" textLength="23.0103" x="3502.5" y="124.5669">use</text></g><!--reverse link logic_arc_int__baselibs__task_result to comp_arc_sta__baselibs__concurrency--><g id="link_logic_arc_int__baselibs__task_result_comp_arc_sta__baselibs__concurrency"><path codeLine="17" d="M2419.1957,202.0449 C2386.7957,223.3349 2339.92,254.14 2307.59,275.38 " fill="transparent" id="logic_arc_int__baselibs__task_result-backto-comp_arc_sta__baselibs__concurrency" style="stroke:#181818;stroke-width:1;"/><polygon fill="#181818" points="2424.21,198.75,2414.4919,200.3495,2420.0314,201.4958,2418.8851,207.0353,2424.21,198.75" style="stroke:#181818;stroke-width:1;"/><text fill="#000000" font-family="sans-serif" font-size="13" lengthAdjust="spacing" textLength="76.9082" x="2377.5" y="241.5669">implements</text></g><!--link Feature_User to logic_arc_int__baselibs__task--><g id="link_Feature_User_logic_arc_int__baselibs__task"><path codeLine="18" d="M3020.47,63.27 C2959.93,88.51 2858.4279,130.8309 2797.6079,156.1909 " fill="transparent" id="Feature_User-to-logic_arc_int__baselibs__task" style="stroke:#181818;stroke-width:1;"/><polygon fill="#181818" points="2792.07,158.5,2801.9162,158.7282,2796.6849,156.5757,2798.8374,151.3444,2792.07,158.5" style="stroke:#181818;stroke-width:1;"/><text fill="#000000" font-family="sans-serif" font-size="13" lengthAdjust="spacing" textLength="23.0103" x="2897.5" y="124.5669">use</text></g><!--reverse link logic_arc_int__baselibs__utils_base64 to comp_arc_sta__baselibs__utils--><g id="link_logic_arc_int__baselibs__utils_base64_comp_arc_sta__baselibs__utils"><path codeLine="19" d="M4410.9324,202.5265 C4437.1424,223.7565 4474.41,253.94 4500.65,275.19 " fill="transparent" id="logic_arc_int__baselibs__utils_base64-backto-comp_arc_sta__baselibs__utils" style="stroke:#181818;stroke-width:1;"/><polygon fill="#181818" points="4406.27,198.75,4410.7459,207.523,4410.1553,201.8971,4415.7813,201.3065,4406.27,198.75" style="stroke:#181818;stroke-width:1;"/><text fill="#000000" font-family="sans-serif" font-size="13" lengthAdjust="spacing" textLength="76.9082" x="4463.5" y="241.5669">implements</text></g><!--reverse link logic_arc_int__baselibs__result to comp_arc_sta__baselibs__result--><g id="link_logic_arc_int__baselibs__result_comp_arc_sta__baselibs__result"><path codeLine="20" d="M6065.9346,204.7491 C6066.3046,225.9791 6066.79,253.94 6067.16,275.19 " fill="transparent" id="logic_arc_int__baselibs__result-backto-comp_arc_sta__baselibs__result" style="stroke:#181818;stroke-width:1;"/><polygon fill="#181818" points="6065.83,198.75,6061.9874,207.8183,6065.9171,203.7492,6069.9862,207.6789,6065.83,198.75" style="stroke:#181818;stroke-width:1;"/><text fill="#000000" font-family="sans-serif" font-size="13" lengthAdjust="spacing" textLength="76.9082" x="6067.5" y="241.5669">implements</text></g><!--link Feature_User to logic_arc_int__baselibs__shared_future--><g id="link_Feature_User_logic_arc_int__baselibs__shared_future"><path codeLine="21" d="M3110.57,61.48 C3176.55,86.34 3293.4554,130.3842 3362.3954,156.3642 " fill="transparent" id="Feature_User-to-logic_arc_int__baselibs__shared_future" style="stroke:#181818;stroke-width:1;"/><polygon fill="#181818" points="3368.01,158.48,3360.9987,151.5632,3363.3312,156.7168,3358.1776,159.0493,3368.01,158.48" style="stroke:#181818;stroke-width:1;"/><text fill="#000000" font-family="sans-serif" font-size="13" lengthAdjust="spacing" textLength="23.0103" x="3285.5" y="124.5669">use</text></g><!--reverse link logic_arc_int__baselibs__memory_shared to comp_arc_sta__baselibs__memory_shared--><g id="link_logic_arc_int__baselibs__memory_shared_comp_arc_sta__baselibs__memory_shared"><path codeLine="22" d="M5744.8418,204.7479 C5744.2818,225.9779 5743.56,253.94 5743,275.19 " fill="transparent" id="logic_arc_int__baselibs__memory_shared-backto-comp_arc_sta__baselibs__memory_shared" style="stroke:#181818;stroke-width:1;"/><polygon fill="#181818" points="5745,198.75,5740.7641,207.6414,5744.8682,203.7483,5748.7613,207.8523,5745,198.75" style="stroke:#181818;stroke-width:1;"/><text fill="#000000" font-family="sans-serif" font-size="13" lengthAdjust="spacing" textLength="76.9082" x="5745.5" y="241.5669">implements</text></g><!--link Feature_User to logic_arc_int__baselibs__bit_manipulation--><g id="link_Feature_User_logic_arc_int__baselibs__bit_manipulation"><path codeLine="23" d="M3020.5,45.74 C2822.41,51.33 2008.24,75.4 1340.5,111.5 C1038.88,127.81 963.4,132.11 662.5,158.5 C656.74,159.01 656.8543,158.985 650.9343,159.535 " fill="transparent" id="Feature_User-to-logic_arc_int__baselibs__bit_manipulation" style="stroke:#181818;stroke-width:1;"/><polygon fill="#181818" points="644.96,160.09,654.2914,163.2403,649.9386,159.6275,653.5514,155.2746,644.96,160.09" style="stroke:#181818;stroke-width:1;"/><text fill="#000000" font-family="sans-serif" font-size="13" lengthAdjust="spacing" textLength="23.0103" x="1341.5" y="124.5669">use</text></g><!--reverse link logic_arc_int__baselibs__future to comp_arc_sta__baselibs__concurrency--><g id="link_logic_arc_int__baselibs__future_comp_arc_sta__baselibs__concurrency"><path codeLine="24" d="M1303.2295,197.0669 C1309.0495,197.8269 1308.86,197.79 1314.5,198.5 C1489.89,220.75 1533.63,227.47 1709.5,245.5 C1851.41,260.05 2013.53,273.72 2128.32,282.91 " fill="transparent" id="logic_arc_int__baselibs__future-backto-comp_arc_sta__baselibs__concurrency" style="stroke:#181818;stroke-width:1;"/><polygon fill="#181818" points="1297.28,196.29,1305.6863,201.4217,1302.2379,196.9374,1306.7222,193.489,1297.28,196.29" style="stroke:#181818;stroke-width:1;"/><text fill="#000000" font-family="sans-serif" font-size="13" lengthAdjust="spacing" textLength="76.9082" x="1710.5" y="241.5669">implements</text></g><!--reverse link logic_arc_int__baselibs__dynamic_array to comp_arc_sta__baselibs__containers--><g id="link_logic_arc_int__baselibs__dynamic_array_comp_arc_sta__baselibs__containers"><path codeLine="25" d="M5101.3918,202.1527 C5132.3118,223.4427 5176.89,254.14 5207.74,275.38 " fill="transparent" id="logic_arc_int__baselibs__dynamic_array-backto-comp_arc_sta__baselibs__containers" style="stroke:#181818;stroke-width:1;"/><polygon fill="#181818" points="5096.45,198.75,5101.5943,207.1486,5100.5682,201.5856,5106.1312,200.5595,5096.45,198.75" style="stroke:#181818;stroke-width:1;"/><text fill="#000000" font-family="sans-serif" font-size="13" lengthAdjust="spacing" textLength="76.9082" x="5163.5" y="241.5669">implements</text></g><!--reverse link logic_arc_int__baselibs__bit_manipulation to comp_arc_sta__baselibs__bit_manipulation--><g id="link_logic_arc_int__baselibs__bit_manipulation_comp_arc_sta__baselibs__bit_manipulation"><path codeLine="26" d="M508.8359,202.812 C531.9159,224.042 564.41,253.94 587.51,275.19 " fill="transparent" id="logic_arc_int__baselibs__bit_manipulation-backto-comp_arc_sta__baselibs__bit_manipulation" style="stroke:#181818;stroke-width:1;"/><polygon fill="#181818" points="504.42,198.75,508.3359,207.7869,508.0999,202.135,513.7519,201.899,504.42,198.75" style="stroke:#181818;stroke-width:1;"/><text fill="#000000" font-family="sans-serif" font-size="13" lengthAdjust="spacing" textLength="76.9082" x="554.5" y="241.5669">implements</text></g><!--link Feature_User to logic_arc_int__baselibs__utils_base64--><g id="link_Feature_User_logic_arc_int__baselibs__utils_base64"><path codeLine="27" d="M3110.58,48.68 C3265.09,63.08 3787.5,112.23 4218.5,158.5 C4224.34,159.13 4224.3357,159.1261 4230.3557,159.7861 " fill="transparent" id="Feature_User-to-logic_arc_int__baselibs__utils_base64" style="stroke:#181818;stroke-width:1;"/><polygon fill="#181818" points="4236.32,160.44,4227.8095,155.483,4231.3498,159.8951,4226.9377,163.4353,4236.32,160.44" style="stroke:#181818;stroke-width:1;"/><text fill="#000000" font-family="sans-serif" font-size="13" lengthAdjust="spacing" textLength="23.0103" x="3903.5" y="124.5669">use</text></g><!--reverse link logic_arc_int__baselibs__condition_variable to comp_arc_sta__baselibs__concurrency--><g id="link_logic_arc_int__baselibs__condition_variable_comp_arc_sta__baselibs__concurrency"><path codeLine="28" d="M2935.4886,199.4446 C2847.8186,212.8146 2733.47,230.08 2627.5,245.5 C2558.02,255.61 2480.71,266.5 2416.54,275.44 " fill="transparent" id="logic_arc_int__baselibs__condition_variable-backto-comp_arc_sta__baselibs__concurrency" style="stroke:#181818;stroke-width:1;"/><polygon fill="#181818" points="2941.42,198.54,2931.9198,195.9426,2936.4771,199.2938,2933.1259,203.8511,2941.42,198.54" style="stroke:#181818;stroke-width:1;"/><text fill="#000000" font-family="sans-serif" font-size="13" lengthAdjust="spacing" textLength="76.9082" x="2737.5" y="241.5669">implements</text></g><!--link Feature_User to logic_arc_int__baselibs__intrusive_list--><g id="link_Feature_User_logic_arc_int__baselibs__intrusive_list"><path codeLine="29" d="M3110.75,46.23 C3290.34,53.19 3970.31,80.2 4529.5,111.5 C4845.25,129.17 4924.54,129.96 5239.5,158.5 C5245.53,159.05 5245.7087,159.0435 5251.9187,159.6535 " fill="transparent" id="Feature_User-to-logic_arc_int__baselibs__intrusive_list" style="stroke:#181818;stroke-width:1;"/><polygon fill="#181818" points="5257.89,160.24,5249.3241,155.3793,5252.9139,159.7512,5248.5421,163.341,5257.89,160.24" style="stroke:#181818;stroke-width:1;"/><text fill="#000000" font-family="sans-serif" font-size="13" lengthAdjust="spacing" textLength="23.0103" x="4838.5" y="124.5669">use</text></g><!--reverse link logic_arc_int__baselibs__json to comp_arc_sta__baselibs__json--><g id="link_logic_arc_int__baselibs__json_comp_arc_sta__baselibs__json"><path codeLine="30" d="M4085.379,204.7464 C4086.119,225.9764 4087.09,253.94 4087.83,275.19 " fill="transparent" id="logic_arc_int__baselibs__json-backto-comp_arc_sta__baselibs__json" style="stroke:#181818;stroke-width:1;"/><polygon fill="#181818" points="4085.17,198.75,4081.4859,207.8839,4085.3442,203.747,4089.4811,207.6052,4085.17,198.75" style="stroke:#181818;stroke-width:1;"/><text fill="#000000" font-family="sans-serif" font-size="13" lengthAdjust="spacing" textLength="76.9082" x="4088.5" y="241.5669">implements</text></g><!--link Feature_User to logic_arc_int__baselibs__dynamic_array--><g id="link_Feature_User_logic_arc_int__baselibs__dynamic_array"><path codeLine="31" d="M3110.52,46.4 C3316.02,55.26 4185.52,94.8 4896.5,158.5 C4902.33,159.02 4902.3069,159.0126 4908.3069,159.5826 " fill="transparent" id="Feature_User-to-logic_arc_int__baselibs__dynamic_array" style="stroke:#181818;stroke-width:1;"/><polygon fill="#181818" points="4914.28,160.15,4905.6986,155.3168,4909.3024,159.6771,4904.942,163.2809,4914.28,160.15" style="stroke:#181818;stroke-width:1;"/><text fill="#000000" font-family="sans-serif" font-size="13" lengthAdjust="spacing" textLength="23.0103" x="4497.5" y="124.5669">use</text></g><!--reverse link logic_arc_int__baselibs__intrusive_list to comp_arc_sta__baselibs__containers--><g id="link_logic_arc_int__baselibs__intrusive_list_comp_arc_sta__baselibs__containers"><path codeLine="32" d="M5371.2494,202.1252 C5339.9594,223.4152 5294.81,254.14 5263.6,275.38 " fill="transparent" id="logic_arc_int__baselibs__intrusive_list-backto-comp_arc_sta__baselibs__containers" style="stroke:#181818;stroke-width:1;"/><polygon fill="#181818" points="5376.21,198.75,5366.5189,200.5058,5372.0762,201.5627,5371.0192,207.1199,5376.21,198.75" style="stroke:#181818;stroke-width:1;"/><text fill="#000000" font-family="sans-serif" font-size="13" lengthAdjust="spacing" textLength="76.9082" x="5331.5" y="241.5669">implements</text></g><!--link Feature_User to logic_arc_int__baselibs__condition_variable--><g id="link_Feature_User_logic_arc_int__baselibs__condition_variable"><path codeLine="33" d="M3065.5,81.55 C3065.5,106.45 3065.5,132.26 3065.5,152.26 " fill="transparent" id="Feature_User-to-logic_arc_int__baselibs__condition_variable" style="stroke:#181818;stroke-width:1;"/><polygon fill="#181818" points="3065.5,158.26,3069.5,149.26,3065.5,153.26,3061.5,149.26,3065.5,158.26" style="stroke:#181818;stroke-width:1;"/><text fill="#000000" font-family="sans-serif" font-size="13" lengthAdjust="spacing" textLength="23.0103" x="3066.5" y="124.5669">use</text></g><!--link Feature_User to logic_arc_int__baselibs__filesystem--><g id="link_Feature_User_logic_arc_int__baselibs__filesystem"><path codeLine="34" d="M3020.37,45.41 C2800.36,49.99 1818.24,71.78 1014.5,111.5 C698.64,127.11 619.35,128.81 304.5,158.5 C298.97,159.02 299.2981,158.9622 293.5981,159.5522 " fill="transparent" id="Feature_User-to-logic_arc_int__baselibs__filesystem" style="stroke:#181818;stroke-width:1;"/><polygon fill="#181818" points="287.63,160.17,296.994,163.2221,292.6034,159.6552,296.1703,155.2646,287.63,160.17" style="stroke:#181818;stroke-width:1;"/><text fill="#000000" font-family="sans-serif" font-size="13" lengthAdjust="spacing" textLength="23.0103" x="1015.5" y="124.5669">use</text></g><!--link Feature_User to logic_arc_int__baselibs__executor--><g id="link_Feature_User_logic_arc_int__baselibs__executor"><path codeLine="35" d="M3020.36,48.51 C2865.66,62.34 2342.62,109.91 1911.5,158.5 C1906.02,159.12 1906.3893,159.0626 1900.7493,159.7226 " fill="transparent" id="Feature_User-to-logic_arc_int__baselibs__executor" style="stroke:#181818;stroke-width:1;"/><polygon fill="#181818" points="1894.79,160.42,1904.1939,163.3468,1899.7561,159.8389,1903.2641,155.4011,1894.79,160.42" style="stroke:#181818;stroke-width:1;"/><text fill="#000000" font-family="sans-serif" font-size="13" lengthAdjust="spacing" textLength="23.0103" x="2356.5" y="124.5669">use</text></g><!--link Feature_User to logic_arc_int__baselibs__promise--><g id="link_Feature_User_logic_arc_int__baselibs__promise"><path codeLine="36" d="M3020.46,47.1 C2841.72,57.64 2165.1,99.36 1610.5,158.5 C1604.83,159.1 1605.0122,159.0773 1599.1622,159.7373 " fill="transparent" id="Feature_User-to-logic_arc_int__baselibs__promise" style="stroke:#181818;stroke-width:1;"/><polygon fill="#181818" points="1593.2,160.41,1602.5917,163.3758,1598.1685,159.8495,1601.6948,155.4262,1593.2,160.41" style="stroke:#181818;stroke-width:1;"/><text fill="#000000" font-family="sans-serif" font-size="13" lengthAdjust="spacing" textLength="23.0103" x="2091.5" y="124.5669">use</text></g><!--reverse link logic_arc_int__baselibs__executor to comp_arc_sta__baselibs__concurrency--><g id="link_logic_arc_int__baselibs__executor_comp_arc_sta__baselibs__concurrency"><path codeLine="37" d="M1853.0168,199.8528 C1948.7268,221.1428 2096.9,254.11 2192.67,275.41 " fill="transparent" id="logic_arc_int__baselibs__executor-backto-comp_arc_sta__baselibs__concurrency" style="stroke:#181818;stroke-width:1;"/><polygon fill="#181818" points="1847.16,198.55,1855.0767,204.4088,1852.0407,199.6357,1856.8138,196.5997,1847.16,198.55" style="stroke:#181818;stroke-width:1;"/><text fill="#000000" font-family="sans-serif" font-size="13" lengthAdjust="spacing" textLength="76.9082" x="2052.5" y="241.5669">implements</text></g><!--link Feature_User to logic_arc_int__baselibs__synchronized_queue--><g id="link_Feature_User_logic_arc_int__baselibs__synchronized_queue"><path codeLine="38" d="M3020.39,50.74 C2882.3,69.83 2467.3135,127.1983 2247.0635,157.6483 " fill="transparent" id="Feature_User-to-logic_arc_int__baselibs__synchronized_queue" style="stroke:#181818;stroke-width:1;"/><polygon fill="#181818" points="2241.12,158.47,2250.583,161.1998,2246.0729,157.7853,2249.4874,153.2751,2241.12,158.47" style="stroke:#181818;stroke-width:1;"/><text fill="#000000" font-family="sans-serif" font-size="13" lengthAdjust="spacing" textLength="23.0103" x="2557.5" y="124.5669">use</text></g><!--reverse link logic_arc_int__baselibs__message_passing to comp_arc_sta__baselibs__message_passing--><g id="link_logic_arc_int__baselibs__message_passing_comp_arc_sta__baselibs__message_passing"><path codeLine="39" d="M3767.4002,204.7444 C3766.4802,225.9744 3765.26,253.94 3764.34,275.19 " fill="transparent" id="logic_arc_int__baselibs__message_passing-backto-comp_arc_sta__baselibs__message_passing" style="stroke:#181818;stroke-width:1;"/><polygon fill="#181818" points="3767.66,198.75,3763.2741,207.5684,3767.4435,203.7453,3771.2666,207.9147,3767.66,198.75" style="stroke:#181818;stroke-width:1;"/><text fill="#000000" font-family="sans-serif" font-size="13" lengthAdjust="spacing" textLength="76.9082" x="3767.5" y="241.5669">implements</text></g><!--reverse link logic_arc_int__baselibs__shared_future to comp_arc_sta__baselibs__concurrency--><g id="link_logic_arc_int__baselibs__shared_future_comp_arc_sta__baselibs__concurrency"><path codeLine="40" d="M3261.4365,197.1704 C3255.3865,197.8404 3255.37,197.85 3249.5,198.5 C3059.75,219.61 3012.48,226.49 2822.5,245.5 C2689.46,258.81 2537.94,272.32 2428.66,281.78 " fill="transparent" id="logic_arc_int__baselibs__shared_future-backto-comp_arc_sta__baselibs__concurrency" style="stroke:#181818;stroke-width:1;"/><polygon fill="#181818" points="3267.4,196.51,3258.0144,193.5249,3262.4304,197.0604,3258.895,201.4763,3267.4,196.51" style="stroke:#181818;stroke-width:1;"/><text fill="#000000" font-family="sans-serif" font-size="13" lengthAdjust="spacing" textLength="76.9082" x="2979.5" y="241.5669">implements</text></g><!--reverse link logic_arc_int__baselibs__filesystem to comp_arc_sta__baselibs__filesystem--><g id="link_logic_arc_int__baselibs__filesystem_comp_arc_sta__baselibs__filesystem"><path codeLine="41" d="M149.5,204.75 C149.5,225.98 149.5,253.94 149.5,275.19 " fill="transparent" id="logic_arc_int__baselibs__filesystem-backto-comp_arc_sta__baselibs__filesystem" style="stroke:#181818;stroke-width:1;"/><polygon fill="#181818" points="149.5,198.75,145.5,207.75,149.5,203.75,153.5,207.75,149.5,198.75" style="stroke:#181818;stroke-width:1;"/><text fill="#000000" font-family="sans-serif" font-size="13" lengthAdjust="spacing" textLength="76.9082" x="150.5" y="241.5669">implements</text></g><!--reverse link logic_arc_int__baselibs__utils_scoped_op to comp_arc_sta__baselibs__utils--><g id="link_logic_arc_int__baselibs__utils_scoped_op_comp_arc_sta__baselibs__utils"><path codeLine="42" d="M4683.3479,201.7743 C4646.8679,223.0643 4593.64,254.14 4557.25,275.38 " fill="transparent" id="logic_arc_int__baselibs__utils_scoped_op-backto-comp_arc_sta__baselibs__utils" style="stroke:#181818;stroke-width:1;"/><polygon fill="#181818" points="4688.53,198.75,4678.7407,199.8317,4684.2116,201.2702,4682.7731,206.7411,4688.53,198.75" style="stroke:#181818;stroke-width:1;"/><text fill="#000000" font-family="sans-serif" font-size="13" lengthAdjust="spacing" textLength="76.9082" x="4636.5" y="241.5669">implements</text></g><!--link Feature_User to logic_arc_int__baselibs__result--><g id="link_Feature_User_logic_arc_int__baselibs__result"><path codeLine="43" d="M3110.72,45.34 C3336.6,49.65 4365.17,70.7 5206.5,111.5 C5524.59,126.93 5604.58,127.21 5921.5,158.5 C5928.65,159.21 5930.0383,159.3133 5937.4383,160.1533 " fill="transparent" id="Feature_User-to-logic_arc_int__baselibs__result" style="stroke:#181818;stroke-width:1;"/><polygon fill="#181818" points="5943.4,160.83,5934.9086,155.8404,5938.4319,160.2661,5934.0063,163.7894,5943.4,160.83" style="stroke:#181818;stroke-width:1;"/><text fill="#000000" font-family="sans-serif" font-size="13" lengthAdjust="spacing" textLength="23.0103" x="5554.5" y="124.5669">use</text></g><!--reverse link logic_arc_int__baselibs__synchronized_queue to comp_arc_sta__baselibs__concurrency--><g id="link_logic_arc_int__baselibs__synchronized_queue_comp_arc_sta__baselibs__concurrency"><path codeLine="44" d="M2137.8043,202.0449 C2170.2043,223.3349 2217.08,254.14 2249.41,275.38 " fill="transparent" id="logic_arc_int__baselibs__synchronized_queue-backto-comp_arc_sta__baselibs__concurrency" style="stroke:#181818;stroke-width:1;"/><polygon fill="#181818" points="2132.79,198.75,2138.1149,207.0353,2136.9686,201.4958,2142.5081,200.3495,2132.79,198.75" style="stroke:#181818;stroke-width:1;"/><text fill="#000000" font-family="sans-serif" font-size="13" lengthAdjust="spacing" textLength="76.9082" x="2202.5" y="241.5669">implements</text></g><!--link Feature_User to logic_arc_int__baselibs__task_result--><g id="link_Feature_User_logic_arc_int__baselibs__task_result"><path codeLine="45" d="M3020.5,54.28 C2919.54,76.22 2679.3431,128.4157 2547.0131,157.1757 " fill="transparent" id="Feature_User-to-logic_arc_int__baselibs__task_result" style="stroke:#181818;stroke-width:1;"/><polygon fill="#181818" points="2541.15,158.45,2550.7942,160.4474,2546.0359,157.3881,2549.0952,152.6299,2541.15,158.45" style="stroke:#181818;stroke-width:1;"/><text fill="#000000" font-family="sans-serif" font-size="13" lengthAdjust="spacing" textLength="23.0103" x="2742.5" y="124.5669">use</text></g><!--reverse link logic_arc_int__baselibs__promise to comp_arc_sta__baselibs__concurrency--><g id="link_logic_arc_int__baselibs__promise_comp_arc_sta__baselibs__concurrency"><path codeLine="46" d="M1591.4309,199.4378 C1679.8309,212.9678 1795.98,230.43 1903.5,245.5 C1977.46,255.87 2059.73,266.69 2128.33,275.53 " fill="transparent" id="logic_arc_int__baselibs__promise-backto-comp_arc_sta__baselibs__concurrency" style="stroke:#181818;stroke-width:1;"/><polygon fill="#181818" points="1585.5,198.53,1593.7912,203.8456,1590.4424,199.2865,1595.0016,195.9377,1585.5,198.53" style="stroke:#181818;stroke-width:1;"/><text fill="#000000" font-family="sans-serif" font-size="13" lengthAdjust="spacing" textLength="76.9082" x="1904.5" y="241.5669">implements</text></g><!--reverse link logic_arc_int__baselibs__task to comp_arc_sta__baselibs__concurrency--><g id="link_logic_arc_int__baselibs__task_comp_arc_sta__baselibs__concurrency"><path codeLine="47" d="M2663.1333,199.9818 C2576.4933,221.2718 2442.89,254.11 2356.19,275.41 " fill="transparent" id="logic_arc_int__baselibs__task-backto-comp_arc_sta__baselibs__concurrency" style="stroke:#181818;stroke-width:1;"/><polygon fill="#181818" points="2668.96,198.55,2659.2655,196.8132,2664.1044,199.7432,2661.1745,204.5821,2668.96,198.55" style="stroke:#181818;stroke-width:1;"/><text fill="#000000" font-family="sans-serif" font-size="13" lengthAdjust="spacing" textLength="76.9082" x="2542.5" y="241.5669">implements</text></g><!--link Feature_User to logic_arc_int__baselibs__json--><g id="link_Feature_User_logic_arc_int__baselibs__json"><path codeLine="48" d="M3110.6,50.13 C3240.76,66.41 3628.22,115.18 3949.5,158.5 C3955.48,159.31 3955.6658,159.3238 3961.8558,160.1738 " fill="transparent" id="Feature_User-to-logic_arc_int__baselibs__json" style="stroke:#181818;stroke-width:1;"/><polygon fill="#181818" points="3967.8,160.99,3959.4278,155.8028,3962.8465,160.3098,3958.3395,163.7284,3967.8,160.99" style="stroke:#181818;stroke-width:1;"/><text fill="#000000" font-family="sans-serif" font-size="13" lengthAdjust="spacing" textLength="23.0103" x="3708.5" y="124.5669">use</text></g><!--link Feature_User to logic_arc_int__baselibs__bit_mask_operator--><g id="link_Feature_User_logic_arc_int__baselibs__bit_mask_operator"><path codeLine="49" d="M3020.4,46.02 C2842.13,52.17 2169.42,76.48 1616.5,111.5 C1356.63,127.96 1291.81,134.75 1032.5,158.5 C1026.87,159.02 1027.123,158.9816 1021.343,159.5316 " fill="transparent" id="Feature_User-to-logic_arc_int__baselibs__bit_mask_operator" style="stroke:#181818;stroke-width:1;"/><polygon fill="#181818" points="1015.37,160.1,1024.7084,163.2295,1020.3475,159.6264,1023.9506,155.2654,1015.37,160.1" style="stroke:#181818;stroke-width:1;"/><text fill="#000000" font-family="sans-serif" font-size="13" lengthAdjust="spacing" textLength="23.0103" x="1617.5" y="124.5669">use</text></g><!--reverse link logic_arc_int__baselibs__bit_mask_operator to comp_arc_sta__baselibs__bit_manipulation--><g id="link_logic_arc_int__baselibs__bit_mask_operator_comp_arc_sta__baselibs__bit_manipulation"><path codeLine="50" d="M802.3632,201.2213 C758.1532,222.4913 692.57,254.05 648.33,275.34 " fill="transparent" id="logic_arc_int__baselibs__bit_mask_operator-backto-comp_arc_sta__baselibs__bit_manipulation" style="stroke:#181818;stroke-width:1;"/><polygon fill="#181818" points="807.77,198.62,797.9256,198.9174,803.2643,200.7877,801.394,206.1264,807.77,198.62" style="stroke:#181818;stroke-width:1;"/><text fill="#000000" font-family="sans-serif" font-size="13" lengthAdjust="spacing" textLength="76.9082" x="743.5" y="241.5669">implements</text></g><!--link Feature_User to logic_arc_int__baselibs__memory_shared--><g id="link_Feature_User_logic_arc_int__baselibs__memory_shared"><path codeLine="51" d="M3110.52,45.67 C3314.13,51.07 4169.42,74.89 4870.5,111.5 C5181,127.71 5258.75,131.46 5568.5,158.5 C5574.35,159.01 5574.3359,158.9933 5580.3459,159.5533 " fill="transparent" id="Feature_User-to-logic_arc_int__baselibs__memory_shared" style="stroke:#181818;stroke-width:1;"/><polygon fill="#181818" points="5586.32,160.11,5577.7299,155.2923,5581.3416,159.6461,5576.9877,163.2578,5586.32,160.11" style="stroke:#181818;stroke-width:1;"/><text fill="#000000" font-family="sans-serif" font-size="13" lengthAdjust="spacing" textLength="23.0103" x="5174.5" y="124.5669">use</text></g><!--link Feature_User to logic_arc_int__baselibs__future--><g id="link_Feature_User_logic_arc_int__baselibs__future"><path codeLine="52" d="M3020.4,46.03 C2820.09,53.14 1991.07,85.65 1314.5,158.5 C1308.85,159.11 1309.0396,159.0649 1303.2096,159.7449 " fill="transparent" id="Feature_User-to-logic_arc_int__baselibs__future" style="stroke:#181818;stroke-width:1;"/><polygon fill="#181818" points="1297.25,160.44,1306.6528,163.3704,1302.2163,159.8607,1305.726,155.4243,1297.25,160.44" style="stroke:#181818;stroke-width:1;"/><text fill="#000000" font-family="sans-serif" font-size="13" lengthAdjust="spacing" textLength="23.0103" x="1795.5" y="124.5669">use</text></g><!--SRC=[hLPDRzH03BtdLunwtu8Gub1LlI1nwX7E8sVYxfhEHnXxIWFYlpFPREac52P9StJMVllyCSy6QyDtxUYH_BwIq2e9gWuYmQc68XgXuAi3DQXOC6AGhiN1HjTAfq0aKfq4kRfcwIpUL9V0P6lrixebZn-33L55R8xMvmEPUu_Cwjtbs-fNTVtc55E1aUntyGb1KaJrXJ5UA61r-g3x3wggHkQksTqe6_PaD4IZoOlMDJ1Qgbdh96HPimajDZgqLoengYK0BlE4FUeMc7DrJW0ckFRepGBdtYPuas94RpgrI__35U1x7P6JbIj5hhNeq0ilujPZ50WTyozG6MhKsn_UZxdy2tNWNO1zPN9yW3mm-Yxr0OKi7ReGkrD8WTR8TpMxcaGxyDGc2_ths6mkdlATquQCAf0VL2nrkEaykEDF4RfvsDC42__mTprM5dOyZ1iLDNisrDFI3n09Qekh-MKp9gO7r9PO2Wo_Sh5mlSjgCfE-bgerRrYc6QxazbBDbuhl7LdaBkySjpmM7z6al4wMHxOnE6BSRFgUcQoLmiwRGmoUVcH1_9OmbVLmjBIAYZXPSJErPsRw4o6V0_xSzv9QdWt87E3vw_3iP5ZPjQVzjz4KlJG4hxWRjgRtvz5iEpp3YRCopq5Rbpx_OPNb2kK1YF2i89jkoX7yolGcbynYSJs_h7u3]--></g></svg>