<svg xmlns="http://www.w3.org/2000/svg" xmlns:xlink="http://www.w3.org/1999/xlink" contentStyleType="text/css" data-diagram-type="CLASS" height="389px" preserveAspectRatio="none" style="width:299px;height:389px;background:#FFFFFF;" version="1.1" viewBox="0 0 299 389" width="299px" zoomAndPan="magnify"><defs/><g><!--cluster mod_view_sta__orch__executor--><a href="../features/orchestration/modules/executor/docs/index.html#mod_view_sta__orch__executor" target="_top" title="../features/orchestration/modules/executor/docs/index.html#mod_view_sta__orch__executor" xlink:actuate="onRequest" xlink:href="../features/orchestration/modules/executor/docs/index.html#mod_view_sta__orch__executor" xlink:show="new" xlink:title="../features/orchestration/modules/executor/docs/index.html#mod_view_sta__orch__executor" xlink:type="simple"><path d="M40.5,6 L111.0693,6 A3.75,3.75 0 0 1 113.5693,8.5 L120.5693,28.2969 L169.5,28.2969 A2.5,2.5 0 0 1 172,30.7969 L172,100.5 A2.5,2.5 0 0 1 169.5,103 L40.5,103 A2.5,2.5 0 0 1 38,100.5 L38,8.5 A2.5,2.5 0 0 1 40.5,6 " fill="transparent" style="stroke:#000000;stroke-width:1.5;"/><line style="stroke:#000000;stroke-width:1.5;" x1="38" x2="120.5693" y1="28.2969" y2="28.2969"/><text fill="#000000" font-family="sans-serif" font-size="14" font-weight="bold" lengthAdjust="spacing" textLength="69.5693" x="42" y="20.9951">Executor</text></a><!--cluster mod_view_sta__logging__logging--><a href="../modules/logging/docs/index.html#mod_view_sta__logging__logging" target="_top" title="../modules/logging/docs/index.html#mod_view_sta__logging__logging" xlink:actuate="onRequest" xlink:href="../modules/logging/docs/index.html#mod_view_sta__logging__logging" xlink:show="new" xlink:title="../modules/logging/docs/index.html#mod_view_sta__logging__logging" xlink:type="simple"><path d="M156.5,285 L220.8691,285 A3.75,3.75 0 0 1 223.3691,287.5 L230.3691,307.2969 L279.5,307.2969 A2.5,2.5 0 0 1 282,309.7969 L282,379.5 A2.5,2.5 0 0 1 279.5,382 L156.5,382 A2.5,2.5 0 0 1 154,379.5 L154,287.5 A2.5,2.5 0 0 1 156.5,285 " fill="transparent" style="stroke:#000000;stroke-width:1.5;"/><line style="stroke:#000000;stroke-width:1.5;" x1="154" x2="230.3691" y1="307.2969" y2="307.2969"/><text fill="#000000" font-family="sans-serif" font-size="14" font-weight="bold" lengthAdjust="spacing" textLength="63.3691" x="158" y="299.9951">Logging</text></a><!--cluster mod_view_sta__tracing__tracing--><a href="../modules/tracing/docs/index.html#mod_view_sta__tracing__tracing" target="_top" title="../modules/tracing/docs/index.html#mod_view_sta__tracing__tracing" xlink:actuate="onRequest" xlink:href="../modules/tracing/docs/index.html#mod_view_sta__tracing__tracing" xlink:show="new" xlink:title="../modules/tracing/docs/index.html#mod_view_sta__tracing__tracing" xlink:type="simple"><path d="M8.5,285 L68.4873,285 A3.75,3.75 0 0 1 70.9873,287.5 L77.9873,307.2969 L127.5,307.2969 A2.5,2.5 0 0 1 130,309.7969 L130,379.5 A2.5,2.5 0 0 1 127.5,382 L8.5,382 A2.5,2.5 0 0 1 6,379.5 L6,287.5 A2.5,2.5 0 0 1 8.5,285 " fill="transparent" style="stroke:#000000;stroke-width:1.5;"/><line style="stroke:#000000;stroke-width:1.5;" x1="6" x2="77.9873" y1="307.2969" y2="307.2969"/><text fill="#000000" font-family="sans-serif" font-size="14" font-weight="bold" lengthAdjust="spacing" textLength="58.9873" x="10" y="299.9951">Tracing</text></a><!--entity comp_arc_sta__orch__executor--><a href="../features/orchestration/modules/executor/executor/docs/architecture/executor.html#comp_arc_sta__orch__executor" target="_top" title="../features/orchestration/modules/executor/executor/docs/architecture/executor.html#comp_arc_sta__orch__executor" xlink:actuate="onRequest" xlink:href="../features/orchestration/modules/executor/executor/docs/architecture/executor.html#comp_arc_sta__orch__executor" xlink:show="new" xlink:title="../features/orchestration/modules/executor/executor/docs/architecture/executor.html#comp_arc_sta__orch__executor" xlink:type="simple"><rect fill="#F1F1F1" height="46.2969" rx="2.5" ry="2.5" style="stroke:#0000FF;stroke-width:2;" width="101.8926" x="54" y="41"/><rect fill="#F1F1F1" height="10" style="stroke:#0000FF;stroke-width:2;" width="15" x="135.8926" y="46"/><rect fill="#F1F1F1" height="2" style="stroke:#0000FF;stroke-width:2;" width="4" x="133.8926" y="48"/><rect fill="#F1F1F1" height="2" style="stroke:#0000FF;stroke-width:2;" width="4" x="133.8926" y="52"/><text fill="#000000" font-family="sans-serif" font-size="14" lengthAdjust="spacing" textLength="61.8926" x="69" y="73.9951">executor</text></a><!--entity comp_arc_sta__logging__logging--><a href="../modules/logging/logging/docs/architecture/index.html#comp_arc_sta__logging__logging" target="_top" title="../modules/logging/logging/docs/architecture/index.html#comp_arc_sta__logging__logging" xlink:actuate="onRequest" xlink:href="../modules/logging/logging/docs/architecture/index.html#comp_arc_sta__logging__logging" xlink:show="new" xlink:title="../modules/logging/logging/docs/architecture/index.html#comp_arc_sta__logging__logging" xlink:type="simple"><rect fill="#F1F1F1" height="46.2969" rx="2.5" ry="2.5" style="stroke:#0000FF;stroke-width:2;" width="95.7881" x="170" y="320"/><rect fill="#F1F1F1" height="10" style="stroke:#0000FF;stroke-width:2;" width="15" x="245.7881" y="325"/><rect fill="#F1F1F1" height="2" style="stroke:#0000FF;stroke-width:2;" width="4" x="243.7881" y="327"/><rect fill="#F1F1F1" height="2" style="stroke:#0000FF;stroke-width:2;" width="4" x="243.7881" y="331"/><text fill="#000000" font-family="sans-serif" font-size="14" lengthAdjust="spacing" textLength="55.7881" x="185" y="352.9951">Logging</text></a><!--entity comp_arc_sta__tracing__tracing--><a href="../modules/tracing/tracing/docs/architecture/index.html#comp_arc_sta__tracing__tracing" target="_top" title="../modules/tracing/tracing/docs/architecture/index.html#comp_arc_sta__tracing__tracing" xlink:actuate="onRequest" xlink:href="../modules/tracing/tracing/docs/architecture/index.html#comp_arc_sta__tracing__tracing" xlink:show="new" xlink:title="../modules/tracing/tracing/docs/architecture/index.html#comp_arc_sta__tracing__tracing" xlink:type="simple"><rect fill="#F1F1F1" height="46.2969" rx="2.5" ry="2.5" style="stroke:#0000FF;stroke-width:2;" width="92.2334" x="22" y="320"/><rect fill="#F1F1F1" height="10" style="stroke:#0000FF;stroke-width:2;" width="15" x="94.2334" y="325"/><rect fill="#F1F1F1" height="2" style="stroke:#0000FF;stroke-width:2;" width="4" x="92.2334" y="327"/><rect fill="#F1F1F1" height="2" style="stroke:#0000FF;stroke-width:2;" width="4" x="92.2334" y="331"/><text fill="#000000" font-family="sans-serif" font-size="14" lengthAdjust="spacing" textLength="52.2334" x="37" y="352.9951">Tracing</text></a><!--class logic_arc_int__logging__logging--><a href="../modules/logging/logging/docs/architecture/index.html#logic_arc_int__logging__logging" target="_top" title="../modules/logging/logging/docs/architecture/index.html#logic_arc_int__logging__logging" xlink:actuate="onRequest" xlink:href="../modules/logging/logging/docs/architecture/index.html#logic_arc_int__logging__logging" xlink:show="new" xlink:title="../modules/logging/logging/docs/architecture/index.html#logic_arc_int__logging__logging" xlink:type="simple"><g id="elem_logic_arc_int__logging__logging"><rect codeLine="25" fill="#F1F1F1" height="56.2969" id="logic_arc_int__logging__logging" rx="2.5" ry="2.5" style="stroke:#181818;stroke-width:0.5;" width="87.7881" x="166" y="166"/><ellipse cx="181" cy="182" fill="#B4A7E5" rx="11" ry="11" style="stroke:#181818;stroke-width:1;"/><path d="M176.9219,177.7656 L176.9219,175.6094 L184.3125,175.6094 L184.3125,177.7656 L181.8438,177.7656 L181.8438,185.8438 L184.3125,185.8438 L184.3125,188 L176.9219,188 L176.9219,185.8438 L179.3906,185.8438 L179.3906,177.7656 L176.9219,177.7656 Z " fill="#000000"/><text fill="#000000" font-family="sans-serif" font-size="14" font-style="italic" lengthAdjust="spacing" textLength="55.7881" x="195" y="186.8467">Logging</text><line style="stroke:#181818;stroke-width:0.5;" x1="167" x2="252.7881" y1="198" y2="198"/></g><a href="../modules/logging/logging/docs/architecture/index.html#logic_arc_int_op__logging__isenabled" target="_top" title="../modules/logging/logging/docs/architecture/index.html#logic_arc_int_op__logging__isenabled" xlink:actuate="onRequest" xlink:href="../modules/logging/logging/docs/architecture/index.html#logic_arc_int_op__logging__isenabled" xlink:show="new" xlink:title="../modules/logging/logging/docs/architecture/index.html#logic_arc_int_op__logging__isenabled" xlink:type="simple"><rect fill="#F1F1F1" height="10" style="stroke:transparent;stroke-width:1;" width="20" x="172" y="206.6484"/><ellipse cx="177" cy="211.6484" fill="#84BE84" rx="3" ry="3" style="stroke:#038048;stroke-width:1;"/></a></a><a href="../modules/logging/logging/docs/architecture/index.html#logic_arc_int_op__logging__isenabled" target="_top" title="../modules/logging/logging/docs/architecture/index.html#logic_arc_int_op__logging__isenabled" xlink:actuate="onRequest" xlink:href="../modules/logging/logging/docs/architecture/index.html#logic_arc_int_op__logging__isenabled" xlink:show="new" xlink:title="../modules/logging/logging/docs/architecture/index.html#logic_arc_int_op__logging__isenabled" xlink:type="simple"><text fill="#000000" font-family="sans-serif" font-size="14" lengthAdjust="spacing" textLength="40.626" x="186" y="214.9951">Log ()</text></a><!--class logic_arc_int__tracing__tracing--><a href="../modules/tracing/tracing/docs/architecture/index.html#logic_arc_int__tracing__tracing" target="_top" title="../modules/tracing/tracing/docs/architecture/index.html#logic_arc_int__tracing__tracing" xlink:actuate="onRequest" xlink:href="../modules/tracing/tracing/docs/architecture/index.html#logic_arc_int__tracing__tracing" xlink:show="new" xlink:title="../modules/tracing/tracing/docs/architecture/index.html#logic_arc_int__tracing__tracing" xlink:type="simple"><g id="elem_logic_arc_int__tracing__tracing"><rect codeLine="37" fill="#F1F1F1" height="56.2969" id="logic_arc_int__tracing__tracing" rx="2.5" ry="2.5" style="stroke:#181818;stroke-width:0.5;" width="84.2334" x="40" y="166"/><ellipse cx="55" cy="182" fill="#B4A7E5" rx="11" ry="11" style="stroke:#181818;stroke-width:1;"/><path d="M50.9219,177.7656 L50.9219,175.6094 L58.3125,175.6094 L58.3125,177.7656 L55.8438,177.7656 L55.8438,185.8438 L58.3125,185.8438 L58.3125,188 L50.9219,188 L50.9219,185.8438 L53.3906,185.8438 L53.3906,177.7656 L50.9219,177.7656 Z " fill="#000000"/><text fill="#000000" font-family="sans-serif" font-size="14" font-style="italic" lengthAdjust="spacing" textLength="52.2334" x="69" y="186.8467">Tracing</text><line style="stroke:#181818;stroke-width:0.5;" x1="41" x2="123.2334" y1="198" y2="198"/></g><a href="../modules/tracing/tracing/docs/architecture/index.html#logic_arc_int_op__tracing__trace" target="_top" title="../modules/tracing/tracing/docs/architecture/index.html#logic_arc_int_op__tracing__trace" xlink:actuate="onRequest" xlink:href="../modules/tracing/tracing/docs/architecture/index.html#logic_arc_int_op__tracing__trace" xlink:show="new" xlink:title="../modules/tracing/tracing/docs/architecture/index.html#logic_arc_int_op__tracing__trace" xlink:type="simple"><rect fill="#F1F1F1" height="10" style="stroke:transparent;stroke-width:1;" width="20" x="46" y="206.6484"/><ellipse cx="51" cy="211.6484" fill="#84BE84" rx="3" ry="3" style="stroke:#038048;stroke-width:1;"/></a></a><a href="../modules/tracing/tracing/docs/architecture/index.html#logic_arc_int_op__tracing__trace" target="_top" title="../modules/tracing/tracing/docs/architecture/index.html#logic_arc_int_op__tracing__trace" xlink:actuate="onRequest" xlink:href="../modules/tracing/tracing/docs/architecture/index.html#logic_arc_int_op__tracing__trace" xlink:show="new" xlink:title="../modules/tracing/tracing/docs/architecture/index.html#logic_arc_int_op__tracing__trace" xlink:type="simple"><text fill="#000000" font-family="sans-serif" font-size="14" lengthAdjust="spacing" textLength="54.5713" x="60" y="214.9951">Trace ()</text></a><!--reverse link logic_arc_int__logging__logging to comp_arc_sta__logging__logging--><g id="link_logic_arc_int__logging__logging_comp_arc_sta__logging__logging"><path codeLine="44" d="M211.8145,228.3012 C213.3345,256.3612 215.36,293.54 216.78,319.65 " fill="transparent" id="logic_arc_int__logging__logging-backto-comp_arc_sta__logging__logging" style="stroke:#181818;stroke-width:1;"/><polygon fill="#181818" points="211.49,222.31,207.9827,231.5132,211.7605,227.3027,215.971,231.0805,211.49,222.31" style="stroke:#181818;stroke-width:1;"/><text fill="#000000" font-family="sans-serif" font-size="13" lengthAdjust="spacing" textLength="76.9082" x="215" y="265.0669">implements</text></g><!--reverse link logic_arc_int__tracing__tracing to comp_arc_sta__tracing__tracing--><g id="link_logic_arc_int__tracing__tracing_comp_arc_sta__tracing__tracing"><path codeLine="45" d="M78.8316,228.283 C76.1616,256.343 72.61,293.54 70.13,319.65 " fill="transparent" id="logic_arc_int__tracing__tracing-backto-comp_arc_sta__tracing__tracing" style="stroke:#181818;stroke-width:1;"/><polygon fill="#181818" points="79.4,222.31,74.5655,230.8906,78.9264,227.2875,82.5295,231.6484,79.4,222.31" style="stroke:#181818;stroke-width:1;"/><text fill="#000000" font-family="sans-serif" font-size="13" lengthAdjust="spacing" textLength="76.9082" x="78" y="265.0669">implements</text></g><!--link comp_arc_sta__orch__executor to logic_arc_int__logging__logging--><g id="link_comp_arc_sta__orch__executor_logic_arc_int__logging__logging"><path codeLine="46" d="M123.05,87 C140.99,108.88 164.7448,137.831 184.0048,161.311 " fill="transparent" id="comp_arc_sta__orch__executor-to-logic_arc_int__logging__logging" style="stroke:#008000;stroke-width:1;"/><polygon fill="#008000" points="187.81,165.95,185.1948,156.4547,184.639,162.0842,179.0095,161.5283,187.81,165.95" style="stroke:#008000;stroke-width:1;"/><text fill="#000000" font-family="sans-serif" font-size="13" lengthAdjust="spacing" textLength="29.7832" x="162" y="132.0669">uses</text></g><!--link comp_arc_sta__orch__executor to logic_arc_int__tracing__tracing--><g id="link_comp_arc_sta__orch__executor_logic_arc_int__tracing__tracing"><path codeLine="47" d="M101.05,87 C97.12,108.88 92.1414,136.5646 87.9214,160.0446 " fill="transparent" id="comp_arc_sta__orch__executor-to-logic_arc_int__tracing__tracing" style="stroke:#008000;stroke-width:1;"/><polygon fill="#008000" points="86.86,165.95,92.389,157.7995,87.7445,161.0288,84.5151,156.3844,86.86,165.95" style="stroke:#008000;stroke-width:1;"/><text fill="#000000" font-family="sans-serif" font-size="13" lengthAdjust="spacing" textLength="29.7832" x="96" y="132.0669">uses</text></g><!--SRC=[hPN1Rvim5CRl_YkUqaCtJO5fnodAPUgjnzuYX8nv3LQDZUp7cgZg_puJ2CF00bLtWsVpVJz_V2HSAVEQbl8azP6HgO0CP8R8b91BYuAaqQoGEO8Zj6ZeN65xZsL5P-14LcOreMCxHsU5UnPn9rK6R-nHQlnbbB6GgHeljq-552yQdOCVqNVspdPnzn2hk7ZXHuJDmmb5JSPkW3ieJPx-blYQEk9fQgmeqXIx3G27GnJ5pyYfjkZYPXKTMTumn_x9MldfTNUS6-5YgNCyHGMLwkwMT9A0vnUch8n6JR318LGpJxaLir2xtUNu-_t7w49CBrv8ykdxH_kb5lkMUOlz3l4zz3ptCR1sz12C-hmVpV7eN_vCtAfTwI-wmA_itNGXsB789DgXVtYuYVyesp5801H4EA2xRJ58iECQ11XCfFRVmpCNemIzZXGNVRzXTOIho1UaFVeROzyQIlZorVly9oDJ3RoaGyqpXNcI97EfzArwibpCjuhQbVvY54atNMZLM6JIgg5_-Ced_lzerHKa05hNgdcwIreTrw1LmMJGgk49Hgz-POIho1UahwrgQ73QgqzODRqAtF1lfu9CsCAlmhRUxfU-kvyWoqfXwRlXW2qKOavmlEcMuEWVOPiVxeuMKIThE6k7dn6SShQ2Vm00]--></g></svg>