<svg xmlns="http://www.w3.org/2000/svg" xmlns:xlink="http://www.w3.org/1999/xlink" contentStyleType="text/css" data-diagram-type="CLASS" height="322px" preserveAspectRatio="none" style="width:967px;height:322px;background:#FFFFFF;" version="1.1" viewBox="0 0 967 322" width="967px" zoomAndPan="magnify"><defs/><g><!--entity Feature_User--><g id="elem_Feature_User"><ellipse cx="475.6685" cy="14" fill="#F1F1F1" rx="8" ry="8" style="stroke:#181818;stroke-width:0.5;"/><path d="M475.6685,22 L475.6685,49 M462.6685,30 L488.6685,30 M475.6685,49 L462.6685,64 M475.6685,49 L488.6685,64 " fill="transparent" style="stroke:#181818;stroke-width:0.5;"/><text fill="#000000" font-family="sans-serif" font-size="14" lengthAdjust="spacing" textLength="90.3369" x="430.5" y="78.4951">Feature User</text></g><!--class logic_arc_int__orchestration__design--><g id="elem_logic_arc_int__orchestration__design"><rect fill="#F1F1F1" height="40" id="logic_arc_int__orchestration__design" rx="2.5" ry="2.5" style="stroke:#181818;stroke-width:0.5;" width="287.0967" x="673" y="158.5"/><ellipse cx="688" cy="174.5" fill="#ADD1B2" rx="11" ry="11" style="stroke:#181818;stroke-width:1;"/><path d="M690.9688,180.1406 Q690.3906,180.4375 689.75,180.5781 Q689.1094,180.7344 688.4063,180.7344 Q685.9063,180.7344 684.5781,179.0938 Q683.2656,177.4375 683.2656,174.3125 Q683.2656,171.1875 684.5781,169.5313 Q685.9063,167.875 688.4063,167.875 Q689.1094,167.875 689.75,168.0313 Q690.4063,168.1875 690.9688,168.4844 L690.9688,171.2031 Q690.3438,170.625 689.75,170.3594 Q689.1563,170.0781 688.5313,170.0781 Q687.1875,170.0781 686.5,171.1563 Q685.8125,172.2188 685.8125,174.3125 Q685.8125,176.4063 686.5,177.4844 Q687.1875,178.5469 688.5313,178.5469 Q689.1563,178.5469 689.75,178.2813 Q690.3438,178 690.9688,177.4219 L690.9688,180.1406 Z " fill="#000000"/><text fill="#000000" font-family="sans-serif" font-size="14" lengthAdjust="spacing" textLength="255.0967" x="702" y="179.3467">logic_arc_int__orchestration__design</text><line style="stroke:#181818;stroke-width:0.5;" x1="674" x2="959.0967" y1="190.5" y2="190.5"/></g><!--class logic_arc_int__orchestration__user--><g id="elem_logic_arc_int__orchestration__user"><rect fill="#F1F1F1" height="40" id="logic_arc_int__orchestration__user" rx="2.5" ry="2.5" style="stroke:#181818;stroke-width:0.5;" width="271.1895" x="7" y="158.5"/><ellipse cx="22" cy="174.5" fill="#ADD1B2" rx="11" ry="11" style="stroke:#181818;stroke-width:1;"/><path d="M24.9688,180.1406 Q24.3906,180.4375 23.75,180.5781 Q23.1094,180.7344 22.4063,180.7344 Q19.9063,180.7344 18.5781,179.0938 Q17.2656,177.4375 17.2656,174.3125 Q17.2656,171.1875 18.5781,169.5313 Q19.9063,167.875 22.4063,167.875 Q23.1094,167.875 23.75,168.0313 Q24.4063,168.1875 24.9688,168.4844 L24.9688,171.2031 Q24.3438,170.625 23.75,170.3594 Q23.1563,170.0781 22.5313,170.0781 Q21.1875,170.0781 20.5,171.1563 Q19.8125,172.2188 19.8125,174.3125 Q19.8125,176.4063 20.5,177.4844 Q21.1875,178.5469 22.5313,178.5469 Q23.1563,178.5469 23.75,178.2813 Q24.3438,178 24.9688,177.4219 L24.9688,180.1406 Z " fill="#000000"/><text fill="#000000" font-family="sans-serif" font-size="14" lengthAdjust="spacing" textLength="239.1895" x="36" y="179.3467">logic_arc_int__orchestration__user</text><line style="stroke:#181818;stroke-width:0.5;" x1="8" x2="277.1895" y1="190.5" y2="190.5"/></g><!--class comp_arc_sta__orch__orchestrator--><g id="elem_comp_arc_sta__orch__orchestrator"><rect fill="#F1F1F1" height="40" id="comp_arc_sta__orch__orchestrator" rx="2.5" ry="2.5" style="stroke:#181818;stroke-width:0.5;" width="273.5068" x="338.5" y="275.5"/><ellipse cx="353.5" cy="291.5" fill="#ADD1B2" rx="11" ry="11" style="stroke:#181818;stroke-width:1;"/><path d="M356.4688,297.1406 Q355.8906,297.4375 355.25,297.5781 Q354.6094,297.7344 353.9063,297.7344 Q351.4063,297.7344 350.0781,296.0938 Q348.7656,294.4375 348.7656,291.3125 Q348.7656,288.1875 350.0781,286.5313 Q351.4063,284.875 353.9063,284.875 Q354.6094,284.875 355.25,285.0313 Q355.9063,285.1875 356.4688,285.4844 L356.4688,288.2031 Q355.8438,287.625 355.25,287.3594 Q354.6563,287.0781 354.0313,287.0781 Q352.6875,287.0781 352,288.1563 Q351.3125,289.2188 351.3125,291.3125 Q351.3125,293.4063 352,294.4844 Q352.6875,295.5469 354.0313,295.5469 Q354.6563,295.5469 355.25,295.2813 Q355.8438,295 356.4688,294.4219 L356.4688,297.1406 Z " fill="#000000"/><text fill="#000000" font-family="sans-serif" font-size="14" lengthAdjust="spacing" textLength="241.5068" x="367.5" y="296.3467">comp_arc_sta__orch__orchestrator</text><line style="stroke:#181818;stroke-width:0.5;" x1="339.5" x2="611.0068" y1="307.5" y2="307.5"/></g><!--class logic_arc_int__orchestration__deployment--><g id="elem_logic_arc_int__orchestration__deployment"><rect fill="#F1F1F1" height="40" id="logic_arc_int__orchestration__deployment" rx="2.5" ry="2.5" style="stroke:#181818;stroke-width:0.5;" width="324.3936" x="313.5" y="158.5"/><ellipse cx="328.5" cy="174.5" fill="#ADD1B2" rx="11" ry="11" style="stroke:#181818;stroke-width:1;"/><path d="M331.4688,180.1406 Q330.8906,180.4375 330.25,180.5781 Q329.6094,180.7344 328.9063,180.7344 Q326.4063,180.7344 325.0781,179.0938 Q323.7656,177.4375 323.7656,174.3125 Q323.7656,171.1875 325.0781,169.5313 Q326.4063,167.875 328.9063,167.875 Q329.6094,167.875 330.25,168.0313 Q330.9063,168.1875 331.4688,168.4844 L331.4688,171.2031 Q330.8438,170.625 330.25,170.3594 Q329.6563,170.0781 329.0313,170.0781 Q327.6875,170.0781 327,171.1563 Q326.3125,172.2188 326.3125,174.3125 Q326.3125,176.4063 327,177.4844 Q327.6875,178.5469 329.0313,178.5469 Q329.6563,178.5469 330.25,178.2813 Q330.8438,178 331.4688,177.4219 L331.4688,180.1406 Z " fill="#000000"/><text fill="#000000" font-family="sans-serif" font-size="14" lengthAdjust="spacing" textLength="292.3936" x="342.5" y="179.3467">logic_arc_int__orchestration__deployment</text><line style="stroke:#181818;stroke-width:0.5;" x1="314.5" x2="636.8936" y1="190.5" y2="190.5"/></g><!--link Feature_User to logic_arc_int__orchestration__design--><g id="link_Feature_User_logic_arc_int__orchestration__design"><path codeLine="15" d="M520.78,62.16 C584.92,87.18 696.1399,130.5604 762.1299,156.2904 " fill="transparent" id="Feature_User-to-logic_arc_int__orchestration__design" style="stroke:#181818;stroke-width:1;"/><polygon fill="#181818" points="767.72,158.47,760.7879,151.4738,763.0616,156.6536,757.8818,158.9273,767.72,158.47" style="stroke:#181818;stroke-width:1;"/><text fill="#000000" font-family="sans-serif" font-size="13" lengthAdjust="spacing" textLength="23.0103" x="688.5" y="124.5669">use</text></g><!--link Feature_User to logic_arc_int__orchestration__user--><g id="link_Feature_User_logic_arc_int__orchestration__user"><path codeLine="16" d="M430.24,62.58 C367.38,87.68 259.7318,130.6741 195.6518,156.2741 " fill="transparent" id="Feature_User-to-logic_arc_int__orchestration__user" style="stroke:#181818;stroke-width:1;"/><polygon fill="#181818" points="190.08,158.5,199.9217,158.8756,194.7232,156.645,196.9538,151.4465,190.08,158.5" style="stroke:#181818;stroke-width:1;"/><text fill="#000000" font-family="sans-serif" font-size="13" lengthAdjust="spacing" textLength="23.0103" x="300.5" y="124.5669">use</text></g><!--reverse link logic_arc_int__orchestration__design to comp_arc_sta__orch__orchestrator--><g id="link_logic_arc_int__orchestration__design_comp_arc_sta__orch__orchestrator"><path codeLine="17" d="M754.1246,200.5373 C690.9646,221.8373 595.14,254.15 532.04,275.43 " fill="transparent" id="logic_arc_int__orchestration__design-backto-comp_arc_sta__orch__orchestrator" style="stroke:#181818;stroke-width:1;"/><polygon fill="#181818" points="759.81,198.62,750.0037,197.7057,755.0722,200.2178,752.5601,205.2863,759.81,198.62" style="stroke:#181818;stroke-width:1;"/><text fill="#000000" font-family="sans-serif" font-size="13" lengthAdjust="spacing" textLength="76.9082" x="667.5" y="241.5669">implements</text></g><!--reverse link logic_arc_int__orchestration__deployment to comp_arc_sta__orch__orchestrator--><g id="link_logic_arc_int__orchestration__deployment_comp_arc_sta__orch__orchestrator"><path codeLine="18" d="M475.5,204.75 C475.5,225.98 475.5,253.94 475.5,275.19 " fill="transparent" id="logic_arc_int__orchestration__deployment-backto-comp_arc_sta__orch__orchestrator" style="stroke:#181818;stroke-width:1;"/><polygon fill="#181818" points="475.5,198.75,471.5,207.75,475.5,203.75,479.5,207.75,475.5,198.75" style="stroke:#181818;stroke-width:1;"/><text fill="#000000" font-family="sans-serif" font-size="13" lengthAdjust="spacing" textLength="76.9082" x="476.5" y="241.5669">implements</text></g><!--link Feature_User to logic_arc_int__orchestration__deployment--><g id="link_Feature_User_logic_arc_int__orchestration__deployment"><path codeLine="19" d="M475.5,81.55 C475.5,106.45 475.5,132.26 475.5,152.26 " fill="transparent" id="Feature_User-to-logic_arc_int__orchestration__deployment" style="stroke:#181818;stroke-width:1;"/><polygon fill="#181818" points="475.5,158.26,479.5,149.26,475.5,153.26,471.5,149.26,475.5,158.26" style="stroke:#181818;stroke-width:1;"/><text fill="#000000" font-family="sans-serif" font-size="13" lengthAdjust="spacing" textLength="23.0103" x="476.5" y="124.5669">use</text></g><!--reverse link logic_arc_int__orchestration__user to comp_arc_sta__orch__orchestrator--><g id="link_logic_arc_int__orchestration__user_comp_arc_sta__orch__orchestrator"><path codeLine="20" d="M203.5314,200.5785 C265.2114,221.8785 358.66,254.15 420.28,275.43 " fill="transparent" id="logic_arc_int__orchestration__user-backto-comp_arc_sta__orch__orchestrator" style="stroke:#181818;stroke-width:1;"/><polygon fill="#181818" points="197.86,198.62,205.0614,205.3386,202.5861,200.2521,207.6727,197.7768,197.86,198.62" style="stroke:#181818;stroke-width:1;"/><text fill="#000000" font-family="sans-serif" font-size="13" lengthAdjust="spacing" textLength="76.9082" x="330.5" y="241.5669">implements</text></g><!--SRC=[hP0nQyD038Nt-nKYkzFIiOGiXKuTc_auduKjUdSw99dMbFxtsh6XoTP0nYVUztXw8IN-z9c-gFJEk88nj6p66JeIZ4PSt40TWXeAiaqLLusvsWJ1JAWT3TKTrAQ4HxSFIgc5R_T61LyuiO1WTrRl0yMFWghmj7zqF-xmi34kH9jzkrSCDWh2IL5s41IsWryEuDoLRBhc28bxYZv8z5JCUvOue9g4fRZt7IhrvHb6HRWPdY7PqCYvddrgOVLTkkVcpVZlBfHhmep5z5wvDV6q15vdtxxLNyxTdbutlApr2m00]--></g></svg>