<svg xmlns="http://www.w3.org/2000/svg" xmlns:xlink="http://www.w3.org/1999/xlink" contentStyleType="text/css" data-diagram-type="CLASS" height="184px" preserveAspectRatio="none" style="width:2220px;height:184px;background:#FFFFFF;" version="1.1" viewBox="0 0 2220 184" width="2220px" zoomAndPan="magnify"><defs/><g><a href="../modules/communication/docs/index.html#mod_view_sta__com__communication" target="_top" title="../modules/communication/docs/index.html#mod_view_sta__com__communication" xlink:actuate="onRequest" xlink:href="../modules/communication/docs/index.html#mod_view_sta__com__communication" xlink:show="new" xlink:title="../modules/communication/docs/index.html#mod_view_sta__com__communication" xlink:type="simple"><path d="M1792,65.5 L1915.623,65.5 A3.75,3.75 0 0 1 1918.123,68 L1925.123,87.7969 L1929.623,87.7969 A2.5,2.5 0 0 1 1932.123,90.2969 L1932.123,115.5938 A2.5,2.5 0 0 1 1929.623,118.0938 L1792,118.0938 A2.5,2.5 0 0 1 1789.5,115.5938 L1789.5,68 A2.5,2.5 0 0 1 1792,65.5 " fill="#F1F1F1" style="stroke:#181818;stroke-width:0.5;"/><line style="stroke:#181818;stroke-width:0.5;" x1="1789.5" x2="1925.123" y1="87.7969" y2="87.7969"/><text fill="#000000" font-family="sans-serif" font-size="14" font-weight="bold" lengthAdjust="spacing" textLength="122.623" x="1793.5" y="80.4951">Communication</text></a><!--class logic_arc_int__communication__user--><a href="../features/communication/docs/architecture/index.html#logic_arc_int__communication__user" target="_top" title="../features/communication/docs/architecture/index.html#logic_arc_int__communication__user" xlink:actuate="onRequest" xlink:href="../features/communication/docs/architecture/index.html#logic_arc_int__communication__user" xlink:show="new" xlink:title="../features/communication/docs/architecture/index.html#logic_arc_int__communication__user" xlink:type="simple"><g id="elem_logic_arc_int__communication__user"><rect codeLine="13" fill="#F1F1F1" height="170.375" id="logic_arc_int__communication__user" rx="2.5" ry="2.5" style="stroke:#181818;stroke-width:0.5;" width="245.835" x="1968" y="7"/><ellipse cx="1983" cy="23" fill="#B4A7E5" rx="11" ry="11" style="stroke:#181818;stroke-width:1;"/><path d="M1978.9219,18.7656 L1978.9219,16.6094 L1986.3125,16.6094 L1986.3125,18.7656 L1983.8438,18.7656 L1983.8438,26.8438 L1986.3125,26.8438 L1986.3125,29 L1978.9219,29 L1978.9219,26.8438 L1981.3906,26.8438 L1981.3906,18.7656 L1978.9219,18.7656 Z " fill="#000000"/><text fill="#000000" font-family="sans-serif" font-size="14" font-style="italic" lengthAdjust="spacing" textLength="213.835" x="1997" y="27.8467">Communication User Interface</text><line style="stroke:#181818;stroke-width:0.5;" x1="1969" x2="2212.835" y1="39" y2="39"/></g><a href="../modules/communication/frontent/docs/architecture/index.html#logic_arc_int_op__com__initialize" target="_top" title="../modules/communication/frontent/docs/architecture/index.html#logic_arc_int_op__com__initialize" xlink:actuate="onRequest" xlink:href="../modules/communication/frontent/docs/architecture/index.html#logic_arc_int_op__com__initialize" xlink:show="new" xlink:title="../modules/communication/frontent/docs/architecture/index.html#logic_arc_int_op__com__initialize" xlink:type="simple"><rect fill="#F1F1F1" height="10" style="stroke:transparent;stroke-width:1;" width="20" x="1974" y="47.6484"/><ellipse cx="1979" cy="52.6484" fill="#84BE84" rx="3" ry="3" style="stroke:#038048;stroke-width:1;"/></a></a><a href="../modules/communication/frontent/docs/architecture/index.html#logic_arc_int_op__com__initialize" target="_top" title="../modules/communication/frontent/docs/architecture/index.html#logic_arc_int_op__com__initialize" xlink:actuate="onRequest" xlink:href="../modules/communication/frontent/docs/architecture/index.html#logic_arc_int_op__com__initialize" xlink:show="new" xlink:title="../modules/communication/frontent/docs/architecture/index.html#logic_arc_int_op__com__initialize" xlink:type="simple"><text fill="#000000" font-family="sans-serif" font-size="14" lengthAdjust="spacing" textLength="73.9648" x="1988" y="55.9951">Initialize ()</text></a><a href="../modules/communication/frontent/docs/architecture/index.html#logic_arc_int_op__com__offer_service" target="_top" title="../modules/communication/frontent/docs/architecture/index.html#logic_arc_int_op__com__offer_service" xlink:actuate="onRequest" xlink:href="../modules/communication/frontent/docs/architecture/index.html#logic_arc_int_op__com__offer_service" xlink:show="new" xlink:title="../modules/communication/frontent/docs/architecture/index.html#logic_arc_int_op__com__offer_service" xlink:type="simple"><rect fill="#F1F1F1" height="10" style="stroke:transparent;stroke-width:1;" width="20" x="1974" y="63.9453"/><ellipse cx="1979" cy="68.9453" fill="#84BE84" rx="3" ry="3" style="stroke:#038048;stroke-width:1;"/></a><a href="../modules/communication/frontent/docs/architecture/index.html#logic_arc_int_op__com__offer_service" target="_top" title="../modules/communication/frontent/docs/architecture/index.html#logic_arc_int_op__com__offer_service" xlink:actuate="onRequest" xlink:href="../modules/communication/frontent/docs/architecture/index.html#logic_arc_int_op__com__offer_service" xlink:show="new" xlink:title="../modules/communication/frontent/docs/architecture/index.html#logic_arc_int_op__com__offer_service" xlink:type="simple"><text fill="#000000" font-family="sans-serif" font-size="14" lengthAdjust="spacing" textLength="106.8115" x="1988" y="72.292">Offer Service ()</text></a><a href="../modules/communication/frontent/docs/architecture/index.html#logic_arc_int_op__com__update" target="_top" title="../modules/communication/frontent/docs/architecture/index.html#logic_arc_int_op__com__update" xlink:actuate="onRequest" xlink:href="../modules/communication/frontent/docs/architecture/index.html#logic_arc_int_op__com__update" xlink:show="new" xlink:title="../modules/communication/frontent/docs/architecture/index.html#logic_arc_int_op__com__update" xlink:type="simple"><rect fill="#F1F1F1" height="10" style="stroke:transparent;stroke-width:1;" width="20" x="1974" y="80.2422"/><ellipse cx="1979" cy="85.2422" fill="#84BE84" rx="3" ry="3" style="stroke:#038048;stroke-width:1;"/></a><a href="../modules/communication/frontent/docs/architecture/index.html#logic_arc_int_op__com__update" target="_top" title="../modules/communication/frontent/docs/architecture/index.html#logic_arc_int_op__com__update" xlink:actuate="onRequest" xlink:href="../modules/communication/frontent/docs/architecture/index.html#logic_arc_int_op__com__update" xlink:show="new" xlink:title="../modules/communication/frontent/docs/architecture/index.html#logic_arc_int_op__com__update" xlink:type="simple"><text fill="#000000" font-family="sans-serif" font-size="14" lengthAdjust="spacing" textLength="66.0762" x="1988" y="88.5889">Update ()</text></a><a href="../modules/communication/frontent/docs/architecture/index.html#logic_arc_int_op__com__send" target="_top" title="../modules/communication/frontent/docs/architecture/index.html#logic_arc_int_op__com__send" xlink:actuate="onRequest" xlink:href="../modules/communication/frontent/docs/architecture/index.html#logic_arc_int_op__com__send" xlink:show="new" xlink:title="../modules/communication/frontent/docs/architecture/index.html#logic_arc_int_op__com__send" xlink:type="simple"><rect fill="#F1F1F1" height="10" style="stroke:transparent;stroke-width:1;" width="20" x="1974" y="96.5391"/><ellipse cx="1979" cy="101.5391" fill="#84BE84" rx="3" ry="3" style="stroke:#038048;stroke-width:1;"/></a><a href="../modules/communication/frontent/docs/architecture/index.html#logic_arc_int_op__com__send" target="_top" title="../modules/communication/frontent/docs/architecture/index.html#logic_arc_int_op__com__send" xlink:actuate="onRequest" xlink:href="../modules/communication/frontent/docs/architecture/index.html#logic_arc_int_op__com__send" xlink:show="new" xlink:title="../modules/communication/frontent/docs/architecture/index.html#logic_arc_int_op__com__send" xlink:type="simple"><text fill="#000000" font-family="sans-serif" font-size="14" lengthAdjust="spacing" textLength="50.6338" x="1988" y="104.8857">Send ()</text></a><a href="../modules/communication/frontent/docs/architecture/index.html#logic_arc_int_op__com__startfindserv" target="_top" title="../modules/communication/frontent/docs/architecture/index.html#logic_arc_int_op__com__startfindserv" xlink:actuate="onRequest" xlink:href="../modules/communication/frontent/docs/architecture/index.html#logic_arc_int_op__com__startfindserv" xlink:show="new" xlink:title="../modules/communication/frontent/docs/architecture/index.html#logic_arc_int_op__com__startfindserv" xlink:type="simple"><rect fill="#F1F1F1" height="10" style="stroke:transparent;stroke-width:1;" width="20" x="1974" y="112.8359"/><ellipse cx="1979" cy="117.8359" fill="#84BE84" rx="3" ry="3" style="stroke:#038048;stroke-width:1;"/></a><a href="../modules/communication/frontent/docs/architecture/index.html#logic_arc_int_op__com__startfindserv" target="_top" title="../modules/communication/frontent/docs/architecture/index.html#logic_arc_int_op__com__startfindserv" xlink:actuate="onRequest" xlink:href="../modules/communication/frontent/docs/architecture/index.html#logic_arc_int_op__com__startfindserv" xlink:show="new" xlink:title="../modules/communication/frontent/docs/architecture/index.html#logic_arc_int_op__com__startfindserv" xlink:type="simple"><text fill="#000000" font-family="sans-serif" font-size="14" lengthAdjust="spacing" textLength="131.0176" x="1988" y="121.1826">StartFindService ()</text></a><a href="../modules/communication/frontent/docs/architecture/index.html#logic_arc_int_op__com__createproxy" target="_top" title="../modules/communication/frontent/docs/architecture/index.html#logic_arc_int_op__com__createproxy" xlink:actuate="onRequest" xlink:href="../modules/communication/frontent/docs/architecture/index.html#logic_arc_int_op__com__createproxy" xlink:show="new" xlink:title="../modules/communication/frontent/docs/architecture/index.html#logic_arc_int_op__com__createproxy" xlink:type="simple"><rect fill="#F1F1F1" height="10" style="stroke:transparent;stroke-width:1;" width="20" x="1974" y="129.1328"/><ellipse cx="1979" cy="134.1328" fill="#84BE84" rx="3" ry="3" style="stroke:#038048;stroke-width:1;"/></a><a href="../modules/communication/frontent/docs/architecture/index.html#logic_arc_int_op__com__createproxy" target="_top" title="../modules/communication/frontent/docs/architecture/index.html#logic_arc_int_op__com__createproxy" xlink:actuate="onRequest" xlink:href="../modules/communication/frontent/docs/architecture/index.html#logic_arc_int_op__com__createproxy" xlink:show="new" xlink:title="../modules/communication/frontent/docs/architecture/index.html#logic_arc_int_op__com__createproxy" xlink:type="simple"><text fill="#000000" font-family="sans-serif" font-size="14" lengthAdjust="spacing" textLength="101.5342" x="1988" y="137.4795">CreateProxy ()</text></a><a href="../modules/communication/frontent/docs/architecture/index.html#logic_arc_int_op__com__subscribe" target="_top" title="../modules/communication/frontent/docs/architecture/index.html#logic_arc_int_op__com__subscribe" xlink:actuate="onRequest" xlink:href="../modules/communication/frontent/docs/architecture/index.html#logic_arc_int_op__com__subscribe" xlink:show="new" xlink:title="../modules/communication/frontent/docs/architecture/index.html#logic_arc_int_op__com__subscribe" xlink:type="simple"><rect fill="#F1F1F1" height="10" style="stroke:transparent;stroke-width:1;" width="20" x="1974" y="145.4297"/><ellipse cx="1979" cy="150.4297" fill="#84BE84" rx="3" ry="3" style="stroke:#038048;stroke-width:1;"/></a><a href="../modules/communication/frontent/docs/architecture/index.html#logic_arc_int_op__com__subscribe" target="_top" title="../modules/communication/frontent/docs/architecture/index.html#logic_arc_int_op__com__subscribe" xlink:actuate="onRequest" xlink:href="../modules/communication/frontent/docs/architecture/index.html#logic_arc_int_op__com__subscribe" xlink:show="new" xlink:title="../modules/communication/frontent/docs/architecture/index.html#logic_arc_int_op__com__subscribe" xlink:type="simple"><text fill="#000000" font-family="sans-serif" font-size="14" lengthAdjust="spacing" textLength="84.1572" x="1988" y="153.7764">Subscribe ()</text></a><a href="../modules/communication/frontent/docs/architecture/index.html#logic_arc_int_op__com__getnewsamples" target="_top" title="../modules/communication/frontent/docs/architecture/index.html#logic_arc_int_op__com__getnewsamples" xlink:actuate="onRequest" xlink:href="../modules/communication/frontent/docs/architecture/index.html#logic_arc_int_op__com__getnewsamples" xlink:show="new" xlink:title="../modules/communication/frontent/docs/architecture/index.html#logic_arc_int_op__com__getnewsamples" xlink:type="simple"><rect fill="#F1F1F1" height="10" style="stroke:transparent;stroke-width:1;" width="20" x="1974" y="161.7266"/><ellipse cx="1979" cy="166.7266" fill="#84BE84" rx="3" ry="3" style="stroke:#038048;stroke-width:1;"/></a><a href="../modules/communication/frontent/docs/architecture/index.html#logic_arc_int_op__com__getnewsamples" target="_top" title="../modules/communication/frontent/docs/architecture/index.html#logic_arc_int_op__com__getnewsamples" xlink:actuate="onRequest" xlink:href="../modules/communication/frontent/docs/architecture/index.html#logic_arc_int_op__com__getnewsamples" xlink:show="new" xlink:title="../modules/communication/frontent/docs/architecture/index.html#logic_arc_int_op__com__getnewsamples" xlink:type="simple"><text fill="#000000" font-family="sans-serif" font-size="14" lengthAdjust="spacing" textLength="130.6484" x="1988" y="170.0732">GetNewSamples ()</text></a><!--class comp_arc_sta__com__ipc_binding--><g id="elem_comp_arc_sta__com__ipc_binding"><rect fill="#F1F1F1" height="40" id="comp_arc_sta__com__ipc_binding" rx="2.5" ry="2.5" style="stroke:#181818;stroke-width:0.5;" width="265.7412" x="7" y="72"/><ellipse cx="22" cy="88" fill="#ADD1B2" rx="11" ry="11" style="stroke:#181818;stroke-width:1;"/><path d="M24.9688,93.6406 Q24.3906,93.9375 23.75,94.0781 Q23.1094,94.2344 22.4063,94.2344 Q19.9063,94.2344 18.5781,92.5938 Q17.2656,90.9375 17.2656,87.8125 Q17.2656,84.6875 18.5781,83.0313 Q19.9063,81.375 22.4063,81.375 Q23.1094,81.375 23.75,81.5313 Q24.4063,81.6875 24.9688,81.9844 L24.9688,84.7031 Q24.3438,84.125 23.75,83.8594 Q23.1563,83.5781 22.5313,83.5781 Q21.1875,83.5781 20.5,84.6563 Q19.8125,85.7188 19.8125,87.8125 Q19.8125,89.9063 20.5,90.9844 Q21.1875,92.0469 22.5313,92.0469 Q23.1563,92.0469 23.75,91.7813 Q24.3438,91.5 24.9688,90.9219 L24.9688,93.6406 Z " fill="#000000"/><text fill="#000000" font-family="sans-serif" font-size="14" lengthAdjust="spacing" textLength="233.7412" x="36" y="92.8467">comp_arc_sta__com__ipc_binding</text><line style="stroke:#181818;stroke-width:0.5;" x1="8" x2="271.7412" y1="104" y2="104"/></g><!--class comp_arc_sta__com__frontend--><g id="elem_comp_arc_sta__com__frontend"><rect fill="#F1F1F1" height="40" id="comp_arc_sta__com__frontend" rx="2.5" ry="2.5" style="stroke:#181818;stroke-width:0.5;" width="246.0674" x="308" y="72"/><ellipse cx="323" cy="88" fill="#ADD1B2" rx="11" ry="11" style="stroke:#181818;stroke-width:1;"/><path d="M325.9688,93.6406 Q325.3906,93.9375 324.75,94.0781 Q324.1094,94.2344 323.4063,94.2344 Q320.9063,94.2344 319.5781,92.5938 Q318.2656,90.9375 318.2656,87.8125 Q318.2656,84.6875 319.5781,83.0313 Q320.9063,81.375 323.4063,81.375 Q324.1094,81.375 324.75,81.5313 Q325.4063,81.6875 325.9688,81.9844 L325.9688,84.7031 Q325.3438,84.125 324.75,83.8594 Q324.1563,83.5781 323.5313,83.5781 Q322.1875,83.5781 321.5,84.6563 Q320.8125,85.7188 320.8125,87.8125 Q320.8125,89.9063 321.5,90.9844 Q322.1875,92.0469 323.5313,92.0469 Q324.1563,92.0469 324.75,91.7813 Q325.3438,91.5 325.9688,90.9219 L325.9688,93.6406 Z " fill="#000000"/><text fill="#000000" font-family="sans-serif" font-size="14" lengthAdjust="spacing" textLength="214.0674" x="337" y="92.8467">comp_arc_sta__com__frontend</text><line style="stroke:#181818;stroke-width:0.5;" x1="309" x2="553.0674" y1="104" y2="104"/></g><!--class comp_arc_sta__com__mock_binding--><g id="elem_comp_arc_sta__com__mock_binding"><rect fill="#F1F1F1" height="40" id="comp_arc_sta__com__mock_binding" rx="2.5" ry="2.5" style="stroke:#181818;stroke-width:0.5;" width="283.2754" x="589.5" y="72"/><ellipse cx="604.5" cy="88" fill="#ADD1B2" rx="11" ry="11" style="stroke:#181818;stroke-width:1;"/><path d="M607.4688,93.6406 Q606.8906,93.9375 606.25,94.0781 Q605.6094,94.2344 604.9063,94.2344 Q602.4063,94.2344 601.0781,92.5938 Q599.7656,90.9375 599.7656,87.8125 Q599.7656,84.6875 601.0781,83.0313 Q602.4063,81.375 604.9063,81.375 Q605.6094,81.375 606.25,81.5313 Q606.9063,81.6875 607.4688,81.9844 L607.4688,84.7031 Q606.8438,84.125 606.25,83.8594 Q605.6563,83.5781 605.0313,83.5781 Q603.6875,83.5781 603,84.6563 Q602.3125,85.7188 602.3125,87.8125 Q602.3125,89.9063 603,90.9844 Q603.6875,92.0469 605.0313,92.0469 Q605.6563,92.0469 606.25,91.7813 Q606.8438,91.5 607.4688,90.9219 L607.4688,93.6406 Z " fill="#000000"/><text fill="#000000" font-family="sans-serif" font-size="14" lengthAdjust="spacing" textLength="251.2754" x="618.5" y="92.8467">comp_arc_sta__com__mock_binding</text><line style="stroke:#181818;stroke-width:0.5;" x1="590.5" x2="871.7754" y1="104" y2="104"/></g><!--class comp_arc_sta__com__configuration--><g id="elem_comp_arc_sta__com__configuration"><rect fill="#F1F1F1" height="40" id="comp_arc_sta__com__configuration" rx="2.5" ry="2.5" style="stroke:#181818;stroke-width:0.5;" width="278.9482" x="907.5" y="72"/><ellipse cx="922.5" cy="88" fill="#ADD1B2" rx="11" ry="11" style="stroke:#181818;stroke-width:1;"/><path d="M925.4688,93.6406 Q924.8906,93.9375 924.25,94.0781 Q923.6094,94.2344 922.9063,94.2344 Q920.4063,94.2344 919.0781,92.5938 Q917.7656,90.9375 917.7656,87.8125 Q917.7656,84.6875 919.0781,83.0313 Q920.4063,81.375 922.9063,81.375 Q923.6094,81.375 924.25,81.5313 Q924.9063,81.6875 925.4688,81.9844 L925.4688,84.7031 Q924.8438,84.125 924.25,83.8594 Q923.6563,83.5781 923.0313,83.5781 Q921.6875,83.5781 921,84.6563 Q920.3125,85.7188 920.3125,87.8125 Q920.3125,89.9063 921,90.9844 Q921.6875,92.0469 923.0313,92.0469 Q923.6563,92.0469 924.25,91.7813 Q924.8438,91.5 925.4688,90.9219 L925.4688,93.6406 Z " fill="#000000"/><text fill="#000000" font-family="sans-serif" font-size="14" lengthAdjust="spacing" textLength="246.9482" x="936.5" y="92.8467">comp_arc_sta__com__configuration</text><line style="stroke:#181818;stroke-width:0.5;" x1="908.5" x2="1185.4482" y1="104" y2="104"/></g><!--class logic_arc_int__tracing__tracing--><g id="elem_logic_arc_int__tracing__tracing"><rect fill="#F1F1F1" height="40" id="logic_arc_int__tracing__tracing" rx="2.5" ry="2.5" style="stroke:#181818;stroke-width:0.5;" width="245.5547" x="1222" y="72"/><ellipse cx="1237" cy="88" fill="#ADD1B2" rx="11" ry="11" style="stroke:#181818;stroke-width:1;"/><path d="M1239.9688,93.6406 Q1239.3906,93.9375 1238.75,94.0781 Q1238.1094,94.2344 1237.4063,94.2344 Q1234.9063,94.2344 1233.5781,92.5938 Q1232.2656,90.9375 1232.2656,87.8125 Q1232.2656,84.6875 1233.5781,83.0313 Q1234.9063,81.375 1237.4063,81.375 Q1238.1094,81.375 1238.75,81.5313 Q1239.4063,81.6875 1239.9688,81.9844 L1239.9688,84.7031 Q1239.3438,84.125 1238.75,83.8594 Q1238.1563,83.5781 1237.5313,83.5781 Q1236.1875,83.5781 1235.5,84.6563 Q1234.8125,85.7188 1234.8125,87.8125 Q1234.8125,89.9063 1235.5,90.9844 Q1236.1875,92.0469 1237.5313,92.0469 Q1238.1563,92.0469 1238.75,91.7813 Q1239.3438,91.5 1239.9688,90.9219 L1239.9688,93.6406 Z " fill="#000000"/><text fill="#000000" font-family="sans-serif" font-size="14" lengthAdjust="spacing" textLength="213.5547" x="1251" y="92.8467">logic_arc_int__tracing__tracing</text><line style="stroke:#181818;stroke-width:0.5;" x1="1223" x2="1466.5547" y1="104" y2="104"/></g><!--class logic_arc_int__logging__logging--><g id="elem_logic_arc_int__logging__logging"><rect fill="#F1F1F1" height="40" id="logic_arc_int__logging__logging" rx="2.5" ry="2.5" style="stroke:#181818;stroke-width:0.5;" width="250.9688" x="1503.5" y="72"/><ellipse cx="1518.5" cy="88" fill="#ADD1B2" rx="11" ry="11" style="stroke:#181818;stroke-width:1;"/><path d="M1521.4688,93.6406 Q1520.8906,93.9375 1520.25,94.0781 Q1519.6094,94.2344 1518.9063,94.2344 Q1516.4063,94.2344 1515.0781,92.5938 Q1513.7656,90.9375 1513.7656,87.8125 Q1513.7656,84.6875 1515.0781,83.0313 Q1516.4063,81.375 1518.9063,81.375 Q1519.6094,81.375 1520.25,81.5313 Q1520.9063,81.6875 1521.4688,81.9844 L1521.4688,84.7031 Q1520.8438,84.125 1520.25,83.8594 Q1519.6563,83.5781 1519.0313,83.5781 Q1517.6875,83.5781 1517,84.6563 Q1516.3125,85.7188 1516.3125,87.8125 Q1516.3125,89.9063 1517,90.9844 Q1517.6875,92.0469 1519.0313,92.0469 Q1519.6563,92.0469 1520.25,91.7813 Q1520.8438,91.5 1521.4688,90.9219 L1521.4688,93.6406 Z " fill="#000000"/><text fill="#000000" font-family="sans-serif" font-size="14" lengthAdjust="spacing" textLength="218.9688" x="1532.5" y="92.8467">logic_arc_int__logging__logging</text><line style="stroke:#181818;stroke-width:0.5;" x1="1504.5" x2="1753.4688" y1="104" y2="104"/></g><!--link comp_arc_sta__com__ipc_binding to comp_arc_sta__com__frontend--><!--link comp_arc_sta__com__frontend to comp_arc_sta__com__mock_binding--><!--link comp_arc_sta__com__mock_binding to comp_arc_sta__com__configuration--><!--link logic_arc_int__tracing__tracing to logic_arc_int__logging__logging--><!--SRC=[lPH1Qzj048Nl-ok6z92M4gdq778nj1HAMt1pCc9PhqRoO6bNx8vYkoN_lIF9QcCtMEIWtBJic_VD6qbZgihlT4rxSgLYtm1xM7jcNqDE0IsJTsf3EK9a3EZvqE1mnhhX0nZcGEkMCQhRo8SAxrHY8bLh-As-aiE5hto0W7b_-haXktKO8tnCFgX7TPiUQnGviI-CHRXQ-Bfk7LdJiU4-Oe0lu-qLc0YLBybg4woMAgtjKxtMRLS0grMIf0KQRWF6z4IIvjx6LCetn19G12cv7FV9XklgpRHvbaaszLwQ8YPJqI-4j-y4s15hdxVLVy0YU0dW-2Lat_HmBOSHasMPOByNXGHSOdWWEo_PToGT1z80lszom_DIsnunu9ReybbXKG1759l0dwJYDIORErWXkcwu0tyHv6F57y7l3xEYRSzfEiunUBkELlxXcHEFb07w6VaRxfQcReGpAxX4ThYB0wc3gqT8h-7Iae7h59HgZDsQydmVzGj8sjGFXBlkFOvZFV632sdw44_wdZAJTIFxvfcc-owL4d7Jn_vNJutLQq78JeURi99rdQFBRkxW6UrnkBcwS3TfKdkx7ObgudxIp7fNKDc6FgKwsySSZ1MJlm-dRcTYEPQz-FZm1m00]--></g></svg>