<svg xmlns="http://www.w3.org/2000/svg" xmlns:xlink="http://www.w3.org/1999/xlink" contentStyleType="text/css" data-diagram-type="CLASS" height="322px" preserveAspectRatio="none" style="width:608px;height:322px;background:#FFFFFF;" version="1.1" viewBox="0 0 608 322" width="608px" zoomAndPan="magnify"><defs/><g><!--entity Feature_User--><g id="elem_Feature_User"><ellipse cx="150.1685" cy="14" fill="#F1F1F1" rx="8" ry="8" style="stroke:#181818;stroke-width:0.5;"/><path d="M150.1685,22 L150.1685,49 M137.1685,30 L163.1685,30 M150.1685,49 L137.1685,64 M150.1685,49 L163.1685,64 " fill="transparent" style="stroke:#181818;stroke-width:0.5;"/><text fill="#000000" font-family="sans-serif" font-size="14" lengthAdjust="spacing" textLength="90.3369" x="105" y="78.4951">Feature User</text></g><!--class logic_arc_int__communication__user--><g id="elem_logic_arc_int__communication__user"><rect fill="#F1F1F1" height="40" id="logic_arc_int__communication__user" rx="2.5" ry="2.5" style="stroke:#181818;stroke-width:0.5;" width="286.0166" x="7" y="158.5"/><ellipse cx="22" cy="174.5" fill="#ADD1B2" rx="11" ry="11" style="stroke:#181818;stroke-width:1;"/><path d="M24.9688,180.1406 Q24.3906,180.4375 23.75,180.5781 Q23.1094,180.7344 22.4063,180.7344 Q19.9063,180.7344 18.5781,179.0938 Q17.2656,177.4375 17.2656,174.3125 Q17.2656,171.1875 18.5781,169.5313 Q19.9063,167.875 22.4063,167.875 Q23.1094,167.875 23.75,168.0313 Q24.4063,168.1875 24.9688,168.4844 L24.9688,171.2031 Q24.3438,170.625 23.75,170.3594 Q23.1563,170.0781 22.5313,170.0781 Q21.1875,170.0781 20.5,171.1563 Q19.8125,172.2188 19.8125,174.3125 Q19.8125,176.4063 20.5,177.4844 Q21.1875,178.5469 22.5313,178.5469 Q23.1563,178.5469 23.75,178.2813 Q24.3438,178 24.9688,177.4219 L24.9688,180.1406 Z " fill="#000000"/><text fill="#000000" font-family="sans-serif" font-size="14" lengthAdjust="spacing" textLength="254.0166" x="36" y="179.3467">logic_arc_int__communication__user</text><line style="stroke:#181818;stroke-width:0.5;" x1="8" x2="292.0166" y1="190.5" y2="190.5"/></g><!--class comp_arc_sta__com__frontend--><g id="elem_comp_arc_sta__com__frontend"><rect fill="#F1F1F1" height="40" id="comp_arc_sta__com__frontend" rx="2.5" ry="2.5" style="stroke:#181818;stroke-width:0.5;" width="246.0674" x="27" y="275.5"/><ellipse cx="42" cy="291.5" fill="#ADD1B2" rx="11" ry="11" style="stroke:#181818;stroke-width:1;"/><path d="M44.9688,297.1406 Q44.3906,297.4375 43.75,297.5781 Q43.1094,297.7344 42.4063,297.7344 Q39.9063,297.7344 38.5781,296.0938 Q37.2656,294.4375 37.2656,291.3125 Q37.2656,288.1875 38.5781,286.5313 Q39.9063,284.875 42.4063,284.875 Q43.1094,284.875 43.75,285.0313 Q44.4063,285.1875 44.9688,285.4844 L44.9688,288.2031 Q44.3438,287.625 43.75,287.3594 Q43.1563,287.0781 42.5313,287.0781 Q41.1875,287.0781 40.5,288.1563 Q39.8125,289.2188 39.8125,291.3125 Q39.8125,293.4063 40.5,294.4844 Q41.1875,295.5469 42.5313,295.5469 Q43.1563,295.5469 43.75,295.2813 Q44.3438,295 44.9688,294.4219 L44.9688,297.1406 Z " fill="#000000"/><text fill="#000000" font-family="sans-serif" font-size="14" lengthAdjust="spacing" textLength="214.0674" x="56" y="296.3467">comp_arc_sta__com__frontend</text><line style="stroke:#181818;stroke-width:0.5;" x1="28" x2="272.0674" y1="307.5" y2="307.5"/></g><!--class mod_view_sta__tracing__tracing--><g id="elem_mod_view_sta__tracing__tracing"><rect fill="#F1F1F1" height="40" id="mod_view_sta__tracing__tracing" rx="2.5" ry="2.5" style="stroke:#181818;stroke-width:0.5;" width="257.0322" x="336.5" y="23.5"/><ellipse cx="351.5" cy="39.5" fill="#ADD1B2" rx="11" ry="11" style="stroke:#181818;stroke-width:1;"/><path d="M354.4688,45.1406 Q353.8906,45.4375 353.25,45.5781 Q352.6094,45.7344 351.9063,45.7344 Q349.4063,45.7344 348.0781,44.0938 Q346.7656,42.4375 346.7656,39.3125 Q346.7656,36.1875 348.0781,34.5313 Q349.4063,32.875 351.9063,32.875 Q352.6094,32.875 353.25,33.0313 Q353.9063,33.1875 354.4688,33.4844 L354.4688,36.2031 Q353.8438,35.625 353.25,35.3594 Q352.6563,35.0781 352.0313,35.0781 Q350.6875,35.0781 350,36.1563 Q349.3125,37.2188 349.3125,39.3125 Q349.3125,41.4063 350,42.4844 Q350.6875,43.5469 352.0313,43.5469 Q352.6563,43.5469 353.25,43.2813 Q353.8438,43 354.4688,42.4219 L354.4688,45.1406 Z " fill="#000000"/><text fill="#000000" font-family="sans-serif" font-size="14" lengthAdjust="spacing" textLength="225.0322" x="365.5" y="44.3467">mod_view_sta__tracing__tracing</text><line style="stroke:#181818;stroke-width:0.5;" x1="337.5" x2="592.5322" y1="55.5" y2="55.5"/></g><!--class mod_view_sta__baselibs__baselibs--><g id="elem_mod_view_sta__baselibs__baselibs"><rect fill="#F1F1F1" height="40" id="mod_view_sta__baselibs__baselibs" rx="2.5" ry="2.5" style="stroke:#181818;stroke-width:0.5;" width="273.3564" x="328.5" y="158.5"/><ellipse cx="343.5" cy="174.5" fill="#ADD1B2" rx="11" ry="11" style="stroke:#181818;stroke-width:1;"/><path d="M346.4688,180.1406 Q345.8906,180.4375 345.25,180.5781 Q344.6094,180.7344 343.9063,180.7344 Q341.4063,180.7344 340.0781,179.0938 Q338.7656,177.4375 338.7656,174.3125 Q338.7656,171.1875 340.0781,169.5313 Q341.4063,167.875 343.9063,167.875 Q344.6094,167.875 345.25,168.0313 Q345.9063,168.1875 346.4688,168.4844 L346.4688,171.2031 Q345.8438,170.625 345.25,170.3594 Q344.6563,170.0781 344.0313,170.0781 Q342.6875,170.0781 342,171.1563 Q341.3125,172.2188 341.3125,174.3125 Q341.3125,176.4063 342,177.4844 Q342.6875,178.5469 344.0313,178.5469 Q344.6563,178.5469 345.25,178.2813 Q345.8438,178 346.4688,177.4219 L346.4688,180.1406 Z " fill="#000000"/><text fill="#000000" font-family="sans-serif" font-size="14" lengthAdjust="spacing" textLength="241.3564" x="357.5" y="179.3467">mod_view_sta__baselibs__baselibs</text><line style="stroke:#181818;stroke-width:0.5;" x1="329.5" x2="600.8564" y1="190.5" y2="190.5"/></g><!--link Feature_User to logic_arc_int__communication__user--><g id="link_Feature_User_logic_arc_int__communication__user"><path codeLine="15" d="M150,81.55 C150,106.45 150,132.26 150,152.26 " fill="transparent" id="Feature_User-to-logic_arc_int__communication__user" style="stroke:#181818;stroke-width:1;"/><polygon fill="#181818" points="150,158.26,154,149.26,150,153.26,146,149.26,150,158.26" style="stroke:#181818;stroke-width:1;"/><text fill="#000000" font-family="sans-serif" font-size="13" lengthAdjust="spacing" textLength="23.0103" x="151" y="124.5669">use</text></g><!--reverse link logic_arc_int__communication__user to comp_arc_sta__com__frontend--><g id="link_logic_arc_int__communication__user_comp_arc_sta__com__frontend"><path codeLine="16" d="M150,204.75 C150,225.98 150,253.94 150,275.19 " fill="transparent" id="logic_arc_int__communication__user-backto-comp_arc_sta__com__frontend" style="stroke:#181818;stroke-width:1;"/><polygon fill="#181818" points="150,198.75,146,207.75,150,203.75,154,207.75,150,198.75" style="stroke:#181818;stroke-width:1;"/><text fill="#000000" font-family="sans-serif" font-size="13" lengthAdjust="spacing" textLength="76.9082" x="151" y="241.5669">implements</text></g><!--link mod_view_sta__tracing__tracing to mod_view_sta__baselibs__baselibs--><!--SRC=[ZP0nJmCn38Nt_0gh-nN4YAekI4oCT48eyYMcjKZYAFPHJeZ_JdgjGDrOBB_dpq-MCIKv-ioVNFREf889Z68c6I8t2iPIt84ZWHer4fihdJNbQZEWMUDnCbAtKPiJRTqQbTC8N-w92pr8aWQDugAU3npU2wd2tVhMVRlDpMN7OR3EhHu9RMe4EwMs0bIu6FvaW7DNSeZ35fBiENXimNCnxuFaF1KEU3hS-wbpzz0hk3wf2wU62-VzMvDYL28Cqp-JEDT4cOffFoPBz1zCntEYDGpzYRyD32_zJv7AQy- -HaTKIZpgN_S3]--></g></svg>