<svg xmlns="http://www.w3.org/2000/svg" xmlns:xlink="http://www.w3.org/1999/xlink" contentStyleType="text/css" data-diagram-type="CLASS" height="322px" preserveAspectRatio="none" style="width:6201px;height:322px;background:#FFFFFF;" version="1.1" viewBox="0 0 6201 322" width="6201px" zoomAndPan="magnify"><defs/><g><!--entity Feature_User--><g id="elem_Feature_User"><ellipse cx="3206.6685" cy="14" fill="#F1F1F1" rx="8" ry="8" style="stroke:#181818;stroke-width:0.5;"/><path d="M3206.6685,22 L3206.6685,49 M3193.6685,30 L3219.6685,30 M3206.6685,49 L3193.6685,64 M3206.6685,49 L3219.6685,64 " fill="transparent" style="stroke:#181818;stroke-width:0.5;"/><text fill="#000000" font-family="sans-serif" font-size="14" lengthAdjust="spacing" textLength="90.3369" x="3161.5" y="78.4951">Feature User</text></g><!--class logic_arc_int__baselibs__task--><g id="elem_logic_arc_int__baselibs__task"><rect fill="#F1F1F1" height="40" id="logic_arc_int__baselibs__task" rx="2.5" ry="2.5" style="stroke:#181818;stroke-width:0.5;" width="234.0156" x="4727.5" y="158.5"/><ellipse cx="4742.5" cy="174.5" fill="#ADD1B2" rx="11" ry="11" style="stroke:#181818;stroke-width:1;"/><path d="M4745.4688,180.1406 Q4744.8906,180.4375 4744.25,180.5781 Q4743.6094,180.7344 4742.9063,180.7344 Q4740.4063,180.7344 4739.0781,179.0938 Q4737.7656,177.4375 4737.7656,174.3125 Q4737.7656,171.1875 4739.0781,169.5313 Q4740.4063,167.875 4742.9063,167.875 Q4743.6094,167.875 4744.25,168.0313 Q4744.9063,168.1875 4745.4688,168.4844 L4745.4688,171.2031 Q4744.8438,170.625 4744.25,170.3594 Q4743.6563,170.0781 4743.0313,170.0781 Q4741.6875,170.0781 4741,171.1563 Q4740.3125,172.2188 4740.3125,174.3125 Q4740.3125,176.4063 4741,177.4844 Q4741.6875,178.5469 4743.0313,178.5469 Q4743.6563,178.5469 4744.25,178.2813 Q4744.8438,178 4745.4688,177.4219 L4745.4688,180.1406 Z " fill="#000000"/><text fill="#000000" font-family="sans-serif" font-size="14" lengthAdjust="spacing" textLength="202.0156" x="4756.5" y="179.3467">logic_arc_int__baselibs__task</text><line style="stroke:#181818;stroke-width:0.5;" x1="4728.5" x2="4960.5156" y1="190.5" y2="190.5"/></g><!--class comp_arc_sta__baselibs__utils--><g id="elem_comp_arc_sta__baselibs__utils"><rect fill="#F1F1F1" height="40" id="comp_arc_sta__baselibs__utils" rx="2.5" ry="2.5" style="stroke:#181818;stroke-width:0.5;" width="242.9502" x="2552" y="275.5"/><ellipse cx="2567" cy="291.5" fill="#ADD1B2" rx="11" ry="11" style="stroke:#181818;stroke-width:1;"/><path d="M2569.9688,297.1406 Q2569.3906,297.4375 2568.75,297.5781 Q2568.1094,297.7344 2567.4063,297.7344 Q2564.9063,297.7344 2563.5781,296.0938 Q2562.2656,294.4375 2562.2656,291.3125 Q2562.2656,288.1875 2563.5781,286.5313 Q2564.9063,284.875 2567.4063,284.875 Q2568.1094,284.875 2568.75,285.0313 Q2569.4063,285.1875 2569.9688,285.4844 L2569.9688,288.2031 Q2569.3438,287.625 2568.75,287.3594 Q2568.1563,287.0781 2567.5313,287.0781 Q2566.1875,287.0781 2565.5,288.1563 Q2564.8125,289.2188 2564.8125,291.3125 Q2564.8125,293.4063 2565.5,294.4844 Q2566.1875,295.5469 2567.5313,295.5469 Q2568.1563,295.5469 2568.75,295.2813 Q2569.3438,295 2569.9688,294.4219 L2569.9688,297.1406 Z " fill="#000000"/><text fill="#000000" font-family="sans-serif" font-size="14" lengthAdjust="spacing" textLength="210.9502" x="2581" y="296.3467">comp_arc_sta__baselibs__utils</text><line style="stroke:#181818;stroke-width:0.5;" x1="2553" x2="2793.9502" y1="307.5" y2="307.5"/></g><!--class logic_arc_int__baselibs__utils_base64--><g id="elem_logic_arc_int__baselibs__utils_base64"><rect fill="#F1F1F1" height="40" id="logic_arc_int__baselibs__utils_base64" rx="2.5" ry="2.5" style="stroke:#181818;stroke-width:0.5;" width="292.1689" x="2412.5" y="158.5"/><ellipse cx="2427.5" cy="174.5" fill="#ADD1B2" rx="11" ry="11" style="stroke:#181818;stroke-width:1;"/><path d="M2430.4688,180.1406 Q2429.8906,180.4375 2429.25,180.5781 Q2428.6094,180.7344 2427.9063,180.7344 Q2425.4063,180.7344 2424.0781,179.0938 Q2422.7656,177.4375 2422.7656,174.3125 Q2422.7656,171.1875 2424.0781,169.5313 Q2425.4063,167.875 2427.9063,167.875 Q2428.6094,167.875 2429.25,168.0313 Q2429.9063,168.1875 2430.4688,168.4844 L2430.4688,171.2031 Q2429.8438,170.625 2429.25,170.3594 Q2428.6563,170.0781 2428.0313,170.0781 Q2426.6875,170.0781 2426,171.1563 Q2425.3125,172.2188 2425.3125,174.3125 Q2425.3125,176.4063 2426,177.4844 Q2426.6875,178.5469 2428.0313,178.5469 Q2428.6563,178.5469 2429.25,178.2813 Q2429.8438,178 2430.4688,177.4219 L2430.4688,180.1406 Z " fill="#000000"/><text fill="#000000" font-family="sans-serif" font-size="14" lengthAdjust="spacing" textLength="260.1689" x="2441.5" y="179.3467">logic_arc_int__baselibs__utils_base64</text><line style="stroke:#181818;stroke-width:0.5;" x1="2413.5" x2="2703.6689" y1="190.5" y2="190.5"/></g><!--class comp_arc_sta__baselibs__concurrency--><g id="elem_comp_arc_sta__baselibs__concurrency"><rect fill="#F1F1F1" height="40" id="comp_arc_sta__baselibs__concurrency" rx="2.5" ry="2.5" style="stroke:#181818;stroke-width:0.5;" width="300.2012" x="4526.5" y="275.5"/><ellipse cx="4541.5" cy="291.5" fill="#ADD1B2" rx="11" ry="11" style="stroke:#181818;stroke-width:1;"/><path d="M4544.4688,297.1406 Q4543.8906,297.4375 4543.25,297.5781 Q4542.6094,297.7344 4541.9063,297.7344 Q4539.4063,297.7344 4538.0781,296.0938 Q4536.7656,294.4375 4536.7656,291.3125 Q4536.7656,288.1875 4538.0781,286.5313 Q4539.4063,284.875 4541.9063,284.875 Q4542.6094,284.875 4543.25,285.0313 Q4543.9063,285.1875 4544.4688,285.4844 L4544.4688,288.2031 Q4543.8438,287.625 4543.25,287.3594 Q4542.6563,287.0781 4542.0313,287.0781 Q4540.6875,287.0781 4540,288.1563 Q4539.3125,289.2188 4539.3125,291.3125 Q4539.3125,293.4063 4540,294.4844 Q4540.6875,295.5469 4542.0313,295.5469 Q4542.6563,295.5469 4543.25,295.2813 Q4543.8438,295 4544.4688,294.4219 L4544.4688,297.1406 Z " fill="#000000"/><text fill="#000000" font-family="sans-serif" font-size="14" lengthAdjust="spacing" textLength="268.2012" x="4555.5" y="296.3467">comp_arc_sta__baselibs__concurrency</text><line style="stroke:#181818;stroke-width:0.5;" x1="4527.5" x2="4825.7012" y1="307.5" y2="307.5"/></g><!--class logic_arc_int__baselibs__future--><g id="elem_logic_arc_int__baselibs__future"><rect fill="#F1F1F1" height="40" id="logic_arc_int__baselibs__future" rx="2.5" ry="2.5" style="stroke:#181818;stroke-width:0.5;" width="247.0791" x="4997" y="158.5"/><ellipse cx="5012" cy="174.5" fill="#ADD1B2" rx="11" ry="11" style="stroke:#181818;stroke-width:1;"/><path d="M5014.9688,180.1406 Q5014.3906,180.4375 5013.75,180.5781 Q5013.1094,180.7344 5012.4063,180.7344 Q5009.9063,180.7344 5008.5781,179.0938 Q5007.2656,177.4375 5007.2656,174.3125 Q5007.2656,171.1875 5008.5781,169.5313 Q5009.9063,167.875 5012.4063,167.875 Q5013.1094,167.875 5013.75,168.0313 Q5014.4063,168.1875 5014.9688,168.4844 L5014.9688,171.2031 Q5014.3438,170.625 5013.75,170.3594 Q5013.1563,170.0781 5012.5313,170.0781 Q5011.1875,170.0781 5010.5,171.1563 Q5009.8125,172.2188 5009.8125,174.3125 Q5009.8125,176.4063 5010.5,177.4844 Q5011.1875,178.5469 5012.5313,178.5469 Q5013.1563,178.5469 5013.75,178.2813 Q5014.3438,178 5014.9688,177.4219 L5014.9688,180.1406 Z " fill="#000000"/><text fill="#000000" font-family="sans-serif" font-size="14" lengthAdjust="spacing" textLength="215.0791" x="5026" y="179.3467">logic_arc_int__baselibs__future</text><line style="stroke:#181818;stroke-width:0.5;" x1="4998" x2="5243.0791" y1="190.5" y2="190.5"/></g><!--class comp_arc_sta__baselibs__filesystem--><g id="elem_comp_arc_sta__baselibs__filesystem"><rect fill="#F1F1F1" height="40" id="comp_arc_sta__baselibs__filesystem" rx="2.5" ry="2.5" style="stroke:#181818;stroke-width:0.5;" width="285.4492" x="5909" y="275.5"/><ellipse cx="5924" cy="291.5" fill="#ADD1B2" rx="11" ry="11" style="stroke:#181818;stroke-width:1;"/><path d="M5926.9688,297.1406 Q5926.3906,297.4375 5925.75,297.5781 Q5925.1094,297.7344 5924.4063,297.7344 Q5921.9063,297.7344 5920.5781,296.0938 Q5919.2656,294.4375 5919.2656,291.3125 Q5919.2656,288.1875 5920.5781,286.5313 Q5921.9063,284.875 5924.4063,284.875 Q5925.1094,284.875 5925.75,285.0313 Q5926.4063,285.1875 5926.9688,285.4844 L5926.9688,288.2031 Q5926.3438,287.625 5925.75,287.3594 Q5925.1563,287.0781 5924.5313,287.0781 Q5923.1875,287.0781 5922.5,288.1563 Q5921.8125,289.2188 5921.8125,291.3125 Q5921.8125,293.4063 5922.5,294.4844 Q5923.1875,295.5469 5924.5313,295.5469 Q5925.1563,295.5469 5925.75,295.2813 Q5926.3438,295 5926.9688,294.4219 L5926.9688,297.1406 Z " fill="#000000"/><text fill="#000000" font-family="sans-serif" font-size="14" lengthAdjust="spacing" textLength="253.4492" x="5938" y="296.3467">comp_arc_sta__baselibs__filesystem</text><line style="stroke:#181818;stroke-width:0.5;" x1="5910" x2="6193.4492" y1="307.5" y2="307.5"/></g><!--class logic_arc_int__baselibs__filesystem--><g id="elem_logic_arc_int__baselibs__filesystem"><rect fill="#F1F1F1" height="40" id="logic_arc_int__baselibs__filesystem" rx="2.5" ry="2.5" style="stroke:#181818;stroke-width:0.5;" width="276.4805" x="5913.5" y="158.5"/><ellipse cx="5928.5" cy="174.5" fill="#ADD1B2" rx="11" ry="11" style="stroke:#181818;stroke-width:1;"/><path d="M5931.4688,180.1406 Q5930.8906,180.4375 5930.25,180.5781 Q5929.6094,180.7344 5928.9063,180.7344 Q5926.4063,180.7344 5925.0781,179.0938 Q5923.7656,177.4375 5923.7656,174.3125 Q5923.7656,171.1875 5925.0781,169.5313 Q5926.4063,167.875 5928.9063,167.875 Q5929.6094,167.875 5930.25,168.0313 Q5930.9063,168.1875 5931.4688,168.4844 L5931.4688,171.2031 Q5930.8438,170.625 5930.25,170.3594 Q5929.6563,170.0781 5929.0313,170.0781 Q5927.6875,170.0781 5927,171.1563 Q5926.3125,172.2188 5926.3125,174.3125 Q5926.3125,176.4063 5927,177.4844 Q5927.6875,178.5469 5929.0313,178.5469 Q5929.6563,178.5469 5930.25,178.2813 Q5930.8438,178 5931.4688,177.4219 L5931.4688,180.1406 Z " fill="#000000"/><text fill="#000000" font-family="sans-serif" font-size="14" lengthAdjust="spacing" textLength="244.4805" x="5942.5" y="179.3467">logic_arc_int__baselibs__filesystem</text><line style="stroke:#181818;stroke-width:0.5;" x1="5914.5" x2="6188.9805" y1="190.5" y2="190.5"/></g><!--class logic_arc_int__baselibs__condition_variable--><g id="elem_logic_arc_int__baselibs__condition_variable"><rect fill="#F1F1F1" height="40" id="logic_arc_int__baselibs__condition_variable" rx="2.5" ry="2.5" style="stroke:#181818;stroke-width:0.5;" width="332.7539" x="4043" y="158.5"/><ellipse cx="4058" cy="174.5" fill="#ADD1B2" rx="11" ry="11" style="stroke:#181818;stroke-width:1;"/><path d="M4060.9688,180.1406 Q4060.3906,180.4375 4059.75,180.5781 Q4059.1094,180.7344 4058.4063,180.7344 Q4055.9063,180.7344 4054.5781,179.0938 Q4053.2656,177.4375 4053.2656,174.3125 Q4053.2656,171.1875 4054.5781,169.5313 Q4055.9063,167.875 4058.4063,167.875 Q4059.1094,167.875 4059.75,168.0313 Q4060.4063,168.1875 4060.9688,168.4844 L4060.9688,171.2031 Q4060.3438,170.625 4059.75,170.3594 Q4059.1563,170.0781 4058.5313,170.0781 Q4057.1875,170.0781 4056.5,171.1563 Q4055.8125,172.2188 4055.8125,174.3125 Q4055.8125,176.4063 4056.5,177.4844 Q4057.1875,178.5469 4058.5313,178.5469 Q4059.1563,178.5469 4059.75,178.2813 Q4060.3438,178 4060.9688,177.4219 L4060.9688,180.1406 Z " fill="#000000"/><text fill="#000000" font-family="sans-serif" font-size="14" lengthAdjust="spacing" textLength="300.7539" x="4072" y="179.3467">logic_arc_int__baselibs__condition_variable</text><line style="stroke:#181818;stroke-width:0.5;" x1="4044" x2="4374.7539" y1="190.5" y2="190.5"/></g><!--class logic_arc_int__baselibs__bit_manipulation--><g id="elem_logic_arc_int__baselibs__bit_manipulation"><rect fill="#F1F1F1" height="40" id="logic_arc_int__baselibs__bit_manipulation" rx="2.5" ry="2.5" style="stroke:#181818;stroke-width:0.5;" width="321.8369" x="1684.5" y="158.5"/><ellipse cx="1699.5" cy="174.5" fill="#ADD1B2" rx="11" ry="11" style="stroke:#181818;stroke-width:1;"/><path d="M1702.4688,180.1406 Q1701.8906,180.4375 1701.25,180.5781 Q1700.6094,180.7344 1699.9063,180.7344 Q1697.4063,180.7344 1696.0781,179.0938 Q1694.7656,177.4375 1694.7656,174.3125 Q1694.7656,171.1875 1696.0781,169.5313 Q1697.4063,167.875 1699.9063,167.875 Q1700.6094,167.875 1701.25,168.0313 Q1701.9063,168.1875 1702.4688,168.4844 L1702.4688,171.2031 Q1701.8438,170.625 1701.25,170.3594 Q1700.6563,170.0781 1700.0313,170.0781 Q1698.6875,170.0781 1698,171.1563 Q1697.3125,172.2188 1697.3125,174.3125 Q1697.3125,176.4063 1698,177.4844 Q1698.6875,178.5469 1700.0313,178.5469 Q1700.6563,178.5469 1701.25,178.2813 Q1701.8438,178 1702.4688,177.4219 L1702.4688,180.1406 Z " fill="#000000"/><text fill="#000000" font-family="sans-serif" font-size="14" lengthAdjust="spacing" textLength="289.8369" x="1713.5" y="179.3467">logic_arc_int__baselibs__bit_manipulation</text><line style="stroke:#181818;stroke-width:0.5;" x1="1685.5" x2="2005.3369" y1="190.5" y2="190.5"/></g><!--class logic_arc_int__baselibs__synchronized_queue--><g id="elem_logic_arc_int__baselibs__synchronized_queue"><rect fill="#F1F1F1" height="40" id="logic_arc_int__baselibs__synchronized_queue" rx="2.5" ry="2.5" style="stroke:#181818;stroke-width:0.5;" width="348.3604" x="3358.5" y="158.5"/><ellipse cx="3373.5" cy="174.5" fill="#ADD1B2" rx="11" ry="11" style="stroke:#181818;stroke-width:1;"/><path d="M3376.4688,180.1406 Q3375.8906,180.4375 3375.25,180.5781 Q3374.6094,180.7344 3373.9063,180.7344 Q3371.4063,180.7344 3370.0781,179.0938 Q3368.7656,177.4375 3368.7656,174.3125 Q3368.7656,171.1875 3370.0781,169.5313 Q3371.4063,167.875 3373.9063,167.875 Q3374.6094,167.875 3375.25,168.0313 Q3375.9063,168.1875 3376.4688,168.4844 L3376.4688,171.2031 Q3375.8438,170.625 3375.25,170.3594 Q3374.6563,170.0781 3374.0313,170.0781 Q3372.6875,170.0781 3372,171.1563 Q3371.3125,172.2188 3371.3125,174.3125 Q3371.3125,176.4063 3372,177.4844 Q3372.6875,178.5469 3374.0313,178.5469 Q3374.6563,178.5469 3375.25,178.2813 Q3375.8438,178 3376.4688,177.4219 L3376.4688,180.1406 Z " fill="#000000"/><text fill="#000000" font-family="sans-serif" font-size="14" lengthAdjust="spacing" textLength="316.3604" x="3387.5" y="179.3467">logic_arc_int__baselibs__synchronized_queue</text><line style="stroke:#181818;stroke-width:0.5;" x1="3359.5" x2="3705.8604" y1="190.5" y2="190.5"/></g><!--class logic_arc_int__baselibs__task_result--><g id="elem_logic_arc_int__baselibs__task_result"><rect fill="#F1F1F1" height="40" id="logic_arc_int__baselibs__task_result" rx="2.5" ry="2.5" style="stroke:#181818;stroke-width:0.5;" width="280.9307" x="4411" y="158.5"/><ellipse cx="4426" cy="174.5" fill="#ADD1B2" rx="11" ry="11" style="stroke:#181818;stroke-width:1;"/><path d="M4428.9688,180.1406 Q4428.3906,180.4375 4427.75,180.5781 Q4427.1094,180.7344 4426.4063,180.7344 Q4423.9063,180.7344 4422.5781,179.0938 Q4421.2656,177.4375 4421.2656,174.3125 Q4421.2656,171.1875 4422.5781,169.5313 Q4423.9063,167.875 4426.4063,167.875 Q4427.1094,167.875 4427.75,168.0313 Q4428.4063,168.1875 4428.9688,168.4844 L4428.9688,171.2031 Q4428.3438,170.625 4427.75,170.3594 Q4427.1563,170.0781 4426.5313,170.0781 Q4425.1875,170.0781 4424.5,171.1563 Q4423.8125,172.2188 4423.8125,174.3125 Q4423.8125,176.4063 4424.5,177.4844 Q4425.1875,178.5469 4426.5313,178.5469 Q4427.1563,178.5469 4427.75,178.2813 Q4428.3438,178 4428.9688,177.4219 L4428.9688,180.1406 Z " fill="#000000"/><text fill="#000000" font-family="sans-serif" font-size="14" lengthAdjust="spacing" textLength="248.9307" x="4440" y="179.3467">logic_arc_int__baselibs__task_result</text><line style="stroke:#181818;stroke-width:0.5;" x1="4412" x2="4690.9307" y1="190.5" y2="190.5"/></g><!--class logic_arc_int__baselibs__executor--><g id="elem_logic_arc_int__baselibs__executor"><rect fill="#F1F1F1" height="40" id="logic_arc_int__baselibs__executor" rx="2.5" ry="2.5" style="stroke:#181818;stroke-width:0.5;" width="266.4385" x="3741.5" y="158.5"/><ellipse cx="3756.5" cy="174.5" fill="#ADD1B2" rx="11" ry="11" style="stroke:#181818;stroke-width:1;"/><path d="M3759.4688,180.1406 Q3758.8906,180.4375 3758.25,180.5781 Q3757.6094,180.7344 3756.9063,180.7344 Q3754.4063,180.7344 3753.0781,179.0938 Q3751.7656,177.4375 3751.7656,174.3125 Q3751.7656,171.1875 3753.0781,169.5313 Q3754.4063,167.875 3756.9063,167.875 Q3757.6094,167.875 3758.25,168.0313 Q3758.9063,168.1875 3759.4688,168.4844 L3759.4688,171.2031 Q3758.8438,170.625 3758.25,170.3594 Q3757.6563,170.0781 3757.0313,170.0781 Q3755.6875,170.0781 3755,171.1563 Q3754.3125,172.2188 3754.3125,174.3125 Q3754.3125,176.4063 3755,177.4844 Q3755.6875,178.5469 3757.0313,178.5469 Q3757.6563,178.5469 3758.25,178.2813 Q3758.8438,178 3759.4688,177.4219 L3759.4688,180.1406 Z " fill="#000000"/><text fill="#000000" font-family="sans-serif" font-size="14" lengthAdjust="spacing" textLength="234.4385" x="3770.5" y="179.3467">logic_arc_int__baselibs__executor</text><line style="stroke:#181818;stroke-width:0.5;" x1="3742.5" x2="4006.9385" y1="190.5" y2="190.5"/></g><!--class comp_arc_sta__baselibs__json--><g id="elem_comp_arc_sta__baselibs__json"><rect fill="#F1F1F1" height="40" id="comp_arc_sta__baselibs__json" rx="2.5" ry="2.5" style="stroke:#181818;stroke-width:0.5;" width="242.1367" x="3085.5" y="275.5"/><ellipse cx="3100.5" cy="291.5" fill="#ADD1B2" rx="11" ry="11" style="stroke:#181818;stroke-width:1;"/><path d="M3103.4688,297.1406 Q3102.8906,297.4375 3102.25,297.5781 Q3101.6094,297.7344 3100.9063,297.7344 Q3098.4063,297.7344 3097.0781,296.0938 Q3095.7656,294.4375 3095.7656,291.3125 Q3095.7656,288.1875 3097.0781,286.5313 Q3098.4063,284.875 3100.9063,284.875 Q3101.6094,284.875 3102.25,285.0313 Q3102.9063,285.1875 3103.4688,285.4844 L3103.4688,288.2031 Q3102.8438,287.625 3102.25,287.3594 Q3101.6563,287.0781 3101.0313,287.0781 Q3099.6875,287.0781 3099,288.1563 Q3098.3125,289.2188 3098.3125,291.3125 Q3098.3125,293.4063 3099,294.4844 Q3099.6875,295.5469 3101.0313,295.5469 Q3101.6563,295.5469 3102.25,295.2813 Q3102.8438,295 3103.4688,294.4219 L3103.4688,297.1406 Z " fill="#000000"/><text fill="#000000" font-family="sans-serif" font-size="14" lengthAdjust="spacing" textLength="210.1367" x="3114.5" y="296.3467">comp_arc_sta__baselibs__json</text><line style="stroke:#181818;stroke-width:0.5;" x1="3086.5" x2="3326.6367" y1="307.5" y2="307.5"/></g><!--class logic_arc_int__baselibs__json--><g id="elem_logic_arc_int__baselibs__json"><rect fill="#F1F1F1" height="40" id="logic_arc_int__baselibs__json" rx="2.5" ry="2.5" style="stroke:#181818;stroke-width:0.5;" width="233.168" x="3090" y="158.5"/><ellipse cx="3105" cy="174.5" fill="#ADD1B2" rx="11" ry="11" style="stroke:#181818;stroke-width:1;"/><path d="M3107.9688,180.1406 Q3107.3906,180.4375 3106.75,180.5781 Q3106.1094,180.7344 3105.4063,180.7344 Q3102.9063,180.7344 3101.5781,179.0938 Q3100.2656,177.4375 3100.2656,174.3125 Q3100.2656,171.1875 3101.5781,169.5313 Q3102.9063,167.875 3105.4063,167.875 Q3106.1094,167.875 3106.75,168.0313 Q3107.4063,168.1875 3107.9688,168.4844 L3107.9688,171.2031 Q3107.3438,170.625 3106.75,170.3594 Q3106.1563,170.0781 3105.5313,170.0781 Q3104.1875,170.0781 3103.5,171.1563 Q3102.8125,172.2188 3102.8125,174.3125 Q3102.8125,176.4063 3103.5,177.4844 Q3104.1875,178.5469 3105.5313,178.5469 Q3106.1563,178.5469 3106.75,178.2813 Q3107.3438,178 3107.9688,177.4219 L3107.9688,180.1406 Z " fill="#000000"/><text fill="#000000" font-family="sans-serif" font-size="14" lengthAdjust="spacing" textLength="201.168" x="3119" y="179.3467">logic_arc_int__baselibs__json</text><line style="stroke:#181818;stroke-width:0.5;" x1="3091" x2="3322.168" y1="190.5" y2="190.5"/></g><!--class logic_arc_int__baselibs__utils_scoped_op--><g id="elem_logic_arc_int__baselibs__utils_scoped_op"><rect fill="#F1F1F1" height="40" id="logic_arc_int__baselibs__utils_scoped_op" rx="2.5" ry="2.5" style="stroke:#181818;stroke-width:0.5;" width="315.377" x="2740" y="158.5"/><ellipse cx="2755" cy="174.5" fill="#ADD1B2" rx="11" ry="11" style="stroke:#181818;stroke-width:1;"/><path d="M2757.9688,180.1406 Q2757.3906,180.4375 2756.75,180.5781 Q2756.1094,180.7344 2755.4063,180.7344 Q2752.9063,180.7344 2751.5781,179.0938 Q2750.2656,177.4375 2750.2656,174.3125 Q2750.2656,171.1875 2751.5781,169.5313 Q2752.9063,167.875 2755.4063,167.875 Q2756.1094,167.875 2756.75,168.0313 Q2757.4063,168.1875 2757.9688,168.4844 L2757.9688,171.2031 Q2757.3438,170.625 2756.75,170.3594 Q2756.1563,170.0781 2755.5313,170.0781 Q2754.1875,170.0781 2753.5,171.1563 Q2752.8125,172.2188 2752.8125,174.3125 Q2752.8125,176.4063 2753.5,177.4844 Q2754.1875,178.5469 2755.5313,178.5469 Q2756.1563,178.5469 2756.75,178.2813 Q2757.3438,178 2757.9688,177.4219 L2757.9688,180.1406 Z " fill="#000000"/><text fill="#000000" font-family="sans-serif" font-size="14" lengthAdjust="spacing" textLength="283.377" x="2769" y="179.3467">logic_arc_int__baselibs__utils_scoped_op</text><line style="stroke:#181818;stroke-width:0.5;" x1="2741" x2="3054.377" y1="190.5" y2="190.5"/></g><!--class logic_arc_int__baselibs__dynamic_array--><g id="elem_logic_arc_int__baselibs__dynamic_array"><rect fill="#F1F1F1" height="40" id="logic_arc_int__baselibs__dynamic_array" rx="2.5" ry="2.5" style="stroke:#181818;stroke-width:0.5;" width="308.3496" x="978.5" y="158.5"/><ellipse cx="993.5" cy="174.5" fill="#ADD1B2" rx="11" ry="11" style="stroke:#181818;stroke-width:1;"/><path d="M996.4688,180.1406 Q995.8906,180.4375 995.25,180.5781 Q994.6094,180.7344 993.9063,180.7344 Q991.4063,180.7344 990.0781,179.0938 Q988.7656,177.4375 988.7656,174.3125 Q988.7656,171.1875 990.0781,169.5313 Q991.4063,167.875 993.9063,167.875 Q994.6094,167.875 995.25,168.0313 Q995.9063,168.1875 996.4688,168.4844 L996.4688,171.2031 Q995.8438,170.625 995.25,170.3594 Q994.6563,170.0781 994.0313,170.0781 Q992.6875,170.0781 992,171.1563 Q991.3125,172.2188 991.3125,174.3125 Q991.3125,176.4063 992,177.4844 Q992.6875,178.5469 994.0313,178.5469 Q994.6563,178.5469 995.25,178.2813 Q995.8438,178 996.4688,177.4219 L996.4688,180.1406 Z " fill="#000000"/><text fill="#000000" font-family="sans-serif" font-size="14" lengthAdjust="spacing" textLength="276.3496" x="1007.5" y="179.3467">logic_arc_int__baselibs__dynamic_array</text><line style="stroke:#181818;stroke-width:0.5;" x1="979.5" x2="1285.8496" y1="190.5" y2="190.5"/></g><!--class logic_arc_int__baselibs__message_passing--><g id="elem_logic_arc_int__baselibs__message_passing"><rect fill="#F1F1F1" height="40" id="logic_arc_int__baselibs__message_passing" rx="2.5" ry="2.5" style="stroke:#181818;stroke-width:0.5;" width="328.167" x="1321.5" y="158.5"/><ellipse cx="1336.5" cy="174.5" fill="#ADD1B2" rx="11" ry="11" style="stroke:#181818;stroke-width:1;"/><path d="M1339.4688,180.1406 Q1338.8906,180.4375 1338.25,180.5781 Q1337.6094,180.7344 1336.9063,180.7344 Q1334.4063,180.7344 1333.0781,179.0938 Q1331.7656,177.4375 1331.7656,174.3125 Q1331.7656,171.1875 1333.0781,169.5313 Q1334.4063,167.875 1336.9063,167.875 Q1337.6094,167.875 1338.25,168.0313 Q1338.9063,168.1875 1339.4688,168.4844 L1339.4688,171.2031 Q1338.8438,170.625 1338.25,170.3594 Q1337.6563,170.0781 1337.0313,170.0781 Q1335.6875,170.0781 1335,171.1563 Q1334.3125,172.2188 1334.3125,174.3125 Q1334.3125,176.4063 1335,177.4844 Q1335.6875,178.5469 1337.0313,178.5469 Q1337.6563,178.5469 1338.25,178.2813 Q1338.8438,178 1339.4688,177.4219 L1339.4688,180.1406 Z " fill="#000000"/><text fill="#000000" font-family="sans-serif" font-size="14" lengthAdjust="spacing" textLength="296.167" x="1350.5" y="179.3467">logic_arc_int__baselibs__message_passing</text><line style="stroke:#181818;stroke-width:0.5;" x1="1322.5" x2="1648.667" y1="190.5" y2="190.5"/></g><!--class comp_arc_sta__baselibs__bit_manipulation--><g id="elem_comp_arc_sta__baselibs__bit_manipulation"><rect fill="#F1F1F1" height="40" id="comp_arc_sta__baselibs__bit_manipulation" rx="2.5" ry="2.5" style="stroke:#181818;stroke-width:0.5;" width="330.8057" x="1778" y="275.5"/><ellipse cx="1793" cy="291.5" fill="#ADD1B2" rx="11" ry="11" style="stroke:#181818;stroke-width:1;"/><path d="M1795.9688,297.1406 Q1795.3906,297.4375 1794.75,297.5781 Q1794.1094,297.7344 1793.4063,297.7344 Q1790.9063,297.7344 1789.5781,296.0938 Q1788.2656,294.4375 1788.2656,291.3125 Q1788.2656,288.1875 1789.5781,286.5313 Q1790.9063,284.875 1793.4063,284.875 Q1794.1094,284.875 1794.75,285.0313 Q1795.4063,285.1875 1795.9688,285.4844 L1795.9688,288.2031 Q1795.3438,287.625 1794.75,287.3594 Q1794.1563,287.0781 1793.5313,287.0781 Q1792.1875,287.0781 1791.5,288.1563 Q1790.8125,289.2188 1790.8125,291.3125 Q1790.8125,293.4063 1791.5,294.4844 Q1792.1875,295.5469 1793.5313,295.5469 Q1794.1563,295.5469 1794.75,295.2813 Q1795.3438,295 1795.9688,294.4219 L1795.9688,297.1406 Z " fill="#000000"/><text fill="#000000" font-family="sans-serif" font-size="14" lengthAdjust="spacing" textLength="298.8057" x="1807" y="296.3467">comp_arc_sta__baselibs__bit_manipulation</text><line style="stroke:#181818;stroke-width:0.5;" x1="1779" x2="2107.8057" y1="307.5" y2="307.5"/></g><!--class logic_arc_int__baselibs__bit_mask_operator--><g id="elem_logic_arc_int__baselibs__bit_mask_operator"><rect fill="#F1F1F1" height="40" id="logic_arc_int__baselibs__bit_mask_operator" rx="2.5" ry="2.5" style="stroke:#181818;stroke-width:0.5;" width="334.6406" x="2042" y="158.5"/><ellipse cx="2057" cy="174.5" fill="#ADD1B2" rx="11" ry="11" style="stroke:#181818;stroke-width:1;"/><path d="M2059.9688,180.1406 Q2059.3906,180.4375 2058.75,180.5781 Q2058.1094,180.7344 2057.4063,180.7344 Q2054.9063,180.7344 2053.5781,179.0938 Q2052.2656,177.4375 2052.2656,174.3125 Q2052.2656,171.1875 2053.5781,169.5313 Q2054.9063,167.875 2057.4063,167.875 Q2058.1094,167.875 2058.75,168.0313 Q2059.4063,168.1875 2059.9688,168.4844 L2059.9688,171.2031 Q2059.3438,170.625 2058.75,170.3594 Q2058.1563,170.0781 2057.5313,170.0781 Q2056.1875,170.0781 2055.5,171.1563 Q2054.8125,172.2188 2054.8125,174.3125 Q2054.8125,176.4063 2055.5,177.4844 Q2056.1875,178.5469 2057.5313,178.5469 Q2058.1563,178.5469 2058.75,178.2813 Q2059.3438,178 2059.9688,177.4219 L2059.9688,180.1406 Z " fill="#000000"/><text fill="#000000" font-family="sans-serif" font-size="14" lengthAdjust="spacing" textLength="302.6406" x="2071" y="179.3467">logic_arc_int__baselibs__bit_mask_operator</text><line style="stroke:#181818;stroke-width:0.5;" x1="2043" x2="2375.6406" y1="190.5" y2="190.5"/></g><!--class comp_arc_sta__baselibs__message_passing--><g id="elem_comp_arc_sta__baselibs__message_passing"><rect fill="#F1F1F1" height="40" id="comp_arc_sta__baselibs__message_passing" rx="2.5" ry="2.5" style="stroke:#181818;stroke-width:0.5;" width="337.1357" x="1317" y="275.5"/><ellipse cx="1332" cy="291.5" fill="#ADD1B2" rx="11" ry="11" style="stroke:#181818;stroke-width:1;"/><path d="M1334.9688,297.1406 Q1334.3906,297.4375 1333.75,297.5781 Q1333.1094,297.7344 1332.4063,297.7344 Q1329.9063,297.7344 1328.5781,296.0938 Q1327.2656,294.4375 1327.2656,291.3125 Q1327.2656,288.1875 1328.5781,286.5313 Q1329.9063,284.875 1332.4063,284.875 Q1333.1094,284.875 1333.75,285.0313 Q1334.4063,285.1875 1334.9688,285.4844 L1334.9688,288.2031 Q1334.3438,287.625 1333.75,287.3594 Q1333.1563,287.0781 1332.5313,287.0781 Q1331.1875,287.0781 1330.5,288.1563 Q1329.8125,289.2188 1329.8125,291.3125 Q1329.8125,293.4063 1330.5,294.4844 Q1331.1875,295.5469 1332.5313,295.5469 Q1333.1563,295.5469 1333.75,295.2813 Q1334.3438,295 1334.9688,294.4219 L1334.9688,297.1406 Z " fill="#000000"/><text fill="#000000" font-family="sans-serif" font-size="14" lengthAdjust="spacing" textLength="305.1357" x="1346" y="296.3467">comp_arc_sta__baselibs__message_passing</text><line style="stroke:#181818;stroke-width:0.5;" x1="1318" x2="1653.1357" y1="307.5" y2="307.5"/></g><!--class logic_arc_int__baselibs__memory_shared--><g id="elem_logic_arc_int__baselibs__memory_shared"><rect fill="#F1F1F1" height="40" id="logic_arc_int__baselibs__memory_shared" rx="2.5" ry="2.5" style="stroke:#181818;stroke-width:0.5;" width="318.043" x="15.5" y="158.5"/><ellipse cx="30.5" cy="174.5" fill="#ADD1B2" rx="11" ry="11" style="stroke:#181818;stroke-width:1;"/><path d="M33.4688,180.1406 Q32.8906,180.4375 32.25,180.5781 Q31.6094,180.7344 30.9063,180.7344 Q28.4063,180.7344 27.0781,179.0938 Q25.7656,177.4375 25.7656,174.3125 Q25.7656,171.1875 27.0781,169.5313 Q28.4063,167.875 30.9063,167.875 Q31.6094,167.875 32.25,168.0313 Q32.9063,168.1875 33.4688,168.4844 L33.4688,171.2031 Q32.8438,170.625 32.25,170.3594 Q31.6563,170.0781 31.0313,170.0781 Q29.6875,170.0781 29,171.1563 Q28.3125,172.2188 28.3125,174.3125 Q28.3125,176.4063 29,177.4844 Q29.6875,178.5469 31.0313,178.5469 Q31.6563,178.5469 32.25,178.2813 Q32.8438,178 33.4688,177.4219 L33.4688,180.1406 Z " fill="#000000"/><text fill="#000000" font-family="sans-serif" font-size="14" lengthAdjust="spacing" textLength="286.043" x="44.5" y="179.3467">logic_arc_int__baselibs__memory_shared</text><line style="stroke:#181818;stroke-width:0.5;" x1="16.5" x2="332.543" y1="190.5" y2="190.5"/></g><!--class logic_arc_int__baselibs__promise--><g id="elem_logic_arc_int__baselibs__promise"><rect fill="#F1F1F1" height="40" id="logic_arc_int__baselibs__promise" rx="2.5" ry="2.5" style="stroke:#181818;stroke-width:0.5;" width="261.1885" x="5617" y="158.5"/><ellipse cx="5632" cy="174.5" fill="#ADD1B2" rx="11" ry="11" style="stroke:#181818;stroke-width:1;"/><path d="M5634.9688,180.1406 Q5634.3906,180.4375 5633.75,180.5781 Q5633.1094,180.7344 5632.4063,180.7344 Q5629.9063,180.7344 5628.5781,179.0938 Q5627.2656,177.4375 5627.2656,174.3125 Q5627.2656,171.1875 5628.5781,169.5313 Q5629.9063,167.875 5632.4063,167.875 Q5633.1094,167.875 5633.75,168.0313 Q5634.4063,168.1875 5634.9688,168.4844 L5634.9688,171.2031 Q5634.3438,170.625 5633.75,170.3594 Q5633.1563,170.0781 5632.5313,170.0781 Q5631.1875,170.0781 5630.5,171.1563 Q5629.8125,172.2188 5629.8125,174.3125 Q5629.8125,176.4063 5630.5,177.4844 Q5631.1875,178.5469 5632.5313,178.5469 Q5633.1563,178.5469 5633.75,178.2813 Q5634.3438,178 5634.9688,177.4219 L5634.9688,180.1406 Z " fill="#000000"/><text fill="#000000" font-family="sans-serif" font-size="14" lengthAdjust="spacing" textLength="229.1885" x="5646" y="179.3467">logic_arc_int__baselibs__promise</text><line style="stroke:#181818;stroke-width:0.5;" x1="5618" x2="5877.1885" y1="190.5" y2="190.5"/></g><!--class comp_arc_sta__baselibs__containers--><g id="elem_comp_arc_sta__baselibs__containers"><rect fill="#F1F1F1" height="40" id="comp_arc_sta__baselibs__containers" rx="2.5" ry="2.5" style="stroke:#181818;stroke-width:0.5;" width="287.1445" x="769" y="275.5"/><ellipse cx="784" cy="291.5" fill="#ADD1B2" rx="11" ry="11" style="stroke:#181818;stroke-width:1;"/><path d="M786.9688,297.1406 Q786.3906,297.4375 785.75,297.5781 Q785.1094,297.7344 784.4063,297.7344 Q781.9063,297.7344 780.5781,296.0938 Q779.2656,294.4375 779.2656,291.3125 Q779.2656,288.1875 780.5781,286.5313 Q781.9063,284.875 784.4063,284.875 Q785.1094,284.875 785.75,285.0313 Q786.4063,285.1875 786.9688,285.4844 L786.9688,288.2031 Q786.3438,287.625 785.75,287.3594 Q785.1563,287.0781 784.5313,287.0781 Q783.1875,287.0781 782.5,288.1563 Q781.8125,289.2188 781.8125,291.3125 Q781.8125,293.4063 782.5,294.4844 Q783.1875,295.5469 784.5313,295.5469 Q785.1563,295.5469 785.75,295.2813 Q786.3438,295 786.9688,294.4219 L786.9688,297.1406 Z " fill="#000000"/><text fill="#000000" font-family="sans-serif" font-size="14" lengthAdjust="spacing" textLength="255.1445" x="798" y="296.3467">comp_arc_sta__baselibs__containers</text><line style="stroke:#181818;stroke-width:0.5;" x1="770" x2="1055.1445" y1="307.5" y2="307.5"/></g><!--class logic_arc_int__baselibs__intrusive_list--><g id="elem_logic_arc_int__baselibs__intrusive_list"><rect fill="#F1F1F1" height="40" id="logic_arc_int__baselibs__intrusive_list" rx="2.5" ry="2.5" style="stroke:#181818;stroke-width:0.5;" width="293.0713" x="650" y="158.5"/><ellipse cx="665" cy="174.5" fill="#ADD1B2" rx="11" ry="11" style="stroke:#181818;stroke-width:1;"/><path d="M667.9688,180.1406 Q667.3906,180.4375 666.75,180.5781 Q666.1094,180.7344 665.4063,180.7344 Q662.9063,180.7344 661.5781,179.0938 Q660.2656,177.4375 660.2656,174.3125 Q660.2656,171.1875 661.5781,169.5313 Q662.9063,167.875 665.4063,167.875 Q666.1094,167.875 666.75,168.0313 Q667.4063,168.1875 667.9688,168.4844 L667.9688,171.2031 Q667.3438,170.625 666.75,170.3594 Q666.1563,170.0781 665.5313,170.0781 Q664.1875,170.0781 663.5,171.1563 Q662.8125,172.2188 662.8125,174.3125 Q662.8125,176.4063 663.5,177.4844 Q664.1875,178.5469 665.5313,178.5469 Q666.1563,178.5469 666.75,178.2813 Q667.3438,178 667.9688,177.4219 L667.9688,180.1406 Z " fill="#000000"/><text fill="#000000" font-family="sans-serif" font-size="14" lengthAdjust="spacing" textLength="261.0713" x="679" y="179.3467">logic_arc_int__baselibs__intrusive_list</text><line style="stroke:#181818;stroke-width:0.5;" x1="651" x2="942.0713" y1="190.5" y2="190.5"/></g><!--class logic_arc_int__baselibs__shared_future--><g id="elem_logic_arc_int__baselibs__shared_future"><rect fill="#F1F1F1" height="40" id="logic_arc_int__baselibs__shared_future" rx="2.5" ry="2.5" style="stroke:#181818;stroke-width:0.5;" width="302.0811" x="5279.5" y="158.5"/><ellipse cx="5294.5" cy="174.5" fill="#ADD1B2" rx="11" ry="11" style="stroke:#181818;stroke-width:1;"/><path d="M5297.4688,180.1406 Q5296.8906,180.4375 5296.25,180.5781 Q5295.6094,180.7344 5294.9063,180.7344 Q5292.4063,180.7344 5291.0781,179.0938 Q5289.7656,177.4375 5289.7656,174.3125 Q5289.7656,171.1875 5291.0781,169.5313 Q5292.4063,167.875 5294.9063,167.875 Q5295.6094,167.875 5296.25,168.0313 Q5296.9063,168.1875 5297.4688,168.4844 L5297.4688,171.2031 Q5296.8438,170.625 5296.25,170.3594 Q5295.6563,170.0781 5295.0313,170.0781 Q5293.6875,170.0781 5293,171.1563 Q5292.3125,172.2188 5292.3125,174.3125 Q5292.3125,176.4063 5293,177.4844 Q5293.6875,178.5469 5295.0313,178.5469 Q5295.6563,178.5469 5296.25,178.2813 Q5296.8438,178 5297.4688,177.4219 L5297.4688,180.1406 Z " fill="#000000"/><text fill="#000000" font-family="sans-serif" font-size="14" lengthAdjust="spacing" textLength="270.0811" x="5308.5" y="179.3467">logic_arc_int__baselibs__shared_future</text><line style="stroke:#181818;stroke-width:0.5;" x1="5280.5" x2="5580.5811" y1="190.5" y2="190.5"/></g><!--class logic_arc_int__baselibs__result--><g id="elem_logic_arc_int__baselibs__result"><rect fill="#F1F1F1" height="40" id="logic_arc_int__baselibs__result" rx="2.5" ry="2.5" style="stroke:#181818;stroke-width:0.5;" width="244.4609" x="370.5" y="158.5"/><ellipse cx="385.5" cy="174.5" fill="#ADD1B2" rx="11" ry="11" style="stroke:#181818;stroke-width:1;"/><path d="M388.4688,180.1406 Q387.8906,180.4375 387.25,180.5781 Q386.6094,180.7344 385.9063,180.7344 Q383.4063,180.7344 382.0781,179.0938 Q380.7656,177.4375 380.7656,174.3125 Q380.7656,171.1875 382.0781,169.5313 Q383.4063,167.875 385.9063,167.875 Q386.6094,167.875 387.25,168.0313 Q387.9063,168.1875 388.4688,168.4844 L388.4688,171.2031 Q387.8438,170.625 387.25,170.3594 Q386.6563,170.0781 386.0313,170.0781 Q384.6875,170.0781 384,171.1563 Q383.3125,172.2188 383.3125,174.3125 Q383.3125,176.4063 384,177.4844 Q384.6875,178.5469 386.0313,178.5469 Q386.6563,178.5469 387.25,178.2813 Q387.8438,178 388.4688,177.4219 L388.4688,180.1406 Z " fill="#000000"/><text fill="#000000" font-family="sans-serif" font-size="14" lengthAdjust="spacing" textLength="212.4609" x="399.5" y="179.3467">logic_arc_int__baselibs__result</text><line style="stroke:#181818;stroke-width:0.5;" x1="371.5" x2="613.9609" y1="190.5" y2="190.5"/></g><!--class comp_arc_sta__baselibs__result--><g id="elem_comp_arc_sta__baselibs__result"><rect fill="#F1F1F1" height="40" id="comp_arc_sta__baselibs__result" rx="2.5" ry="2.5" style="stroke:#181818;stroke-width:0.5;" width="253.4297" x="369" y="275.5"/><ellipse cx="384" cy="291.5" fill="#ADD1B2" rx="11" ry="11" style="stroke:#181818;stroke-width:1;"/><path d="M386.9688,297.1406 Q386.3906,297.4375 385.75,297.5781 Q385.1094,297.7344 384.4063,297.7344 Q381.9063,297.7344 380.5781,296.0938 Q379.2656,294.4375 379.2656,291.3125 Q379.2656,288.1875 380.5781,286.5313 Q381.9063,284.875 384.4063,284.875 Q385.1094,284.875 385.75,285.0313 Q386.4063,285.1875 386.9688,285.4844 L386.9688,288.2031 Q386.3438,287.625 385.75,287.3594 Q385.1563,287.0781 384.5313,287.0781 Q383.1875,287.0781 382.5,288.1563 Q381.8125,289.2188 381.8125,291.3125 Q381.8125,293.4063 382.5,294.4844 Q383.1875,295.5469 384.5313,295.5469 Q385.1563,295.5469 385.75,295.2813 Q386.3438,295 386.9688,294.4219 L386.9688,297.1406 Z " fill="#000000"/><text fill="#000000" font-family="sans-serif" font-size="14" lengthAdjust="spacing" textLength="221.4297" x="398" y="296.3467">comp_arc_sta__baselibs__result</text><line style="stroke:#181818;stroke-width:0.5;" x1="370" x2="621.4297" y1="307.5" y2="307.5"/></g><!--class comp_arc_sta__baselibs__memory_shared--><g id="elem_comp_arc_sta__baselibs__memory_shared"><rect fill="#F1F1F1" height="40" id="comp_arc_sta__baselibs__memory_shared" rx="2.5" ry="2.5" style="stroke:#181818;stroke-width:0.5;" width="327.0117" x="7" y="275.5"/><ellipse cx="22" cy="291.5" fill="#ADD1B2" rx="11" ry="11" style="stroke:#181818;stroke-width:1;"/><path d="M24.9688,297.1406 Q24.3906,297.4375 23.75,297.5781 Q23.1094,297.7344 22.4063,297.7344 Q19.9063,297.7344 18.5781,296.0938 Q17.2656,294.4375 17.2656,291.3125 Q17.2656,288.1875 18.5781,286.5313 Q19.9063,284.875 22.4063,284.875 Q23.1094,284.875 23.75,285.0313 Q24.4063,285.1875 24.9688,285.4844 L24.9688,288.2031 Q24.3438,287.625 23.75,287.3594 Q23.1563,287.0781 22.5313,287.0781 Q21.1875,287.0781 20.5,288.1563 Q19.8125,289.2188 19.8125,291.3125 Q19.8125,293.4063 20.5,294.4844 Q21.1875,295.5469 22.5313,295.5469 Q23.1563,295.5469 23.75,295.2813 Q24.3438,295 24.9688,294.4219 L24.9688,297.1406 Z " fill="#000000"/><text fill="#000000" font-family="sans-serif" font-size="14" lengthAdjust="spacing" textLength="295.0117" x="36" y="296.3467">comp_arc_sta__baselibs__memory_shared</text><line style="stroke:#181818;stroke-width:0.5;" x1="8" x2="333.0117" y1="307.5" y2="307.5"/></g><!--link Feature_User to logic_arc_int__baselibs__task--><g id="link_Feature_User_logic_arc_int__baselibs__task"><path codeLine="15" d="M3251.8,46.78 C3434.6,56.2 4135.69,94.72 4709.5,158.5 C4715.38,159.15 4715.444,159.1351 4721.524,159.8751 " fill="transparent" id="Feature_User-to-logic_arc_int__baselibs__task" style="stroke:#181818;stroke-width:1;"/><polygon fill="#181818" points="4727.48,160.6,4719.0292,155.5419,4722.5166,159.9959,4718.0627,163.4833,4727.48,160.6" style="stroke:#181818;stroke-width:1;"/><text fill="#000000" font-family="sans-serif" font-size="13" lengthAdjust="spacing" textLength="23.0103" x="4382.5" y="124.5669">use</text></g><!--reverse link logic_arc_int__baselibs__utils_base64 to comp_arc_sta__baselibs__utils--><g id="link_logic_arc_int__baselibs__utils_base64_comp_arc_sta__baselibs__utils"><path codeLine="16" d="M2581.9926,202.9926 C2603.2226,224.2226 2632.94,253.94 2654.19,275.19 " fill="transparent" id="logic_arc_int__baselibs__utils_base64-backto-comp_arc_sta__baselibs__utils" style="stroke:#181818;stroke-width:1;"/><polygon fill="#181818" points="2577.75,198.75,2581.2855,207.9424,2581.2855,202.2855,2586.9424,202.2855,2577.75,198.75" style="stroke:#181818;stroke-width:1;"/><text fill="#000000" font-family="sans-serif" font-size="13" lengthAdjust="spacing" textLength="76.9082" x="2624.5" y="241.5669">implements</text></g><!--reverse link logic_arc_int__baselibs__future to comp_arc_sta__baselibs__concurrency--><g id="link_logic_arc_int__baselibs__future_comp_arc_sta__baselibs__concurrency"><path codeLine="17" d="M5040.8717,200.1245 C4958.6417,221.4245 4832.28,254.15 4750.12,275.43 " fill="transparent" id="logic_arc_int__baselibs__future-backto-comp_arc_sta__baselibs__concurrency" style="stroke:#181818;stroke-width:1;"/><polygon fill="#181818" points="5046.68,198.62,5036.9645,197.0046,5041.8397,199.8738,5038.9706,204.749,5046.68,198.62" style="stroke:#181818;stroke-width:1;"/><text fill="#000000" font-family="sans-serif" font-size="13" lengthAdjust="spacing" textLength="76.9082" x="4925.5" y="241.5669">implements</text></g><!--reverse link logic_arc_int__baselibs__task to comp_arc_sta__baselibs__concurrency--><g id="link_logic_arc_int__baselibs__task_comp_arc_sta__baselibs__concurrency"><path codeLine="18" d="M4811.429,202.1393 C4780.329,223.4293 4735.46,254.14 4704.43,275.38 " fill="transparent" id="logic_arc_int__baselibs__task-backto-comp_arc_sta__baselibs__concurrency" style="stroke:#181818;stroke-width:1;"/><polygon fill="#181818" points="4816.38,198.75,4806.6939,200.5333,4812.2541,201.5744,4811.213,207.1346,4816.38,198.75" style="stroke:#181818;stroke-width:1;"/><text fill="#000000" font-family="sans-serif" font-size="13" lengthAdjust="spacing" textLength="76.9082" x="4771.5" y="241.5669">implements</text></g><!--reverse link logic_arc_int__baselibs__filesystem to comp_arc_sta__baselibs__filesystem--><g id="link_logic_arc_int__baselibs__filesystem_comp_arc_sta__baselibs__filesystem"><path codeLine="19" d="M6051.5,204.75 C6051.5,225.98 6051.5,253.94 6051.5,275.19 " fill="transparent" id="logic_arc_int__baselibs__filesystem-backto-comp_arc_sta__baselibs__filesystem" style="stroke:#181818;stroke-width:1;"/><polygon fill="#181818" points="6051.5,198.75,6047.5,207.75,6051.5,203.75,6055.5,207.75,6051.5,198.75" style="stroke:#181818;stroke-width:1;"/><text fill="#000000" font-family="sans-serif" font-size="13" lengthAdjust="spacing" textLength="76.9082" x="6052.5" y="241.5669">implements</text></g><!--link Feature_User to logic_arc_int__baselibs__condition_variable--><g id="link_Feature_User_logic_arc_int__baselibs__condition_variable"><path codeLine="20" d="M3251.55,50.47 C3393.44,69.29 3829.4321,127.1013 4060.1221,157.6913 " fill="transparent" id="Feature_User-to-logic_arc_int__baselibs__condition_variable" style="stroke:#181818;stroke-width:1;"/><polygon fill="#181818" points="4066.07,158.48,4057.6739,153.3316,4061.1134,157.8227,4056.6223,161.2622,4066.07,158.48" style="stroke:#181818;stroke-width:1;"/><text fill="#000000" font-family="sans-serif" font-size="13" lengthAdjust="spacing" textLength="23.0103" x="3828.5" y="124.5669">use</text></g><!--reverse link logic_arc_int__baselibs__condition_variable to comp_arc_sta__baselibs__concurrency--><g id="link_logic_arc_int__baselibs__condition_variable_comp_arc_sta__baselibs__concurrency"><path codeLine="21" d="M4292.7059,199.9847 C4379.1559,221.2747 4512.46,254.11 4598.97,275.41 " fill="transparent" id="logic_arc_int__baselibs__condition_variable-backto-comp_arc_sta__baselibs__concurrency" style="stroke:#181818;stroke-width:1;"/><polygon fill="#181818" points="4286.88,198.55,4294.6624,204.5861,4291.7349,199.7456,4296.5754,196.8182,4286.88,198.55" style="stroke:#181818;stroke-width:1;"/><text fill="#000000" font-family="sans-serif" font-size="13" lengthAdjust="spacing" textLength="76.9082" x="4472.5" y="241.5669">implements</text></g><!--link Feature_User to logic_arc_int__baselibs__bit_manipulation--><g id="link_Feature_User_logic_arc_int__baselibs__bit_manipulation"><path codeLine="22" d="M3161.39,48.69 C3004.43,63.32 2467.54,113.62 2024.5,158.5 C2018.75,159.08 2018.8583,159.064 2012.9483,159.674 " fill="transparent" id="Feature_User-to-logic_arc_int__baselibs__bit_manipulation" style="stroke:#181818;stroke-width:1;"/><polygon fill="#181818" points="2006.98,160.29,2016.3431,163.3448,2011.9536,159.7767,2015.5218,155.3871,2006.98,160.29" style="stroke:#181818;stroke-width:1;"/><text fill="#000000" font-family="sans-serif" font-size="13" lengthAdjust="spacing" textLength="23.0103" x="2480.5" y="124.5669">use</text></g><!--link Feature_User to logic_arc_int__baselibs__synchronized_queue--><g id="link_Feature_User_logic_arc_int__baselibs__synchronized_queue"><path codeLine="23" d="M3251.83,62.99 C3313.5,88.15 3417.7344,130.684 3480.1544,156.144 " fill="transparent" id="Feature_User-to-logic_arc_int__baselibs__synchronized_queue" style="stroke:#181818;stroke-width:1;"/><polygon fill="#181818" points="3485.71,158.41,3478.8872,151.3072,3481.0803,156.5216,3475.8659,158.7147,3485.71,158.41" style="stroke:#181818;stroke-width:1;"/><text fill="#000000" font-family="sans-serif" font-size="13" lengthAdjust="spacing" textLength="23.0103" x="3409.5" y="124.5669">use</text></g><!--link Feature_User to logic_arc_int__baselibs__task_result--><g id="link_Feature_User_logic_arc_int__baselibs__task_result"><path codeLine="24" d="M3251.55,48.43 C3408.9,62.26 3948.66,110.4 4393.5,158.5 C4399.13,159.11 4398.9073,159.0718 4404.7073,159.7218 " fill="transparent" id="Feature_User-to-logic_arc_int__baselibs__task_result" style="stroke:#181818;stroke-width:1;"/><polygon fill="#181818" points="4410.67,160.39,4402.1715,155.4125,4405.7011,159.8331,4401.2805,163.3628,4410.67,160.39" style="stroke:#181818;stroke-width:1;"/><text fill="#000000" font-family="sans-serif" font-size="13" lengthAdjust="spacing" textLength="23.0103" x="4102.5" y="124.5669">use</text></g><!--reverse link logic_arc_int__baselibs__executor to comp_arc_sta__baselibs__concurrency--><g id="link_logic_arc_int__baselibs__executor_comp_arc_sta__baselibs__concurrency"><path codeLine="25" d="M4010.8473,199.415 C4101.7973,212.665 4220.06,229.84 4329.5,245.5 C4399.21,255.48 4476.82,266.45 4540.94,275.48 " fill="transparent" id="logic_arc_int__baselibs__executor-backto-comp_arc_sta__baselibs__concurrency" style="stroke:#181818;stroke-width:1;"/><polygon fill="#181818" points="4004.91,198.55,4013.2393,203.8057,4009.8578,199.2708,4014.3926,195.8892,4004.91,198.55" style="stroke:#181818;stroke-width:1;"/><text fill="#000000" font-family="sans-serif" font-size="13" lengthAdjust="spacing" textLength="76.9082" x="4330.5" y="241.5669">implements</text></g><!--reverse link logic_arc_int__baselibs__json to comp_arc_sta__baselibs__json--><g id="link_logic_arc_int__baselibs__json_comp_arc_sta__baselibs__json"><path codeLine="26" d="M3206.5,204.75 C3206.5,225.98 3206.5,253.94 3206.5,275.19 " fill="transparent" id="logic_arc_int__baselibs__json-backto-comp_arc_sta__baselibs__json" style="stroke:#181818;stroke-width:1;"/><polygon fill="#181818" points="3206.5,198.75,3202.5,207.75,3206.5,203.75,3210.5,207.75,3206.5,198.75" style="stroke:#181818;stroke-width:1;"/><text fill="#000000" font-family="sans-serif" font-size="13" lengthAdjust="spacing" textLength="76.9082" x="3207.5" y="241.5669">implements</text></g><!--link Feature_User to logic_arc_int__baselibs__utils_scoped_op--><g id="link_Feature_User_logic_arc_int__baselibs__utils_scoped_op"><path codeLine="27" d="M3161.24,63.98 C3102.4,89.31 3005.7911,130.8876 2947.3911,156.0276 " fill="transparent" id="Feature_User-to-logic_arc_int__baselibs__utils_scoped_op" style="stroke:#181818;stroke-width:1;"/><polygon fill="#181818" points="2941.88,158.4,2951.7282,158.5154,2946.4725,156.423,2948.565,151.1674,2941.88,158.4" style="stroke:#181818;stroke-width:1;"/><text fill="#000000" font-family="sans-serif" font-size="13" lengthAdjust="spacing" textLength="23.0103" x="3044.5" y="124.5669">use</text></g><!--link Feature_User to logic_arc_int__baselibs__dynamic_array--><g id="link_Feature_User_logic_arc_int__baselibs__dynamic_array"><path codeLine="28" d="M3161.48,46.25 C2951.16,54.6 2044.46,92.84 1303.5,158.5 C1298,158.99 1298.3628,158.9291 1292.7128,159.4691 " fill="transparent" id="Feature_User-to-logic_arc_int__baselibs__dynamic_array" style="stroke:#181818;stroke-width:1;"/><polygon fill="#181818" points="1286.74,160.04,1296.0797,163.1656,1291.7173,159.5643,1295.3186,155.2019,1286.74,160.04" style="stroke:#181818;stroke-width:1;"/><text fill="#000000" font-family="sans-serif" font-size="13" lengthAdjust="spacing" textLength="23.0103" x="1879.5" y="124.5669">use</text></g><!--reverse link logic_arc_int__baselibs__synchronized_queue to comp_arc_sta__baselibs__concurrency--><g id="link_logic_arc_int__baselibs__synchronized_queue_comp_arc_sta__baselibs__concurrency"><path codeLine="29" d="M3702.9915,199.2085 C3823.2815,212.8985 3984.45,230.79 4131.5,245.5 C4264.9,258.85 4416.85,272.37 4526.35,281.82 " fill="transparent" id="logic_arc_int__baselibs__synchronized_queue-backto-comp_arc_sta__baselibs__concurrency" style="stroke:#181818;stroke-width:1;"/><polygon fill="#181818" points="3697.03,198.53,3705.52,203.522,3701.9979,199.0954,3706.4246,195.5734,3697.03,198.53" style="stroke:#181818;stroke-width:1;"/><text fill="#000000" font-family="sans-serif" font-size="13" lengthAdjust="spacing" textLength="76.9082" x="4132.5" y="241.5669">implements</text></g><!--link Feature_User to logic_arc_int__baselibs__message_passing--><g id="link_Feature_User_logic_arc_int__baselibs__message_passing"><path codeLine="30" d="M3161.42,47.33 C2976.37,59.05 2256.96,105.67 1666.5,158.5 C1660.99,158.99 1661.3638,158.9496 1655.7138,159.4796 " fill="transparent" id="Feature_User-to-logic_arc_int__baselibs__message_passing" style="stroke:#181818;stroke-width:1;"/><polygon fill="#181818" points="1649.74,160.04,1659.0742,163.182,1654.7181,159.573,1658.3271,155.2169,1649.74,160.04" style="stroke:#181818;stroke-width:1;"/><text fill="#000000" font-family="sans-serif" font-size="13" lengthAdjust="spacing" textLength="23.0103" x="2218.5" y="124.5669">use</text></g><!--link Feature_User to logic_arc_int__baselibs__filesystem--><g id="link_Feature_User_logic_arc_int__baselibs__filesystem"><path codeLine="31" d="M3251.8,45.22 C3473.7,48.91 4468.13,67.26 5281.5,111.5 C5554.78,126.36 5623.15,131.5 5895.5,158.5 C5901.34,159.08 5901.3247,159.0459 5907.3447,159.6959 " fill="transparent" id="Feature_User-to-logic_arc_int__baselibs__filesystem" style="stroke:#181818;stroke-width:1;"/><polygon fill="#181818" points="5913.31,160.34,5904.7914,155.397,5908.3389,159.8033,5903.9326,163.3507,5913.31,160.34" style="stroke:#181818;stroke-width:1;"/><text fill="#000000" font-family="sans-serif" font-size="13" lengthAdjust="spacing" textLength="23.0103" x="5558.5" y="124.5669">use</text></g><!--reverse link logic_arc_int__baselibs__bit_manipulation to comp_arc_sta__baselibs__bit_manipulation--><g id="link_logic_arc_int__baselibs__bit_manipulation_comp_arc_sta__baselibs__bit_manipulation"><path codeLine="32" d="M1865.7914,203.3169 C1883.8814,224.5469 1908.93,253.94 1927.04,275.19 " fill="transparent" id="logic_arc_int__baselibs__bit_manipulation-backto-comp_arc_sta__baselibs__bit_manipulation" style="stroke:#181818;stroke-width:1;"/><polygon fill="#181818" points="1861.9,198.75,1864.6926,208.1947,1865.1429,202.5558,1870.7818,203.0061,1861.9,198.75" style="stroke:#181818;stroke-width:1;"/><text fill="#000000" font-family="sans-serif" font-size="13" lengthAdjust="spacing" textLength="76.9082" x="1901.5" y="241.5669">implements</text></g><!--reverse link logic_arc_int__baselibs__bit_mask_operator to comp_arc_sta__baselibs__bit_manipulation--><g id="link_logic_arc_int__baselibs__bit_mask_operator_comp_arc_sta__baselibs__bit_manipulation"><path codeLine="33" d="M2159.7726,201.0009 C2110.5726,222.2709 2037.07,254.05 1987.83,275.34 " fill="transparent" id="logic_arc_int__baselibs__bit_mask_operator-backto-comp_arc_sta__baselibs__bit_manipulation" style="stroke:#181818;stroke-width:1;"/><polygon fill="#181818" points="2165.28,198.62,2155.4317,198.5198,2160.6905,200.6041,2158.6062,205.863,2165.28,198.62" style="stroke:#181818;stroke-width:1;"/><text fill="#000000" font-family="sans-serif" font-size="13" lengthAdjust="spacing" textLength="76.9082" x="2093.5" y="241.5669">implements</text></g><!--reverse link logic_arc_int__baselibs__message_passing to comp_arc_sta__baselibs__message_passing--><g id="link_logic_arc_int__baselibs__message_passing_comp_arc_sta__baselibs__message_passing"><path codeLine="34" d="M1485.5,204.75 C1485.5,225.98 1485.5,253.94 1485.5,275.19 " fill="transparent" id="logic_arc_int__baselibs__message_passing-backto-comp_arc_sta__baselibs__message_passing" style="stroke:#181818;stroke-width:1;"/><polygon fill="#181818" points="1485.5,198.75,1481.5,207.75,1485.5,203.75,1489.5,207.75,1485.5,198.75" style="stroke:#181818;stroke-width:1;"/><text fill="#000000" font-family="sans-serif" font-size="13" lengthAdjust="spacing" textLength="76.9082" x="1486.5" y="241.5669">implements</text></g><!--link Feature_User to logic_arc_int__baselibs__bit_mask_operator--><g id="link_Feature_User_logic_arc_int__baselibs__bit_mask_operator"><path codeLine="35" d="M3161.4,50.52 C3019.97,69.38 2586.9673,127.1466 2357.8773,157.7066 " fill="transparent" id="Feature_User-to-logic_arc_int__baselibs__bit_mask_operator" style="stroke:#181818;stroke-width:1;"/><polygon fill="#181818" points="2351.93,158.5,2361.3799,161.2748,2356.8861,157.8389,2360.3221,153.3451,2351.93,158.5" style="stroke:#181818;stroke-width:1;"/><text fill="#000000" font-family="sans-serif" font-size="13" lengthAdjust="spacing" textLength="23.0103" x="2679.5" y="124.5669">use</text></g><!--link Feature_User to logic_arc_int__baselibs__memory_shared--><g id="link_Feature_User_logic_arc_int__baselibs__memory_shared"><path codeLine="36" d="M3161.46,45.06 C2929.69,48.12 1848.18,64.39 964.5,111.5 C692.09,126.02 624.16,133.58 352.5,158.5 C346.31,159.07 345.9718,159.0788 339.6018,159.6988 " fill="transparent" id="Feature_User-to-logic_arc_int__baselibs__memory_shared" style="stroke:#181818;stroke-width:1;"/><polygon fill="#181818" points="333.63,160.28,342.9752,163.3893,338.6065,159.7956,342.2002,155.427,333.63,160.28" style="stroke:#181818;stroke-width:1;"/><text fill="#000000" font-family="sans-serif" font-size="13" lengthAdjust="spacing" textLength="23.0103" x="965.5" y="124.5669">use</text></g><!--reverse link logic_arc_int__baselibs__promise to comp_arc_sta__baselibs__concurrency--><g id="link_logic_arc_int__baselibs__promise_comp_arc_sta__baselibs__concurrency"><path codeLine="37" d="M5610.8163,197.1042 C5604.9763,197.8342 5605.16,197.8 5599.5,198.5 C5421.84,220.34 5377.51,226.71 5199.5,245.5 C5073.89,258.76 4931.11,272.02 4826.51,281.39 " fill="transparent" id="logic_arc_int__baselibs__promise-backto-comp_arc_sta__baselibs__concurrency" style="stroke:#181818;stroke-width:1;"/><polygon fill="#181818" points="5616.77,196.36,5607.3434,193.5072,5611.8086,196.9802,5608.3356,201.4454,5616.77,196.36" style="stroke:#181818;stroke-width:1;"/><text fill="#000000" font-family="sans-serif" font-size="13" lengthAdjust="spacing" textLength="76.9082" x="5352.5" y="241.5669">implements</text></g><!--reverse link logic_arc_int__baselibs__dynamic_array to comp_arc_sta__baselibs__containers--><g id="link_logic_arc_int__baselibs__dynamic_array_comp_arc_sta__baselibs__containers"><path codeLine="38" d="M1090.3623,201.5289 C1049.6223,222.8189 989.71,254.14 949.08,275.38 " fill="transparent" id="logic_arc_int__baselibs__dynamic_array-backto-comp_arc_sta__baselibs__containers" style="stroke:#181818;stroke-width:1;"/><polygon fill="#181818" points="1095.68,198.75,1085.8509,199.3733,1091.2486,201.0658,1089.5561,206.4635,1095.68,198.75" style="stroke:#181818;stroke-width:1;"/><text fill="#000000" font-family="sans-serif" font-size="13" lengthAdjust="spacing" textLength="76.9082" x="1037.5" y="241.5669">implements</text></g><!--link Feature_User to logic_arc_int__baselibs__intrusive_list--><g id="link_Feature_User_logic_arc_int__baselibs__intrusive_list"><path codeLine="39" d="M3161.44,46.15 C2978.02,52.94 2269.69,79.84 1687.5,111.5 C1364.19,129.08 1282.98,129.41 960.5,158.5 C954.79,159.01 954.9419,158.9901 949.0719,159.5601 " fill="transparent" id="Feature_User-to-logic_arc_int__baselibs__intrusive_list" style="stroke:#181818;stroke-width:1;"/><polygon fill="#181818" points="943.1,160.14,952.4445,163.2514,948.0766,159.6568,951.6713,155.2889,943.1,160.14" style="stroke:#181818;stroke-width:1;"/><text fill="#000000" font-family="sans-serif" font-size="13" lengthAdjust="spacing" textLength="23.0103" x="1688.5" y="124.5669">use</text></g><!--reverse link logic_arc_int__baselibs__shared_future to comp_arc_sta__baselibs__concurrency--><g id="link_logic_arc_int__baselibs__shared_future_comp_arc_sta__baselibs__concurrency"><path codeLine="40" d="M5305.5944,199.4717 C5221.5244,212.8317 5112.12,230.06 5010.5,245.5 C4943.87,255.62 4869.7,266.54 4808.21,275.49 " fill="transparent" id="logic_arc_int__baselibs__shared_future-backto-comp_arc_sta__baselibs__concurrency" style="stroke:#181818;stroke-width:1;"/><polygon fill="#181818" points="5311.52,198.53,5302.0038,195.9921,5306.582,199.3147,5303.2593,203.8929,5311.52,198.53" style="stroke:#181818;stroke-width:1;"/><text fill="#000000" font-family="sans-serif" font-size="13" lengthAdjust="spacing" textLength="76.9082" x="5114.5" y="241.5669">implements</text></g><!--link Feature_User to logic_arc_int__baselibs__json--><g id="link_Feature_User_logic_arc_int__baselibs__json"><path codeLine="41" d="M3206.5,81.55 C3206.5,106.45 3206.5,132.26 3206.5,152.26 " fill="transparent" id="Feature_User-to-logic_arc_int__baselibs__json" style="stroke:#181818;stroke-width:1;"/><polygon fill="#181818" points="3206.5,158.26,3210.5,149.26,3206.5,153.26,3202.5,149.26,3206.5,158.26" style="stroke:#181818;stroke-width:1;"/><text fill="#000000" font-family="sans-serif" font-size="13" lengthAdjust="spacing" textLength="23.0103" x="3207.5" y="124.5669">use</text></g><!--reverse link logic_arc_int__baselibs__intrusive_list to comp_arc_sta__baselibs__containers--><g id="link_logic_arc_int__baselibs__intrusive_list_comp_arc_sta__baselibs__containers"><path codeLine="42" d="M820.1805,202.9747 C841.5905,224.2047 871.58,253.94 893.02,275.19 " fill="transparent" id="logic_arc_int__baselibs__intrusive_list-backto-comp_arc_sta__baselibs__containers" style="stroke:#181818;stroke-width:1;"/><polygon fill="#181818" points="815.92,198.75,819.4943,207.9274,819.4704,202.2706,825.1272,202.2467,815.92,198.75" style="stroke:#181818;stroke-width:1;"/><text fill="#000000" font-family="sans-serif" font-size="13" lengthAdjust="spacing" textLength="76.9082" x="862.5" y="241.5669">implements</text></g><!--reverse link logic_arc_int__baselibs__utils_scoped_op to comp_arc_sta__baselibs__utils--><g id="link_logic_arc_int__baselibs__utils_scoped_op_comp_arc_sta__baselibs__utils"><path codeLine="43" d="M2854.9223,201.3603 C2813.4923,222.6303 2752.29,254.05 2710.83,275.34 " fill="transparent" id="logic_arc_int__baselibs__utils_scoped_op-backto-comp_arc_sta__baselibs__utils" style="stroke:#181818;stroke-width:1;"/><polygon fill="#181818" points="2860.26,198.62,2850.4266,199.1721,2855.812,200.9036,2854.0804,206.2889,2860.26,198.62" style="stroke:#181818;stroke-width:1;"/><text fill="#000000" font-family="sans-serif" font-size="13" lengthAdjust="spacing" textLength="76.9082" x="2800.5" y="241.5669">implements</text></g><!--link Feature_User to logic_arc_int__baselibs__result--><g id="link_Feature_User_logic_arc_int__baselibs__result"><path codeLine="44" d="M3161.34,45.61 C2953.28,50.84 2066.29,74.31 1339.5,111.5 C1025,127.59 945.82,126.86 632.5,158.5 C626.64,159.09 626.6112,159.059 620.5712,159.749 " fill="transparent" id="Feature_User-to-logic_arc_int__baselibs__result" style="stroke:#181818;stroke-width:1;"/><polygon fill="#181818" points="614.61,160.43,624.0058,163.3827,619.5777,159.8625,623.0978,155.4343,614.61,160.43" style="stroke:#181818;stroke-width:1;"/><text fill="#000000" font-family="sans-serif" font-size="13" lengthAdjust="spacing" textLength="23.0103" x="1340.5" y="124.5669">use</text></g><!--reverse link logic_arc_int__baselibs__result to comp_arc_sta__baselibs__result--><g id="link_logic_arc_int__baselibs__result_comp_arc_sta__baselibs__result"><path codeLine="45" d="M493.1582,204.7479 C493.7182,225.9779 494.44,253.94 495,275.19 " fill="transparent" id="logic_arc_int__baselibs__result-backto-comp_arc_sta__baselibs__result" style="stroke:#181818;stroke-width:1;"/><polygon fill="#181818" points="493,198.75,489.2387,207.8523,493.1318,203.7483,497.2359,207.6414,493,198.75" style="stroke:#181818;stroke-width:1;"/><text fill="#000000" font-family="sans-serif" font-size="13" lengthAdjust="spacing" textLength="76.9082" x="495.5" y="241.5669">implements</text></g><!--reverse link logic_arc_int__baselibs__memory_shared to comp_arc_sta__baselibs__memory_shared--><g id="link_logic_arc_int__baselibs__memory_shared_comp_arc_sta__baselibs__memory_shared"><path codeLine="46" d="M173.621,204.7464 C172.881,225.9764 171.91,253.94 171.17,275.19 " fill="transparent" id="logic_arc_int__baselibs__memory_shared-backto-comp_arc_sta__baselibs__memory_shared" style="stroke:#181818;stroke-width:1;"/><polygon fill="#181818" points="173.83,198.75,169.5189,207.6052,173.6558,203.747,177.5141,207.8839,173.83,198.75" style="stroke:#181818;stroke-width:1;"/><text fill="#000000" font-family="sans-serif" font-size="13" lengthAdjust="spacing" textLength="76.9082" x="174.5" y="241.5669">implements</text></g><!--link Feature_User to logic_arc_int__baselibs__utils_base64--><g id="link_Feature_User_logic_arc_int__baselibs__utils_base64"><path codeLine="47" d="M3161.45,53.75 C3056.19,75.35 2798.2274,128.2935 2657.0074,157.2835 " fill="transparent" id="Feature_User-to-logic_arc_int__baselibs__utils_base64" style="stroke:#181818;stroke-width:1;"/><polygon fill="#181818" points="2651.13,158.49,2660.7505,160.5985,2656.0279,157.4846,2659.1418,152.7619,2651.13,158.49" style="stroke:#181818;stroke-width:1;"/><text fill="#000000" font-family="sans-serif" font-size="13" lengthAdjust="spacing" textLength="23.0103" x="2864.5" y="124.5669">use</text></g><!--link Feature_User to logic_arc_int__baselibs__promise--><g id="link_Feature_User_logic_arc_int__baselibs__promise"><path codeLine="48" d="M3251.61,45.63 C3451.99,50.8 4281.47,73.48 4961.5,111.5 C5245.38,127.37 5316.61,129.94 5599.5,158.5 C5605.17,159.07 5604.9957,159.0364 5610.8357,159.6764 " fill="transparent" id="Feature_User-to-logic_arc_int__baselibs__promise" style="stroke:#181818;stroke-width:1;"/><polygon fill="#181818" points="5616.8,160.33,5608.2893,155.3734,5611.8298,159.7853,5607.4178,163.3258,5616.8,160.33" style="stroke:#181818;stroke-width:1;"/><text fill="#000000" font-family="sans-serif" font-size="13" lengthAdjust="spacing" textLength="23.0103" x="5249.5" y="124.5669">use</text></g><!--link Feature_User to logic_arc_int__baselibs__shared_future--><g id="link_Feature_User_logic_arc_int__baselibs__shared_future"><path codeLine="49" d="M3251.52,45.92 C3432.45,51.73 4124.22,75.23 4692.5,111.5 C4945.73,127.66 5008.95,133.88 5261.5,158.5 C5267.38,159.07 5267.4013,159.0583 5273.4513,159.6783 " fill="transparent" id="Feature_User-to-logic_arc_int__baselibs__shared_future" style="stroke:#181818;stroke-width:1;"/><polygon fill="#181818" points="5279.42,160.29,5270.8747,155.3933,5274.4461,159.7803,5270.0591,163.3517,5279.42,160.29" style="stroke:#181818;stroke-width:1;"/><text fill="#000000" font-family="sans-serif" font-size="13" lengthAdjust="spacing" textLength="23.0103" x="4929.5" y="124.5669">use</text></g><!--link Feature_User to logic_arc_int__baselibs__executor--><g id="link_Feature_User_logic_arc_int__baselibs__executor"><path codeLine="50" d="M3251.63,53.48 C3359.19,74.9 3626.6955,128.1582 3772.9255,157.2782 " fill="transparent" id="Feature_User-to-logic_arc_int__baselibs__executor" style="stroke:#181818;stroke-width:1;"/><polygon fill="#181818" points="3778.81,158.45,3770.7645,152.7693,3773.9063,157.4735,3769.2021,160.6152,3778.81,158.45" style="stroke:#181818;stroke-width:1;"/><text fill="#000000" font-family="sans-serif" font-size="13" lengthAdjust="spacing" textLength="23.0103" x="3621.5" y="124.5669">use</text></g><!--link Feature_User to logic_arc_int__baselibs__future--><g id="link_Feature_User_logic_arc_int__baselibs__future"><path codeLine="51" d="M3251.5,46.55 C3410.53,53.88 3960.84,80.06 4414.5,111.5 C4665.88,128.92 4729,131.22 4979.5,158.5 C4985.15,159.12 4984.9616,159.0648 4990.7916,159.7548 " fill="transparent" id="Feature_User-to-logic_arc_int__baselibs__future" style="stroke:#181818;stroke-width:1;"/><polygon fill="#181818" points="4996.75,160.46,4988.2825,155.4299,4991.7847,159.8723,4987.3422,163.3745,4996.75,160.46" style="stroke:#181818;stroke-width:1;"/><text fill="#000000" font-family="sans-serif" font-size="13" lengthAdjust="spacing" textLength="23.0103" x="4660.5" y="124.5669">use</text></g><!--reverse link logic_arc_int__baselibs__task_result to comp_arc_sta__baselibs__concurrency--><g id="link_logic_arc_int__baselibs__task_result_comp_arc_sta__baselibs__concurrency"><path codeLine="52" d="M4576.8359,202.812 C4599.9159,224.042 4632.41,253.94 4655.51,275.19 " fill="transparent" id="logic_arc_int__baselibs__task_result-backto-comp_arc_sta__baselibs__concurrency" style="stroke:#181818;stroke-width:1;"/><polygon fill="#181818" points="4572.42,198.75,4576.3359,207.7869,4576.0999,202.135,4581.7519,201.899,4572.42,198.75" style="stroke:#181818;stroke-width:1;"/><text fill="#000000" font-family="sans-serif" font-size="13" lengthAdjust="spacing" textLength="76.9082" x="4622.5" y="241.5669">implements</text></g><!--SRC=[hLOzRzmm3DtrAuJibnP5qI48iXJebB6T1LbcxjZemnMfD6xH_rxvV4dFbsiiEHvfKq_a8nyfRMtugHm-ejyA3fta89l079niCO9X35xii0L93142znsCDhYEUwcP8pQ9WSGrSM_XHbngGjl8t-8MFNmEDaGPeTrRNtTexZqGoG-NxyKVSVtkS4PemzdluWjeJX7aDu9u8JN9mmSrV912JCnDkxcHDcpHA1sDGizADPh0OaDAiQRxAva8f331TNiNOdtiaXWjoKrw3MRlixS_VRoIw3eB3ZpJ_r5Dy2R52DxqCzXtQKXcRTGnyHBCExH0VIwicmlqsN4AN56E77-BGpUf1nrHDnPcYbEUy3deXL4soCffZrsoUa0yn5Y1GBqtknWy_e9M_KYGe1vZgA2AGCdoQYJ18vYKDLRM6Tyf-1d0mMKnpwEgo8GkinIwUehQtckt_nLrlnf9vugtC4ENfvpUWkeqKPwjzHaUQ-xLz4vxTYR7borUqX2BBibTd0iSTN7RdP0sSyaBYjya-acmjSLou4Bi5UrqNdMhjMCNWqCgNn2iyuwDSnljH3eBISjcJ8GFe2pIUcDgPF3iPgm8RfnDSo6LqNMQQ4ajoXyMHoDmOQv5Us9qcede2QbCgKSDFwlJYJZUj3AU7cAr0dsMKlK-dpPaxV5_QxTw_X_VkCwhy6o5_m80]--></g></svg>